<?xml version="1.0" encoding="UTF-8"?>
<svg version="1.1" xmlns="http://www.w3.org/2000/svg" width="1000" height="1080">
<path d="M0 0 C330 0 660 0 1000 0 C1000 356.4 1000 712.8 1000 1080 C670 1080 340 1080 0 1080 C0 723.6 0 367.2 0 0 Z " fill="#FEFEFE" transform="translate(0,0)"/>
<path d="M0 0 C2.63728806 1.6647135 3.21788618 3.65658273 4.3515625 6.52734375 C4.95871094 8.01041016 4.95871094 8.01041016 5.578125 9.5234375 C8.48344495 18.54574061 9.01780701 27.11242565 8.99398804 36.55421448 C8.99773122 37.89541676 9.00233539 39.23661686 9.00771868 40.57781357 C9.01988198 44.23933807 9.01969614 47.90077075 9.01732993 51.56231081 C9.01692006 55.52092986 9.02797724 59.47952014 9.03744507 63.43812561 C9.05402023 71.18555359 9.05955307 78.93295113 9.06066982 86.68039537 C9.06162211 92.98293314 9.06574143 99.28546092 9.07207108 105.58799553 C9.08967529 123.48283711 9.09891143 141.37765475 9.09741013 159.27250505 C9.09729026 160.71796539 9.09729026 160.71796539 9.09716797 162.19262695 C9.09708621 163.15745308 9.09700445 164.1222792 9.09692021 165.11634248 C9.09610792 180.74032457 9.1152334 196.36421013 9.1434447 211.98816431 C9.17222733 228.05621617 9.18598199 244.12422103 9.18425715 260.19229931 C9.18359502 269.20297922 9.18900904 278.21355796 9.21061325 287.22421455 C9.22889616 294.89845598 9.23311451 302.57255038 9.2195944 310.24680424 C9.21309992 314.15582208 9.21281849 318.06455847 9.2303009 321.97354889 C9.33371303 346.66353246 8.50151185 369.00132488 -9.2734375 388.08984375 C-16.0025622 394.15524712 -23.39396378 398.74599581 -31.2734375 403.15234375 C-32.99666182 404.13113517 -34.71987842 405.10994049 -36.44262695 406.08956909 C-38.2154958 407.09633855 -39.99039851 408.09944545 -41.765625 409.10205078 C-47.29004372 412.22669526 -52.77953261 415.41197227 -58.2734375 418.58984375 C-60.44256196 419.84139956 -62.61183311 421.09270116 -64.78125 422.34375 C-69.08945401 424.82915277 -73.39666539 427.31626352 -77.703125 429.8046875 C-89.46550323 436.59945939 -101.24359257 443.36577531 -113.04138184 450.09881592 C-124.73411367 456.7726998 -136.39855082 463.49506657 -148.05566406 470.23095703 C-154.54468846 473.97962409 -161.036807 477.72293042 -167.52832031 481.46728516 C-172.92092064 484.57802714 -178.31281572 487.68997702 -183.703125 490.8046875 C-194.32729753 496.94182706 -204.96164387 503.06003445 -215.61975098 509.13800049 C-225.88449242 514.9917421 -236.11862708 520.89473184 -246.31884766 526.86035156 C-256.98987572 533.09978326 -267.69173691 539.28473965 -278.41210938 545.43896484 C-280.94206148 546.89865222 -283.46132094 548.37454627 -285.9765625 549.859375 C-296.18500506 555.83700118 -307.18364946 561.73911611 -319.2734375 562.08984375 C-320.99433594 562.20005859 -320.99433594 562.20005859 -322.75 562.3125 C-346.16165799 563.41778389 -364.99122403 550.14774805 -384.34765625 538.60546875 C-390.54062214 534.91885936 -396.77724003 531.31034594 -403.0234375 527.71484375 C-404.11213135 527.08811768 -405.2008252 526.4613916 -406.32250977 525.81567383 C-408.53744668 524.54107876 -410.75253499 523.26674673 -412.96777344 521.99267578 C-416.21992063 520.12064954 -419.4697752 518.2447134 -422.71875 516.3671875 C-433.88772448 509.91336081 -445.07002683 503.48367036 -456.2734375 497.08984375 C-470.70469539 488.85387316 -485.0959998 480.54935507 -499.48242188 472.23535156 C-511.73002355 465.15854585 -523.98818868 458.10107928 -536.2734375 451.08984375 C-548.55585039 444.0802267 -560.81101545 437.02411955 -573.05566406 429.94873047 C-577.37682264 427.45242535 -581.69941843 424.9586171 -586.02246094 422.46557617 C-588.17999116 421.22073503 -590.33689849 419.97481365 -592.49316406 418.7277832 C-597.48703323 415.84115144 -602.48531552 412.96375569 -607.50628662 410.12445068 C-609.25827088 409.13306767 -611.00830362 408.13832199 -612.7578125 407.14257812 C-614.93373382 405.90546157 -617.11313988 404.67444285 -619.296875 403.45117188 C-631.82429136 396.30763871 -644.21634282 388.04572577 -651.2734375 375.08984375 C-651.2734375 374.42984375 -651.2734375 373.76984375 -651.2734375 373.08984375 C-650.28573364 372.55327148 -650.28573364 372.55327148 -649.27807617 372.00585938 C-632.71213079 362.99029955 -616.28552606 353.73935708 -600.01489258 344.20117188 C-592.78512342 339.9637881 -585.52236247 335.78882373 -578.23681641 331.64819336 C-573.42960064 328.91056039 -568.64342083 326.14068129 -563.875 323.3359375 C-562.79669922 322.70236328 -561.71839844 322.06878906 -560.60742188 321.41601562 C-558.52066632 320.18783996 -556.43591465 318.95625098 -554.35351562 317.72070312 C-549.42362239 314.82017691 -544.60289333 312.17560571 -539.2734375 310.08984375 C-535.5807019 315.30583278 -531.95830109 320.55301574 -528.4609375 325.90234375 C-521.66558572 336.10843941 -514.18573768 345.44215518 -505.8046875 354.37109375 C-503.66528232 356.66897338 -501.6132476 359.00643182 -499.5859375 361.40234375 C-496.12878914 365.37196351 -492.29620104 368.70721846 -488.2734375 372.08984375 C-487.34917969 372.90195312 -486.42492187 373.7140625 -485.47265625 374.55078125 C-451.22438803 404.49480141 -407.89011443 424.60536081 -362.9609375 431.65234375 C-362.19587891 431.77802734 -361.43082031 431.90371094 -360.64257812 432.03320312 C-348.45453311 433.96188299 -336.2770089 434.32890242 -323.9609375 434.33984375 C-322.77298584 434.34135437 -322.77298584 434.34135437 -321.56103516 434.34289551 C-308.25890058 434.33150899 -295.38352476 433.46073699 -282.2734375 431.08984375 C-280.96850342 430.86506348 -280.96850342 430.86506348 -279.63720703 430.63574219 C-268.20170525 428.64420167 -257.23919299 425.8736641 -246.2734375 422.08984375 C-245.45681641 421.81688477 -244.64019531 421.54392578 -243.79882812 421.26269531 C-201.95519856 407.22693373 -162.00911861 381.63604833 -134.40234375 346.76953125 C-133.02742257 345.03889652 -131.62020875 343.33321752 -130.17578125 341.66015625 C-124.99894421 335.62834249 -120.60701814 329.24718558 -116.2734375 322.58984375 C-115.6969043 321.70433838 -115.12037109 320.81883301 -114.52636719 319.90649414 C-111.46733938 315.21259549 -111.46733938 315.21259549 -109.2734375 310.08984375 C-109.90636719 309.868125 -110.53929687 309.64640625 -111.19140625 309.41796875 C-115.51764391 307.55368383 -119.51153283 305.19667774 -123.5859375 302.83984375 C-124.50673096 302.31044189 -125.42752441 301.78104004 -126.3762207 301.2355957 C-134.26292244 296.69340165 -142.12296464 292.10532999 -149.98022461 287.51245117 C-159.50715942 281.94513677 -169.06317608 276.42899689 -178.625 270.921875 C-182.6428157 268.60777114 -186.65819176 266.28956192 -190.67007446 263.9651947 C-193.0482974 262.58734872 -195.4272447 261.2107559 -197.80621338 259.834198 C-199.47940542 258.86534042 -201.151582 257.89472984 -202.82373047 256.92407227 C-204.35344482 256.03933228 -204.35344482 256.03933228 -205.9140625 255.13671875 C-206.80641602 254.61948242 -207.69876953 254.10224609 -208.61816406 253.56933594 C-211.46181207 251.9848833 -214.35215481 250.52532931 -217.2734375 249.08984375 C-217.50933594 249.78722656 -217.74523437 250.48460937 -217.98828125 251.203125 C-219.50441095 254.60865646 -221.54299184 257.37175914 -223.8359375 260.27734375 C-224.28138916 260.84614258 -224.72684082 261.41494141 -225.18579102 262.00097656 C-243.7974474 285.54031569 -268.1464939 301.05037741 -297.2734375 308.08984375 C-297.99208984 308.27603271 -298.71074219 308.46222168 -299.45117188 308.65405273 C-307.20476378 310.46596339 -314.98122058 310.44519712 -322.8984375 310.40234375 C-323.61097687 310.4001886 -324.32351624 310.39803345 -325.05764771 310.39581299 C-335.40018089 310.34551266 -345.26737633 310.0380582 -355.2734375 307.08984375 C-356.26923828 306.79980469 -356.26923828 306.79980469 -357.28515625 306.50390625 C-377.64051829 300.40858527 -394.87064209 289.6411025 -410.2734375 275.08984375 C-411.03527344 274.39246094 -411.79710937 273.69507813 -412.58203125 272.9765625 C-431.45471564 255.08512686 -442.34491911 229.39169997 -446.2734375 204.08984375 C-446.40621094 203.30480469 -446.53898438 202.51976562 -446.67578125 201.7109375 C-451.14040906 170.45854284 -441.50208431 139.17450733 -423.50927734 113.73486328 C-419.8248549 108.83054909 -415.5499416 104.47279085 -411.2734375 100.08984375 C-410.56832031 99.31125 -409.86320313 98.53265625 -409.13671875 97.73046875 C-391.61602051 78.90823292 -362.96788842 65.28159862 -337.2824707 63.87060547 C-333.50200116 63.74834902 -329.72392155 63.71845219 -325.94165039 63.71923828 C-323.6068318 63.71488273 -321.2739372 63.67849612 -318.93945312 63.640625 C-304.95963189 63.53490526 -292.52601696 66.4948881 -279.4609375 71.46484375 C-278.65889893 71.76737061 -277.85686035 72.06989746 -277.03051758 72.3815918 C-253.36103336 81.5117631 -230.69632136 99.72865279 -218.2734375 122.08984375 C-218.2734375 122.74984375 -218.2734375 123.40984375 -218.2734375 124.08984375 C-211.01005973 120.14943729 -203.77916767 116.15688071 -196.5859375 112.08984375 C-195.59827393 111.53151855 -194.61061035 110.97319336 -193.59301758 110.39794922 C-184.49778214 105.24190053 -175.4691866 99.97489792 -166.4453125 94.6953125 C-156.82709985 89.0703482 -147.17744345 83.50012264 -137.51464844 77.95214844 C-135.32134688 76.69194173 -133.12932388 75.4295076 -130.93847656 74.16503906 C-127.74130366 72.32098738 -124.53932665 70.48557041 -121.3359375 68.65234375 C-120.36454834 68.09023193 -119.39315918 67.52812012 -118.39233398 66.94897461 C-117.05150757 66.18532593 -117.05150757 66.18532593 -115.68359375 65.40625 C-114.90121338 64.95709229 -114.11883301 64.50793457 -113.31274414 64.04516602 C-111.2734375 63.08984375 -111.2734375 63.08984375 -108.2734375 63.08984375 C-108.2734375 62.42984375 -108.2734375 61.76984375 -108.2734375 61.08984375 C-106.68229167 60.171875 -105.09114583 59.25390625 -103.5 58.3359375 C-101.94091919 57.43645386 -101.94091919 57.43645386 -100.3503418 56.51879883 C-98.01850569 55.1735278 -95.68664188 53.82830493 -93.35473633 52.4831543 C-87.40107445 49.04871393 -81.44789872 45.61343915 -75.49609375 42.17578125 C-64.76956794 35.98151166 -54.03531099 29.80180073 -43.27563477 23.6652832 C-34.85573002 18.8595714 -26.45940797 14.0131694 -18.06445312 9.1640625 C-16.02308425 7.98494158 -13.9799088 6.80894035 -11.93457031 5.63671875 C-10.31007853 4.69242702 -8.69663567 3.72833625 -7.10449219 2.73046875 C-4.6961324 1.23659502 -2.8715124 0.11347901 0 0 Z " fill="#3A0192" transform="translate(825.2734375,312.91015625)"/>
<path d="M0 0 C0.8907019 -0.00367584 1.78140381 -0.00735168 2.69909668 -0.01113892 C20.13316728 -0.04866218 36.71132958 1.42136218 53.6875 5.5625 C54.3305307 5.71722778 54.9735614 5.87195557 55.63607788 6.03137207 C100.77872904 16.9060373 140.27540087 38.14131871 173.75 70.3125 C174.29543457 70.83070313 174.84086914 71.34890625 175.40283203 71.8828125 C183.12154391 79.24130272 190.00369502 86.94206965 196.38525391 95.48583984 C197.80123736 97.38107923 199.23430615 99.26264091 200.66796875 101.14453125 C206.02572467 108.24488003 210.73970762 115.34402112 214.75 123.3125 C208.0207176 127.98614231 201.04715314 132.04820065 193.875 136 C191.63613492 137.24374129 189.39785813 138.48854213 187.16015625 139.734375 C186.06590332 140.34345703 184.97165039 140.95253906 183.84423828 141.58007812 C177.29726384 145.24563995 170.8217337 149.0339339 164.33789062 152.80957031 C160.3586393 155.12053929 156.37028698 157.41566007 152.3828125 159.71240234 C142.34610565 165.49384068 132.32057114 171.29411817 122.3125 177.125 C121.29389893 177.71772705 120.27529785 178.3104541 119.22583008 178.92114258 C118.28634521 179.46923584 117.34686035 180.0173291 116.37890625 180.58203125 C115.55463135 181.06260986 114.73035645 181.54318848 113.88110352 182.03833008 C112.13970715 183.07949718 110.43815812 184.18706125 108.75 185.3125 C107.76 185.3125 106.77 185.3125 105.75 185.3125 C104.3125 183.36328125 104.3125 183.36328125 102.75 180.625 C85.59522972 152.58632084 57.73590897 136.3067117 26.69628906 127.74609375 C18.32865353 125.75464628 9.79916618 125.91390766 1.25 125.9375 C0.0424707 125.93931274 0.0424707 125.93931274 -1.18945312 125.94116211 C-12.96173997 125.98923619 -24.05167584 126.34879565 -35.25 130.3125 C-36.04712402 130.58626465 -36.84424805 130.8600293 -37.66552734 131.14208984 C-70.28381417 142.59854124 -96.35423037 165.21493652 -111.40234375 196.45117188 C-113.74850403 201.60299388 -115.5571705 206.91741362 -117.25 212.3125 C-117.54648437 213.23417969 -117.84296875 214.15585937 -118.1484375 215.10546875 C-125.24947428 238.90448806 -123.85400711 266.10025062 -115.25 289.3125 C-114.89164063 290.27929688 -114.53328125 291.24609375 -114.1640625 292.2421875 C-101.39905841 324.54021798 -78.02675461 348.30876132 -46.25 362.3125 C-31.06605968 368.27972946 -16.12504494 370.75532844 0.1875 370.75 C0.88632294 370.7510675 1.58514587 370.75213501 2.30514526 370.75323486 C14.64326341 370.72616255 26.02346792 369.27363625 37.75 365.3125 C38.43787598 365.08256348 39.12575195 364.85262695 39.83447266 364.61572266 C55.07299257 359.35245484 68.39490316 351.55335567 80.75 341.3125 C81.54921875 340.67828125 82.3484375 340.0440625 83.171875 339.390625 C92.73338533 331.45660579 100.1868357 320.78033166 106.75 310.3125 C111.46761412 310.86962776 114.9686975 312.99971935 118.9375 315.4375 C120.46011723 316.35292822 121.98361336 317.2668956 123.5078125 318.1796875 C124.3421582 318.68081055 125.17650391 319.18193359 126.03613281 319.69824219 C131.09626109 322.70809899 136.20786855 325.62899058 141.3125 328.5625 C152.80914669 335.18294532 164.27545022 341.85402921 175.72949219 348.54785156 C180.98468393 351.61805249 186.24250535 354.68374491 191.5 357.75 C193.39063661 358.85284468 195.28126201 359.95570858 197.171875 361.05859375 C198.52055664 361.84532471 198.52055664 361.84532471 199.89648438 362.64794922 C204.84765625 365.53613281 209.79882812 368.42431641 214.75 371.3125 C214.19168433 375.04590422 213.23241689 377.5080494 211.08984375 380.60546875 C210.5477124 381.39542236 210.00558105 382.18537598 209.44702148 382.99926758 C208.57605835 384.23713013 208.57605835 384.23713013 207.6875 385.5 C206.79623413 386.78136841 206.79623413 386.78136841 205.88696289 388.08862305 C201.72821752 394.02523914 197.44384816 399.78615801 192.75 405.3125 C191.85127571 406.39559543 190.95286184 407.47894847 190.0546875 408.5625 C179.96289967 420.63779992 169.20471631 431.65374041 156.75 441.3125 C155.43733232 442.35395535 154.12484513 443.39563822 152.8125 444.4375 C143.84015731 451.49927604 134.75386494 457.81215433 124.75 463.3125 C123.90695312 463.78042969 123.06390625 464.24835938 122.1953125 464.73046875 C108.77112543 472.12708174 95.25501234 478.35614832 80.75 483.3125 C79.665979 483.6849585 79.665979 483.6849585 78.56005859 484.06494141 C62.33788521 489.56120724 45.71904434 493.07424059 28.75 495.3125 C27.67588867 495.45933228 27.67588867 495.45933228 26.58007812 495.60913086 C18.90747497 496.5241296 11.20897332 496.49860027 3.49365234 496.49780273 C1.15052756 496.49997632 -1.19211508 496.51815432 -3.53515625 496.53710938 C-13.61673761 496.57418377 -23.27144741 495.74191569 -33.25 494.3125 C-35.66609575 494.03662 -38.08269975 493.76511878 -40.5 493.5 C-64.44032314 490.23769181 -87.61586537 481.84195107 -109.25 471.3125 C-109.98702148 470.95430176 -110.72404297 470.59610352 -111.48339844 470.22705078 C-131.58415461 460.32173905 -150.07634754 447.30688238 -166.3984375 431.9765625 C-169.07764019 429.47352656 -171.80906463 427.04569394 -174.5625 424.625 C-178.83395935 420.78136568 -182.58196745 416.7267062 -186.25 412.3125 C-186.98605469 411.46429687 -187.72210938 410.61609375 -188.48046875 409.7421875 C-209.93695662 384.70393297 -225.92838497 355.6116772 -236.25 324.3125 C-236.5910376 323.31089844 -236.5910376 323.31089844 -236.93896484 322.2890625 C-240.11948882 312.85700313 -242.16252075 303.27682659 -244 293.5 C-244.21092285 292.37916016 -244.4218457 291.25832031 -244.63916016 290.10351562 C-247.2082248 275.81454246 -247.52530427 261.66639524 -247.5625 247.1875 C-247.56511841 246.21228394 -247.56773682 245.23706787 -247.57043457 244.2322998 C-247.57492973 228.5795153 -246.64954238 213.64452504 -243.25 198.3125 C-243.0845166 197.54212402 -242.9190332 196.77174805 -242.74853516 195.97802734 C-241.73935433 191.37447566 -240.54507687 186.84526904 -239.25 182.3125 C-238.94594238 181.23186279 -238.94594238 181.23186279 -238.63574219 180.12939453 C-228.70793187 144.93010953 -211.0522616 114.62739627 -188.25 86.3125 C-187.60417969 85.50941406 -186.95835937 84.70632813 -186.29296875 83.87890625 C-184.99737672 82.3122171 -183.63335451 80.80226639 -182.25 79.3125 C-181.59 79.3125 -180.93 79.3125 -180.25 79.3125 C-180.02183594 78.75949219 -179.79367187 78.20648438 -179.55859375 77.63671875 C-174.54614069 68.73400362 -164.14195611 61.49021974 -156.25 55.3125 C-155.26515625 54.52230469 -154.2803125 53.73210937 -153.265625 52.91796875 C-144.66643539 46.08382609 -135.58770704 40.08636782 -126.25 34.3125 C-125.65606445 33.94382812 -125.06212891 33.57515625 -124.45019531 33.1953125 C-99.77829473 18.04764821 -71.58516048 8.666543 -43.25 3.3125 C-42.45609863 3.15023926 -41.66219727 2.98797852 -40.84423828 2.82080078 C-27.31432825 0.12150434 -13.74336182 0.02719108 0 0 Z " fill="#FEFEFE" transform="translate(501.25,251.6875)"/>
<path d="M0 0 C1.08547119 0.6175415 2.17094238 1.23508301 3.28930664 1.87133789 C6.49029777 3.69606544 9.68375864 5.53328601 12.875 7.375 C13.72400879 7.86307129 14.57301758 8.35114258 15.44775391 8.85400391 C19.26829022 11.05087175 23.0822921 13.25861059 26.890625 15.4765625 C32.76979307 18.90008784 38.66722184 22.29181978 44.5625 25.6875 C52.97443119 30.53528204 61.36986324 35.40998715 69.75 40.3125 C87.09563624 50.45213997 104.55868 60.38637479 122.0625 70.25 C129.26793557 74.31078685 136.42948483 78.43452067 143.54589844 82.64916992 C148.93903636 85.83863947 154.36867647 88.9604244 159.8125 92.0625 C177.1606542 101.9502901 194.44769567 111.94219163 211.68139648 122.02807617 C218.29961555 125.89363752 224.94711725 129.70438975 231.61010742 133.49194336 C237.37485621 136.76928318 243.12759473 140.06733857 248.875 143.375 C249.80231934 143.90786621 250.72963867 144.44073242 251.68505859 144.98974609 C264.63552173 152.48221605 276.241772 160.04100679 283.875 173.375 C281.20108838 175.15760775 278.51890288 176.72317464 275.7109375 178.28125 C274.6804126 178.85480225 273.6498877 179.42835449 272.58813477 180.01928711 C271.48655029 180.63167236 270.38496582 181.24405762 269.25 181.875 C261.93895447 185.95397943 254.63848332 190.04167253 247.4375 194.3125 C240.50656903 198.42307062 233.54291488 202.47397308 226.5625 206.5 C225.47348389 207.12817627 224.38446777 207.75635254 223.26245117 208.40356445 C217.26997301 211.85570102 211.27008237 215.29436133 205.26171875 218.71875 C204.63184555 219.07790497 204.00197235 219.43705994 203.35301208 219.80709839 C200.30788407 221.54319473 197.26173129 223.27744215 194.21362305 225.00830078 C189.48302503 227.70232924 184.78026416 230.39950778 180.1953125 233.3359375 C176.875 235.375 176.875 235.375 174.875 235.375 C174.875 236.035 174.875 236.695 174.875 237.375 C172.15153348 236.01326674 171.79001779 234.47108921 170.4375 231.75 C166.34918307 224.06316449 161.15339026 217.27026519 155.875 210.375 C155.18148437 209.46492187 154.48796875 208.55484375 153.7734375 207.6171875 C142.2022722 192.80800064 128.78102378 178.83055531 113.875 167.375 C113.33037109 166.95395996 112.78574219 166.53291992 112.22460938 166.09912109 C102.23332098 158.42063094 91.76624748 151.7020108 80.875 145.375 C79.9483252 144.83214355 79.9483252 144.83214355 79.00292969 144.27832031 C57.98882278 132.09876307 35.38218724 124.9232193 11.875 119.375 C10.7602832 119.1054248 9.64556641 118.83584961 8.49707031 118.55810547 C-7.73930119 114.82472065 -23.95343399 113.96245124 -40.5625 114 C-41.47642517 114.00054382 -42.39035034 114.00108765 -43.33197021 114.00164795 C-58.90533545 114.04401754 -73.85247297 115.11024749 -89.125 118.375 C-90.15705566 118.59462402 -91.18911133 118.81424805 -92.25244141 119.04052734 C-137.88455524 129.06044605 -188.91247142 152.38753739 -218.83203125 189.69140625 C-219.58871094 190.57699219 -220.34539062 191.46257812 -221.125 192.375 C-221.785 192.375 -222.445 192.375 -223.125 192.375 C-223.37636719 192.94992187 -223.62773437 193.52484375 -223.88671875 194.1171875 C-225.28747136 196.67124115 -226.91340058 198.40455014 -228.9375 200.5 C-243.73080273 216.69652598 -254.80839632 235.86321641 -264.24755859 255.55517578 C-265.05062659 257.22074863 -265.87764654 258.87471792 -266.70703125 260.52734375 C-276.08478183 279.75296962 -281.79604887 301.30231258 -285.125 322.375 C-285.38313477 323.89613403 -285.38313477 323.89613403 -285.64648438 325.44799805 C-287.23489033 335.76203797 -287.43196002 345.89897361 -287.38574219 356.31665039 C-287.37505461 359.17290665 -287.38568097 362.02852873 -287.3984375 364.88476562 C-287.43359018 405.5915704 -276.57412621 443.00293055 -258.18139648 479.18383789 C-257.125 481.375 -257.125 481.375 -256.125 484.375 C-279.36783843 497.99639793 -279.36783843 497.99639793 -288.125 502.875 C-294.65735859 506.5146652 -301.11208626 510.27974475 -307.5625 514.0625 C-316.00983811 519.01390149 -324.50818676 523.86086139 -333.0625 528.625 C-349.34682654 537.57670723 -349.34682654 537.57670723 -365.125 547.375 C-366.445 547.375 -367.765 547.375 -369.125 547.375 C-374.44996252 535.44326703 -376.72823213 524.27380384 -376.63293457 511.22669983 C-376.63755864 509.87221579 -376.64392154 508.51773679 -376.65184355 507.16326803 C-376.66835405 503.48819143 -376.66037529 499.81353679 -376.64789867 496.1384598 C-376.63877439 492.1567578 -376.65285419 488.17512375 -376.66381836 484.19343567 C-376.68153064 476.41155686 -376.67779616 468.62983307 -376.6661678 460.84794838 C-376.65710423 454.51833922 -376.65592207 448.18877326 -376.66026306 441.85915947 C-376.66087599 440.9554929 -376.66148893 440.05182633 -376.66212043 439.12077592 C-376.66339944 437.28451462 -376.6646963 435.44825333 -376.6660108 433.61199205 C-376.67739541 416.42513769 -376.66433658 399.23836889 -376.64280933 382.05152857 C-376.62494332 367.332568 -376.62804248 352.61373367 -376.64648438 337.89477539 C-376.66793388 320.76755255 -376.67629378 303.64040458 -376.66403532 286.51317018 C-376.66276124 284.68366557 -376.66150375 282.85416094 -376.66026306 281.0246563 C-376.65964596 280.12470434 -376.65902886 279.22475238 -376.65839306 278.29752915 C-376.65495215 271.98248924 -376.66074128 265.66749717 -376.67018127 259.35246468 C-376.68144824 251.64646023 -376.67826328 243.94061857 -376.6570583 236.23463256 C-376.64661017 232.30951367 -376.64231811 228.38466529 -376.65565491 224.45954895 C-376.72940936 200.72918042 -376.29665758 178.95376573 -358.67822266 160.79882812 C-351.08403467 153.58950527 -342.01124277 148.36025986 -332.9375 143.25 C-331.21697269 142.26984389 -329.49645379 141.28967245 -327.77656555 140.30839539 C-326.60780821 139.64185794 -325.43860807 138.97609634 -324.26896667 138.31111145 C-318.50245497 135.03079979 -312.78299483 131.67214064 -307.0625 128.3125 C-299.03295333 123.60848104 -290.94716966 119.0195448 -282.8125 114.5 C-273.21417212 109.16591665 -263.74472365 103.64324144 -254.31439209 98.0201416 C-247.29793507 93.8365726 -240.2650644 89.70649371 -233.12231445 85.74267578 C-227.11224176 82.39734993 -221.18378763 78.91591132 -215.25 75.4375 C-208.25044224 71.33688087 -201.23443295 67.28221329 -194.125 63.375 C-186.12060227 58.97481508 -178.23874725 54.37744445 -170.359375 49.7578125 C-163.48299988 45.73282934 -156.57055015 41.77926455 -149.625 37.875 C-140.81123858 32.91754126 -132.05839202 27.86404588 -123.33178711 22.75488281 C-114.70138407 17.70328087 -106.04426226 12.69907572 -97.37084961 7.72167969 C-92.61688355 4.98909352 -87.87644592 2.24515538 -83.19921875 -0.6171875 C-54.58985798 -18.08584125 -28.88608132 -16.6837453 0 0 Z " fill="#A179DB" transform="translate(542.125,138.625)"/>
<path d="M0 0 C330 0 660 0 1000 0 C1000 26.4 1000 52.8 1000 80 C670 80 340 80 0 80 C0 53.6 0 27.2 0 0 Z " fill="#111224" transform="translate(0,1000)"/>
<path d="M0 0 C4.09632685 3.77064715 6.81131071 7.65890518 9.625 12.4375 C16.72263035 24.10564519 25.17480658 34.37355002 34.50390625 44.31640625 C36.63059822 46.60284973 38.67072561 48.92987084 40.6875 51.3125 C44.14464836 55.28211976 47.97723646 58.61737471 52 62 C52.92425781 62.81210937 53.84851563 63.62421875 54.80078125 64.4609375 C89.04904947 94.40495766 132.38332307 114.51551706 177.3125 121.5625 C178.46008789 121.75102539 178.46008789 121.75102539 179.63085938 121.94335938 C191.81890439 123.87203924 203.9964286 124.23905867 216.3125 124.25 C217.50045166 124.25151062 217.50045166 124.25151062 218.71240234 124.25305176 C232.01453692 124.24166524 244.88991274 123.37089324 258 121 C258.86995605 120.85014648 259.73991211 120.70029297 260.63623047 120.54589844 C272.07173225 118.55435792 283.03424451 115.78382035 294 112 C294.81662109 111.72704102 295.63324219 111.45408203 296.47460938 111.17285156 C338.32572384 97.13457929 378.25847068 71.54164952 405.875 36.67578125 C407.23820217 34.9592491 408.63196233 33.26630131 410.0625 31.60546875 C416.15858897 24.4896296 421.20276036 16.81722453 426.21557617 8.90869141 C426.79154541 8.01714355 427.36751465 7.1255957 427.9609375 6.20703125 C428.47446777 5.3972583 428.98799805 4.58748535 429.51708984 3.75317383 C430.0064502 3.17462646 430.49581055 2.5960791 431 2 C434 2 434 2 437 3 C437 3.66 437 4.32 437 5 C438.98 5.66 440.96 6.32 443 7 C443 7.66 443 8.32 443 9 C443.7425 8.9175 444.485 8.835 445.25 8.75 C448 9 448 9 449.6875 10.75 C452.66940304 13.65131106 455.74156871 14.61226704 459.59375 16.0625 C463.018329 17.39675156 465.94397306 18.89997193 468.5 21.5625 C470.4459815 23.42739894 472.48047812 24.11476258 475 25 C475 25.66 475 26.32 475 27 C476.134375 27.268125 477.26875 27.53625 478.4375 27.8125 C479.613125 28.204375 480.78875 28.59625 482 29 C482.33 29.99 482.66 30.98 483 32 C483.763125 32.144375 484.52625 32.28875 485.3125 32.4375 C488 33 488 33 491 34 C491 34.66 491 35.32 491 36 C493.65228812 37.07525194 496.28368454 38.09456151 499 39 C499 39.66 499 40.32 499 41 C499.53109375 41.10183594 500.0621875 41.20367188 500.609375 41.30859375 C503.7021784 42.20308101 506.38451568 43.59861127 509.25 45.0625 C510.32765625 45.61035156 511.4053125 46.15820312 512.515625 46.72265625 C513.33546875 47.14417969 514.1553125 47.56570313 515 48 C515 48.66 515 49.32 515 50 C515.969375 50.226875 516.93875 50.45375 517.9375 50.6875 C522.64589993 52.02587953 526.93918451 54.28117075 531 57 C531.33 57.66 531.66 58.32 532 59 C533.7325 59.680625 533.7325 59.680625 535.5 60.375 C539 62 539 62 539.921875 63.77734375 C540.03765001 67.07114273 538.68055085 68.55389421 536.75 71.1875 C535.81414062 72.50814453 535.81414062 72.50814453 534.859375 73.85546875 C527.82462672 82.20409456 518.36169988 87.88804462 508.9375 93.125 C507.22096868 94.09701171 505.50444666 95.06904032 503.78848267 96.04205322 C502.0246306 97.04059846 500.25836343 98.03476049 498.49169922 99.02832031 C492.96837535 102.14011143 487.48690319 105.32459893 482 108.5 C479.83090538 109.75160751 477.66163418 111.00290907 475.4921875 112.25390625 C471.18398349 114.73930902 466.87677211 117.22641977 462.5703125 119.71484375 C450.80793427 126.50961564 439.02984493 133.27593156 427.23205566 140.00897217 C415.53932383 146.68285605 403.87488668 153.40522282 392.21777344 160.14111328 C385.72874904 163.88978034 379.2366305 167.63308667 372.74511719 171.37744141 C367.35251686 174.48818339 361.96062178 177.60013327 356.5703125 180.71484375 C345.94613997 186.85198331 335.31179363 192.9701907 324.65368652 199.04815674 C314.38894508 204.90189835 304.15481042 210.80488809 293.95458984 216.77050781 C283.28356178 223.00993951 272.58170059 229.1948959 261.86132812 235.34912109 C259.33137602 236.80880847 256.81211656 238.28470252 254.296875 239.76953125 C244.08843244 245.74715743 233.08978804 251.64927236 221 252 C219.85273438 252.07347656 218.70546875 252.14695312 217.5234375 252.22265625 C194.11177951 253.32794014 175.28221347 240.0579043 155.92578125 228.515625 C149.73281536 224.82901561 143.49619747 221.22050219 137.25 217.625 C136.16130615 216.99827393 135.0726123 216.37154785 133.95092773 215.72583008 C131.73599082 214.45123501 129.52090251 213.17690298 127.30566406 211.90283203 C124.05351687 210.03080579 120.8036623 208.15486965 117.5546875 206.27734375 C106.38571302 199.82351706 95.20341067 193.39382661 84 187 C69.56874211 178.76402941 55.1774377 170.45951132 40.79101562 162.14550781 C28.54341395 155.0687021 16.28524882 148.01123553 4 141 C-8.28241289 133.99038295 -20.53757795 126.9342758 -32.78222656 119.85888672 C-37.10338514 117.3625816 -41.42598093 114.86877335 -45.74902344 112.37573242 C-47.90655366 111.13089128 -50.06346099 109.8849699 -52.21972656 108.63793945 C-57.21359573 105.75130769 -62.21187802 102.87391194 -67.23284912 100.03460693 C-68.98483338 99.04322392 -70.73486612 98.04847824 -72.484375 97.05273438 C-74.66029632 95.81561782 -76.83970238 94.5845991 -79.0234375 93.36132812 C-91.55085386 86.21779496 -103.94290532 77.95588202 -111 65 C-111 64.34 -111 63.68 -111 63 C-110.34153076 62.64228516 -109.68306152 62.28457031 -109.00463867 61.91601562 C-92.43869329 52.9004558 -76.01208856 43.64951333 -59.74145508 34.11132812 C-52.51222458 29.87426006 -45.24902325 25.70137581 -37.96557617 21.55834961 C-29.93555186 16.98232947 -21.95779821 12.31800308 -13.9921875 7.63085938 C-9.39180995 4.93333705 -4.81754115 2.29057371 0 0 Z " fill="#290068" transform="translate(285,623)"/>
<path d="M0 0 C2.33481859 -0.00435555 4.66771319 -0.04074216 7.00219727 -0.07861328 C20.9820185 -0.18433302 33.41563343 2.77564982 46.48071289 7.74560547 C47.68377075 8.19939575 47.68377075 8.19939575 48.91113281 8.66235352 C72.02281367 17.57736 96.08381776 36.000739 107.66821289 58.37060547 C107.49194336 60.45239258 107.49194336 60.45239258 106.66821289 62.37060547 C105.20385742 63.56811523 105.20385742 63.56811523 103.30102539 64.56201172 C102.59075195 64.94317139 101.88047852 65.32433105 101.14868164 65.71704102 C99.98272461 66.31899292 99.98272461 66.31899292 98.79321289 66.93310547 C97.12824704 67.82464968 95.46421169 68.71793339 93.80102539 69.61279297 C92.94412109 70.07008789 92.0872168 70.52738281 91.2043457 70.99853516 C87.31164922 73.10451843 83.4897888 75.32637774 79.66821289 77.55810547 C78.08239124 78.48017974 76.49644926 79.40204708 74.91040039 80.32373047 C74.07605469 80.8090625 73.24170898 81.29439453 72.38208008 81.79443359 C67.19157567 84.80899787 61.99226582 87.80831608 56.79321289 90.80810547 C55.13310181 91.76608032 55.13310181 91.76608032 53.43945312 92.7434082 C45.68384547 97.21571953 37.9144525 101.66335012 30.13818359 106.09960938 C23.80044048 109.71753344 17.47982713 113.36414241 11.16674805 117.02490234 C2.2550681 122.1924707 -6.66950162 127.3376397 -15.59350586 132.48388672 C-19.99305111 135.0210361 -24.39147767 137.56010594 -28.78881836 140.10107422 C-37.63237803 145.20983378 -46.47639247 150.31745261 -55.34741211 155.37841797 C-55.93398087 155.71306564 -56.52054962 156.04771332 -57.12489319 156.39250183 C-59.48744277 157.74009614 -61.85011778 159.08746869 -64.21334839 160.43386841 C-73.78348786 165.88735511 -83.30625429 171.41730812 -92.78344727 177.03100586 C-93.70561035 177.57362061 -94.62777344 178.11623535 -95.57788086 178.67529297 C-96.37895264 179.14950684 -97.18002441 179.6237207 -98.00537109 180.11230469 C-100.39157292 181.40294213 -102.79559143 182.4132429 -105.33178711 183.37060547 C-112.6640726 169.18654834 -117.79850119 156.17030975 -120.33178711 140.37060547 C-120.46584961 139.58169922 -120.59991211 138.79279297 -120.73803711 137.97998047 C-125.22660461 106.3106431 -115.37661554 73.7210705 -96.33178711 48.37060547 C-92.89149543 44.15228834 -89.13058529 40.26395645 -85.33178711 36.37060547 C-84.27411133 35.20271484 -84.27411133 35.20271484 -83.19506836 34.01123047 C-62.16774716 11.4218797 -30.24938223 -0.00628689 0 0 Z " fill="#A079DB" transform="translate(499.331787109375,376.62939453125)"/>
<path d="M0 0 C1.35350594 0.62469505 2.6808418 1.30570621 4 2 C6.6508605 3.04612502 9.32403705 4.01881359 12 5 C12 5.66 12 6.32 12 7 C12.53625 7.103125 13.0725 7.20625 13.625 7.3125 C16.62502044 8.18092697 19.2379535 9.55620296 22 11 C22 11.66 22 12.32 22 13 C22.5775 13.12375 23.155 13.2475 23.75 13.375 C26.02335767 14.00648824 27.9253529 14.88858191 30 16 C30 16.66 30 17.32 30 18 C31.32 18 32.64 18 34 18 C34 18.66 34 19.32 34 20 C35.32 20.33 36.64 20.66 38 21 C38 21.66 38 22.32 38 23 C38.57234375 23.13277344 39.1446875 23.26554688 39.734375 23.40234375 C41.97650875 23.99380317 44.08579619 24.73288854 46.25 25.5625 C46.95640625 25.83191406 47.6628125 26.10132813 48.390625 26.37890625 C48.92171875 26.58386719 49.4528125 26.78882813 50 27 C50 27.66 50 28.32 50 29 C50.845625 29.226875 51.69125 29.45375 52.5625 29.6875 C56.00921577 31.00351875 58.29021892 32.56873482 61.19140625 34.765625 C63.03640681 36.02484785 64.80552513 36.85801723 66.875 37.6875 C70 39 70 39 71 41 C72.64363134 41.72159424 74.31050386 42.39351421 76 43 C76 43.66 76 44.32 76 45 C76.763125 44.95875 77.52625 44.9175 78.3125 44.875 C81 45 81 45 84 47 C84 47.66 84 48.32 84 49 C84.969375 49.226875 85.93875 49.45375 86.9375 49.6875 C92.81356867 51.35098991 97.9536749 54.63578327 103 58 C103 58.66 103 59.32 103 60 C104.65 60.66 106.3 61.32 108 62 C107.41259792 66.19425697 104.98826761 69.22678546 102.5625 72.5625 C102.11511475 73.18020264 101.66772949 73.79790527 101.20678711 74.43432617 C83.16826886 98.93525177 57.38302185 114.89864409 28 122 C27.28134766 122.18618896 26.56269531 122.37237793 25.82226562 122.56420898 C18.06867372 124.37611964 10.29221692 124.35535337 2.375 124.3125 C1.66246063 124.31034485 0.94992126 124.3081897 0.21578979 124.30596924 C-10.12674339 124.25566891 -19.99393883 123.94821445 -30 121 C-30.66386719 120.80664062 -31.32773437 120.61328125 -32.01171875 120.4140625 C-52.36708079 114.31874152 -69.59720459 103.55125875 -85 89 C-85.76183594 88.30261719 -86.52367187 87.60523438 -87.30859375 86.88671875 C-95.14791748 79.45498551 -101.34715437 70.75927055 -106 61 C-86.5 49.75 -67 38.5 -47.5 27.25 C-46.42556641 26.63012207 -45.35113281 26.01024414 -44.24414062 25.37158203 C-42.09704864 24.13289998 -39.94991386 22.8942921 -37.80273438 21.65576172 C-32.70411191 18.7146665 -27.60594704 15.77278587 -22.50927734 12.82830811 C-20.08952335 11.43041399 -17.66952737 10.03293911 -15.24951172 8.63549805 C-13.53198948 7.64347676 -11.81481948 6.65084571 -10.09765625 5.65820312 C-9.06511719 5.06201172 -8.03257812 4.46582031 -6.96875 3.8515625 C-5.59879883 3.05999756 -5.59879883 3.05999756 -4.20117188 2.25244141 C-2.82011309 1.46663489 -1.42121505 0.71060752 0 0 Z " fill="#290068" transform="translate(500,499)"/>
<path d="M0 0 C5.61 0 11.22 0 17 0 C17 11.55 17 23.1 17 35 C28.88 35 40.76 35 53 35 C53 23.45 53 11.9 53 0 C58.61 0 64.22 0 70 0 C70 11.55 70 23.1 70 35 C81.55 35 93.1 35 105 35 C105 40.61 105 46.22 105 52 C93.45 52 81.9 52 70 52 C70 63.88 70 75.76 70 88 C81.55 88 93.1 88 105 88 C105 93.61 105 99.22 105 105 C93.45 105 81.9 105 70 105 C70 116.55 70 128.1 70 140 C64.39 140 58.78 140 53 140 C53 128.45 53 116.9 53 105 C41.12 105 29.24 105 17 105 C17 116.55 17 128.1 17 140 C11.39 140 5.78 140 0 140 C0 128.45 0 116.9 0 105 C-11.88 105 -23.76 105 -36 105 C-36 99.06 -36 93.12 -36 87 C-24.12 87 -12.24 87 0 87 C0 75.45 0 63.9 0 52 C-11.55 52 -23.1 52 -35 52 C-35 46.39 -35 40.78 -35 35 C-23.45 35 -11.9 35 0 35 C0 23.45 0 11.9 0 0 Z " fill="#FDFDFD" transform="translate(676,429)"/>
<path d="M0 0 C11.88 0 23.76 0 36 0 C36 11.88 36 23.76 36 36 C30.245625 36.020625 24.49125 36.04125 18.5625 36.0625 C16.74435791 36.071604 14.92621582 36.08070801 13.05297852 36.09008789 C11.61995518 36.09300711 10.18693102 36.09555566 8.75390625 36.09765625 C8.00330933 36.10277222 7.2527124 36.10788818 6.47937012 36.11315918 C4.65252399 36.11346992 2.82578317 36.06231113 1 36 C0 35 0 35 -0.11352539 31.67358398 C-0.11327435 30.19774445 -0.10771514 28.72189903 -0.09765625 27.24609375 C-0.09664917 26.55906372 -0.09564209 25.87203369 -0.09460449 25.16418457 C-0.08935776 22.58860616 -0.07539659 20.01305147 -0.0625 17.4375 C-0.041875 11.683125 -0.02125 5.92875 0 0 Z " fill="#420D95" transform="translate(693,481)"/>
<path d="M0 0 C0.66 0 1.32 0 2 0 C2 1.98 2 3.96 2 6 C3.32 6 4.64 6 6 6 C6 6.66 6 7.32 6 8 C5.01 8 4.02 8 3 8 C3.33 8.66 3.66 9.32 4 10 C6.33165034 10.33498301 6.33165034 10.33498301 9 10 C9.928125 9.01 9.928125 9.01 10.875 8 C13 6 13 6 16.375 5.625 C19.87353326 5.98691723 22.73324562 6.72516902 26 8 C26.66 7.34 27.32 6.68 28 6 C28.99 6 29.98 6 31 6 C31 6.66 31 7.32 31 8 C31.99 7.34 32.98 6.68 34 6 C34.99 6 35.98 6 37 6 C37 6.66 37 7.32 37 8 C36.19175781 8.37769531 35.38351563 8.75539063 34.55078125 9.14453125 C31.61094603 10.8414959 31.61094603 10.8414959 31.29296875 14.57421875 C31.23339267 15.94446863 31.19902518 17.31600403 31.1875 18.6875 C31.16236328 19.38939453 31.13722656 20.09128906 31.11132812 20.81445312 C31.05255552 22.54236781 31.0233903 24.2712443 31 26 C30.01 26.33 29.02 26.66 28 27 C27.67 26.34 27.34 25.68 27 25 C26.34 25.33 25.68 25.66 25 26 C23.06640414 26.14851844 21.12657903 26.22130833 19.1875 26.25 C18.14980469 26.27578125 17.11210938 26.3015625 16.04296875 26.328125 C12.63208596 25.96032763 10.85617015 24.81439081 8 23 C7.34 23.33 6.68 23.66 6 24 C6 24.66 6 25.32 6 26 C4.125 25.8125 4.125 25.8125 2 25 C-0.80078943 20.25421791 -0.22278261 15.00913065 -0.125 9.6875 C-0.11597656 8.75615234 -0.10695313 7.82480469 -0.09765625 6.86523438 C-0.07418263 4.5765564 -0.04134729 2.28841328 0 0 Z " fill="#242535" transform="translate(86,1028)"/>
<path d="M0 0 C1.32 0 2.64 0 4 0 C4.33 3.63 4.66 7.26 5 11 C5.9075 10.154375 6.815 9.30875 7.75 8.4375 C9.296875 6.99609375 9.296875 6.99609375 11 6 C13.203125 6.34765625 13.203125 6.34765625 15 7 C14.55527344 7.38671875 14.11054688 7.7734375 13.65234375 8.171875 C13.08644531 8.69265625 12.52054688 9.2134375 11.9375 9.75 C11.36902344 10.26046875 10.80054688 10.7709375 10.21484375 11.296875 C8.79229351 12.91128549 8.79229351 12.91128549 9.125 14.90625 C10.17603983 17.42123816 11.51292081 19.50805564 13.0625 21.75 C13.61035156 22.54921875 14.15820312 23.3484375 14.72265625 24.171875 C15.14417969 24.77515625 15.56570312 25.3784375 16 26 C13.67578125 26.2109375 13.67578125 26.2109375 11 26 C9.41796875 24.5390625 9.41796875 24.5390625 8.1875 22.625 C7.55908203 21.68527344 7.55908203 21.68527344 6.91796875 20.7265625 C6 19 6 19 6 17 C5.34 17 4.68 17 4 17 C4 19.97 4 22.94 4 26 C2.68 26 1.36 26 0 26 C-0.495 23.525 -0.495 23.525 -1 21 C-1 21.99 -1 22.98 -1 24 C-4.66788808 26.34744837 -7.71902154 26.60083908 -12 26 C-15.17546049 23.36504343 -16.61527733 21.78286116 -17.48046875 17.7734375 C-17.73910164 13.59337086 -17.3246685 11.49714863 -15 7.9375 C-10.92850586 5.30799336 -8.78247476 5.52959265 -4 6 C-3.34 6.33 -2.68 6.66 -2 7 C-1.34 4.69 -0.68 2.38 0 0 Z " fill="#191A2B" transform="translate(194,1028)"/>
<path d="M0 0 C2.76320636 0.8468671 5.32910032 1.87541066 8 3 C8.33 2.01 8.66 1.02 9 0 C10.32 0 11.64 0 13 0 C13 1.98 13 3.96 13 6 C14.65 6 16.3 6 18 6 C18 6.99 18 7.98 18 9 C16.35 9 14.7 9 13 9 C13.05991406 10.95918968 13.14867138 12.91751529 13.25 14.875 C13.29640625 15.96554687 13.3428125 17.05609375 13.390625 18.1796875 C13.68846128 21.1332065 13.68846128 21.1332065 16.046875 22.3828125 C16.69140625 22.58648438 17.3359375 22.79015625 18 23 C17.67 23.99 17.34 24.98 17 26 C11.35087719 24.52631579 11.35087719 24.52631579 9.8125 22.21875 C8.90326689 19.73584421 8.79752328 17.88420851 8.875 15.25 C8.89304688 14.45078125 8.91109375 13.6515625 8.9296875 12.828125 C8.95289063 12.22484375 8.97609375 11.6215625 9 11 C8.01 11.495 8.01 11.495 7 12 C7.06960937 12.59167969 7.13921875 13.18335938 7.2109375 13.79296875 C7.52334512 18.35263234 7.51206663 20.33970355 4.625 24.0625 C0.4894302 26.93469764 -4.17445506 26.58139096 -9 26 C-9.99 25.67 -10.98 25.34 -12 25 C-11.67 23.68 -11.34 22.36 -11 21 C-10.01 21.33 -9.02 21.66 -8 22 C-4.31617231 22.13156527 -1.50946415 22.16982138 2 21 C1.88734703 18.55636992 1.88734703 18.55636992 1 16 C-1.22125838 14.59964505 -1.22125838 14.59964505 -3.9375 13.8125 C-8.84782609 12.15217391 -8.84782609 12.15217391 -11 10 C-11.46382725 6.44399109 -11.42769679 4.65009912 -9.4375 1.625 C-6.03064606 -0.64623596 -4.04647545 -0.4720888 0 0 Z " fill="#2D2E3D" transform="translate(137,1028)"/>
<path d="M0 0 C3.51469381 0.74780719 4.77487432 1.79695103 6.9375 4.625 C6.9375 5.285 6.9375 5.945 6.9375 6.625 C10.18264077 6.2644288 10.96498582 5.59369671 13.1875 3.0625 C16.13032803 0.45408425 16.56814149 0.28652569 20.25 0.3125 C21.466875 0.415625 22.68375 0.51875 23.9375 0.625 C24.4325 2.11 24.4325 2.11 24.9375 3.625 C24.01517578 3.55539062 24.01517578 3.55539062 23.07421875 3.484375 C18.12008353 3.11505796 18.12008353 3.11505796 13.875 5.25 C12.35148282 9.10957687 12.31294055 12.08442003 13.875 15.9375 C17.13720859 18.60657975 20.83264876 18.45288884 24.9375 18.625 C24.6075 19.285 24.2775 19.945 23.9375 20.625 C15.36607143 20.91071429 15.36607143 20.91071429 11.9375 18.625 C11.9375 19.285 11.9375 19.945 11.9375 20.625 C10.6175 20.955 9.2975 21.285 7.9375 21.625 C7.9375 20.965 7.9375 20.305 7.9375 19.625 C6.9475 19.955 5.9575 20.285 4.9375 20.625 C-2.31429856 21.20053957 -2.31429856 21.20053957 -5.5 18.75 C-7.96717454 15.39464263 -8.46777233 12.94865469 -8.40625 8.734375 C-7.6252908 3.94212539 -4.80234329 0.98007006 0 0 Z " fill="#101123" transform="translate(58.0625,1033.375)"/>
<path d="M0 0 C2.78327482 1.04763715 3.64822106 2.20175953 5.0859375 4.78515625 C5.484375 7.22265625 5.484375 7.22265625 5.4609375 9.78515625 C5.46867187 10.63078125 5.47640625 11.47640625 5.484375 12.34765625 C4.99872859 15.31866959 4.20681246 16.6595472 2.0859375 18.78515625 C-0.91475212 19.91462931 -3.73111708 20.08617035 -6.9140625 19.78515625 C-9.9765625 17.97265625 -9.9765625 17.97265625 -11.9140625 14.78515625 C-12.91978707 9.70666276 -12.68128008 6.04735291 -9.9765625 1.59765625 C-6.24089272 -0.61325035 -4.19982772 -0.50885285 0 0 Z " fill="#F0F0F2" transform="translate(168.9140625,1034.21484375)"/>
<path d="M0 0 C11.55 0 23.1 0 35 0 C35.495 1.485 35.495 1.485 36 3 C34.90112305 4.48168945 34.90112305 4.48168945 33 6 C30.08911133 6.34057617 30.08911133 6.34057617 26.58203125 6.29296875 C25.32841797 6.28330078 24.07480469 6.27363281 22.78320312 6.26367188 C21.47287109 6.23853516 20.16253906 6.21339844 18.8125 6.1875 C17.47722837 6.17244967 16.14194063 6.15876187 14.80664062 6.14648438 C11.53735424 6.11107694 8.26887907 6.0616889 5 6 C5 5.01 5 4.02 5 3 C4.01 3.33 3.02 3.66 2 4 C1.67 14.23 1.34 24.46 1 35 C12.55 35 24.1 35 36 35 C36 40.94 36 46.88 36 53 C35.67 53 35.34 53 35 53 C35 47.39 35 41.78 35 36 C23.45 36 11.9 36 0 36 C0 24.12 0 12.24 0 0 Z " fill="#5F34A3" transform="translate(746,481)"/>
<path d="M0 0 C2.9375 1 2.9375 1 5 2 C5 3.32 5 4.64 5 6 C4.113125 5.67 3.22625 5.34 2.3125 5 C-0.70923347 4.08777857 -2.88373706 3.81669042 -6 4 C-6.33 5.32 -6.66 6.64 -7 8 C-6.15695313 8.32613281 -5.31390625 8.65226562 -4.4453125 8.98828125 C-3.34960938 9.42527344 -2.25390625 9.86226562 -1.125 10.3125 C-0.03445312 10.74175781 1.05609375 11.17101563 2.1796875 11.61328125 C5 13 5 13 7 16 C7.5 18.375 7.5 18.375 7 21 C4.2767764 24.22487005 2.68827769 25.76704385 -1.51953125 26.34765625 C-5.30910457 26.38649522 -8.38899943 26.20366686 -12 25 C-11.67 23.68 -11.34 22.36 -11 21 C-10.01 21.33 -9.02 21.66 -8 22 C-4.31617231 22.13156527 -1.50946415 22.16982138 2 21 C1.88734703 18.55636992 1.88734703 18.55636992 1 16 C-1.22125838 14.59964505 -1.22125838 14.59964505 -3.9375 13.8125 C-8.84782609 12.15217391 -8.84782609 12.15217391 -11 10 C-11.46382725 6.44399109 -11.42769679 4.65009912 -9.4375 1.625 C-6.09547193 -0.60301871 -3.95060656 -0.41585332 0 0 Z " fill="#EAEBEC" transform="translate(137,1028)"/>
<path d="M0 0 C1.32 0 2.64 0 4 0 C4.33 3.63 4.66 7.26 5 11 C5.9075 10.154375 6.815 9.30875 7.75 8.4375 C9.296875 6.99609375 9.296875 6.99609375 11 6 C13.203125 6.34765625 13.203125 6.34765625 15 7 C14.55527344 7.38671875 14.11054688 7.7734375 13.65234375 8.171875 C13.08644531 8.69265625 12.52054688 9.2134375 11.9375 9.75 C11.36902344 10.26046875 10.80054688 10.7709375 10.21484375 11.296875 C8.79229351 12.91128549 8.79229351 12.91128549 9.125 14.90625 C10.17603983 17.42123816 11.51292081 19.50805564 13.0625 21.75 C13.61035156 22.54921875 14.15820312 23.3484375 14.72265625 24.171875 C15.14417969 24.77515625 15.56570312 25.3784375 16 26 C13.67578125 26.2109375 13.67578125 26.2109375 11 26 C9.41796875 24.5390625 9.41796875 24.5390625 8.1875 22.625 C7.55908203 21.68527344 7.55908203 21.68527344 6.91796875 20.7265625 C6 19 6 19 6 17 C5.34 17 4.68 17 4 17 C4 19.97 4 22.94 4 26 C2.68 26 1.36 26 0 26 C0 17.42 0 8.84 0 0 Z " fill="#E6E6E8" transform="translate(194,1028)"/>
<path d="M0 0 C2.375 1.5625 2.375 1.5625 4 4 C4.44902962 8.1909431 4.44565826 11.46738251 2 15 C-0.84083641 16.42041821 -2.85477278 16.31452272 -6 16 C-8.375 14.5 -8.375 14.5 -10 12 C-10.81753559 7.92900647 -10.65416433 5.00640667 -8.375 1.5 C-5.27859404 -0.45562482 -3.60146865 -0.60024477 0 0 Z " fill="#181929" transform="translate(106,1036)"/>
<path d="M0 0 C3.64840051 0.77625543 4.86657224 1.51860836 6.9375 4.625 C7.1875 8.375 7.1875 8.375 6.9375 11.625 C2.6475 11.625 -1.6425 11.625 -6.0625 11.625 C-5.0725 13.605 -4.0825 15.585 -3.0625 17.625 C0.2375 17.625 3.5375 17.625 6.9375 17.625 C6.9375 18.285 6.9375 18.945 6.9375 19.625 C3.74516515 21.22116743 0.40288503 21.13966114 -3.0625 20.625 C-5.49369623 18.75484906 -6.70319173 17.34361655 -8.0625 14.625 C-8.52364626 10.01353744 -8.76360453 6.92937149 -5.9375 3.125 C-3.0625 0.625 -3.0625 0.625 0 0 Z " fill="#E8E9EC" transform="translate(58.0625,1033.375)"/>
<path d="M0 0 C2.03125 0.26953125 2.03125 0.26953125 4.5 0.8125 C5.3146875 0.98394531 6.129375 1.15539063 6.96875 1.33203125 C7.6390625 1.55246094 8.309375 1.77289062 9 2 C9.33 2.66 9.66 3.32 10 4 C8.02 4.33 6.04 4.66 4 5 C4 6.32 4 7.64 4 9 C6.97 9.495 6.97 9.495 10 10 C9.67 10.66 9.34 11.32 9 12 C6.93359375 12.6328125 6.93359375 12.6328125 4.4375 13.125 C3.61121094 13.29257813 2.78492188 13.46015625 1.93359375 13.6328125 C1.29550781 13.75398438 0.65742187 13.87515625 0 14 C0 13.34 0 12.68 0 12 C-1.258125 12.061875 -2.51625 12.12375 -3.8125 12.1875 C-6.44082181 12.17351956 -7.72893184 12.14785536 -10.0625 10.875 C-11.46771358 8.06457284 -10.72549141 5.96791942 -10 3 C-9.04287109 2.80083984 -9.04287109 2.80083984 -8.06640625 2.59765625 C-7.24011719 2.42105469 -6.41382813 2.24445313 -5.5625 2.0625 C-4.73878906 1.88847656 -3.91507813 1.71445313 -3.06640625 1.53515625 C-1.02338796 1.19247006 -1.02338796 1.19247006 0 0 Z " fill="#7D7E88" transform="translate(806,1041)"/>
<path d="M0 0 C0.66 0 1.32 0 2 0 C2 0.66 2 1.32 2 2 C2.66 2 3.32 2 4 2 C4.33 1.34 4.66 0.68 5 0 C5.66 0.33 6.32 0.66 7 1 C7 1.66 7 2.32 7 3 C7.928125 2.773125 8.85625 2.54625 9.8125 2.3125 C13 2 13 2 14.9375 3.125 C16 5 16 5 15.8125 7.5625 C15 10 15 10 13 12 C10.0574037 11.69347955 7.65457692 11.32728846 5 10 C5 10.66 5 11.32 5 12 C3.35 11.67 1.7 11.34 0 11 C-0.19491452 9.54263913 -0.38069358 8.08405407 -0.5625 6.625 C-0.66691406 5.81289062 -0.77132812 5.00078125 -0.87890625 4.1640625 C-1 2 -1 2 0 0 Z " fill="#DFE0E4" transform="translate(753,1041)"/>
<path d="M0 0 C0.66 0 1.32 0 2 0 C2 2.31 2 4.62 2 7 C2.99 6.01 3.98 5.02 5 4 C5.99 4.33 6.98 4.66 8 5 C7.34 6.32 6.68 7.64 6 9 C6.99 9.99 7.98 10.98 9 12 C8.67 11.01 8.34 10.02 8 9 C9.32 9 10.64 9 12 9 C12 10.65 12 12.3 12 14 C10.02 14 8.04 14 6 14 C5.34 12.35 4.68 10.7 4 9 C3.34 9 2.68 9 2 9 C2 10.65 2 12.3 2 14 C1.34 14 0.68 14 0 14 C0 9.38 0 4.76 0 0 Z M14 2 C14.66 2.33 15.32 2.66 16 3 C16 3.66 16 4.32 16 5 C19.465 4.505 19.465 4.505 23 4 C23.33 4.66 23.66 5.32 24 6 C22.02 6.33 20.04 6.66 18 7 C18 8.32 18 9.64 18 11 C20.97 11.495 20.97 11.495 24 12 C23.67 12.66 23.34 13.32 23 14 C16.64285714 13.51098901 16.64285714 13.51098901 13.5625 11.0625 C12 9 12 9 12 7 C11.01 6.67 10.02 6.34 9 6 C10.65 4.68 12.3 3.36 14 2 Z " fill="#7A7B86" transform="translate(817,1039)"/>
<path d="M0 0 C1.8125 1.0625 1.8125 1.0625 3 3 C3.39995291 6.66623504 3.43899865 9.0988975 1.8125 12.4375 C0 14 0 14 -2.5 14.5 C-5 14 -5 14 -6.8125 12.4375 C-8.43899865 9.0988975 -8.39995291 6.66623504 -8 3 C-5.95177941 -0.34183359 -3.7548828 -0.56323242 0 0 Z " fill="#171929" transform="translate(168,1037)"/>
<path d="M0 0 C0.99 0 1.98 0 3 0 C3 0.66 3 1.32 3 2 C3.99 1.34 4.98 0.68 6 0 C6.99 0 7.98 0 9 0 C9 0.66 9 1.32 9 2 C8.19175781 2.37769531 7.38351563 2.75539063 6.55078125 3.14453125 C3.61094603 4.8414959 3.61094603 4.8414959 3.29296875 8.57421875 C3.23339267 9.94446863 3.19902518 11.31600403 3.1875 12.6875 C3.16236328 13.38939453 3.13722656 14.09128906 3.11132812 14.81445312 C3.05255552 16.54236781 3.0233903 18.2712443 3 20 C2.01 20.33 1.02 20.66 0 21 C-0.33 20.34 -0.66 19.68 -1 19 C-1.66 19.33 -2.32 19.66 -3 20 C-3.99 19.34 -4.98 18.68 -6 18 C-5.505 17.319375 -5.01 16.63875 -4.5 15.9375 C-2.65872664 12.33167301 -2.6358934 10.00517255 -3 6 C-3.88064927 3.64630193 -3.88064927 3.64630193 -5 2 C-4.360625 1.855625 -3.72125 1.71125 -3.0625 1.5625 C-1.02454854 1.18992819 -1.02454854 1.18992819 0 0 Z " fill="#1C1C2C" transform="translate(114,1034)"/>
<path d="M0 0 C2.79836832 -0.4305182 4.35526759 -0.37794659 6.8125 1.0625 C8.67584949 4.10270179 8.36649683 6.51828011 8 10 C6.5 12.4375 6.5 12.4375 5 14 C2.03 13.505 2.03 13.505 -1 13 C-2.17664871 9.47005387 -2.19850603 6.70544587 -2 3 C-1.34 2.01 -0.68 1.02 0 0 Z " fill="#E1E1E4" transform="translate(904,1039)"/>
<path d="M0 0 C2.4375 0.8125 2.4375 0.8125 4.4375 2.8125 C4.78923852 6.61127599 4.96451444 8.95610153 2.9375 12.25 C2.4425 12.765625 1.9475 13.28125 1.4375 13.8125 C-1.5325 13.3175 -1.5325 13.3175 -4.5625 12.8125 C-5.7470131 9.25896071 -5.82891894 6.54236522 -5.5625 2.8125 C-3.9058551 0.02236122 -3.24544844 -0.23747184 0 0 Z " fill="#E3E5E7" transform="translate(966.5625,1039.1875)"/>
<path d="M0 0 C2.4375 0.8125 2.4375 0.8125 4.4375 2.8125 C4.78923852 6.61127599 4.96451444 8.95610153 2.9375 12.25 C2.4425 12.765625 1.9475 13.28125 1.4375 13.8125 C-1.5325 13.3175 -1.5325 13.3175 -4.5625 12.8125 C-5.7470131 9.25896071 -5.82891894 6.54236522 -5.5625 2.8125 C-3.9058551 0.02236122 -3.24544844 -0.23747184 0 0 Z " fill="#E5E5EA" transform="translate(895.5625,1039.1875)"/>
<path d="M0 0 C2.4375 0.8125 2.4375 0.8125 4.4375 2.8125 C4.78923852 6.61127599 4.96451444 8.95610153 2.9375 12.25 C2.4425 12.765625 1.9475 13.28125 1.4375 13.8125 C-1.5325 13.3175 -1.5325 13.3175 -4.5625 12.8125 C-5.7470131 9.25896071 -5.82891894 6.54236522 -5.5625 2.8125 C-3.9058551 0.02236122 -3.24544844 -0.23747184 0 0 Z " fill="#E3E3E6" transform="translate(931.5625,1039.1875)"/>
<path d="M0 0 C0 1.32 0 2.64 0 4 C-1.3921875 3.9071875 -1.3921875 3.9071875 -2.8125 3.8125 C-5.88986806 3.77726381 -5.88986806 3.77726381 -7.9375 5 C-9.71298137 8.34208258 -8.65852695 11.34816871 -8 15 C-4.94152152 15.54372951 -2.11227195 16 1 16 C1 16.99 1 17.98 1 19 C-2.17878694 20.58939347 -4.4956772 20.41576711 -8 20 C-11.17546049 17.36504343 -12.61527733 15.78286116 -13.48046875 11.7734375 C-13.73910164 7.59337086 -13.3246685 5.49714863 -11 1.9375 C-6.97116741 -0.66445438 -4.71992657 -0.39999378 0 0 Z " fill="#EEEEEF" transform="translate(190,1034)"/>
<path d="M0 0 C11.55 0 23.1 0 35 0 C35 0.33 35 0.66 35 1 C23.78 1 12.56 1 1 1 C1.33 11.89 1.66 22.78 2 34 C3.485 34.495 3.485 34.495 5 35 C4.67 35.66 4.34 36.32 4 37 C2.515 37.495 2.515 37.495 1 38 C1.33 38.99 1.66 39.98 2 41 C0.68 40.67 -0.64 40.34 -2 40 C-2 39.01 -2 38.02 -2 37 C-6.95 36.67 -11.9 36.34 -17 36 C-17 35.67 -17 35.34 -17 35 C-11.39 35 -5.78 35 0 35 C0 23.45 0 11.9 0 0 Z " fill="#592E9B" transform="translate(746,534)"/>
<path d="M0 0 C3.97245401 0.70936679 5.67231707 1.79731707 8.5 4.625 C10.03214888 7.68929776 9.72938548 10.2415642 9.5 13.625 C7.84860695 17.1636994 6.78394771 18.43570153 3.5 20.625 C-2.62452002 21.29312946 -2.62452002 21.29312946 -5.875 18.8125 C-8.79277104 14.8847313 -8.98587074 11.40272893 -8.5 6.625 C-6.567379 2.65576046 -4.43802624 0.79250469 0 0 Z M-4.875 4.125 C-7.15416433 7.63140667 -7.31753559 10.55400647 -6.5 14.625 C-5.04002013 17.25216577 -5.04002013 17.25216577 -2.5 18.625 C0.54253508 19.20845476 0.54253508 19.20845476 3.5 18.625 C5.53667615 17.07993534 6.36073078 15.90353844 7.5 13.625 C7.85872645 9.75075435 8.06710729 7.47566094 5.875 4.1875 C1.98736027 1.62984228 -0.9461112 1.64359655 -4.875 4.125 Z " fill="#E5E6E8" transform="translate(102.5,1033.375)"/>
<path d="M0 0 C3 1 3 1 3.96728516 2.93359375 C4.23847168 3.75988281 4.5096582 4.58617187 4.7890625 5.4375 C5.09070312 6.33210938 5.39234375 7.22671875 5.703125 8.1484375 C6.00734375 9.08945313 6.3115625 10.03046875 6.625 11 C7.23991878 12.8549203 7.85699159 14.70912839 8.4765625 16.5625 C8.74549316 17.38878906 9.01442383 18.21507812 9.29150391 19.06640625 C9.8384005 20.97862149 9.8384005 20.97862149 11 22 C13.64 14.74 16.28 7.48 19 0 C19.66 0 20.32 0 21 0 C19.42343648 6.28061889 17.61763459 12.48414698 15.5625 18.625 C15.17191406 19.81351563 14.78132813 21.00203125 14.37890625 22.2265625 C13.92386719 23.14179687 13.46882813 24.05703125 13 25 C10.91381836 25.67333984 10.91381836 25.67333984 9 26 C7.49744208 21.85508918 5.99838155 17.70892222 4.5 13.5625 C4.07074219 12.37849609 3.64148437 11.19449219 3.19921875 9.97460938 C2.79316406 8.84990234 2.38710938 7.72519531 1.96875 6.56640625 C1.59169922 5.52427979 1.21464844 4.48215332 0.82617188 3.40844727 C0 1 0 1 0 0 Z " fill="#E6E7EA" transform="translate(30,1028)"/>
<path d="M0 0 C2.625 0.375 2.625 0.375 5 1 C6.17881287 4.68379022 6.21358801 8.15541573 6 12 C4 14 4 14 1.5 14.25 C-1 14 -1 14 -3 12 C-3.046875 9.6875 -3.046875 9.6875 -2.75 7 C-2.66234375 6.113125 -2.5746875 5.22625 -2.484375 4.3125 C-2 2 -2 2 0 0 Z " fill="#9A9AA3" transform="translate(952,1039)"/>
<path d="M0 0 C0.99 0 1.98 0 3 0 C3 1.98 3 3.96 3 6 C4.65 6 6.3 6 8 6 C8 6.99 8 7.98 8 9 C6.35 9 4.7 9 3 9 C3.05991406 10.95918968 3.14867138 12.91751529 3.25 14.875 C3.29640625 15.96554687 3.3428125 17.05609375 3.390625 18.1796875 C3.68846128 21.1332065 3.68846128 21.1332065 6.046875 22.3828125 C6.69140625 22.58648438 7.3359375 22.79015625 8 23 C7.67 23.99 7.34 24.98 7 26 C4.97954558 25.39816251 2.97888961 24.72693904 1 24 C-0.25248502 21.49502996 -0.11374406 19.79146726 -0.09765625 16.9921875 C-0.09443359 16.00605469 -0.09121094 15.01992187 -0.08789062 14.00390625 C-0.07951172 12.97136719 -0.07113281 11.93882813 -0.0625 10.875 C-0.05798828 9.83472656 -0.05347656 8.79445313 -0.04882812 7.72265625 C-0.03701952 5.14838038 -0.02055075 2.57421854 0 0 Z " fill="#F7F7F8" transform="translate(147,1028)"/>
<path d="M0 0 C6.57692308 0.57692308 6.57692308 0.57692308 8 2 C8.45378151 7.21848739 8.45378151 7.21848739 6.875 9.9375 C5 11 5 11 1.9375 10.875 C-1 10 -1 10 -3 7 C-2.6758631 3.67759676 -2.39223697 2.39223697 0 0 Z " fill="#4D4F5C" transform="translate(213,1026)"/>
<path d="M0 0 C3.29714793 0.32971479 4.6226839 0.6226839 7 3 C7.44088277 6.96794495 7.61611613 9.14183825 5.25 12.4375 C3 14 3 14 -1 14 C-1 13.34 -1 12.68 -1 12 C-0.195625 11.71125 0.60875 11.4225 1.4375 11.125 C4.1326468 10.26737432 4.1326468 10.26737432 5 8 C3.02 8 1.04 8 -1 8 C-1.625 5.125 -1.625 5.125 -2 2 C-1.34 1.34 -0.68 0.68 0 0 Z " fill="#E1E1E6" transform="translate(940,1039)"/>
<path d="M0 0 C2.4375 0.8125 2.4375 0.8125 4.4375 2.8125 C4.10778521 6.10964793 3.8148161 7.4351839 1.4375 9.8125 C-1.6875 9.4375 -1.6875 9.4375 -4.5625 8.8125 C-5.89091008 3.37809513 -5.89091008 3.37809513 -4.4375 0.875 C-2.5625 -0.1875 -2.5625 -0.1875 0 0 Z " fill="#DFDFE5" transform="translate(847.5625,1043.1875)"/>
<path d="M0 0 C2.4375 0.8125 2.4375 0.8125 4.4375 2.8125 C4.10778521 6.10964793 3.8148161 7.4351839 1.4375 9.8125 C-1.6875 9.4375 -1.6875 9.4375 -4.5625 8.8125 C-5.89091008 3.37809513 -5.89091008 3.37809513 -4.4375 0.875 C-2.5625 -0.1875 -2.5625 -0.1875 0 0 Z " fill="#DFDFE5" transform="translate(800.5625,1043.1875)"/>
<path d="M0 0 C1.125 1.625 1.125 1.625 2 4 C1.125 7.25 1.125 7.25 0 10 C-2.31 9.67 -4.62 9.34 -7 9 C-8.33157895 3.55263158 -8.33157895 3.55263158 -6.875 1.125 C-4.46277487 -0.32233508 -2.7648665 -0.22417836 0 0 Z " fill="#797A84" transform="translate(750,1043)"/>
<path d="M0 0 C0.99 0.495 0.99 0.495 2 1 C2 1.66 2 2.32 2 3 C4.0745356 4.2236068 4.0745356 4.2236068 7 4 C7.22174933 5.45635371 7.42698698 6.91522956 7.625 8.375 C7.74101562 9.18710938 7.85703125 9.99921875 7.9765625 10.8359375 C7.98429688 11.55007813 7.99203125 12.26421875 8 13 C7.34 13.66 6.68 14.32 6 15 C1.125 13.125 1.125 13.125 0 12 C-0.07244053 9.98035801 -0.08377188 7.95832876 -0.0625 5.9375 C-0.05347656 4.83277344 -0.04445312 3.72804688 -0.03515625 2.58984375 C-0.02355469 1.73519531 -0.01195312 0.88054687 0 0 Z " fill="#1B1B2C" transform="translate(150,1037)"/>
<path d="M0 0 C10.375 0 10.375 0 15 1 C15 3.97 15 6.94 15 10 C14.34 10 13.68 10 13 10 C13 7.36 13 4.72 13 2 C12.01 2.33 11.02 2.66 10 3 C9.67 5.31 9.34 7.62 9 10 C8.34 10 7.68 10 7 10 C7 7.36 7 4.72 7 2 C5.68 2.33 4.36 2.66 3 3 C2.67 5.31 2.34 7.62 2 10 C1.34 10 0.68 10 0 10 C0 6.7 0 3.4 0 0 Z " fill="#E5E6E8" transform="translate(854,1043)"/>
<path d="M0 0 C0.33 0.99 0.66 1.98 1 3 C0.07767578 2.93039062 0.07767578 2.93039062 -0.86328125 2.859375 C-5.81741647 2.49005796 -5.81741647 2.49005796 -10.0625 4.625 C-11.58601718 8.48457687 -11.62455945 11.45942003 -10.0625 15.3125 C-6.80029141 17.98157975 -3.10485124 17.82788884 1 18 C0.67 18.66 0.34 19.32 0 20 C-7.04477612 20.59701493 -7.04477612 20.59701493 -11 18.125 C-13.80989899 13.73453283 -14.0151866 10.07593299 -13 5 C-9.41387839 -0.60331501 -6.13079617 -0.519559 0 0 Z " fill="#E3E4E8" transform="translate(82,1034)"/>
<path d="M0 0 C0.99 0 1.98 0 3 0 C3.19532961 1.7699868 3.38098882 3.54104279 3.5625 5.3125 C3.66691406 6.29863281 3.77132812 7.28476563 3.87890625 8.30078125 C4 11 4 11 3 14 C2.34 14 1.68 14 1 14 C1 13.01 1 12.02 1 11 C-0.98 11 -2.96 11 -5 11 C-4.32902328 6.80639551 -2.1441606 3.59665648 0 0 Z " fill="#A0A1A9" transform="translate(919,1039)"/>
<path d="M0 0 C0.99 0.33 1.98 0.66 3 1 C3.6875 3.0625 3.6875 3.0625 4 5 C3.34 5 2.68 5 2 5 C1.1276588 7.99480917 0.89170234 10.63575911 0.9375 13.75 C0.95103516 14.94882813 0.95103516 14.94882813 0.96484375 16.171875 C0.97644531 16.77515625 0.98804688 17.3784375 1 18 C0.01 17.67 -0.98 17.34 -2 17 C-2 17.66 -2 18.32 -2 19 C-2.66 18.67 -3.32 18.34 -4 18 C-3.67 17.34 -3.34 16.68 -3 16 C-2.76446052 11.76028942 -2.67154114 8.63821698 -5 5 C-3.35 3.35 -1.7 1.7 0 0 Z " fill="#1A1B2C" transform="translate(902,1033)"/>
<path d="M0 0 C0.66 0 1.32 0 2 0 C2 0.66 2 1.32 2 2 C2.66 2 3.32 2 4 2 C4.33 1.34 4.66 0.68 5 0 C5.66 0.33 6.32 0.66 7 1 C7 3.97 7 6.94 7 10 C6.34 10 5.68 10 5 10 C5 10.66 5 11.32 5 12 C3.35 11.67 1.7 11.34 0 11 C-0.19491452 9.54263913 -0.38069358 8.08405407 -0.5625 6.625 C-0.66691406 5.81289062 -0.77132812 5.00078125 -0.87890625 4.1640625 C-1 2 -1 2 0 0 Z " fill="#20202F" transform="translate(753,1041)"/>
<path d="M0 0 C0.99 0.103125 1.98 0.20625 3 0.3125 C5 3.3125 5 3.3125 5 7.3125 C1.37 7.3125 -2.26 7.3125 -6 7.3125 C-4.63404255 0.48271277 -4.63404255 0.48271277 0 0 Z " fill="#121324" transform="translate(58,1035.6875)"/>
<path d="M0 0 C0.99 0.33 1.98 0.66 3 1 C2.67 3.97 2.34 6.94 2 10 C2.66 10.33 3.32 10.66 4 11 C3.01 11.33 2.02 11.66 1 12 C0.67 11.34 0.34 10.68 0 10 C-2.3140622 9.26924352 -4.64828869 8.59861742 -7 8 C-6.67 6.35 -6.34 4.7 -6 3 C-5.195625 2.87625 -4.39125 2.7525 -3.5625 2.625 C-2.716875 2.41875 -1.87125 2.2125 -1 2 C-0.67 1.34 -0.34 0.68 0 0 Z " fill="#1D1D2C" transform="translate(841,1042)"/>
<path d="M0 0 C0.66 0 1.32 0 2 0 C2 1.98 2 3.96 2 6 C3.32 6 4.64 6 6 6 C6 6.66 6 7.32 6 8 C4.68 8 3.36 8 2 8 C2.08708038 10.10494301 2.19525693 12.20902142 2.3125 14.3125 C2.37050781 15.48425781 2.42851563 16.65601563 2.48828125 17.86328125 C3.03046792 21.18676139 3.50337136 21.93174732 6 24 C6 24.66 6 25.32 6 26 C4.125 25.8125 4.125 25.8125 2 25 C-0.80078943 20.25421791 -0.22278261 15.00913065 -0.125 9.6875 C-0.11597656 8.75615234 -0.10695313 7.82480469 -0.09765625 6.86523438 C-0.07418263 4.5765564 -0.04134729 2.28841328 0 0 Z " fill="#D8D8DC" transform="translate(86,1028)"/>
<path d="M0 0 C2.97 0 5.94 0 9 0 C8.34 1.32 7.68 2.64 7 4 C7 4.66 7 5.32 7 6 C7.66 6.66 8.32 7.32 9 8 C8.44444444 12.55555556 8.44444444 12.55555556 7 14 C4.66055264 13.71269945 2.3260857 13.38063221 0 13 C0 12.34 0 11.68 0 11 C1.98 11 3.96 11 6 11 C6 10.01 6 9.02 6 8 C5.01 7.67 4.02 7.34 3 7 C3.66 5.35 4.32 3.7 5 2 C3.35 2 1.7 2 0 2 C0 1.34 0 0.68 0 0 Z " fill="#DEDEE2" transform="translate(879,1039)"/>
<path d="M0 0 C2.5 0.25 2.5 0.25 4.5 2.25 C4.5 3.24 4.5 4.23 4.5 5.25 C2.19 5.25 -0.12 5.25 -2.5 5.25 C-2.17 5.91 -1.84 6.57 -1.5 7.25 C1.02733235 7.90555119 1.02733235 7.90555119 3.5 8.25 C3.17 8.91 2.84 9.57 2.5 10.25 C-0.47 9.755 -0.47 9.755 -3.5 9.25 C-4.125 5.875 -4.125 5.875 -4.5 2.25 C-2.5 0.25 -2.5 0.25 0 0 Z " fill="#E4E4E8" transform="translate(735.5,1042.75)"/>
<path d="M0 0 C1.67542976 0.28604898 3.34385343 0.61781233 5 1 C5 3.64 5 6.28 5 9 C3.34385343 9.38218767 1.67542976 9.71395102 0 10 C-1 9 -1 9 -1.1328125 7.1875 C-1.13023437 6.465625 -1.12765625 5.74375 -1.125 5 C-1.12757813 4.278125 -1.13015625 3.55625 -1.1328125 2.8125 C-1 1 -1 1 0 0 Z " fill="#31313D" transform="translate(893,1041)"/>
<path d="M0 0 C1.65 0 3.3 0 5 0 C4.96744792 2.01822917 4.93489583 4.03645833 4.90234375 6.0546875 C4.87350758 8.08185404 4.87350758 8.08185404 6 10 C5.34 10 4.68 10 4 10 C3.67 10.99 3.34 11.98 3 13 C2.01 12.67 1.02 12.34 0 12 C0 8.04 0 4.08 0 0 Z " fill="#161528" transform="translate(771,1043)"/>
<path d="M0 0 C1.67542976 0.28604898 3.34385343 0.61781233 5 1 C5 3.64 5 6.28 5 9 C3.35 9.33 1.7 9.66 0 10 C-1.49106457 7.01787087 -1.11941467 4.28390342 -1 1 C-0.67 0.67 -0.34 0.34 0 0 Z " fill="#212232" transform="translate(964,1041)"/>
<path d="M0 0 C0.78375 0.04125 1.5675 0.0825 2.375 0.125 C2.375 1.115 2.375 2.105 2.375 3.125 C1.055 3.125 -0.265 3.125 -1.625 3.125 C-1.625 3.785 -1.625 4.445 -1.625 5.125 C0.355 6.115 2.335 7.105 4.375 8.125 C3.5 13 3.5 13 2.375 14.125 C0.37541636 14.16580783 -1.62545254 14.16754356 -3.625 14.125 C-3.955 13.135 -4.285 12.145 -4.625 11.125 C-2.315 11.455 -0.005 11.785 2.375 12.125 C1.67990919 8.93174569 1.67990919 8.93174569 -1.125 7.6875 C-3.625 6.125 -3.625 6.125 -4.5625 4.0625 C-4.583125 3.423125 -4.60375 2.78375 -4.625 2.125 C-2.625 0.125 -2.625 0.125 0 0 Z " fill="#DEDFE3" transform="translate(782.625,1038.875)"/>
<path d="M0 0 C1.67542976 0.28604898 3.34385343 0.61781233 5 1 C5.125 7.75 5.125 7.75 4 10 C2.68 10 1.36 10 0 10 C-1.49106457 7.01787087 -1.11941467 4.28390342 -1 1 C-0.67 0.67 -0.34 0.34 0 0 Z " fill="#1F202F" transform="translate(929,1041)"/>
<path d="M0 0 C1.67542976 0.28604898 3.34385343 0.61781233 5 1 C5.125 7.75 5.125 7.75 4 10 C2.68 10 1.36 10 0 10 C-1.49106457 7.01787087 -1.11941467 4.28390342 -1 1 C-0.67 0.67 -0.34 0.34 0 0 Z " fill="#1F202F" transform="translate(905,1041)"/>
<path d="M0 0 C0.66 0 1.32 0 2 0 C2 0.66 2 1.32 2 2 C2.99 1.34 3.98 0.68 5 0 C5.99 0 6.98 0 8 0 C8 0.66 8 1.32 8 2 C7.19175781 2.37769531 6.38351563 2.75539063 5.55078125 3.14453125 C2.61094603 4.8414959 2.61094603 4.8414959 2.29296875 8.57421875 C2.23339267 9.94446863 2.19902518 11.31600403 2.1875 12.6875 C2.16236328 13.38939453 2.13722656 14.09128906 2.11132812 14.81445312 C2.05255552 16.54236781 2.0233903 18.2712443 2 20 C1.34 20 0.68 20 0 20 C0 13.4 0 6.8 0 0 Z " fill="#E1E2E4" transform="translate(115,1034)"/>
<path d="M0 0 C0.99 0.33 1.98 0.66 3 1 C3.73046875 3.06640625 3.73046875 3.06640625 4.1875 5.5625 C4.34605469 6.38878906 4.50460937 7.21507812 4.66796875 8.06640625 C4.77753906 8.70449219 4.88710938 9.34257813 5 10 C5.66 10 6.32 10 7 10 C7.66 7.03 8.32 4.06 9 1 C9.99 1 10.98 1 12 1 C10.35 5.29 8.7 9.58 7 14 C6.34 14 5.68 14 5 14 C4.16465351 11.85494956 3.33177374 9.70893835 2.5 7.5625 C2.0359375 6.36753906 1.571875 5.17257812 1.09375 3.94140625 C0 1 0 1 0 0 Z " fill="#DCDDE0" transform="translate(718,1039)"/>
<path d="M0 0 C0.66 0.33 1.32 0.66 2 1 C2 1.66 2 2.32 2 3 C3.98 3 5.96 3 8 3 C7.34 4.32 6.68 5.64 6 7 C4.68 7 3.36 7 2 7 C1.67 7.99 1.34 8.98 1 10 C1 9.01 1 8.02 1 7 C0.01 7.99 -0.98 8.98 -2 10 C-2.66 9.34 -3.32 8.68 -4 8 C-2.68 5.36 -1.36 2.72 0 0 Z " fill="#292937" transform="translate(937,1044)"/>
<path d="M0 0 C0.66 0 1.32 0 2 0 C2 2.31 2 4.62 2 7 C2.99 6.01 3.98 5.02 5 4 C5.99 4.33 6.98 4.66 8 5 C7.443125 5.8353125 7.443125 5.8353125 6.875 6.6875 C5.70484137 9.05716353 5.70484137 9.05716353 6.875 11.75 C7.24625 12.4925 7.6175 13.235 8 14 C7.01 13.67 6.02 13.34 5 13 C4.3125 10.9375 4.3125 10.9375 4 9 C3.34 9 2.68 9 2 9 C2 10.65 2 12.3 2 14 C1.34 14 0.68 14 0 14 C0 9.38 0 4.76 0 0 Z " fill="#E4E6E8" transform="translate(817,1039)"/>
<path d="M0 0 C0.33 0.99 0.66 1.98 1 3 C2.32 2.34 3.64 1.68 5 1 C4.38722388 3.96175123 3.74627478 5.38058783 2 8 C1.60612212 10.32387947 1.26513915 12.65793749 1 15 C0.67 14.34 0.34 13.68 0 13 C-1.32 13.33 -2.64 13.66 -4 14 C-3.79503906 13.32453125 -3.59007812 12.6490625 -3.37890625 11.953125 C-3.10949219 11.06109375 -2.84007812 10.1690625 -2.5625 9.25 C-2.16224609 7.92742187 -2.16224609 7.92742187 -1.75390625 6.578125 C-1.11531506 4.39434165 -0.53224167 2.21164502 0 0 Z " fill="#1F202F" transform="translate(49,1032)"/>
<path d="M0 0 C1.32 0 2.64 0 4 0 C4.06058594 0.61488281 4.12117188 1.22976563 4.18359375 1.86328125 C4.26738281 2.67152344 4.35117188 3.47976563 4.4375 4.3125 C4.51871094 5.11300781 4.59992188 5.91351562 4.68359375 6.73828125 C4.95265693 9.16087179 4.95265693 9.16087179 6 12 C5.67 12.66 5.34 13.32 5 14 C2.9375 14.625 2.9375 14.625 1 15 C0.67 13.68 0.34 12.36 0 11 C-0.99 11.33 -1.98 11.66 -3 12 C-3 11.34 -3 10.68 -3 10 C-1.35 9.34 0.3 8.68 2 8 C2 6.68 2 5.36 2 4 C1.01 4.495 1.01 4.495 0 5 C0 3.35 0 1.7 0 0 Z " fill="#333443" transform="translate(65,1040)"/>
<path d="M0 0 C0.66 0 1.32 0 2 0 C-0.14593555 8.54884894 -2.9494127 16.74050475 -6 25 C-6.99 24.34 -7.98 23.68 -9 23 C-8.76925781 22.42894531 -8.53851563 21.85789062 -8.30078125 21.26953125 C-5.46029731 14.20761664 -2.71898548 7.10947841 0 0 Z " fill="#D8D9DE" transform="translate(49,1028)"/>
<path d="M0 0 C0.33 0.99 0.66 1.98 1 3 C1.66 3 2.32 3 3 3 C3 2.34 3 1.68 3 1 C4.65 1.33 6.3 1.66 8 2 C8 2.99 8 3.98 8 5 C10.94236782 7.21168225 10.94236782 7.21168225 14 9 C13.34 9.66 12.68 10.32 12 11 C5.07 7.04 5.07 7.04 -2 3 C-2 2.34 -2 1.68 -2 1 C-1.34 0.67 -0.68 0.34 0 0 Z " fill="#31116B" transform="translate(336,787)"/>
<path d="M0 0 C0.99 0.33 1.98 0.66 3 1 C3.6953125 2.77734375 3.6953125 2.77734375 4.125 4.9375 C4.59056513 7.18773149 4.96866759 8.93733519 6 11 C3.69 11.66 1.38 12.32 -1 13 C-0.67 8.71 -0.34 4.42 0 0 Z " fill="#1D1E2F" transform="translate(174,1041)"/>
<path d="M0 0 C2.97 0.33 5.94 0.66 9 1 C8.67 2.98 8.34 4.96 8 7 C5.6875 7.25 5.6875 7.25 3 7 C1.1875 5.1875 1.1875 5.1875 0 3 C0 2.01 0 1.02 0 0 Z " fill="#181829" transform="translate(52,1045)"/>
<path d="M0 0 C3.63559661 3.43361902 6.36113346 6.7973607 9 11 C6.8125 11.4375 6.8125 11.4375 4 11 C1.55567293 8.48300375 -1 5.60995554 -1 2 C-1.66 1.67 -2.32 1.34 -3 1 C-2.01 0.67 -1.02 0.34 0 0 Z " fill="#EDEDEF" transform="translate(201,1043)"/>
<path d="M0 0 C0.66 0.33 1.32 0.66 2 1 C2.625 4.0625 2.625 4.0625 3 7 C2.34 7 1.68 7 1 7 C1 7.99 1 8.98 1 10 C3.86724686 9.42655063 4.8614515 9.1385485 7 7 C6.125 11.875 6.125 11.875 5 13 C2.5625 13.1875 2.5625 13.1875 0 13 C-2 11 -2 11 -2.01171875 8.65234375 C-1.90472656 7.75644531 -1.79773438 6.86054687 -1.6875 5.9375 C-1.58824219 5.03902344 -1.48898437 4.14054687 -1.38671875 3.21484375 C-1 1 -1 1 0 0 Z " fill="#E0E1E5" transform="translate(951,1040)"/>
<path d="M0 0 C0.99 0.33 1.98 0.66 3 1 C4.72795352 1.06802967 6.45835365 1.08495645 8.1875 1.0625 C9.08855469 1.05347656 9.98960937 1.04445313 10.91796875 1.03515625 C11.94857422 1.01775391 11.94857422 1.01775391 13 1 C12.67 2.32 12.34 3.64 12 5 C10.39592672 5.02708567 8.7917215 5.04643483 7.1875 5.0625 C5.84751953 5.07990234 5.84751953 5.07990234 4.48046875 5.09765625 C2 5 2 5 -1 4 C-0.67 2.68 -0.34 1.36 0 0 Z " fill="#E4E5E7" transform="translate(126,1049)"/>
<path d="M0 0 C0.33 0 0.66 0 1 0 C1.36075949 5.41139241 1.36075949 5.41139241 -0.1875 7.9375 C-2 9 -2 9 -4.6875 8.6875 C-5.450625 8.460625 -6.21375 8.23375 -7 8 C-6.67 6.35 -6.34 4.7 -6 3 C-4.02 3 -2.04 3 0 3 C0 2.01 0 1.02 0 0 Z " fill="#181927" transform="translate(816,1042)"/>
<path d="M0 0 C3.96 0 7.92 0 12 0 C11.67 0.66 11.34 1.32 11 2 C13.31 2 15.62 2 18 2 C17.01 2.33 16.02 2.66 15 3 C15 3.66 15 4.32 15 5 C13.24970238 4.68917128 11.49977306 4.37626821 9.75 4.0625 C8.28820312 3.80146484 8.28820312 3.80146484 6.796875 3.53515625 C4.50278205 3.09620271 2.25708029 2.59651408 0 2 C0 1.34 0 0.68 0 0 Z " fill="#A784DC" transform="translate(558,257)"/>
<path d="M0 0 C-1.98 2.31 -3.96 4.62 -6 7 C-9 6 -9 6 -10.25 4.0625 C-10.4975 3.381875 -10.745 2.70125 -11 2 C-10 0 -10 0 -8.3125 -0.6875 C-5.37519398 -1.08443325 -2.88840266 -0.59080963 0 0 Z " fill="#181829" transform="translate(74,1034)"/>
<path d="M0 0 C4.10899581 1.12795963 8.07561214 2.33510818 12 4 C12 5.98 12 7.96 12 10 C7.72754004 7.2534186 3.81413925 4.36007505 0 1 C0 0.67 0 0.34 0 0 Z " fill="#300F6B" transform="translate(419,591)"/>
<path d="M0 0 C0.99 0.33 1.98 0.66 3 1 C3 1.66 3 2.32 3 3 C3.99 3.33 4.98 3.66 6 4 C4.73581754 4.69965443 3.46334598 5.38434763 2.1875 6.0625 C1.47980469 6.44535156 0.77210938 6.82820312 0.04296875 7.22265625 C-2 8 -2 8 -5 7 C-5 6.01 -5 5.02 -5 4 C-3.35 3.34 -1.7 2.68 0 2 C0 1.34 0 0.68 0 0 Z " fill="#2E0A6A" transform="translate(606,817)"/>
<path d="M0 0 C-0.33 0.66 -0.66 1.32 -1 2 C-1.99 2.33 -2.98 2.66 -4 3 C-3.67 3.99 -3.34 4.98 -3 6 C-4.32 5.67 -5.64 5.34 -7 5 C-7 4.01 -7 3.02 -7 2 C-11.95 1.67 -16.9 1.34 -22 1 C-22 0.67 -22 0.34 -22 0 C-18.89635771 -0.19696449 -15.79207808 -0.38093262 -12.6875 -0.5625 C-11.36588867 -0.64661133 -11.36588867 -0.64661133 -10.01757812 -0.73242188 C-8.74624023 -0.80493164 -8.74624023 -0.80493164 -7.44921875 -0.87890625 C-6.27879028 -0.94960327 -6.27879028 -0.94960327 -5.0847168 -1.02172852 C-3 -1 -3 -1 0 0 Z " fill="#51259F" transform="translate(751,569)"/>
<path d="M0 0 C2.72869407 0.03287583 5.2966618 0.56397771 8 1 C6 3 6 3 3.375 3.125 C2.59125 3.08375 1.8075 3.0425 1 3 C2.1490712 4.2981424 2.1490712 4.2981424 5 5 C5.33 5.99 5.66 6.98 6 8 C3.69 7.34 1.38 6.68 -1 6 C-1.625 4.125 -1.625 4.125 -2 2 C-1.34 1.34 -0.68 0.68 0 0 Z " fill="#363644" transform="translate(131,1031)"/>
<path d="M0 0 C0.66 0 1.32 0 2 0 C2.27599507 1.76696843 2.51996915 3.53896215 2.75 5.3125 C2.88921875 6.29863281 3.0284375 7.28476563 3.171875 8.30078125 C3 11 3 11 1.203125 12.91796875 C-1 14 -1 14 -4 13 C-3.50757813 12.60039063 -3.01515625 12.20078125 -2.5078125 11.7890625 C-0.56985978 9.48962637 -0.71132064 8.33085661 -0.875 5.375 C-0.94573847 3.91778749 -0.99418758 2.45891687 -1 1 C-0.67 0.67 -0.34 0.34 0 0 Z " fill="#18192A" transform="translate(144,1039)"/>
<path d="M0 0 C1.45792884 -0.05399736 2.91642712 -0.09279177 4.375 -0.125 C5.18710938 -0.14820313 5.99921875 -0.17140625 6.8359375 -0.1953125 C9 0 9 0 11 2 C10.625 4.125 10.625 4.125 10 6 C5.25 5.25 5.25 5.25 3 3 C2.01 2.67 1.02 2.34 0 2 C0 1.34 0 0.68 0 0 Z " fill="#0F1121" transform="translate(131,1033)"/>
<path d="M0 0 C0 0.99 0 1.98 0 3 C-0.99 3 -1.98 3 -3 3 C-3 3.99 -3 4.98 -3 6 C-4.26362492 6.55827609 -5.5362919 7.09612097 -6.8125 7.625 C-7.52019531 7.92664063 -8.22789062 8.22828125 -8.95703125 8.5390625 C-9.63121094 8.69117188 -10.30539062 8.84328125 -11 9 C-11.99 8.34 -12.98 7.68 -14 7 C-12.04480616 5.82807953 -10.0857461 4.6626071 -8.125 3.5 C-7.03445313 2.8503125 -5.94390625 2.200625 -4.8203125 1.53125 C-2 0 -2 0 0 0 Z " fill="#421496" transform="translate(663,406)"/>
<path d="M0 0 C3.26460973 1.80412643 4.88929795 2.83394693 7 6 C6.67 6.99 6.34 7.98 6 9 C2.7 7.02 -0.6 5.04 -4 3 C-2.68 2.67 -1.36 2.34 0 2 C0 1.34 0 0.68 0 0 Z " fill="#400F95" transform="translate(686,601)"/>
<path d="M0 0 C0.66 0 1.32 0 2 0 C1.34 1.65 0.68 3.3 0 5 C1.32 5.33 2.64 5.66 4 6 C3.67 7.32 3.34 8.64 3 10 C0.03 9.505 0.03 9.505 -3 9 C-2.34 8.67 -1.68 8.34 -1 8 C-1.020625 6.865625 -1.04125 5.73125 -1.0625 4.5625 C-1 1 -1 1 0 0 Z " fill="#262633" transform="translate(882,1041)"/>
<path d="M0 0 C0.33 1.32 0.66 2.64 1 4 C-3.37931034 6.18965517 -3.37931034 6.18965517 -6.25 5.3125 C-8 4 -8 4 -9 1 C-2.25 0 -2.25 0 0 0 Z " fill="#222232" transform="translate(742,1047)"/>
<path d="M0 0 C0.33 0 0.66 0 1 0 C1.22174933 1.45635371 1.42698698 2.91522956 1.625 4.375 C1.74101562 5.18710938 1.85703125 5.99921875 1.9765625 6.8359375 C1.98429688 7.55007813 1.99203125 8.26421875 2 9 C1.34 9.66 0.68 10.32 0 11 C-1.32 10.34 -2.64 9.68 -4 9 C-3.125 4.25 -3.125 4.25 -2 2 C-1.34 2 -0.68 2 0 2 C0 1.34 0 0.68 0 0 Z " fill="#2A2B3A" transform="translate(156,1041)"/>
<path d="M0 0 C1.65 0.33 3.3 0.66 5 1 C4.67 2.65 4.34 4.3 4 6 C2.35 5.67 0.7 5.34 -1 5 C-0.67 3.35 -0.34 1.7 0 0 Z " fill="#20202E" transform="translate(845,1045)"/>
<path d="M0 0 C1.65 0.33 3.3 0.66 5 1 C4.67 2.65 4.34 4.3 4 6 C2.35 5.67 0.7 5.34 -1 5 C-0.67 3.35 -0.34 1.7 0 0 Z " fill="#1F202D" transform="translate(762,1045)"/>
<path d="M0 0 C1.65 0.33 3.3 0.66 5 1 C4.67 2.65 4.34 4.3 4 6 C2.35 5.67 0.7 5.34 -1 5 C-0.67 3.35 -0.34 1.7 0 0 Z " fill="#201F2E" transform="translate(798,1045)"/>
<path d="M0 0 C0.94875 0.04125 1.8975 0.0825 2.875 0.125 C3.205 0.785 3.535 1.445 3.875 2.125 C2.225 2.125 0.575 2.125 -1.125 2.125 C-1.455 3.115 -1.785 4.105 -2.125 5.125 C-2.455 5.785 -2.785 6.445 -3.125 7.125 C-4.115 7.125 -5.105 7.125 -6.125 7.125 C-5.03177966 0.20127119 -5.03177966 0.20127119 0 0 Z " fill="#1F1F2E" transform="translate(58.125,1035.875)"/>
<path d="M0 0 C0.66 1.32 1.32 2.64 2 4 C1 6 1 6 -0.875 6.6875 C-3.895716 7.13172294 -6.13335411 5.95554863 -9 5 C-6.03 3.35 -3.06 1.7 0 0 Z " fill="#31106D" transform="translate(628,713)"/>
<path d="M0 0 C3 1 3 1 5 4 C5.99 4 6.98 4 8 4 C8.33 5.65 8.66 7.3 9 9 C6 9 6 9 4.39453125 7.79296875 C3.87246094 7.26316406 3.35039062 6.73335937 2.8125 6.1875 C2.01779297 5.40439453 2.01779297 5.40439453 1.20703125 4.60546875 C0 3 0 3 0 0 Z " fill="#371871" transform="translate(180,694)"/>
<path d="M0 0 C-0.25561323 2.3431213 -0.59270772 4.67843403 -1 7 C-1.99 7.495 -1.99 7.495 -3 8 C-3 7.34 -3 6.68 -3 6 C-5.475 5.01 -5.475 5.01 -8 4 C-5.57415142 1.34311822 -3.76063134 0 0 0 Z " fill="#3F0E93" transform="translate(719,617)"/>
<path d="M0 0 C2.64 0 5.28 0 8 0 C7.67 0.99 7.34 1.98 7 3 C3.37 3.66 -0.26 4.32 -4 5 C-4.33 4.34 -4.66 3.68 -5 3 C-3.35 3 -1.7 3 0 3 C0 2.01 0 1.02 0 0 Z " fill="#2E0D6C" transform="translate(525,617)"/>
<path d="M0 0 C2.55138062 0.87703709 3.75730827 1.65329753 5.3125 3.875 C6 6 6 6 5 10 C1.04 10 -2.92 10 -7 10 C-7 9.67 -7 9.34 -7 9 C-3.37 9 0.26 9 4 9 C2.98839152 4.60685207 2.98839152 4.60685207 -0.125 1.625 C-0.74375 1.41875 -1.3625 1.2125 -2 1 C-1.34 0.67 -0.68 0.34 0 0 Z " fill="#C7C8CD" transform="translate(59,1034)"/>
<path d="M0 0 C0.9075 0.165 1.815 0.33 2.75 0.5 C6.11087503 1.10137146 6.11087503 1.10137146 10 1 C10 2.32 10 3.64 10 5 C10.66 5.33 11.32 5.66 12 6 C11.67 6.66 11.34 7.32 11 8 C9.35048774 7.04801289 7.70548492 6.08820855 6.0625 5.125 C5.14597656 4.59132813 4.22945313 4.05765625 3.28515625 3.5078125 C1 2 1 2 0 0 Z " fill="#2D0F69" transform="translate(412,833)"/>
<path d="M0 0 C0.66 0 1.32 0 2 0 C2 0.99 2 1.98 2 3 C2.66 3.33 3.32 3.66 4 4 C3.34 4 2.68 4 2 4 C2 5.98 2 7.96 2 10 C2.66 10 3.32 10 4 10 C4 10.66 4 11.32 4 12 C3.01 12 2.02 12 1 12 C0.63762737 10.37681021 0.28534843 8.7513642 -0.0625 7.125 C-0.25972656 6.22007813 -0.45695313 5.31515625 -0.66015625 4.3828125 C-1 2 -1 2 0 0 Z " fill="#DCDDE0" transform="translate(789,1041)"/>
<path d="M0 0 C0.66 0 1.32 0 2 0 C2 0.99 2 1.98 2 3 C2.66 3.33 3.32 3.66 4 4 C3.34 4 2.68 4 2 4 C2 5.98 2 7.96 2 10 C2.66 10 3.32 10 4 10 C4 10.66 4 11.32 4 12 C2.68 11.67 1.36 11.34 0 11 C-0.19491452 9.54263913 -0.38069358 8.08405407 -0.5625 6.625 C-0.66691406 5.81289062 -0.77132812 5.00078125 -0.87890625 4.1640625 C-1 2 -1 2 0 0 Z " fill="#DDDEE2" transform="translate(753,1041)"/>
<path d="M0 0 C3.66060821 0.58536753 5.54535164 2.083239 8.25 4.5625 C8.95640625 5.20316406 9.6628125 5.84382812 10.390625 6.50390625 C10.92171875 6.99761719 11.4528125 7.49132812 12 8 C11.34 8.66 10.68 9.32 10 10 C9.67 9.01 9.34 8.02 9 7 C7.3364521 6.32558869 5.66933058 5.6599679 4 5 C1.6875 2.9375 1.6875 2.9375 0 1 C0 0.67 0 0.34 0 0 Z " fill="#32136B" transform="translate(323,675)"/>
<path d="M0 0 C1.32 0 2.64 0 4 0 C4 1.65 4 3.3 4 5 C2.35 5.66 0.7 6.32 -1 7 C-1.04254356 5.00045254 -1.04080783 2.99958364 -1 1 C-0.67 0.67 -0.34 0.34 0 0 Z " fill="#181929" transform="translate(857,1045)"/>
<path d="M0 0 C0.33 1.98 0.66 3.96 1 6 C1.66 6 2.32 6 3 6 C3 6.66 3 7.32 3 8 C1.35 7.67 -0.3 7.34 -2 7 C-2 6.34 -2 5.68 -2 5 C-2.66 5 -3.32 5 -4 5 C-4 3.68 -4 2.36 -4 1 C-2 0 -2 0 0 0 Z " fill="#1E1D2D" transform="translate(795,1046)"/>
<path d="M0 0 C1.32 0 2.64 0 4 0 C3.7452486 1.31571603 3.47065859 2.62760376 3.1875 3.9375 C3.03667969 4.66839844 2.88585937 5.39929687 2.73046875 6.15234375 C2.48941406 6.76207031 2.24835937 7.37179687 2 8 C1.01 8.33 0.02 8.66 -1 9 C-2.25541557 5.23375329 -1.37061958 3.62811066 0 0 Z " fill="#191A2B" transform="translate(729,1040)"/>
<path d="M0 0 C1.32 0.33 2.64 0.66 4 1 C4 2.65 4 4.3 4 6 C4.66 6.33 5.32 6.66 6 7 C5.34 7.66 4.68 8.32 4 9 C1.875 8.625 1.875 8.625 0 8 C0.99 8 1.98 8 3 8 C2.67 7.01 2.34 6.02 2 5 C1.01 5.495 1.01 5.495 0 6 C0 4.02 0 2.04 0 0 Z " fill="#91929E" transform="translate(214,1028)"/>
<path d="M0 0 C2.64 0 5.28 0 8 0 C8 0.66 8 1.32 8 2 C8.66 2.33 9.32 2.66 10 3 C9.01 4.485 9.01 4.485 8 6 C6.66402348 5.19185349 5.331275 4.37836819 4 3.5625 C3.2575 3.11003906 2.515 2.65757812 1.75 2.19140625 C1.1725 1.79824219 0.595 1.40507813 0 1 C0 0.67 0 0.34 0 0 Z " fill="#2F0F6C" transform="translate(356,801)"/>
<path d="M0 0 C4.2742558 1.5830577 6.26531794 4.50568404 9 8 C4.83787947 8 3.16260735 6.12108566 0.25 3.3125 C-0.1625 2.879375 -0.575 2.44625 -1 2 C-0.67 1.34 -0.34 0.68 0 0 Z " fill="#34156E" transform="translate(313,663)"/>
<path d="M0 0 C1.98 0 3.96 0 6 0 C5.34 2.64 4.68 5.28 4 8 C3.34 8 2.68 8 2 8 C1.34 5.36 0.68 2.72 0 0 Z " fill="#232333" transform="translate(721,1041)"/>
<path d="M0 0 C1.8871875 0.061875 1.8871875 0.061875 3.8125 0.125 C4.1425 1.115 4.4725 2.105 4.8125 3.125 C3.89017578 3.09019531 3.89017578 3.09019531 2.94921875 3.0546875 C2.14097656 3.03664063 1.33273438 3.01859375 0.5 3 C-0.70076172 2.96519531 -0.70076172 2.96519531 -1.92578125 2.9296875 C-4.47138576 2.96682678 -4.47138576 2.96682678 -7.1875 5.125 C-7.1875 4.135 -7.1875 3.145 -7.1875 2.125 C-4.09861478 0.06574319 -3.47814073 -0.1140374 0 0 Z " fill="#CACBD1" transform="translate(78.1875,1033.875)"/>
<path d="M0 0 C3.375 0.3125 3.375 0.3125 7 1 C7.66 1.99 8.32 2.98 9 4 C4.82412255 5.39195915 2.86525224 3.82323219 -1 2 C-0.67 1.34 -0.34 0.68 0 0 Z " fill="#35156F" transform="translate(452,611)"/>
<path d="M0 0 C1.32 0.33 2.64 0.66 4 1 C1.525 4.465 1.525 4.465 -1 8 C-1.66 6.68 -2.32 5.36 -3 4 C-2.01 2.68 -1.02 1.36 0 0 Z " fill="#2E0C6A" transform="translate(597,572)"/>
<path d="M0 0 C0.33 0 0.66 0 1 0 C1.19532961 1.7699868 1.38098882 3.54104279 1.5625 5.3125 C1.66691406 6.29863281 1.77132812 7.28476563 1.87890625 8.30078125 C2 11 2 11 1 14 C0.34 14 -0.32 14 -1 14 C-1 13.01 -1 12.02 -1 11 C-2.98 11 -4.96 11 -7 11 C-7 10.67 -7 10.34 -7 10 C-5.02 9.67 -3.04 9.34 -1 9 C-0.67 6.03 -0.34 3.06 0 0 Z " fill="#D1D1D6" transform="translate(921,1039)"/>
<path d="M0 0 C0 2.64 0 5.28 0 8 C-1.32 8 -2.64 8 -4 8 C-3.74438677 5.6568787 -3.40729228 3.32156597 -3 1 C-1 0 -1 0 0 0 Z " fill="#141627" transform="translate(897,1043)"/>
<path d="M0 0 C1.65 0 3.3 0 5 0 C5 0.66 5 1.32 5 2 C4.01 2.495 4.01 2.495 3 3 C2.59270772 5.32156597 2.25561323 7.6568787 2 10 C1.34 10 0.68 10 0 10 C0 6.7 0 3.4 0 0 Z " fill="#E6E7EB" transform="translate(771,1043)"/>
<path d="M0 0 C3.375 0.375 3.375 0.375 5.375 2.375 C2.16048731 3.98225635 -1.06112536 3.43248185 -4.625 3.375 C-4.625 4.035 -4.625 4.695 -4.625 5.375 C-5.615 5.045 -6.605 4.715 -7.625 4.375 C-5.13890492 1.19279829 -4.10803391 0.42496902 0 0 Z " fill="#D8D9DE" transform="translate(102.625,1033.625)"/>
<path d="M0 0 C0.66 0 1.32 0 2 0 C2.12375 0.639375 2.2475 1.27875 2.375 1.9375 C2.684375 2.9584375 2.684375 2.9584375 3 4 C3.66 4.33 4.32 4.66 5 5 C3.35 5.66 1.7 6.32 0 7 C-0.66 5.35 -1.32 3.7 -2 2 C-1.34 1.34 -0.68 0.68 0 0 Z " fill="#1E1D2D" transform="translate(49,1048)"/>
<path d="M0 0 C3.875 1.75 3.875 1.75 5 4 C5.1875 7.5 5.1875 7.5 5 11 C4.34 11.66 3.68 12.32 3 13 C2.92652344 12.09507813 2.92652344 12.09507813 2.8515625 11.171875 C2.77679688 10.37265625 2.70203125 9.5734375 2.625 8.75 C2.55539063 7.96109375 2.48578125 7.1721875 2.4140625 6.359375 C1.98492887 3.914123 1.21399362 2.15163097 0 0 Z " fill="#E7E7E9" transform="translate(107,1036)"/>
<path d="M0 0 C1.99954746 -0.04254356 4.00041636 -0.04080783 6 0 C7 1 7 1 7.0625 4.0625 C7.041875 5.031875 7.02125 6.00125 7 7 C6.01 7 5.02 7 4 7 C3.896875 6.21625 3.79375 5.4325 3.6875 4.625 C3.22404978 1.66954819 3.22404978 1.66954819 0 0 Z " fill="#424450" transform="translate(214,1027)"/>
<path d="M0 0 C0.99 0.33 1.98 0.66 3 1 C4.54613006 5.09724467 5.29227216 7.81857651 4 12 C3.32645501 10.56570999 2.66140299 9.12742943 2 7.6875 C1.62875 6.88699219 1.2575 6.08648437 0.875 5.26171875 C0 3 0 3 0 0 Z " fill="#552C9E" transform="translate(828,322)"/>
<path d="M0 0 C0.66 0.99 1.32 1.98 2 3 C-1.0684847 5.97550031 -2.46236331 6.96474513 -6.8125 7.25 C-7.864375 7.1675 -8.91625 7.085 -10 7 C-7.23776722 4.23776722 -4.79293383 4.42143709 -1 4 C-0.67 2.68 -0.34 1.36 0 0 Z " fill="#D3D4D9" transform="translate(109,1047)"/>
<path d="M0 0 C0.66 0 1.32 0 2 0 C1.125 4.875 1.125 4.875 0 6 C-1.99958364 6.04080783 -4.00045254 6.04254356 -6 6 C-6.33 5.01 -6.66 4.02 -7 3 C-4.69 3.33 -2.38 3.66 0 4 C0 2.68 0 1.36 0 0 Z " fill="#D5D6DA" transform="translate(785,1047)"/>
<path d="M0 0 C0.33 0 0.66 0 1 0 C1.36108597 6.25882353 1.36108597 6.25882353 -0.1875 9.4375 C-2 11 -2 11 -4.6875 11.25 C-5.450625 11.1675 -6.21375 11.085 -7 11 C-6.360625 10.566875 -5.72125 10.13375 -5.0625 9.6875 C-2.73253997 8.08760823 -2.73253997 8.08760823 -2 5 C-1.34 5 -0.68 5 0 5 C0 3.35 0 1.7 0 0 Z " fill="#2F303E" transform="translate(170,1040)"/>
<path d="M0 0 C0.598125 0.350625 1.19625 0.70125 1.8125 1.0625 C1.1525 2.7125 0.4925 4.3625 -0.1875 6.0625 C-1.1775 5.7325 -2.1675 5.4025 -3.1875 5.0625 C-4.375 2.5 -4.375 2.5 -5.1875 0.0625 C-2.1875 -0.9375 -2.1875 -0.9375 0 0 Z " fill="#181929" transform="translate(177.1875,1035.9375)"/>
<path d="M0 0 C1.38576923 1.62332967 2.72641268 3.28724465 4 5 C2.51800098 4.55090939 1.03944764 4.09043436 -0.4375 3.625 C-1.26121094 3.36976563 -2.08492188 3.11453125 -2.93359375 2.8515625 C-5 2 -5 2 -6 0 C-3 -1 -3 -1 0 0 Z " fill="#381A71" transform="translate(477,867)"/>
<path d="M0 0 C0.33 0.66 0.66 1.32 1 2 C1.99 2.33 2.98 2.66 4 3 C4 3.66 4 4.32 4 5 C2.37373596 6.38232443 0.7074998 7.71937515 -1 9 C-2 7 -2 7 -2 4 C-1 1.8125 -1 1.8125 0 0 Z " fill="#320D6E" transform="translate(707,638)"/>
<path d="M0 0 C3 1.1875 3 1.1875 5 3.1875 C2.13822943 4.61838528 0.06624227 3.78741697 -3 3.1875 C-3 2.5275 -3 1.8675 -3 1.1875 C-3.66 0.8575 -4.32 0.5275 -5 0.1875 C-3 -0.8125 -3 -0.8125 0 0 Z " fill="#2E0E69" transform="translate(389,720.8125)"/>
<path d="M0 0 C1.32 0.33 2.64 0.66 4 1 C3.01 1.33 2.02 1.66 1 2 C1 2.66 1 3.32 1 4 C1.99 4.33 2.98 4.66 4 5 C-2.75 4.25 -2.75 4.25 -5 2 C-4.01 1.67 -3.02 1.34 -2 1 C-1.34 1.33 -0.68 1.66 0 2 C0 1.34 0 0.68 0 0 Z " fill="#3E0C97" transform="translate(631,569)"/>
<path d="M0 0 C2.97 0 5.94 0 9 0 C8.34 1.32 7.68 2.64 7 4 C4.69 3.34 2.38 2.68 0 2 C0 1.34 0 0.68 0 0 Z " fill="#C3C3CA" transform="translate(879,1039)"/>
<path d="M0 0 C0.33 0.99 0.66 1.98 1 3 C2.32 2.34 3.64 1.68 5 1 C4.43628586 4.26954202 3.50037734 5.82575883 1 8 C1 7.34 1 6.68 1 6 C0.34 6 -0.32 6 -1 6 C-0.67 4.02 -0.34 2.04 0 0 Z " fill="#2E2F3D" transform="translate(49,1032)"/>
<path d="M0 0 C5.75 1.75 5.75 1.75 8 4 C4.71303767 4.79953138 3.28976808 5.09658936 0 4 C-0.33 3.01 -0.66 2.02 -1 1 C-0.67 0.67 -0.34 0.34 0 0 Z " fill="#2D0A6C" transform="translate(361,706)"/>
<path d="M0 0 C0.66 0.33 1.32 0.66 2 1 C1.23997083 2.31878578 0.46656347 3.6298684 -0.3125 4.9375 C-0.74175781 5.66839844 -1.17101562 6.39929688 -1.61328125 7.15234375 C-3 9 -3 9 -6 10 C-4.6302836 6.00499382 -2.74277578 3.19990508 0 0 Z " fill="#F4F2F4" transform="translate(821,694)"/>
<path d="M0 0 C0.99 0.33 1.98 0.66 3 1 C2.34 3.97 1.68 6.94 1 10 C0.67 9.34 0.34 8.68 0 8 C-0.66 8 -1.32 8 -2 8 C-1.67 7.05125 -1.34 6.1025 -1 5.125 C0.10159191 2.22937548 0.10159191 2.22937548 0 0 Z " fill="#1C1C2B" transform="translate(913,1043)"/>
<path d="M0 0 C2.475 0.99 2.475 0.99 5 2 C5 2.66 5 3.32 5 4 C2.69 4 0.38 4 -2 4 C-1.34 2.68 -0.68 1.36 0 0 Z " fill="#909097" transform="translate(733,1043)"/>
<path d="M0 0 C1.98 0.495 1.98 0.495 4 1 C3.67 2.32 3.34 3.64 3 5 C1.68 4.67 0.36 4.34 -1 4 C-0.67 2.68 -0.34 1.36 0 0 Z " fill="#232331" transform="translate(941,1041)"/>
<path d="M0 0 C0 0.99 0 1.98 0 3 C-2.31 3.33 -4.62 3.66 -7 4 C-7 3.34 -7 2.68 -7 2 C-4.35261084 0.5393715 -3.10551666 0 0 0 Z " fill="#E6E6E9" transform="translate(191,1050)"/>
<path d="M0 0 C0.99 0.33 1.98 0.66 3 1 C3.33 2.65 3.66 4.3 4 6 C0.535 4.02 0.535 4.02 -3 2 C-2.01 1.34 -1.02 0.68 0 0 Z " fill="#2D0D69" transform="translate(267,747)"/>
<path d="M0 0 C-0.33 0.99 -0.66 1.98 -1 3 C-1.99 3 -2.98 3 -4 3 C-4.33 3.66 -4.66 4.32 -5 5 C-6.65 5 -8.3 5 -10 5 C-3.63636364 0 -3.63636364 0 0 0 Z " fill="#3A1D73" transform="translate(615,721)"/>
<path d="M0 0 C-0.33 2.64 -0.66 5.28 -1 8 C-2.32 6.35 -3.64 4.7 -5 3 C-2.25 0 -2.25 0 0 0 Z " fill="#2F0F6D" transform="translate(399,558)"/>
<path d="M0 0 C0.66 0 1.32 0 2 0 C3.32 2.31 4.64 4.62 6 7 C3.5625 6.3125 3.5625 6.3125 1 5 C0.1875 2.375 0.1875 2.375 0 0 Z " fill="#1F1F2D" transform="translate(198,1045)"/>
<path d="M0 0 C1.98 0.99 3.96 1.98 6 3 C6 3.99 6 4.98 6 6 C4.125 5.8125 4.125 5.8125 2 5 C0.75 2.4375 0.75 2.4375 0 0 Z " fill="#292939" transform="translate(779,1045)"/>
<path d="M0 0 C0.33 0.66 0.66 1.32 1 2 C3.52733235 2.65555119 3.52733235 2.65555119 6 3 C6 3.99 6 4.98 6 6 C4.02 5.34 2.04 4.68 0 4 C0 2.68 0 1.36 0 0 Z " fill="#232331" transform="translate(781,1041)"/>
<path d="M0 0 C0.66 0.33 1.32 0.66 2 1 C-3.29230769 5.92307692 -3.29230769 5.92307692 -6.875 6.3125 C-7.926875 6.1578125 -7.926875 6.1578125 -9 6 C-6.12050853 3.76039553 -3.23257974 1.70135776 0 0 Z " fill="#E5DFEA" transform="translate(707,765)"/>
<path d="M0 0 C2.64 0 5.28 0 8 0 C7.67 1.32 7.34 2.64 7 4 C4.69 3.01 2.38 2.02 0 1 C0 0.67 0 0.34 0 0 Z " fill="#32116B" transform="translate(247,739)"/>
<path d="M0 0 C0.66 0 1.32 0 2 0 C2.66 2.31 3.32 4.62 4 7 C2.68 6.67 1.36 6.34 0 6 C0 4.02 0 2.04 0 0 Z " fill="#A785DC" transform="translate(266,582)"/>
<path d="M0 0 C0.66 0.66 1.32 1.32 2 2 C1.34 2 0.68 2 0 2 C-0.33 2.99 -0.66 3.98 -1 5 C-2.65 4.67 -4.3 4.34 -6 4 C-4.03617993 2.49440461 -2.21736634 1.10868317 0 0 Z " fill="#3E0A93" transform="translate(507,495)"/>
<path d="M0 0 C0.33 0.66 0.66 1.32 1 2 C0.34 2 -0.32 2 -1 2 C-0.67 2.99 -0.34 3.98 0 5 C-2.375 5.625 -2.375 5.625 -5 6 C-5.66 5.34 -6.32 4.68 -7 4 C-4.69 2.68 -2.38 1.36 0 0 Z " fill="#411095" transform="translate(672,400)"/>
<path d="M0 0 C0.66 0.66 1.32 1.32 2 2 C1 4 1 4 -2.0625 5.125 C-3.5165625 5.558125 -3.5165625 5.558125 -5 6 C-5.66 5.34 -6.32 4.68 -7 4 C-4.69 2.68 -2.38 1.36 0 0 Z " fill="#441596" transform="translate(696,386)"/>
<path d="M0 0 C1.32 0.66 2.64 1.32 4 2 C3.67 2.99 3.34 3.98 3 5 C1.68 4.67 0.36 4.34 -1 4 C-0.67 2.68 -0.34 1.36 0 0 Z " fill="#1D1D2B" transform="translate(952,1046)"/>
<path d="M0 0 C2.95183101 2.95183101 3.08663988 5.95511947 4 10 C2.68 9.34 1.36 8.68 0 8 C0 5.36 0 2.72 0 0 Z " fill="#2D2D3C" transform="translate(34,1041)"/>
<path d="M0 0 C2.64 0.33 5.28 0.66 8 1 C6 3 6 3 2.375 3.125 C1.26125 3.08375 0.1475 3.0425 -1 3 C-0.67 2.01 -0.34 1.02 0 0 Z " fill="#252635" transform="translate(131,1031)"/>
<path d="M0 0 C0.66 0.99 1.32 1.98 2 3 C1.67 3.99 1.34 4.98 1 6 C-0.65 5.01 -2.3 4.02 -4 3 C-2.68 2.01 -1.36 1.02 0 0 Z " fill="#33136E" transform="translate(323,778)"/>
<path d="M0 0 C2 0 2 0 4 1.9375 C4.99 2.9584375 4.99 2.9584375 6 4 C6.66 4.33 7.32 4.66 8 5 C7.67 5.66 7.34 6.32 7 7 C4.36 5.68 1.72 4.36 -1 3 C-0.67 2.01 -0.34 1.02 0 0 Z " fill="#30126C" transform="translate(442,605)"/>
<path d="M0 0 C5.75 1.75 5.75 1.75 8 4 C6.3125 4.75 6.3125 4.75 4 5 C1.25 3.0625 1.25 3.0625 -1 1 C-0.67 0.67 -0.34 0.34 0 0 Z " fill="#F6F3F7" transform="translate(677,215)"/>
<path d="M0 0 C0.33 0.99 0.66 1.98 1 3 C-2.22791555 5.1519437 -3.28400809 5.20086443 -7 5 C-4.87219421 2.65941363 -2.88437779 1.29299694 0 0 Z " fill="#A482D6" transform="translate(383,182)"/>
<path d="M0 0 C1.32 0 2.64 0 4 0 C4 0.66 4 1.32 4 2 C4.66 2 5.32 2 6 2 C5.67 2.99 5.34 3.98 5 5 C2.00667261 4.0022242 1.05233685 3.2477975 -1 1 C-0.67 0.67 -0.34 0.34 0 0 Z " fill="#262536" transform="translate(804,1050)"/>
<path d="M0 0 C0.99 0.33 1.98 0.66 3 1 C3 2.65 3 4.3 3 6 C2.01 6.33 1.02 6.66 0 7 C0 4.69 0 2.38 0 0 Z " fill="#393846" transform="translate(174,1041)"/>
<path d="M0 0 C0 0.99 0 1.98 0 3 C-0.99 3.33 -1.98 3.66 -3 4 C-3.99 5.485 -3.99 5.485 -5 7 C-5.66 6.34 -6.32 5.68 -7 5 C-2.25 0 -2.25 0 0 0 Z " fill="#1F202E" transform="translate(891,1039)"/>
<path d="M0 0 C1.98 0.66 3.96 1.32 6 2 C5.67 2.99 5.34 3.98 5 5 C3.02 4.01 1.04 3.02 -1 2 C-0.67 1.34 -0.34 0.68 0 0 Z " fill="#ECE8ED" transform="translate(382,715)"/>
<path d="M0 0 C0.66 0.66 1.32 1.32 2 2 C1.625 4.625 1.625 4.625 1 7 C0.01 7 -0.98 7 -2 7 C-1.34 4.69 -0.68 2.38 0 0 Z " fill="#EBE7F1" transform="translate(829,679)"/>
<path d="M0 0 C-0.66 1.65 -1.32 3.3 -2 5 C-2.33 4.34 -2.66 3.68 -3 3 C-4.65 3.33 -6.3 3.66 -8 4 C-3.375 0 -3.375 0 0 0 Z " fill="#411394" transform="translate(619,432)"/>
<path d="M0 0 C0 1.65 0 3.3 0 5 C-1.65 4.67 -3.3 4.34 -5 4 C-5 3.34 -5 2.68 -5 2 C-2 0 -2 0 0 0 Z " fill="#421095" transform="translate(644,417)"/>
</svg>
