<?xml version="1.0" encoding="UTF-8"?>
<svg version="1.1" xmlns="http://www.w3.org/2000/svg" width="290" height="174">
<path d="M0 0 C95.7 0 191.4 0 290 0 C290 57.42 290 114.84 290 174 C194.3 174 98.6 174 0 174 C0 116.58 0 59.16 0 0 Z " fill="#635765" transform="translate(0,0)"/>
<path d="M0 0 C95.7 0 191.4 0 290 0 C290 20.79 290 41.58 290 63 C194.3 63 98.6 63 0 63 C0 42.21 0 21.42 0 0 Z " fill="#706972" transform="translate(0,111)"/>
<path d="M0 0 C6.04059197 0.05591406 12.08120384 0.10954646 18.12181628 0.16319561 C31.78924676 0.2846401 45.45664109 0.40969777 59.12402344 0.53643799 C59.12402344 11.42643799 59.12402344 22.31643799 59.12402344 33.53643799 C-36.57597656 33.53643799 -132.27597656 33.53643799 -230.87597656 33.53643799 C-230.87597656 22.64643799 -230.87597656 11.75643799 -230.87597656 0.53643799 C-216.14528907 0.40353484 -201.41458607 0.27272087 -186.68385029 0.14528656 C-179.83715469 0.08599653 -172.99046887 0.02586289 -166.14379883 -0.03631592 C-110.75536609 -0.5380268 -55.38860827 -0.51710635 0 0 Z " fill="#615464" transform="translate(230.8759765625,77.46356201171875)"/>
<path d="M0 0 C95.7 0 191.4 0 290 0 C290 10.23 290 20.46 290 31 C194.3 31 98.6 31 0 31 C0 20.77 0 10.54 0 0 Z " fill="#777478" transform="translate(0,143)"/>
<path d="M0 0 C95.7 0 191.4 0 290 0 C290 8.91 290 17.82 290 27 C194.3 27 98.6 27 0 27 C0 18.09 0 9.18 0 0 Z " fill="#5F5660" transform="translate(0,51)"/>
<path d="M0 0 C95.7 0 191.4 0 290 0 C290 5.28 290 10.56 290 16 C194.3 16 98.6 16 0 16 C0 10.72 0 5.44 0 0 Z " fill="#695F6C" transform="translate(0,111)"/>
<path d="M0 0 C95.7 0 191.4 0 290 0 C290 4.95 290 9.9 290 15 C194.3 15 98.6 15 0 15 C0 10.05 0 5.1 0 0 Z " fill="#878687" transform="translate(0,159)"/>
<path d="M0 0 C95.7 0 191.4 0 290 0 C290 3.63 290 7.26 290 11 C194.3 11 98.6 11 0 11 C0 7.37 0 3.74 0 0 Z " fill="#5F5260" transform="translate(0,0)"/>
<path d="M0 0 C95.7 0 191.4 0 290 0 C290 2.97 290 5.94 290 9 C194.3 9 98.6 9 0 9 C0 6.03 0 3.06 0 0 Z " fill="#6B5F6C" transform="translate(0,11)"/>
<path d="M0 0 C95.7 0 191.4 0 290 0 C290 2.31 290 4.62 290 7 C194.3 7 98.6 7 0 7 C0 4.69 0 2.38 0 0 Z " fill="#726772" transform="translate(0,51)"/>
<path d="M0 0 C95.7 0 191.4 0 290 0 C290 2.31 290 4.62 290 7 C194.3 7 98.6 7 0 7 C0 4.69 0 2.38 0 0 Z " fill="#625664" transform="translate(0,71)"/>
<path d="M0 0 C0 0.99 0 1.98 0 3 C-8.82713921 3.13392723 -17.65432188 3.26442316 -26.48156738 3.39115143 C-30.585555 3.45016509 -34.68952272 3.51013457 -38.79345703 3.57275391 C-56.38855823 3.84052633 -73.98079632 4.03991127 -91.578125 4.02734375 C-92.42293804 4.02705642 -93.26775108 4.02676908 -94.13816452 4.02647305 C-113.69153623 4.01883675 -133.24423586 3.91541126 -152.79720688 3.79807091 C-157.65101392 3.76919841 -162.50482866 3.74167728 -167.35864258 3.71398926 C-176.47692752 3.66178171 -185.59520533 3.60842642 -194.71348095 3.5546174 C-205.12532974 3.49323372 -215.53718615 3.43319252 -225.94904327 3.37324238 C-247.29937074 3.25028097 -268.64968852 3.12570422 -290 3 C-290 2.01 -290 1.02 -290 0 C-193.30618099 -0.94355043 -96.69348431 -0.97200191 0 0 Z " fill="#564D57" transform="translate(290,68)"/>
<path d="M0 0 C95.7 0 191.4 0 290 0 C290 0.99 290 1.98 290 3 C194.3 3 98.6 3 0 3 C0 2.01 0 1.02 0 0 Z " fill="#4B454B" transform="translate(0,48)"/>
<path d="M0 0 C95.7 0 191.4 0 290 0 C290 0.99 290 1.98 290 3 C194.3 3 98.6 3 0 3 C0 2.01 0 1.02 0 0 Z " fill="#928393" transform="translate(0,45)"/>
<path d="M0 0 C95.7 0 191.4 0 290 0 C290 0.99 290 1.98 290 3 C194.3 3 98.6 3 0 3 C0 2.01 0 1.02 0 0 Z " fill="#8D7B8E" transform="translate(0,11)"/>
<path d="M0 0 C95.7 0 191.4 0 290 0 C290 0.99 290 1.98 290 3 C194.3 3 98.6 3 0 3 C0 2.01 0 1.02 0 0 Z " fill="#978E98" transform="translate(0,55)"/>
<path d="M0 0 C95.7 0 191.4 0 290 0 C290 0.99 290 1.98 290 3 C194.3 3 98.6 3 0 3 C0 2.01 0 1.02 0 0 Z " fill="#908492" transform="translate(0,71)"/>
<path d="M0 0 C95.7 0 191.4 0 290 0 C290 0.99 290 1.98 290 3 C194.3 3 98.6 3 0 3 C0 2.01 0 1.02 0 0 Z " fill="#8A7E8B" transform="translate(0,65)"/>
</svg>
