<?xml version="1.0" encoding="UTF-8"?>
<svg version="1.1" xmlns="http://www.w3.org/2000/svg" width="866" height="650">
<path d="M0 0 C285.78 0 571.56 0 866 0 C866 214.5 866 429 866 650 C580.22 650 294.44 650 0 650 C0 435.5 0 221 0 0 Z " fill="#FEFEFE" transform="translate(0,0)"/>
<path d="M0 0 C5.9182323 4.51717117 11.13405052 9.63458276 16.38164997 14.90526676 C17.38246412 15.90336544 18.38370206 16.90103933 19.38532734 17.89832401 C22.08385128 20.58779142 24.7760844 23.28347238 27.46689725 25.98065209 C30.2918542 28.8106999 33.12171866 31.63583391 35.95078754 34.46177006 C40.69599076 39.20334438 45.43698296 43.94909848 50.17559528 48.69725895 C55.64894289 54.18150786 61.1294834 59.65848953 66.61377841 65.13178927 C71.33271188 69.84164162 76.0477304 74.55538658 80.75950879 79.27239698 C83.56931714 82.08531806 86.38044684 84.89688284 89.19512081 87.70493603 C91.83857232 90.34260206 94.4770677 92.98512839 97.11184978 95.63145351 C98.5380176 97.06151733 99.96909919 98.48667549 101.40032673 99.91167545 C102.25113316 100.76812153 103.10193958 101.6245676 103.97852802 102.50696659 C105.08706874 103.61663839 105.08706874 103.61663839 106.21800423 104.7487278 C109.7875699 108.78143961 111.58758247 111.95584317 111.59527302 117.37767887 C111.61460896 118.28388981 111.63394489 119.19010075 111.65386677 120.12377262 C110.66727578 125.7248128 106.59072382 129.75737901 102.67950153 133.67241764 C101.78788319 134.56967564 100.89626484 135.46693363 99.97762775 136.39138126 C98.99741221 137.3677091 98.01709259 138.34393245 97.03667927 139.32006168 C95.99784343 140.36161039 94.95943294 141.40358348 93.92141438 142.44594669 C91.11208149 145.26436832 88.29649412 148.07646181 85.47943974 150.88716316 C82.5288033 153.8327241 79.58306319 156.78317522 76.63653278 159.73284245 C71.69049857 164.68251063 66.74027246 169.62795702 61.78765583 174.57103825 C56.06258441 180.28521419 50.34476971 186.00657563 44.63064766 191.73169923 C39.72042521 196.65099638 34.80631759 201.56638691 29.8889389 206.47853065 C26.95361594 209.41073648 24.01965895 212.34427479 21.08920002 215.28134251 C18.33583013 218.04048828 15.57761637 220.7946982 12.81558323 223.54517078 C11.80283153 224.55527774 10.79177838 225.56709099 9.78255558 226.58072376 C8.40501177 227.96373114 7.02069494 229.33998241 5.6360445 230.71587467 C4.8632465 231.48791862 4.09044849 232.25996258 3.29423237 233.0554018 C-0.7319474 236.60728371 -4.12244178 237.50723323 -9.40082073 237.38549137 C-16.66144824 236.06115291 -21.45685585 230.45000414 -25.84222698 224.94017887 C-27.78361594 223.15194853 -29.78352847 221.44611658 -31.79144573 219.73314762 C-34.9664556 216.95728185 -37.89460489 213.95330368 -40.84222698 210.94017887 C-41.66722698 210.11517887 -42.49222698 209.29017887 -43.34222698 208.44017887 C-44.16722698 207.61517887 -44.99222698 206.79017887 -45.84222698 205.94017887 C-46.39910198 205.39490543 -46.95597698 204.849632 -47.52972698 204.28783512 C-50.29077048 201.5684453 -52.88754597 198.8846631 -55.34222698 195.87767887 C-57.76867627 193.02660096 -60.2798707 190.7625917 -63.14300823 188.37767887 C-66.3311811 185.68055792 -69.17193792 182.81155465 -71.71722698 179.50267887 C-73.97379982 176.78151751 -76.40439902 174.6714892 -79.10785198 172.41283512 C-82.30396769 169.69901615 -85.16127879 166.82541152 -87.71722698 163.50267887 C-89.93123957 160.83284016 -92.28618136 158.75161288 -94.96332073 156.56517887 C-97.38195985 154.47338288 -99.59631996 152.21620983 -101.84222698 149.94017887 C-102.73941448 149.04299137 -103.63660198 148.14580387 -104.56097698 147.22142887 C-108.70160198 143.08080387 -108.70160198 143.08080387 -112.84222698 138.94017887 C-113.73812542 138.05459293 -114.63402386 137.169007 -115.55707073 136.25658512 C-117.84566592 133.9366929 -119.81610104 131.48917602 -121.84222698 128.94017887 C-122.56410198 128.23892887 -123.28597698 127.53767887 -124.02972698 126.81517887 C-126.85048345 123.89715494 -127.16269232 120.79715275 -127.46722698 116.87767887 C-127.3418687 112.12126385 -126.54360969 109.95982865 -123.26043987 106.53246403 C-122.02766811 105.23456944 -122.02766811 105.23456944 -120.76999187 103.91045475 C-119.79570494 102.91875415 -118.81966827 101.92877062 -117.84222698 100.94017887 C-117.30342278 100.39009914 -116.76461857 99.84001942 -116.20948696 99.27327061 C-111.68263535 94.65630109 -107.1065248 90.0895537 -102.52582073 85.52611637 C-101.05872784 84.06089241 -99.59185843 82.59544465 -98.12520123 81.12978458 C-94.29540413 77.30377533 -90.46261184 73.48078074 -86.62915325 69.65844059 C-82.70549915 65.74508158 -78.78473311 61.82883131 -74.86371136 57.91283512 C-67.19268134 50.25247645 -59.51847884 42.59530461 -51.84222698 34.94017887 C-50.73013994 35.89144397 -49.61833208 36.84303546 -48.50664043 37.79476261 C-47.88747218 38.32464472 -47.26830393 38.85452682 -46.630373 39.40046597 C-42.44292568 43.00613721 -38.41260269 46.76216938 -34.40472698 50.56517887 C-33.48240276 51.39146793 -32.56007854 52.217757 -31.60980511 53.06908512 C-25.11101475 59.31292664 -25.11101475 59.31292664 -24.32269573 64.08544254 C-24.37738323 67.27221012 -24.37738323 67.27221012 -24.71356487 70.1855402 C-24.89793754 74.13293442 -23.43729772 76.73902532 -21.52191448 80.10033512 C-19.30799291 82.52535154 -16.78178944 83.53385927 -13.84222698 84.94017887 C-13.72644171 93.62396927 -13.63756779 102.30749453 -13.58316612 110.99188805 C-13.55705747 115.02432652 -13.5216379 119.05623743 -13.46502972 123.08837223 C-13.41075269 126.97875185 -13.380816 130.8686237 -13.36784077 134.75935268 C-13.3585929 136.24460377 -13.34053357 137.72982664 -13.3135767 139.21486187 C-13.27733929 141.29359211 -13.27227876 143.37021746 -13.27460003 145.44921207 C-13.26349697 146.63279804 -13.25239391 147.81638401 -13.2409544 149.03583622 C-13.84222698 151.94017887 -13.84222698 151.94017887 -16.28102398 153.7521143 C-17.12622097 154.14417561 -17.97141796 154.53623692 -18.84222698 154.94017887 C-22.77337629 158.75220244 -24.68708544 162.10950868 -25.15472698 167.62767887 C-25.0844026 172.40094657 -23.52603495 176.03172067 -20.84222698 179.94017887 C-18.46380121 182.34424271 -18.46380121 182.34424271 -15.84222698 183.94017887 C-15.22347698 184.35267887 -14.60472698 184.76517887 -13.96722698 185.19017887 C-8.80178297 187.01327676 -3.72988026 186.12402395 1.15777302 183.94017887 C5.59698177 180.80661975 8.3680262 178.11055855 10.15777302 172.94017887 C11.02149133 167.20338318 10.09563367 162.81590017 7.52105427 157.66674137 C6.19717118 155.7283872 6.19717118 155.7283872 3.60804462 154.72647953 C1.15777302 152.94017887 1.15777302 152.94017887 0.55650043 150.11176395 C0.56760349 148.96370777 0.57870655 147.81565159 0.59014606 146.63280582 C0.59052372 145.33168354 0.59090137 144.03056126 0.59129047 142.69001102 C0.61682393 141.26948436 0.64290392 139.84896744 0.66949177 138.42846012 C0.67881837 136.97544412 0.68593521 135.52241239 0.69093037 134.06937504 C0.71001284 130.2466925 0.75912242 126.42496133 0.81445026 122.60265446 C0.865617 118.70162165 0.88843877 114.80043496 0.91363239 110.89916325 C0.96724166 103.24573493 1.05256737 95.59309024 1.15777302 87.94017887 C6.57558462 92.56401793 11.91780315 97.23414908 17.09527302 102.12767887 C17.8745113 102.8192609 18.65374958 103.51084293 19.45660114 104.223382 C24.9204485 109.45737425 24.9204485 109.45737425 25.61651325 113.80638981 C25.58746052 116.74877262 25.58746052 116.74877262 25.32525349 119.46532536 C24.97904098 124.5812965 27.28049447 127.90129638 30.53277302 131.75267887 C35.1151087 135.57129194 39.01705647 136.40292554 44.88042927 136.25658512 C49.77583889 135.57643387 53.04371246 133.08434918 56.47027302 129.56517887 C59.77740523 124.42075099 60.62787317 120.17514269 59.75933552 114.18627262 C58.44076576 109.26304138 55.67458458 106.07778755 51.65777302 103.06517887 C47.15135988 101.61668894 42.89748497 101.57472231 38.18121052 101.54174137 C34.21663149 100.75292332 33.39780462 99.20628947 31.15777302 95.94017887 C30.04447013 94.90408491 28.90036293 93.89951293 27.72027302 92.94017887 C23.84279306 89.70066036 20.2757199 86.37254832 17.15777302 82.37767887 C15.27249733 79.79595333 15.27249733 79.79595333 12.40777302 78.31517887 C10.15777302 75.94017887 10.15777302 75.94017887 9.98199177 73.52611637 C10.05871543 71.60537927 10.1395686 69.68480345 10.22417927 67.76439762 C10.1229105 63.45749659 8.77306124 60.33125596 6.15777302 56.94017887 C1.17884166 52.97735596 -2.41946178 51.92498228 -8.65472698 51.81517887 C-14.24125405 51.3921606 -14.24125405 51.3921606 -16.71722698 49.53002262 C-18.15472698 47.75267887 -18.15472698 47.75267887 -19.48285198 45.83861637 C-20.93737882 43.80729441 -22.46575802 42.44376919 -24.40472698 40.87767887 C-26.73185888 38.96151949 -28.6996695 37.03740481 -30.59222698 34.69017887 C-32.73001984 31.80357888 -32.73001984 31.80357888 -35.84222698 29.94017887 C-35.84222698 29.28017887 -35.84222698 28.62017887 -35.84222698 27.94017887 C-37.16222698 27.28017887 -38.48222698 26.62017887 -39.84222698 25.94017887 C-39.1211061 20.07051091 -33.69216166 16.31028125 -29.69696331 12.34887028 C-28.16507141 10.82546599 -26.65272275 9.28440308 -25.14105511 7.74096012 C-24.16367171 6.76196387 -23.18519024 5.7840624 -22.20550823 4.80736637 C-21.32161419 3.9216193 -20.43772015 3.03587223 -19.52704144 2.12328434 C-13.89158081 -2.45908257 -6.47405127 -3.72447934 0 0 Z " fill="#DD4A37" transform="translate(271.8422269821167,209.05982112884521)"/>
<path d="M0 0 C1.14017578 0.00515625 2.28035156 0.0103125 3.45507812 0.015625 C11.83605814 0.09390619 11.83605814 0.09390619 15.3762207 0.74291992 C20.09702723 1.46585107 24.78494562 1.48646012 29.5546875 1.56640625 C30.58941193 1.58718735 31.62413635 1.60796844 32.69021606 1.62937927 C35.98091274 1.6945282 39.27168617 1.75359809 42.5625 1.8125 C44.79948696 1.8557182 47.03646629 1.89933353 49.2734375 1.94335938 C54.7447139 2.05017394 60.21606717 2.15153827 65.6875 2.25 C65.6875 8.85 65.6875 15.45 65.6875 22.25 C55.7875 22.745 55.7875 22.745 45.6875 23.25 C47.3375 25.89 48.9875 28.53 50.6875 31.25 C54.76247518 38.93071079 53.62336108 50.35774416 52.03515625 58.66015625 C49.94447141 65.03988554 46.48278022 69.6240895 41.6875 74.25 C40.800625 75.136875 39.91375 76.02375 39 76.9375 C29.48705627 84.5069391 16.92767758 86.58030626 5.1875 86.4375 C3.67736328 86.4365332 3.67736328 86.4365332 2.13671875 86.43554688 C-3.1138743 86.40458007 -8.13940317 86.15819818 -13.3125 85.25 C-15.6225 88.88 -17.9325 92.51 -20.3125 96.25 C-19.28592285 96.3001123 -18.2593457 96.35022461 -17.20166016 96.40185547 C-13.29853713 96.59388219 -9.39581654 96.79328377 -5.49316406 96.99462891 C-3.82171201 97.07989404 -2.15016401 97.16330368 -0.47851562 97.24462891 C8.49442372 97.6824651 17.43983587 98.23190327 26.375 99.1796875 C27.08530365 99.25178436 27.7956073 99.32388123 28.5274353 99.39816284 C40.26516487 100.72580998 52.4139376 103.84564734 60.26953125 113.1171875 C65.61994952 121.40075519 64.87694459 132.79932205 63.6875 142.25 C62.58179968 146.14477297 61.11441154 149.03214515 58.6875 152.25 C57.635625 153.8278125 57.635625 153.8278125 56.5625 155.4375 C45.98517464 167.14218919 28.28528673 171.76848259 13.07177734 172.55517578 C8.97145613 172.69551049 4.87462727 172.71715236 0.7722168 172.69604492 C-1.7444822 172.68751869 -4.25891272 172.71645314 -6.77539062 172.74804688 C-22.73604603 172.81604551 -39.27419798 170.728381 -51.3125 159.25 C-56.20717127 152.32994751 -56.26302675 144.4938208 -55.3125 136.25 C-53.39981374 131.46516923 -50.79007545 127.69089805 -47.109375 124.1015625 C-45.08035683 122.44081238 -45.08035683 122.44081238 -45.3125 120.25 C-46.735625 119.1053125 -46.735625 119.1053125 -48.1875 117.9375 C-51.06459667 115.60325176 -52.45023096 113.95775687 -53.3125 110.25 C-53.95113097 103.75725178 -52.76501953 99.74461288 -49.3125 94.25 C-47.10457716 91.56531324 -44.69220268 89.15658031 -42.1875 86.75 C-41.23810547 85.80253906 -41.23810547 85.80253906 -40.26953125 84.8359375 C-35.59425731 80.25 -35.59425731 80.25 -33.3125 80.25 C-33.3125 79.26 -33.3125 78.27 -33.3125 77.25 C-34.3334375 76.9715625 -34.3334375 76.9715625 -35.375 76.6875 C-43.82285233 72.55344461 -47.87184901 64.74569091 -51.0625 56.25390625 C-54.25401106 45.59337278 -52.72236571 33.47271555 -48.0234375 23.51953125 C-41.30889754 11.65238977 -32.22453408 5.5897932 -19.25390625 1.59375 C-12.81657095 -0.09505373 -6.619293 -0.12180413 0 0 Z " fill="#302709" transform="translate(485.3125,265.75)"/>
<path d="M0 0 C7.26 0 14.52 0 22 0 C22 11.22 22 22.44 22 34 C33.22 34 44.44 34 56 34 C56 41.59 56 49.18 56 57 C44.78 57 33.56 57 22 57 C22.08873707 64.67809137 22.17930897 72.3557855 22.28729248 80.03356934 C22.33706869 83.6095812 22.38355759 87.18556419 22.421875 90.76171875 C22.45896671 94.21131313 22.50538836 97.66067128 22.55806351 101.11006165 C22.58539565 103.05518823 22.60326418 105.00044043 22.62094116 106.94567871 C22.48160885 117.96106186 22.48160885 117.96106186 27.1796875 127.4765625 C35.33146349 131.8798764 47.32115502 129.02085372 56 127 C62 140.14285714 62 140.14285714 62 147 C46.29868095 154.81975142 25.97794278 159.53213209 8.5 154.875 C1.399764 152.27440249 -5.29417133 148.37873581 -8.91838074 141.52761841 C-13.37489662 131.11325915 -13.41716134 119.87728861 -13.29296875 108.7578125 C-13.28735508 107.2532494 -13.28309339 105.74868071 -13.28010559 104.24411011 C-13.26879581 100.33473862 -13.23945316 96.42571573 -13.20599365 92.51647949 C-13.17498876 88.50712801 -13.16153611 84.49771874 -13.14648438 80.48828125 C-13.11456588 72.65867884 -13.0619166 64.82943319 -13 57 C-18.61 57 -24.22 57 -30 57 C-30 50.07 -30 43.14 -30 36 C-27.2775 35.4121875 -27.2775 35.4121875 -24.5 34.8125 C-17.16062777 32.94523922 -11.5125369 30.68637148 -7.1875 24.25 C-2.92795145 16.60282391 -1.40944535 8.565091 0 0 Z " fill="#302809" transform="translate(655,229)"/>
<path d="M0 0 C15.84 0 31.68 0 48 0 C48.33 32.34 48.66 64.68 49 98 C55.93 98.99 55.93 98.99 63 100 C63 106.27 63 112.54 63 119 C41.55 119 20.1 119 -2 119 C-2 112.73 -2 106.46 -2 100 C-0.06125 99.690625 1.8775 99.38125 3.875 99.0625 C8.07454528 98.46105262 8.07454528 98.46105262 12 97 C12 72.91 12 48.82 12 24 C7.38 22.35 2.76 20.7 -2 19 C-2.25937608 12.12653396 -1.29029142 7.09660281 0 0 Z " fill="#32290C" transform="translate(564,266)"/>
<path d="M0 0 C4.40314009 4.53264421 5.34681557 8.34359889 5.5625 14.5625 C5.40163925 20.21192965 4.87461596 24.79390567 1.125 29.1875 C-6.3910462 35.22150892 -13.43625047 35.81447008 -22.875 35.1875 C-28.0258514 34.04386691 -31.52421916 31.20843701 -34.875 27.1875 C-38.11442439 20.62936461 -37.94431392 12.64704503 -35.8125 5.75 C-26.61603582 -6.41306552 -12.74702643 -8.03616884 0 0 Z " fill="#FCFCF9" transform="translate(502.875,292.8125)"/>
<path d="M0 0 C5.11708619 2.74129617 8.29929725 6.44080857 10.5 11.875 C11.36278493 19.4594815 11.31908464 26.66014389 6.5 32.875 C1.36717255 38.09948508 -2.53749696 39.09684062 -9.6875 39.1875 C-10.43064453 39.21650391 -11.17378906 39.24550781 -11.93945312 39.27539062 C-17.61677075 39.34007523 -20.83767185 38.13804177 -25.5 34.875 C-31.14272794 27.74734366 -31.25156919 20.73504807 -30.5 11.875 C-29.188995 7.1029418 -27.30537442 4.51601229 -23.4375 1.4375 C-16.46166197 -2.27305214 -7.52027683 -2.44444945 0 0 Z " fill="#31280B" transform="translate(601.5,208.125)"/>
<path d="M0 0 C0.74693115 0.03327393 1.4938623 0.06654785 2.26342773 0.10083008 C3.15030273 0.13289551 4.03717773 0.16496094 4.95092773 0.19799805 C5.98088867 0.25487793 7.01084961 0.31175781 8.07202148 0.37036133 C9.28245117 0.4207959 10.49288086 0.47123047 11.73999023 0.52319336 C15.16359254 0.67687022 18.58299926 0.85771508 22.00390625 1.06005859 C23.42580276 1.14201275 24.8480248 1.2184998 26.27050781 1.28955078 C45.97663033 2.27497017 45.97663033 2.27497017 51.07202148 7.37036133 C51.86249347 14.25876009 51.86249347 14.25876009 49.07202148 18.18286133 C40.47094596 24.45447889 30.6838303 24.58755619 20.38452148 24.68286133 C19.35907227 24.71186523 18.33362305 24.74086914 17.27709961 24.77075195 C9.19235021 24.83714598 1.18900094 23.81611813 -5.20410156 18.46533203 C-7.33359115 15.8774337 -7.56736401 13.85984865 -7.36157227 10.54223633 C-6.50095697 6.23140657 -4.81812553 0.92555356 0 0 Z " fill="#FBFAF8" transform="translate(463.927978515625,392.629638671875)"/>
<path d="M0 0 C5.42179492 4.64725279 10.75250836 9.28686095 15.9375 14.1875 C16.71673828 14.87908203 17.49597656 15.57066406 18.29882812 16.28320312 C23.76535597 21.51976311 23.76535597 21.51976311 24.4543457 25.86621094 C24.421875 28.80859375 24.421875 28.80859375 24.15527344 31.52514648 C23.81096056 37.01303901 27.14142157 41.50794818 30 46 C27.6875 45.9375 27.6875 45.9375 25 45 C22.60518333 41.40777499 21.93045841 39.140482 22.1953125 34.796875 C22.54950913 27.55894391 22.02719797 23.7351724 17.23046875 18.28125 C10.28898644 10.77868335 10.28898644 10.77868335 2 5 C2.16242188 5.70898438 2.32484375 6.41796875 2.4921875 7.1484375 C3.00662042 10.0371762 3.13307499 12.69377752 3.125 15.625 C3.12757813 16.56601562 3.13015625 17.50703125 3.1328125 18.4765625 C3 21 3 21 2 24 C1.91518227 26.58630224 1.88401771 29.14478056 1.90234375 31.73046875 C1.9037587 32.48088943 1.90517365 33.23131012 1.90663147 34.00447083 C1.9122244 36.3988546 1.92477556 38.79314453 1.9375 41.1875 C1.94251592 42.81184761 1.94707866 44.43619668 1.95117188 46.06054688 C1.96219152 50.04040069 1.97945127 54.02018444 2 58 C1.01 58.495 1.01 58.495 0 59 C0 39.53 0 20.06 0 0 Z " fill="#CD5140" transform="translate(273,297)"/>
<path d="M0 0 C0.66 0 1.32 0 2 0 C2.11578527 8.6837904 2.2046592 17.36731566 2.25906086 26.05170918 C2.28516951 30.08414765 2.32058908 34.11605856 2.37719727 38.14819336 C2.43147429 42.03857298 2.46141098 45.92844483 2.47438622 49.81917381 C2.48363409 51.30442489 2.50169341 52.78964777 2.52865028 54.274683 C2.56488769 56.35341324 2.56994822 58.43003859 2.56762695 60.5090332 C2.57873001 61.69261917 2.58983307 62.87620514 2.60127258 64.09565735 C2 67 2 67 -0.438797 68.81193542 C-1.70659248 69.40002739 -1.70659248 69.40002739 -3 70 C-6.93328777 73.81409723 -8.8745338 77.14937353 -9.25 82.6875 C-9.21589814 87.2827259 -7.79870849 90.80301353 -6 95 C-9 94 -9 94 -10.171875 92.33203125 C-12.6357292 85.39372483 -11.52761958 76.79297763 -9 70 C-8.01 70 -7.02 70 -6 70 C-6 69.01 -6 68.02 -6 67 C-3.03 66.505 -3.03 66.505 0 66 C0 44.22 0 22.44 0 0 Z " fill="#D97365" transform="translate(256,294)"/>
<path d="M0 0 C0.99 0.495 0.99 0.495 2 1 C2 1.66 2 2.32 2 3 C2.99 3.33 3.98 3.66 5 4 C6.20017423 5.38967542 7.39983005 6.78209326 8.5234375 8.234375 C10.53782412 10.64311243 12.7637313 12.79632997 15 15 C26 26 26 26 28.65234375 28.69140625 C31.03577062 31.11565695 31.03577062 31.11565695 34.0625 33.4375 C37.16713843 36.14580161 38.88953068 38.50960843 41 42 C40.01 42 39.02 42 38 42 C37.731875 41.360625 37.46375 40.72125 37.1875 40.0625 C36.11332248 37.66868314 36.11332248 37.66868314 33 37 C33 36.34 33 35.68 33 35 C32.360625 34.731875 31.72125 34.46375 31.0625 34.1875 C29 33 29 33 28 30 C26.67592331 29.31513275 25.34090759 28.65129797 24 28 C21.75 26 21.75 26 20 24 C20 23.34 20 22.68 20 22 C19.13375 21.9071875 19.13375 21.9071875 18.25 21.8125 C15.07551517 20.66615826 13.87151425 18.74043158 12 16 C12 15.34 12 14.68 12 14 C11.13375 13.62875 11.13375 13.62875 10.25 13.25 C6.51402637 11.17445909 4.35608685 9.06826056 3 5 C2.484375 4.484375 1.96875 3.96875 1.4375 3.4375 C0.963125 2.963125 0.48875 2.48875 0 2 C0 1.34 0 0.68 0 0 Z " fill="#FBEADC" transform="translate(146,334)"/>
<path d="M0 0 C11.22 0 22.44 0 34 0 C34 0.33 34 0.66 34 1 C32.70582153 1.029729 32.70582153 1.029729 31.38549805 1.06005859 C28.18163044 1.13819644 24.97814106 1.22489082 21.7746582 1.31738281 C20.38868093 1.3556435 19.00260535 1.39050156 17.61645508 1.421875 C15.6229836 1.46758699 13.62983086 1.52658925 11.63671875 1.5859375 C10.43748779 1.6173584 9.23825684 1.6487793 8.00268555 1.68115234 C4.82117294 1.78429494 4.82117294 1.78429494 2 4 C1.52264442 6.45981426 1.52264442 6.45981426 1.56762695 9.36767578 C1.54783279 10.48868683 1.52803864 11.60969788 1.50764465 12.76467896 C1.50125473 13.97928802 1.49486481 15.19389709 1.48828125 16.4453125 C1.47033005 17.68546112 1.45237885 18.92560974 1.43388367 20.20333862 C1.38880026 23.50116068 1.35655106 26.79878507 1.33044434 30.09680176 C1.30067269 33.46180805 1.25413089 36.82657733 1.20898438 40.19140625 C1.12381922 46.79416179 1.05556371 53.39693264 1 60 C0.67 60 0.34 60 0 60 C0 40.2 0 20.4 0 0 Z " fill="#F3F2E5" transform="translate(677,286)"/>
<path d="M0 0 C3.24271506 0.5590888 4.93057424 1.4132178 7 4 C7 4.66 7 5.32 7 6 C7.99 6.33 8.98 6.66 10 7 C10 7.66 10 8.32 10 9 C9.34 9 8.68 9 8 9 C8.33 11.97 8.66 14.94 9 18 C7 16 7 16 5.75 13.125 C3.20601396 8.58216778 -0.12759099 6.62413634 -5 5 C-7.05893621 4.77674186 -9.12233653 4.59294241 -11.1875 4.4375 C-12.27417969 4.35371094 -13.36085938 4.26992188 -14.48046875 4.18359375 C-15.31191406 4.12300781 -16.14335937 4.06242187 -17 4 C-17 3.01 -17 2.02 -17 1 C-16.49984375 1.14308594 -15.9996875 1.28617187 -15.484375 1.43359375 C-12.10300343 2.20450394 -8.68658201 2.62399473 -5.25 3.0625 C-4.55261719 3.15337891 -3.85523438 3.24425781 -3.13671875 3.33789062 C-1.42474952 3.56068114 0.28758987 3.78062407 2 4 C2 3.34 2 2.68 2 2 C1.34 2 0.68 2 0 2 C0 1.34 0 0.68 0 0 Z " fill="#D55543" transform="translate(274,256)"/>
<path d="M0 0 C5.43774308 4.60005623 10.76086607 9.2947603 15.9375 14.1875 C16.71673828 14.87908203 17.49597656 15.57066406 18.29882812 16.28320312 C23.76535597 21.51976311 23.76535597 21.51976311 24.4543457 25.86621094 C24.421875 28.80859375 24.421875 28.80859375 24.15527344 31.52514648 C23.81096056 37.01303901 27.14142157 41.50794818 30 46 C27.6875 45.9375 27.6875 45.9375 25 45 C22.61355792 41.42033687 21.89877786 39.19382579 22.265625 34.8671875 C22.64265417 29.04837067 22.62015131 25.17089444 19.10107422 20.45556641 C13.80035272 14.55828325 7.97389938 9.20595922 2 4 C1.01 4.495 1.01 4.495 0 5 C0 3.35 0 1.7 0 0 Z " fill="#C15E54" transform="translate(273,297)"/>
<path d="M0 0 C0 0.66 0 1.32 0 2 C-0.66 2 -1.32 2 -2 2 C-2.33 2.99 -2.66 3.98 -3 5 C-3.99 5.33 -4.98 5.66 -6 6 C-6 5.34 -6 4.68 -6 4 C-8.1385485 6.1385485 -8.42655063 7.13275314 -9 10 C-10.65 10.33 -12.3 10.66 -14 11 C-14 13.64 -14 16.28 -14 19 C-14.66 19.33 -15.32 19.66 -16 20 C-16 14.72 -16 9.44 -16 4 C-12.94010417 3.25130208 -9.88020833 2.50260417 -6.8203125 1.75390625 C-0.25906736 0 -0.25906736 0 0 0 Z " fill="#352F14" transform="translate(641,261)"/>
<path d="M0 0 C0.33 0.66 0.66 1.32 1 2 C-2.41975417 7.7987136 -6.9219354 12.58855392 -12 17 C-12.66 17 -13.32 17 -14 17 C-14 17.66 -14 18.32 -14 19 C-16.25 21.6875 -16.25 21.6875 -19 24 C-20.32 23.67 -21.64 23.34 -23 23 C-15.41 15.41 -7.82 7.82 0 0 Z " fill="#FEE7DC" transform="translate(367,349)"/>
<path d="M0 0 C0.33 0 0.66 0 1 0 C1.00808685 0.73391968 1.01617371 1.46783936 1.02450562 2.22399902 C1.10270612 9.16766659 1.19007205 16.11116608 1.28752708 23.05458832 C1.3373024 26.62359288 1.38363266 30.1925705 1.421875 33.76171875 C1.45896671 37.21131313 1.50538836 40.66067128 1.55806351 44.11006165 C1.58539565 46.05518823 1.60326418 48.00044043 1.62094116 49.94567871 C1.7739016 60.27721117 1.7739016 60.27721117 5 70 C3.35 69.67 1.7 69.34 0 69 C-0.15359422 60.15126358 -0.3017759 51.30245819 -0.4429636 42.45351505 C-0.50868791 38.34501734 -0.57630739 34.23656871 -0.64819336 30.12817383 C-0.71744175 26.16659657 -0.78179646 22.20496781 -0.84269524 18.24325371 C-0.86685236 16.72849049 -0.89280114 15.21375478 -0.92053413 13.69905281 C-0.95894714 11.58465001 -0.99110482 9.47024078 -1.02172852 7.35571289 C-1.04171402 6.14992081 -1.06169952 4.94412872 -1.08229065 3.70179749 C-1 1 -1 1 0 0 Z " fill="#2C2616" transform="translate(676,286)"/>
<path d="M0 0 C0.33 0.66 0.66 1.32 1 2 C0.67 2.66 0.34 3.32 0 4 C-0.66 4 -1.32 4 -2 4 C-1.9175 4.9075 -1.835 5.815 -1.75 6.75 C-2 10 -2 10 -4.0625 11.875 C-6.45758129 14.00614553 -6.45758129 14.00614553 -5.875 17.9375 C-5.29427762 21.14045333 -4.38616379 24.04285058 -3 27 C-3.99 27 -4.98 27 -6 27 C-8.68056188 21.63887624 -9.57197455 18.00573274 -9 12 C-7.11776612 6.77157256 -3.98278967 3.71727036 0 0 Z " fill="#FDEBE5" transform="translate(255,361)"/>
<path d="M0 0 C1.32 0.33 2.64 0.66 4 1 C4 1.99 4 2.98 4 4 C5.051875 3.98259766 5.051875 3.98259766 6.125 3.96484375 C11.86113102 3.91028816 17.32778253 4.14381623 23 5 C23.33 5.99 23.66 6.98 24 8 C24.99 8.33 25.98 8.66 27 9 C29.8644432 12.71316711 30.32332002 15.36574638 30 20 C28.95828125 18.43742188 27.91980387 16.8721511 26.921875 15.28125 C24.13516067 11.04544422 21.98170489 8.60126229 17 7 C13.66782158 6.76732919 10.3639182 6.6249225 7.0234375 6.6015625 C4 6 4 6 1.6015625 3.5234375 C0 1 0 1 0 0 Z " fill="#CD5A4D" transform="translate(303,304)"/>
<path d="M0 0 C10.89 0 21.78 0 33 0 C33 7.59 33 15.18 33 23 C29.04 23 25.08 23 21 23 C21.33 22.01 21.66 21.02 22 20 C24.05078125 20.29296875 26.1015625 20.5859375 28.15234375 20.87890625 C28.76207031 20.91886719 29.37179687 20.95882813 30 21 C31.54950268 19.45049732 31.21655193 17.90009406 31.31640625 15.74609375 C31.35451416 14.9770874 31.39262207 14.20808105 31.43188477 13.41577148 C31.49653931 11.9415271 31.49653931 11.9415271 31.5625 10.4375 C31.706875 7.323125 31.85125 4.20875 32 1 C21.44 1 10.88 1 0 1 C0 0.67 0 0.34 0 0 Z " fill="#403C29" transform="translate(678,263)"/>
<path d="M0 0 C3.53255746 2.58098294 6.20898497 5.15214688 8.7421875 8.734375 C7.0921875 9.064375 5.4421875 9.394375 3.7421875 9.734375 C3.7421875 8.744375 3.7421875 7.754375 3.7421875 6.734375 C2.6078125 6.30125 1.4734375 5.868125 0.3046875 5.421875 C-0.8709375 4.865 -2.0465625 4.308125 -3.2578125 3.734375 C-3.5878125 2.744375 -3.9178125 1.754375 -4.2578125 0.734375 C-10.3660224 0.44176358 -10.3660224 0.44176358 -16.2578125 1.734375 C-16.5878125 2.394375 -16.9178125 3.054375 -17.2578125 3.734375 C-17.9178125 3.734375 -18.5778125 3.734375 -19.2578125 3.734375 C-19.5878125 4.394375 -19.9178125 5.054375 -20.2578125 5.734375 C-20.2578125 4.744375 -20.2578125 3.754375 -20.2578125 2.734375 C-14.4299529 -2.76971463 -7.17920375 -4.02432874 0 0 Z " fill="#CB5A4F" transform="translate(272.2578125,209.265625)"/>
<path d="M0 0 C0.33 0.99 0.66 1.98 1 3 C-1.04074305 6.57130033 -2.55753136 8.7050209 -6 11 C-8.89212821 11.16911354 -11.67444625 11.23303778 -14.5625 11.1875 C-15.34302734 11.18685547 -16.12355469 11.18621094 -16.92773438 11.18554688 C-22.71884586 11.14057707 -22.71884586 11.14057707 -25 10 C-25 9.34 -25 8.68 -25 8 C-26.65 7.67 -28.3 7.34 -30 7 C-29.67 5.68 -29.34 4.36 -29 3 C-28.2575 3.61875 -27.515 4.2375 -26.75 4.875 C-21.94238197 8.58997757 -19.18712188 9.42669806 -13 9 C-7.7892935 7.83024956 -4.83249583 5.5651124 -1 2 C-0.67 1.34 -0.34 0.68 0 0 Z " fill="#D25952" transform="translate(280,386)"/>
<path d="M0 0 C2.31 0.33 4.62 0.66 7 1 C6.67 1.99 6.34 2.98 6 4 C7.32 4 8.64 4 10 4 C11.37890625 5.71484375 11.37890625 5.71484375 12.5625 7.9375 C14.35344079 11.46579184 14.35344079 11.46579184 18 13 C18.71727778 14.64551962 19.38325228 16.31422289 20 18 C20.66 18.66 21.32 19.32 22 20 C19 20 19 20 17.640625 18.6796875 C17.18171875 18.08414062 16.7228125 17.48859375 16.25 16.875 C13.63718638 13.65922939 10.85824662 11.05318012 7.67578125 8.4140625 C1.67540323 3.35080645 1.67540323 3.35080645 0 0 Z " fill="#D05E50" transform="translate(201,389)"/>
<path d="M0 0 C4.13621084 3.3810038 7.81316569 6.66590534 11 11 C7.67778618 12.10740461 5.35896892 11.97233311 2 11 C-0.5986701 8.4013299 -0.63249261 6.60157242 -1 3 C-0.67 2.01 -0.34 1.02 0 0 Z " fill="#D45640" transform="translate(369,306)"/>
<path d="M0 0 C0.33 0.66 0.66 1.32 1 2 C0.505 2.556875 0.01 3.11375 -0.5 3.6875 C-2.24754367 6.38162983 -2.26218749 7.85375007 -2 11 C-8.75 13 -8.75 13 -11 13 C-11 13.66 -11 14.32 -11 15 C-12.32 15.33 -13.64 15.66 -15 16 C-10.30233025 10.33870569 -5.25276628 5.14771096 0 0 Z " fill="#CD533C" transform="translate(191,273)"/>
<path d="M0 0 C2.6008885 3.90133275 2.10543262 5.99022825 1.53515625 10.5 C0.19974659 16.73841011 -4.09712642 20.37613692 -9 24 C-9.66 24 -10.32 24 -11 24 C-11 23.01 -11 22.02 -11 21 C-10.01 21 -9.02 21 -8 21 C-7.731875 20.401875 -7.46375 19.80375 -7.1875 19.1875 C-6.00082594 17.00152146 -4.90400887 15.58667406 -3 14 C-2.34 14 -1.68 14 -1 14 C-0.67 9.38 -0.34 4.76 0 0 Z " fill="#FCE1D6" transform="translate(331,321)"/>
<path d="M0 0 C1.125 3.75 1.125 3.75 0 6 C-0.04454997 10.53518731 0.41673775 14.08622248 2.875 17.9375 C5.02054844 20.14475369 5.02054844 20.14475369 8 22 C8.33 22.99 8.66 23.98 9 25 C9.66 25.66 10.32 26.32 11 27 C10.01 27 9.02 27 8 27 C6.72284113 25.55910282 5.45262667 24.10892397 4.26953125 22.58984375 C2.91676647 20.82767034 2.91676647 20.82767034 0.75 18.8125 C-2.25582694 15.6993221 -2.15974057 12.63060268 -2.1875 8.5 C-2.20167969 7.5409375 -2.21585938 6.581875 -2.23046875 5.59375 C-2 3 -2 3 0 0 Z " fill="#CF6154" transform="translate(147,317)"/>
<path d="M0 0 C0.44730469 0.39832031 0.89460938 0.79664063 1.35546875 1.20703125 C4.14141424 3.64844617 6.71334886 5.83532807 9.9375 7.6875 C10.618125 8.120625 11.29875 8.55375 12 9 C12 9.99 12 10.98 12 12 C9.5 13.6875 9.5 13.6875 7 15 C6.67 14.34 6.34 13.68 6 13 C6.66 13 7.32 13 8 13 C7.50628906 12.48050781 7.01257813 11.96101563 6.50390625 11.42578125 C5.86324219 10.72839844 5.22257812 10.03101563 4.5625 9.3125 C3.92441406 8.62800781 3.28632813 7.94351562 2.62890625 7.23828125 C0.83778902 4.77710578 0.37201442 2.99183426 0 0 Z " fill="#EFEDE1" transform="translate(440,334)"/>
<path d="M0 0 C0.33 0.66 0.66 1.32 1 2 C-1.81178624 6.75840749 -4.29289076 8.95999195 -9 12 C-11.00176215 14.27227054 -12.64833052 16.29666103 -14 19 C-15.32 18.67 -16.64 18.34 -18 18 C-12.06 12.06 -6.12 6.12 0 0 Z " fill="#FEE2D6" transform="translate(335,381)"/>
<path d="M0 0 C2.97 0.495 2.97 0.495 6 1 C5.67 1.99 5.34 2.98 5 4 C8.3 4.66 11.6 5.32 15 6 C15 6.66 15 7.32 15 8 C16.32 8.33 17.64 8.66 19 9 C12.00856438 9.66585101 8.48476146 8.6377229 2.75 4.60546875 C1 3 1 3 0 0 Z " fill="#D65C4F" transform="translate(250,437)"/>
<path d="M0 0 C0.37769531 0.48597656 0.75539062 0.97195313 1.14453125 1.47265625 C3.67999866 3.55974626 5.43615958 3.36672819 8.6875 3.4375 C14.47775587 3.77479646 18.08797701 4.94157059 23 8 C23.33 8.66 23.66 9.32 24 10 C20.9547383 8.98491277 17.93111155 7.97328815 14.9375 6.8125 C11.72508927 5.92396086 10.18512323 6.26497156 7 7 C4.1875 6.5625 4.1875 6.5625 2 6 C1.34 4.02 0.68 2.04 0 0 Z " fill="#FBE7DD" transform="translate(254,256)"/>
<path d="M0 0 C4.13621084 3.3810038 7.81316569 6.66590534 11 11 C7.22953618 11.55447997 5.97066476 10.98118117 2.6875 8.875 C0 6 0 6 -0.375 2.6875 C-0.25125 1.800625 -0.1275 0.91375 0 0 Z " fill="#DC534B" transform="translate(308,245)"/>
<path d="M0 0 C3.95830195 1.70616464 5.8363474 4.00748906 8.4375 7.34375 C10.14840238 9.15730652 11.72512933 10.0194523 14 11 C12.02 11.99 12.02 11.99 10 13 C5.89601599 9.72805658 2.28938344 6.84810612 0 2 C0 1.34 0 0.68 0 0 Z " fill="#393520" transform="translate(431,418)"/>
<path d="M0 0 C5.87419144 4.92619513 11.29755566 9.90423882 16 16 C12.75728494 15.4409112 11.06942576 14.5867822 9 12 C9 11.34 9 10.68 9 10 C8.13375 9.62875 8.13375 9.62875 7.25 9.25 C4.67060021 7.81700012 2.93878408 6.21575324 1 4 C1 3.34 1 2.68 1 2 C0.34 1.67 -0.32 1.34 -1 1 C-0.67 0.67 -0.34 0.34 0 0 Z " fill="#FDF0E4" transform="translate(221,410)"/>
<path d="M0 0 C2.31 0.33 4.62 0.66 7 1 C3.6189962 5.13621084 0.33409466 8.81316569 -4 12 C-4 7.61031544 -1.87194899 6.23094261 1 3 C0.01 3.33 -0.98 3.66 -2 4 C-1.34 2.68 -0.68 1.36 0 0 Z " fill="#DA5144" transform="translate(275,433)"/>
<path d="M0 0 C2 2 2 2 2 6 C4.31 6.66 6.62 7.32 9 8 C9 9.98 9 11.96 9 14 C4.11950075 10.0580583 -0.0580583 5.88049925 -4 1 C-2.125 0.375 -2.125 0.375 0 0 Z " fill="#D06154" transform="translate(226,409)"/>
<path d="M0 0 C1.32 0.66 2.64 1.32 4 2 C2.59023295 5.03852705 0.91129772 7.5939595 -1.125 10.25 C-1.66382813 10.95640625 -2.20265625 11.6628125 -2.7578125 12.390625 C-3.16773438 12.92171875 -3.57765625 13.4528125 -4 14 C-4.94711772 10.59471414 -5.13916677 8.41750032 -4 5 C-1.9375 3.3125 -1.9375 3.3125 0 2 C0 1.34 0 0.68 0 0 Z " fill="#F6F3EA" transform="translate(437,384)"/>
<path d="M0 0 C2.84474381 1.65459589 5.04138935 3.33589484 7 6 C7.43234553 9.13343495 7.31329859 11.98741049 7.11328125 15.140625 C6.98161566 18.46404599 7.653038 20.9693355 9 24 C8.01 24.33 7.02 24.66 6 25 C5.90203125 23.75863281 5.8040625 22.51726562 5.703125 21.23828125 C5.55299828 19.59627026 5.40190569 17.95434737 5.25 16.3125 C5.1571875 15.08756836 5.1571875 15.08756836 5.0625 13.83789062 C4.55945265 8.66069495 3.67545975 5.9070436 0 2 C0 1.34 0 0.68 0 0 Z " fill="#C75F4D" transform="translate(240,264)"/>
<path d="M0 0 C0.66 0 1.32 0 2 0 C2 0.66 2 1.32 2 2 C1.34 2 0.68 2 0 2 C0.33 3.32 0.66 4.64 1 6 C2.32 6 3.64 6 5 6 C5 6.99 5 7.98 5 9 C6.32 9 7.64 9 9 9 C8.67 10.65 8.34 12.3 8 14 C3.86378916 10.6189962 0.18683431 7.33409466 -3 3 C-2.34 3 -1.68 3 -1 3 C-0.67 2.01 -0.34 1.02 0 0 Z " fill="#D25D4D" transform="translate(186,368)"/>
<path d="M0 0 C7.26 0.66 14.52 1.32 22 2 C22 2.33 22 2.66 22 3 C13.76042899 4.77400016 7.88589378 5.47907078 0 2 C0 1.34 0 0.68 0 0 Z " fill="#3B3521" transform="translate(464,361)"/>
<path d="M0 0 C0.33 0.99 0.66 1.98 1 3 C-2.68027475 6.68027475 -7.58432017 6.15865771 -12.5625 6.1875 C-13.67753906 6.20167969 -14.79257812 6.21585937 -15.94140625 6.23046875 C-18.88491377 6.00867189 -20.5206192 5.5337001 -23 4 C-23 3.34 -23 2.68 -23 2 C-21.5459375 2.495 -21.5459375 2.495 -20.0625 3 C-15.02890158 4.40330623 -9.80206093 5.18252113 -4.87109375 3.1015625 C-3.19856427 2.14872752 -1.5911229 1.08331772 0 0 Z " fill="#CA574F" transform="translate(326,341)"/>
<path d="M0 0 C0.33 0 0.66 0 1 0 C1.22913374 5.61377652 1.35202827 10.78463296 -1 16 C-3.27865574 17.90528564 -5.21242534 18.80532515 -8 20 C-8.66 19.67 -9.32 19.34 -10 19 C-9.51789063 18.54109375 -9.03578125 18.0821875 -8.5390625 17.609375 C-7.59160156 16.68898438 -7.59160156 16.68898438 -6.625 15.75 C-5.99851562 15.14671875 -5.37203125 14.5434375 -4.7265625 13.921875 C-1.87808775 10.7511746 -0.79600321 7.96003215 -0.375 3.75 C-0.25125 2.5125 -0.1275 1.275 0 0 Z " fill="#FBDCD2" transform="translate(383,324)"/>
<path d="M0 0 C0.33 0 0.66 0 1 0 C1.08636719 0.9178125 1.17273438 1.835625 1.26171875 2.78125 C2.14709561 10.51408278 3.2701097 15.77646013 8 22 C5.6875 21.9375 5.6875 21.9375 3 21 C-1.26900838 14.67009103 -0.27574131 7.36331418 0 0 Z " fill="#CD5850" transform="translate(295,321)"/>
<path d="M0 0 C0.33 0.66 0.66 1.32 1 2 C1.99 2.66 2.98 3.32 4 4 C3.01 4.495 3.01 4.495 2 5 C2.99 5.66 3.98 6.32 5 7 C0.02693484 6.50269348 -3.63799813 5.44697666 -8 3 C-5.48696401 0.48696401 -3.51117809 0 0 0 Z " fill="#3D3922" transform="translate(663,377)"/>
<path d="M0 0 C6.875 1.875 6.875 1.875 8 3 C8.09969841 4.74765452 8.12968045 6.4995103 8.125 8.25 C8.12757813 9.20390625 8.13015625 10.1578125 8.1328125 11.140625 C8.00628725 13.86463928 7.61005381 16.34675009 7 19 C6.67 19 6.34 19 6 19 C6.06960937 18.21496094 6.13921875 17.42992187 6.2109375 16.62109375 C6.65539578 9.07574173 6.65539578 9.07574173 3 2.75 C2.02734736 1.80436549 1.03605339 0.8757118 0 0 Z " fill="#FAD9CD" transform="translate(240,263)"/>
<path d="M0 0 C4.52615993 3.67832017 8.39424999 7.41086363 12 12 C9.10361872 10.77460792 7.51502345 9.53657796 5.1875 7.3125 C2.13220246 4.5885842 2.13220246 4.5885842 -1.875 5.1875 C-2.90625 5.455625 -3.9375 5.72375 -5 6 C-3.35 4.02 -1.7 2.04 0 0 Z " fill="#C4574D" transform="translate(220,244)"/>
<path d="M0 0 C3.375 0.75 3.375 0.75 7 2 C8.1875 4 8.1875 4 9 6 C11.0335948 7.26804566 11.0335948 7.26804566 13 8 C12.67 8.99 12.34 9.98 12 11 C6.58685333 9.19561778 3.40156693 4.40943861 0 0 Z " fill="#CF6153" transform="translate(238,426)"/>
<path d="M0 0 C0.66 0 1.32 0 2 0 C1.5359375 1.1446875 1.5359375 1.1446875 1.0625 2.3125 C-0.7712392 6.95078152 -1.12236384 10.75564067 -1.0625 15.6875 C-1.05798828 16.38939453 -1.05347656 17.09128906 -1.04882812 17.81445312 C-1.03706927 19.54300538 -1.01913454 21.27151365 -1 23 C-1.66 23 -2.32 23 -3 23 C-4.1053873 19.6838381 -4.16753642 17.11463365 -4.1875 13.625 C-4.20167969 12.50351563 -4.21585938 11.38203125 -4.23046875 10.2265625 C-3.92104079 5.89457107 -3.08585122 3.08585122 0 0 Z " fill="#E6E3D9" transform="translate(573,212)"/>
<path d="M0 0 C2.29186474 3.63788054 2.26795835 6.7618285 2.25 11 C2.25515625 12.216875 2.2603125 13.43375 2.265625 14.6875 C2.01981559 17.75288791 1.6149234 19.43662952 0 22 C-2.06985349 15.13334317 -1.54014555 6.93065498 0 0 Z " fill="#4D4836" transform="translate(434,298)"/>
<path d="M0 0 C0 3 0 3 -1.96875 5.19140625 C-3.22171875 6.36509766 -3.22171875 6.36509766 -4.5 7.5625 C-6.03509839 9.00520821 -7.5439736 10.47752795 -9 12 C-9 12.66 -9 13.32 -9 14 C-9.66 14 -10.32 14 -11 14 C-11 14.66 -11 15.32 -11 16 C-12.32 15.67 -13.64 15.34 -15 15 C-10.05 10.05 -5.1 5.1 0 0 Z " fill="#FEDFD3" transform="translate(316,400)"/>
<path d="M0 0 C4.96646236 3.24730231 8.01872456 5.87220625 11 11 C6.75177626 10.52797514 4.80010291 8.03344482 2 5 C1.67 5.66 1.34 6.32 1 7 C0.34 5.02 -0.32 3.04 -1 1 C-0.67 0.67 -0.34 0.34 0 0 Z " fill="#FBE5D8" transform="translate(200,389)"/>
<path d="M0 0 C0.66 0.33 1.32 0.66 2 1 C3.67654729 0.72057545 5.34608154 0.39171753 7 0 C6.835 1.093125 6.67 2.18625 6.5 3.3125 C5.93281816 6.87525873 5.93281816 6.87525873 6 10 C5.01 10.33 4.02 10.66 3 11 C2.01 10.34 1.02 9.68 0 9 C1.32 8.34 2.64 7.68 4 7 C4 6.01 4 5.02 4 4 C1.525 3.01 1.525 3.01 -1 2 C-0.67 1.34 -0.34 0.68 0 0 Z " fill="#3C361F" transform="translate(448,339)"/>
<path d="M0 0 C0.66 0 1.32 0 2 0 C3.95766918 3.91533836 3.36374641 8.72135573 3 13 C1.5625 16.1875 1.5625 16.1875 0 18 C-0.33 18 -0.66 18 -1 18 C-1.125 15.625 -1.125 15.625 -1 13 C-0.34 12.34 0.32 11.68 1 11 C1.2500773 8.45809998 1.2500773 8.45809998 1 6 C0.67 5.67 0.34 5.34 0 5 C-0.04063832 3.33382885 -0.042721 1.66611905 0 0 Z " fill="#CA5A4E" transform="translate(380,319)"/>
<path d="M0 0 C4.13621084 3.3810038 7.81316569 6.66590534 11 11 C9.35 11 7.7 11 6 11 C4 7.25 4 7.25 4 5 C2.68 4.67 1.36 4.34 0 4 C0 2.68 0 1.36 0 0 Z " fill="#D55E58" transform="translate(336,273)"/>
<path d="M0 0 C0.6076365 2.25693557 1.05860735 4.42978727 1.375 6.75 C2.14349139 10.7461552 3.50047132 14.21857985 5 18 C4.01 18 3.02 18 2 18 C-0.68407013 12.63185975 -1.40013509 9.00202636 -1 3 C-0.67 2.01 -0.34 1.02 0 0 Z " fill="#F9DACC" transform="translate(247,370)"/>
<path d="M0 0 C3.26077969 2.81612791 4.77681642 5.67251412 5.19140625 9.99609375 C5.29782838 13.86276441 5.1832654 15.7251019 3 19 C2.92652344 17.73542969 2.92652344 17.73542969 2.8515625 16.4453125 C2.77679688 15.34960938 2.70203125 14.25390625 2.625 13.125 C2.55539062 12.03445313 2.48578125 10.94390625 2.4140625 9.8203125 C2.26746509 6.86953526 2.26746509 6.86953526 0 5 C-0.125 2.375 -0.125 2.375 0 0 Z " fill="#FDDFD6" transform="translate(278,266)"/>
<path d="M0 0 C0 0.66 0 1.32 0 2 C1.32 2.66 2.64 3.32 4 4 C3.34 6.31 2.68 8.62 2 11 C1.34 11 0.68 11 0 11 C-0.103125 9.906875 -0.20625 8.81375 -0.3125 7.6875 C-0.97307727 4.14440371 -1.2027092 3.06756277 -4 1 C-2 0 -2 0 0 0 Z " fill="#3C361D" transform="translate(515,396)"/>
<path d="M0 0 C0.99 0.33 1.98 0.66 3 1 C2.566875 1.35449219 2.13375 1.70898438 1.6875 2.07421875 C-1.42064481 5.04566274 -2.88079031 6.99489867 -3.3984375 11.359375 C-3.37726724 14.59136797 -3.26155514 17.77899683 -3 21 C-3.66 21 -4.32 21 -5 21 C-5.86140345 7.19840245 -5.86140345 7.19840245 -2.5 2.625 C-1.675 1.75875 -0.85 0.8925 0 0 Z " fill="#FADACE" transform="translate(149,312)"/>
<path d="M0 0 C1.5778125 0.1546875 1.5778125 0.1546875 3.1875 0.3125 C2.8575 1.6325 2.5275 2.9525 2.1875 4.3125 C1.1975 3.6525 0.2075 2.9925 -0.8125 2.3125 C-4.2775 5.2825 -4.2775 5.2825 -7.8125 8.3125 C-8.1425 7.3225 -8.4725 6.3325 -8.8125 5.3125 C-5.88314862 1.76177106 -4.6956049 0.38488565 0 0 Z " fill="#FDE7DC" transform="translate(220.8125,242.6875)"/>
<path d="M0 0 C0.33 0.66 0.66 1.32 1 2 C1.66 2.33 2.32 2.66 3 3 C2.01 3 1.02 3 0 3 C-1.07525194 5.65228812 -2.09456151 8.28368454 -3 11 C-3.99 11 -4.98 11 -6 11 C-4.88059018 6.14922412 -3.8665284 3.222107 0 0 Z " fill="#38311C" transform="translate(577,211)"/>
<path d="M0 0 C0.33 0.99 0.66 1.98 1 3 C0.01 3.33 -0.98 3.66 -2 4 C-2 4.66 -2 5.32 -2 6 C-3.4609375 7.4375 -3.4609375 7.4375 -5.375 9 C-7.34164804 10.61864036 -9.19674196 12.19674196 -11 14 C-11 11 -11 11 -8.59375 8.30078125 C-7.5700032 7.29697757 -6.5383946 6.30114351 -5.5 5.3125 C-4.97535156 4.80138672 -4.45070312 4.29027344 -3.91015625 3.76367188 C-2.61339096 2.50227292 -1.30753883 1.25022788 0 0 Z " fill="#C95546" transform="translate(166,298)"/>
<path d="M0 0 C1.32 0.33 2.64 0.66 4 1 C3.04578192 2.14926266 2.08647955 3.29430541 1.125 4.4375 C0.59132813 5.07558594 0.05765625 5.71367187 -0.4921875 6.37109375 C-2 8 -2 8 -4 9 C-4.33 7.35 -4.66 5.7 -5 4 C-4.360625 3.71125 -3.72125 3.4225 -3.0625 3.125 C-0.84793921 2.17176549 -0.84793921 2.17176549 0 0 Z " fill="#CD584A" transform="translate(286,425)"/>
<path d="M0 0 C1.32 0 2.64 0 4 0 C4 0.66 4 1.32 4 2 C4.66 2.33 5.32 2.66 6 3 C3.69 4.98 1.38 6.96 -1 9 C-0.67 7.68 -0.34 6.36 0 5 C0 4.34 0 3.68 0 3 C-0.99 3.495 -0.99 3.495 -2 4 C-1.34 2.68 -0.68 1.36 0 0 Z " fill="#D65446" transform="translate(355,353)"/>
<path d="M0 0 C0.33 0.66 0.66 1.32 1 2 C-1.50123051 6.16871752 -3.49415979 8.98422938 -8 11 C-8.66 10.67 -9.32 10.34 -10 10 C-6.7 6.7 -3.4 3.4 0 0 Z " fill="#FDE5D9" transform="translate(287,429)"/>
<path d="M0 0 C7.92 0.33 15.84 0.66 24 1 C24 1.33 24 1.66 24 2 C16.41 2.33 8.82 2.66 1 3 C0.67 2.01 0.34 1.02 0 0 Z " fill="#CFCCBD" transform="translate(480,394)"/>
<path d="M0 0 C0.99 0.495 0.99 0.495 2 1 C2 1.66 2 2.32 2 3 C2.99 3.33 3.98 3.66 5 4 C6.28726685 5.48035688 7.57151986 6.96488598 8.79296875 8.5 C10.0937903 10.11655494 11.4941665 11.57342089 13 13 C6.33712984 11.07517084 6.33712984 11.07517084 4 8 C3.67 7.01 3.34 6.02 3 5 C2.484375 4.484375 1.96875 3.96875 1.4375 3.4375 C0.963125 2.963125 0.48875 2.48875 0 2 C0 1.34 0 0.68 0 0 Z " fill="#F9DFD1" transform="translate(146,334)"/>
<path d="M0 0 C2.3125 0.1875 2.3125 0.1875 5 1 C6.6875 3.4375 6.6875 3.4375 8 6 C8.66 6.66 9.32 7.32 10 8 C9.67 8.99 9.34 9.98 9 11 C8.60167969 10.51789063 8.20335937 10.03578125 7.79296875 9.5390625 C7.26316406 8.90742188 6.73335937 8.27578125 6.1875 7.625 C5.66542969 6.99851563 5.14335937 6.37203125 4.60546875 5.7265625 C2.91774261 3.7778952 2.91774261 3.7778952 0 2 C0 1.34 0 0.68 0 0 Z " fill="#D16150" transform="translate(240,241)"/>
<path d="M0 0 C0.33 0.99 0.66 1.98 1 3 C1.99 2.34 2.98 1.68 4 1 C4.66 1.66 5.32 2.32 6 3 C3.03 5.475 3.03 5.475 0 8 C0 7.34 0 6.68 0 6 C-0.66 6 -1.32 6 -2 6 C-1.125 1.125 -1.125 1.125 0 0 Z " fill="#D85345" transform="translate(323,385)"/>
<path d="M0 0 C0.99 0 1.98 0 3 0 C3 0.99 3 1.98 3 3 C3.66 3 4.32 3 5 3 C5.33 2.34 5.66 1.68 6 1 C6.33 1.99 6.66 2.98 7 4 C5.5625 6.1875 5.5625 6.1875 4 8 C0 3.375 0 3.375 0 0 Z " fill="#36311A" transform="translate(433,376)"/>
<path d="M0 0 C1.32 0 2.64 0 4 0 C4.93065133 2.60582371 5.14917407 3.64198224 4.0625 6.25 C3.5365625 7.11625 3.5365625 7.11625 3 8 C0.9375 5.6875 0.9375 5.6875 -1 3 C-0.67 2.01 -0.34 1.02 0 0 Z " fill="#383219" transform="translate(649,370)"/>
<path d="M0 0 C0.33 0 0.66 0 1 0 C0.91284983 1.93833996 0.80467036 3.8757429 0.6875 5.8125 C0.62949219 6.89144531 0.57148438 7.97039062 0.51171875 9.08203125 C-0.03068507 12.17497517 -0.55289624 13.13022903 -3 15 C-3.99 14.67 -4.98 14.34 -6 14 C-5.071875 12.7625 -5.071875 12.7625 -4.125 11.5 C-1.66173499 7.8487774 -0.8868362 4.28637498 0 0 Z " fill="#CF5D54" transform="translate(333,326)"/>
<path d="M0 0 C3.12290635 0.48578543 5.99580359 0.9986012 9 2 C9 2.99 9 3.98 9 5 C7.35 5 5.7 5 4 5 C4 4.34 4 3.68 4 3 C2.68 2.67 1.36 2.34 0 2 C0 1.34 0 0.68 0 0 Z " fill="#D14F35" transform="translate(261,440)"/>
<path d="M0 0 C1.32 0.33 2.64 0.66 4 1 C1.69 3.31 -0.62 5.62 -3 8 C-3.66 7.01 -4.32 6.02 -5 5 C-3.72617782 2.45235564 -2.43334567 1.4600074 0 0 Z " fill="#CB594A" transform="translate(302,410)"/>
<path d="M0 0 C0.33 0 0.66 0 1 0 C1 1.65 1 3.3 1 5 C-0.24891614 5.48198463 -1.49918808 5.96045677 -2.75 6.4375 C-3.79414063 6.83775391 -3.79414063 6.83775391 -4.859375 7.24609375 C-6.89059003 7.96146693 -8.9035291 8.51365652 -11 9 C-11.33 8.34 -11.66 7.68 -12 7 C-11.30132812 6.74605469 -10.60265625 6.49210937 -9.8828125 6.23046875 C-8.97273438 5.88628906 -8.06265625 5.54210937 -7.125 5.1875 C-6.22007812 4.85105469 -5.31515625 4.51460938 -4.3828125 4.16796875 C-1.70574151 3.10350976 -1.70574151 3.10350976 0 0 Z " fill="#423B27" transform="translate(514,408)"/>
<path d="M0 0 C0.33 0.66 0.66 1.32 1 2 C1.99 2.33 2.98 2.66 4 3 C1.69 5.31 -0.62 7.62 -3 10 C-3.33 8.68 -3.66 7.36 -4 6 C-2.625 4.4375 -2.625 4.4375 -1 3 C-0.67 2.01 -0.34 1.02 0 0 Z " fill="#CA584A" transform="translate(334,376)"/>
<path d="M0 0 C1.86610926 2.79916389 2.68785383 4.81938269 3.625 8 C4.01558594 9.299375 4.01558594 9.299375 4.4140625 10.625 C5 13 5 13 5 16 C4.34 16 3.68 16 3 16 C0.89424625 10.47239641 -0.37851209 5.93002267 0 0 Z " fill="#464130" transform="translate(712,360)"/>
<path d="M0 0 C0.33 1.98 0.66 3.96 1 6 C0.01 6.33 -0.98 6.66 -2 7 C-3.65 5.02 -5.3 3.04 -7 1 C-3.375 -1.125 -3.375 -1.125 0 0 Z " fill="#3C331C" transform="translate(507,290)"/>
<path d="M0 0 C0.33 1.32 0.66 2.64 1 4 C0.030625 4.61875 -0.93875 5.2375 -1.9375 5.875 C-5.02835362 7.65678846 -5.02835362 7.65678846 -6 10 C-6.99 9.67 -7.98 9.34 -9 9 C-6.03 6.03 -3.06 3.06 0 0 Z " fill="#CB5644" transform="translate(250,214)"/>
<path d="M0 0 C0.99 0 1.98 0 3 0 C3 0.66 3 1.32 3 2 C3.66 2.33 4.32 2.66 5 3 C2.69 4.98 0.38 6.96 -2 9 C-2.33 7.68 -2.66 6.36 -3 5 C-2.01 5 -1.02 5 0 5 C0 3.35 0 1.7 0 0 Z " fill="#D45548" transform="translate(292,417)"/>
<path d="M0 0 C1.37478516 0.01740234 1.37478516 0.01740234 2.77734375 0.03515625 C3.69644531 0.04417969 4.61554688 0.05320312 5.5625 0.0625 C6.27277344 0.07410156 6.98304688 0.08570313 7.71484375 0.09765625 C4.381729 1.88014805 1.47003432 2.58558481 -2.28515625 3.09765625 C-2.61515625 4.08765625 -2.94515625 5.07765625 -3.28515625 6.09765625 C-3.94515625 6.09765625 -4.60515625 6.09765625 -5.28515625 6.09765625 C-2.98903326 0.12773646 -2.98903326 0.12773646 0 0 Z " fill="#DFDBCF" transform="translate(464.28515625,392.90234375)"/>
<path d="M0 0 C2.43929746 1.92576115 4.80090595 3.80090595 7 6 C3.94736336 6.98120464 2.05263664 6.98120464 -1 6 C-0.67 4.02 -0.34 2.04 0 0 Z " fill="#3A341D" transform="translate(468,320)"/>
<path d="M0 0 C1.32 0.33 2.64 0.66 4 1 C4 1.99 4 2.98 4 4 C7.3 4.33 10.6 4.66 14 5 C14 5.33 14 5.66 14 6 C10.61891061 6.29036073 7.37129273 6.44386926 4 6 C1.375 3.5625 1.375 3.5625 0 1 C0 0.67 0 0.34 0 0 Z " fill="#D16A5B" transform="translate(303,304)"/>
<path d="M0 0 C1.17539996 0.92652701 2.34010577 1.86663387 3.5 2.8125 C4.1496875 3.33457031 4.799375 3.85664063 5.46875 4.39453125 C7 6 7 6 7 9 C6.67 8.34 6.34 7.68 6 7 C4.35 7 2.7 7 1 7 C0.67 4.69 0.34 2.38 0 0 Z " fill="#D46055" transform="translate(361,298)"/>
<path d="M0 0 C1.32 0.33 2.64 0.66 4 1 C1.69 3.31 -0.62 5.62 -3 8 C-3.33 6.68 -3.66 5.36 -4 4 C-2.68 3.34 -1.36 2.68 0 2 C0 1.34 0 0.68 0 0 Z " fill="#C85B4C" transform="translate(350,362)"/>
<path d="M0 0 C0.99 0 1.98 0 3 0 C3 0.66 3 1.32 3 2 C3.66 2.33 4.32 2.66 5 3 C2.69 4.98 0.38 6.96 -2 9 C-1.67 7.68 -1.34 6.36 -1 5 C-0.65939189 3.33480481 -0.32441604 1.66842534 0 0 Z " fill="#D25645" transform="translate(372,337)"/>
<path d="M0 0 C0.99 0.33 1.98 0.66 3 1 C2.3125 3.4375 2.3125 3.4375 1 6 C-1.625 6.8125 -1.625 6.8125 -4 7 C-2.68 4.69 -1.36 2.38 0 0 Z " fill="#3B341D" transform="translate(436,392)"/>
<path d="M0 0 C0.33 0.66 0.66 1.32 1 2 C-2.75 7.875 -2.75 7.875 -5 9 C-5.66 8.34 -6.32 7.68 -7 7 C-4.69 4.69 -2.38 2.38 0 0 Z " fill="#FEE4D9" transform="translate(343,373)"/>
<path d="M0 0 C2.875 0.1875 2.875 0.1875 6 1 C7.375 3.5625 7.375 3.5625 8 6 C5 6 5 6 3.61328125 4.6875 C2.40885417 3.125 1.20442708 1.5625 0 0 Z " fill="#CD6556" transform="translate(159,347)"/>
<path d="M0 0 C4.24822374 0.47202486 6.19989709 2.96655518 9 6 C8.67 6.99 8.34 7.98 8 9 C3.125 4.375 3.125 4.375 2 1 C1.34 0.67 0.68 0.34 0 0 Z " fill="#FEF1E6" transform="translate(156,347)"/>
<path d="M0 0 C0.33 0.66 0.66 1.32 1 2 C2.32 1.34 3.64 0.68 5 0 C5.33 0.66 5.66 1.32 6 2 C5.67 2.33 5.34 2.66 5 3 C5.33 3.66 5.66 4.32 6 5 C5.34 5.66 4.68 6.32 4 7 C2.35 5.02 0.7 3.04 -1 1 C-0.67 0.67 -0.34 0.34 0 0 Z " fill="#D45D4D" transform="translate(297,297)"/>
<path d="M0 0 C2.8125 0 2.8125 0 6 1 C7.58613523 3.50856849 8.49428666 6.0793634 9 9 C8.67 9.99 8.34 10.98 8 12 C7.63648438 11.20335937 7.63648438 11.20335937 7.265625 10.390625 C5.30587441 6.26007376 3.53371028 3.02889453 0 0 Z " fill="#D36157" transform="translate(274,262)"/>
<path d="M0 0 C1.16959987 0.97566112 2.33561177 1.955625 3.5 2.9375 C4.1496875 3.48277344 4.799375 4.02804688 5.46875 4.58984375 C5.9740625 5.05519531 6.479375 5.52054688 7 6 C7 6.33 7 6.66 7 7 C5.02 7 3.04 7 1 7 C0.67 4.69 0.34 2.38 0 0 Z " fill="#D55E55" transform="translate(297,234)"/>
<path d="M0 0 C0.3403125 0.9590625 0.3403125 0.9590625 0.6875 1.9375 C1.85250896 4.27193661 1.85250896 4.27193661 4.625 4.75 C5.40875 4.8325 6.1925 4.915 7 5 C7 6.65 7 8.3 7 10 C5.68 9.34 4.36 8.68 3 8 C3 7.34 3 6.68 3 6 C1.68 5.34 0.36 4.68 -1 4 C-0.67 2.68 -0.34 1.36 0 0 Z " fill="#CF6157" transform="translate(233,231)"/>
<path d="M0 0 C3.67420866 0.30618405 4.78135513 0.75771784 7.3125 3.5625 C8.1478125 4.7690625 8.1478125 4.7690625 9 6 C7.35 6.33 5.7 6.66 4 7 C4 6.01 4 5.02 4 4 C2.68 3.34 1.36 2.68 0 2 C0 1.34 0 0.68 0 0 Z " fill="#D75D56" transform="translate(272,212)"/>
<path d="M0 0 C1.15227823 0.76116551 2.2966386 1.53432693 3.4375 2.3125 C4.07558594 2.74175781 4.71367187 3.17101562 5.37109375 3.61328125 C7 5 7 5 8 8 C3.58110387 6.64978174 1.65654657 4.73884332 -1 1 C-0.67 0.67 -0.34 0.34 0 0 Z " fill="#FBE8DC" transform="translate(240,429)"/>
<path d="M0 0 C6.57142857 5.14285714 6.57142857 5.14285714 8 9 C4.74488211 8.43877278 3.00159929 7.66879905 1 5 C0.3125 2.3125 0.3125 2.3125 0 0 Z " fill="#F9E0D1" transform="translate(213,401)"/>
<path d="M0 0 C1.53690745 2.41040161 2.09752136 3.50082285 1.5390625 6.359375 C1.23742187 7.14828125 0.93578125 7.9371875 0.625 8.75 C0.32851563 9.54921875 0.03203125 10.3484375 -0.2734375 11.171875 C-0.51320313 11.77515625 -0.75296875 12.3784375 -1 13 C-1.33 13 -1.66 13 -2 13 C-2.16682272 8.07872966 -2.24828052 4.49656104 0 0 Z " fill="#4C462D" transform="translate(434,363)"/>
<path d="M0 0 C-1.5830577 4.2742558 -4.50568404 6.26531794 -8 9 C-7.53918323 4.85264908 -4.48412936 0 0 0 Z " fill="#F0ECDE" transform="translate(476,291)"/>
<path d="M0 0 C1.12894876 0.93274109 2.25300876 1.87140122 3.375 2.8125 C4.00148438 3.33457031 4.62796875 3.85664063 5.2734375 4.39453125 C7 6 7 6 9 9 C7.35 9 5.7 9 4 9 C3.896875 8.401875 3.79375 7.80375 3.6875 7.1875 C2.90614947 4.70138466 1.85104584 3.77056558 0 2 C0 1.34 0 0.68 0 0 Z " fill="#D3645F" transform="translate(352,289)"/>
<path d="M0 0 C-2.91777506 1.94518337 -5.8542951 3.46061249 -9 5 C-9.99 5.495 -9.99 5.495 -11 6 C-11 4.68 -11 3.36 -11 2 C-7.17010894 0.19769832 -4.21878192 -0.19622241 0 0 Z " fill="#3A341E" transform="translate(482,288)"/>
<path d="M0 0 C2.96404505 2.80804268 5.44499019 5.18315774 7 9 C3.68167234 8.01347016 2.23451373 7.31268497 0.125 4.5 C-0.24625 3.675 -0.6175 2.85 -1 2 C-0.67 1.34 -0.34 0.68 0 0 Z " fill="#FDE1DE" transform="translate(250,285)"/>
<path d="M0 0 C0 0.66 0 1.32 0 2 C-0.66 2 -1.32 2 -2 2 C-2.33 2.99 -2.66 3.98 -3 5 C-3.99 5.33 -4.98 5.66 -6 6 C-6 5.34 -6 4.68 -6 4 C-7.32 3.67 -8.64 3.34 -10 3 C-8.70990357 2.49596232 -7.41786211 1.99690074 -6.125 1.5 C-5.04605469 1.08234375 -5.04605469 1.08234375 -3.9453125 0.65625 C-2 0 -2 0 0 0 Z " fill="#3F3A24" transform="translate(641,261)"/>
<path d="M0 0 C5.75 1.625 5.75 1.625 8 5 C7.67 5.99 7.34 6.98 7 8 C5.83035398 6.8572081 4.66435444 5.71068285 3.5 4.5625 C2.8503125 3.92441406 2.200625 3.28632813 1.53125 2.62890625 C0 1 0 1 0 0 Z " fill="#FEE1D7" transform="translate(224,247)"/>
<path d="M0 0 C1.32 0.33 2.64 0.66 4 1 C0.535 3.97 0.535 3.97 -3 7 C-2.25 2.25 -2.25 2.25 0 0 Z " fill="#C85B4C" transform="translate(318,394)"/>
<path d="M0 0 C1.32 0 2.64 0 4 0 C4 0.66 4 1.32 4 2 C4.66 2 5.32 2 6 2 C6 3.65 6 5.3 6 7 C3.95880212 5.38405168 1.95927063 3.7143618 0 2 C0 1.34 0 0.68 0 0 Z " fill="#CD6455" transform="translate(175,362)"/>
<path d="M0 0 C0.99 0.33 1.98 0.66 3 1 C0.69 3.31 -1.62 5.62 -4 8 C-4.33 7.01 -4.66 6.02 -5 5 C-4.34 4.01 -3.68 3.02 -3 2 C-2.01 2 -1.02 2 0 2 C0 1.34 0 0.68 0 0 Z " fill="#C85B4C" transform="translate(367,346)"/>
<path d="M0 0 C2.64 0.66 5.28 1.32 8 2 C8 2.66 8 3.32 8 4 C5.03 4 2.06 4 -1 4 C-0.67 2.68 -0.34 1.36 0 0 Z " fill="#F2FDF7" transform="translate(302,336)"/>
<path d="M0 0 C0.66 0.33 1.32 0.66 2 1 C0.50260417 2.23697917 -0.99479167 3.47395833 -2.4921875 4.7109375 C-3.71051161 5.75250992 -4.86660097 6.86660097 -6 8 C-6.33 7.01 -6.66 6.02 -7 5 C-4.88437775 2.67281553 -2.94982021 1.14186589 0 0 Z " fill="#E8E6DC" transform="translate(530,429)"/>
<path d="M0 0 C2.93200474 2.85276137 5.64315404 5.65079784 8 9 C4.74488211 8.43877278 3.00159929 7.66879905 1 5 C0.3125 2.3125 0.3125 2.3125 0 0 Z " fill="#FAE8D8" transform="translate(229,417)"/>
<path d="M0 0 C0.33 0 0.66 0 1 0 C1.48828125 2.01822917 1.9765625 4.03645833 2.46484375 6.0546875 C2.94846992 8.0585657 2.94846992 8.0585657 4 10 C2.35 9.67 0.7 9.34 -1 9 C-0.67 6.03 -0.34 3.06 0 0 Z " fill="#4C4734" transform="translate(677,346)"/>
<path d="M0 0 C0.66 0.33 1.32 0.66 2 1 C2 2.32 2 3.64 2 5 C0.35 5 -1.3 5 -3 5 C-3 4.01 -3 3.02 -3 2 C-2.01 1.34 -1.02 0.68 0 0 Z " fill="#D74E2E" transform="translate(170,296)"/>
<path d="M0 0 C1.32 0 2.64 0 4 0 C3.5359375 0.7734375 3.5359375 0.7734375 3.0625 1.5625 C1.70940713 4.66665423 1.38640576 7.65115007 1 11 C0.67 11 0.34 11 0 11 C0 7.37 0 3.74 0 0 Z " fill="#322C1B" transform="translate(562,366)"/>
<path d="M0 0 C1.64767247 0.28109113 3.29313145 0.57518526 4.9375 0.875 C5.85402344 1.03742188 6.77054687 1.19984375 7.71484375 1.3671875 C8.46894531 1.57601563 9.22304688 1.78484375 10 2 C10.33 2.66 10.66 3.32 11 4 C6.78121808 4.19622241 3.82989106 3.80230168 0 2 C0 1.34 0 0.68 0 0 Z " fill="#413C26" transform="translate(464,361)"/>
<path d="M0 0 C2.75 -0.3125 2.75 -0.3125 6 0 C8.375 2.5 8.375 2.5 10 5 C6.05140217 4.4359146 3.29120954 3.2568294 0 1 C0 0.67 0 0.34 0 0 Z " fill="#E7E4D8" transform="translate(470,322)"/>
<path d="M0 0 C1.32 0.33 2.64 0.66 4 1 C4 1.66 4 2.32 4 3 C4.66 3 5.32 3 6 3 C8 6 8 6 7.625 8.1875 C7.41875 8.785625 7.2125 9.38375 7 10 C6.5875 9.278125 6.175 8.55625 5.75 7.8125 C4.01263197 5.02030138 2.09618143 2.52987415 0 0 Z " fill="#FEE4D9" transform="translate(290,313)"/>
<path d="M0 0 C2.3125 0.1875 2.3125 0.1875 5 1 C6.875 3.4375 6.875 3.4375 8 6 C7.67 6.66 7.34 7.32 7 8 C5.83035398 6.8572081 4.66435444 5.71068285 3.5 4.5625 C2.8503125 3.92441406 2.200625 3.28632813 1.53125 2.62890625 C0 1 0 1 0 0 Z " fill="#FEE3DB" transform="translate(274,297)"/>
<path d="M0 0 C0.33 0.66 0.66 1.32 1 2 C0.67 2.66 0.34 3.32 0 4 C-0.66 4 -1.32 4 -2 4 C-2.33 4.99 -2.66 5.98 -3 7 C-5.5625 8.1875 -5.5625 8.1875 -8 9 C-7.04270084 7.87411986 -6.08412105 6.7493285 -5.125 5.625 C-4.59132812 4.99851562 -4.05765625 4.37203125 -3.5078125 3.7265625 C-2.38567993 2.44163349 -1.20628025 1.20628025 0 0 Z " fill="#C75746" transform="translate(175,289)"/>
<path d="M0 0 C1.8871875 0.0309375 1.8871875 0.0309375 3.8125 0.0625 C3.8125 0.3925 3.8125 0.7225 3.8125 1.0625 C1.5025 1.3925 -0.8075 1.7225 -3.1875 2.0625 C-3.5175 3.3825 -3.8475 4.7025 -4.1875 6.0625 C-5.6875 4.6875 -5.6875 4.6875 -7.1875 3.0625 C-7.1875 2.4025 -7.1875 1.7425 -7.1875 1.0625 C-4.43671116 0.14557039 -2.82801087 -0.04636083 0 0 Z " fill="#D0CFC3" transform="translate(538.1875,287.9375)"/>
<path d="M0 0 C0.268125 0.598125 0.53625 1.19625 0.8125 1.8125 C1.98493467 3.97224808 3.19369282 5.35790256 5 7 C4.67 7.66 4.34 8.32 4 9 C2.35 7.68 0.7 6.36 -1 5 C-0.67 3.35 -0.34 1.7 0 0 Z " fill="#CB5D4F" transform="translate(283,280)"/>
<path d="M0 0 C3.68802044 1.22934015 4.72356973 2.93859378 7 6 C3 6 3 6 1.25 4.6875 C0 3 0 3 0 0 Z " fill="#D64D2E" transform="translate(288,231)"/>
<path d="M0 0 C0.99 0.33 1.98 0.66 3 1 C-0.465 3.97 -0.465 3.97 -4 7 C-4 4 -4 4 -2 1.8125 C-1.34 1.214375 -0.68 0.61625 0 0 Z " fill="#C86354" transform="translate(275,438)"/>
<path d="M0 0 C2.99324263 1.0975223 3.84610901 1.67682892 5.25 4.625 C5.4975 5.40875 5.745 6.1925 6 7 C5.01 7 4.02 7 3 7 C2.71125 6.38125 2.4225 5.7625 2.125 5.125 C1.06279958 2.86674235 1.06279958 2.86674235 -1 1 C-0.67 0.67 -0.34 0.34 0 0 Z " fill="#FAE0D6" transform="translate(275,363)"/>
<path d="M0 0 C1.13732426 3.40401948 0.83989957 5.77456664 0.0625 9.25 C-0.13214844 10.14203125 -0.32679688 11.0340625 -0.52734375 11.953125 C-0.68332031 12.62859375 -0.83929688 13.3040625 -1 14 C-1.33 14 -1.66 14 -2 14 C-2.05410687 12.22950311 -2.09284119 10.45853151 -2.125 8.6875 C-2.14820313 7.70136719 -2.17140625 6.71523438 -2.1953125 5.69921875 C-2 3 -2 3 0 0 Z " fill="#C2604F" transform="translate(147,317)"/>
<path d="M0 0 C3.25543229 0.34879632 4.01873107 1.02133261 6.25 3.5625 C6.8275 4.366875 7.405 5.17125 8 6 C7.67 6.66 7.34 7.32 7 8 C5.83035398 6.8572081 4.66435444 5.71068285 3.5 4.5625 C2.8503125 3.92441406 2.200625 3.28632813 1.53125 2.62890625 C0 1 0 1 0 0 Z " fill="#FFE2DB" transform="translate(282,305)"/>
<path d="M0 0 C2.12508244 3.18762365 2.5020163 5.26512223 3 9 C1.68 8.01 0.36 7.02 -1 6 C-0.67 4.02 -0.34 2.04 0 0 Z " fill="#48402E" transform="translate(535,297)"/>
<path d="M0 0 C0.66 0.99 1.32 1.98 2 3 C0.47793991 5.62901288 -0.84365964 7.84365964 -3 10 C-3.33 9.34 -3.66 8.68 -4 8 C-3.22265625 6.0546875 -3.22265625 6.0546875 -2.0625 3.875 C-1.49208984 2.78832031 -1.49208984 2.78832031 -0.91015625 1.6796875 C-0.60980469 1.12539063 -0.30945313 0.57109375 0 0 Z " fill="#3C351E" transform="translate(469,292)"/>
<path d="M0 0 C0 3 0 3 -1 6 C-2.98 6 -4.96 6 -7 6 C-6.21625 5.38125 -5.4325 4.7625 -4.625 4.125 C-2.03162353 2.10141339 -2.03162353 2.10141339 0 0 Z " fill="#FDEADD" transform="translate(276,440)"/>
<path d="M0 0 C0.99 0.33 1.98 0.66 3 1 C2.67 1.99 2.34 2.98 2 4 C-0.0625 4.6875 -0.0625 4.6875 -2 5 C-2.33 4.01 -2.66 3.02 -3 2 C-2.01 1.34 -1.02 0.68 0 0 Z " fill="#D54B2F" transform="translate(277,394)"/>
<path d="M0 0 C1.65 1.65 3.3 3.3 5 5 C4.01 5 3.02 5 2 5 C1.67 5.66 1.34 6.32 1 7 C0.34 5.02 -0.32 3.04 -1 1 C-0.67 0.67 -0.34 0.34 0 0 Z " fill="#FBF3E8" transform="translate(200,389)"/>
<path d="M0 0 C0.99 0 1.98 0 3 0 C2 3 2 3 -1.0625 4.6875 C-2.031875 5.120625 -3.00125 5.55375 -4 6 C-2.84826645 3.53199953 -1.95216435 1.95216435 0 0 Z " fill="#F5F2E7" transform="translate(501,320)"/>
<path d="M0 0 C2.475 0.495 2.475 0.495 5 1 C4.67 1.99 4.34 2.98 4 4 C2.68 4 1.36 4 0 4 C0 2.68 0 1.36 0 0 Z " fill="#2A2408" transform="translate(625,267)"/>
<path d="M0 0 C2.31 1.98 4.62 3.96 7 6 C6.67 7.32 6.34 8.64 6 10 C4.99421411 8.71283353 3.99553202 7.42011342 3 6.125 C2.443125 5.40570313 1.88625 4.68640625 1.3125 3.9453125 C0 2 0 2 0 0 Z " fill="#C0564C" transform="translate(240,264)"/>
<path d="M0 0 C2.31 1.98 4.62 3.96 7 6 C6.34 6.66 5.68 7.32 5 8 C5 7.34 5 6.68 5 6 C3.68 5.67 2.36 5.34 1 5 C0.67 3.35 0.34 1.7 0 0 Z " fill="#D1655E" transform="translate(319,256)"/>
<path d="M0 0 C0.33 0.99 0.66 1.98 1 3 C-1.40339772 5.76390737 -2.16263678 6.04065919 -6 7 C-4.02 4.69 -2.04 2.38 0 0 Z " fill="#CA544C" transform="translate(214,250)"/>
<path d="M0 0 C2.31 1.98 4.62 3.96 7 6 C6.01 6.495 6.01 6.495 5 7 C2.375 6.0625 2.375 6.0625 0 5 C0 3.35 0 1.7 0 0 Z " fill="#D1685F" transform="translate(281,218)"/>
<path d="M0 0 C1.9375 0.8125 1.9375 0.8125 4 2 C4.33 2.99 4.66 3.98 5 5 C4.34 5.66 3.68 6.32 3 7 C0 2.25 0 2.25 0 0 Z " fill="#3F3A26" transform="translate(431,418)"/>
<path d="M0 0 C0 0.33 0 0.66 0 1 C-4.0527516 1.98248524 -7.83861737 2.08159574 -12 2 C-7.26221957 -0.36889021 -5.36029082 -1.04875255 0 0 Z " fill="#F6CEC1" transform="translate(272,394)"/>
<path d="M0 0 C0.33 0.99 0.66 1.98 1 3 C-1 5 -1 5 -4.125 5.125 C-5.548125 5.063125 -5.548125 5.063125 -7 5 C-4.702779 3.25728062 -2.40133271 1.60088848 0 0 Z " fill="#CB6254" transform="translate(326,341)"/>
<path d="M0 0 C1.98 1.65 3.96 3.3 6 5 C5.34 5.66 4.68 6.32 4 7 C3.01 7 2.02 7 1 7 C0.67 4.69 0.34 2.38 0 0 Z " fill="#D56359" transform="translate(374,311)"/>
<path d="M0 0 C1.875 0.1875 1.875 0.1875 4 1 C5.25 3.5625 5.25 3.5625 6 6 C4 5 2 4 0 3 C0 2.01 0 1.02 0 0 Z " fill="#DF4837" transform="translate(370,310)"/>
<path d="M0 0 C2.475 0.495 2.475 0.495 5 1 C5.33 2.65 5.66 4.3 6 6 C3.97945196 4.35830472 1.97956942 2.69088222 0 1 C0 0.67 0 0.34 0 0 Z " fill="#CD6655" transform="translate(288,290)"/>
<path d="M0 0 C0.33 0 0.66 0 1 0 C1.28875 0.969375 1.5775 1.93875 1.875 2.9375 C2.64214682 6.10664203 2.64214682 6.10664203 5 7 C5 7.66 5 8.32 5 9 C3.35 8.67 1.7 8.34 0 8 C0 5.36 0 2.72 0 0 Z " fill="#504C3A" transform="translate(562,277)"/>
<path d="M0 0 C2.02054804 1.64169528 4.02043058 3.30911778 6 5 C6 5.33 6 5.66 6 6 C4.35 6 2.7 6 1 6 C0.67 4.02 0.34 2.04 0 0 Z " fill="#D3635C" transform="translate(313,250)"/>
</svg>
