<?xml version="1.0" encoding="UTF-8"?>
<svg version="1.1" xmlns="http://www.w3.org/2000/svg" width="290" height="174">
<path d="M0 0 C95.7 0 191.4 0 290 0 C290 57.42 290 114.84 290 174 C194.3 174 98.6 174 0 174 C0 116.58 0 59.16 0 0 Z " fill="#777474" transform="translate(0,0)"/>
<path d="M0 0 C61.05 0 122.1 0 185 0 C185 0.33 185 0.66 185 1 C219.65 1.33 254.3 1.66 290 2 C290 9.59 290 17.18 290 25 C194.3 25 98.6 25 0 25 C0 16.75 0 8.5 0 0 Z " fill="#515A60" transform="translate(0,50)"/>
<path d="M0 0 C95.7 0 191.4 0 290 0 C290 6.93 290 13.86 290 21 C194.3 21 98.6 21 0 21 C0 14.07 0 7.14 0 0 Z " fill="#7A7C7D" transform="translate(0,75)"/>
<path d="M0 0 C95.7 0 191.4 0 290 0 C290 4.29 290 8.58 290 13 C194.3 13 98.6 13 0 13 C0 8.71 0 4.42 0 0 Z " fill="#878281" transform="translate(0,161)"/>
<path d="M0 0 C95.7 0 191.4 0 290 0 C290 4.29 290 8.58 290 13 C230.93 13 171.86 13 111 13 C111 12.67 111 12.34 111 12 C74.37 11.67 37.74 11.34 0 11 C0 7.37 0 3.74 0 0 Z " fill="#797C7D" transform="translate(0,39)"/>
<path d="M0 0 C95.7 0 191.4 0 290 0 C290 3.63 290 7.26 290 11 C270.35436619 11.21048149 250.70854786 11.39568405 231.0625 11.5625 C230.31399859 11.56888284 229.56549718 11.57526568 228.79431391 11.58184195 C175.17116102 12.03727168 121.56082167 11.96487289 67.9375 11.5625 C67.08164134 11.55610205 66.22578267 11.5497041 65.3439889 11.54311228 C43.5624995 11.37993447 21.78118984 11.19921219 0 11 C0 7.37 0 3.74 0 0 Z " fill="#635755" transform="translate(0,150)"/>
<path d="M0 0 C95.7 0 191.4 0 290 0 C290 2.97 290 5.94 290 9 C194.3 9 98.6 9 0 9 C0 6.03 0 3.06 0 0 Z " fill="#7D7573" transform="translate(0,141)"/>
<path d="M0 0 C95.7 0 191.4 0 290 0 C290 2.97 290 5.94 290 9 C194.3 9 98.6 9 0 9 C0 6.03 0 3.06 0 0 Z " fill="#6F7274" transform="translate(0,66)"/>
<path d="M0 0 C95.7 0 191.4 0 290 0 C290 2.31 290 4.62 290 7 C194.3 7 98.6 7 0 7 C0 4.69 0 2.38 0 0 Z " fill="#6B6463" transform="translate(0,116)"/>
<path d="M0 0 C95.7 0 191.4 0 290 0 C290 2.31 290 4.62 290 7 C194.3 7 98.6 7 0 7 C0 4.69 0 2.38 0 0 Z " fill="#6E767A" transform="translate(0,32)"/>
<path d="M0 0 C95.7 0 191.4 0 290 0 C290 2.31 290 4.62 290 7 C194.3 7 98.6 7 0 7 C0 4.69 0 2.38 0 0 Z " fill="#6C6E6F" transform="translate(0,0)"/>
<path d="M0 0 C61.05 0 122.1 0 185 0 C185 0.33 185 0.66 185 1 C219.65 1.33 254.3 1.66 290 2 C290 2.99 290 3.98 290 5 C193.30249468 5.9698245 96.69596484 6.0900701 0 5 C0 3.35 0 1.7 0 0 Z " fill="#525557" transform="translate(0,50)"/>
<path d="M0 0 C95.7 0 191.4 0 290 0 C290 1.65 290 3.3 290 5 C230.93 5 171.86 5 111 5 C111 4.67 111 4.34 111 4 C74.37 3.67 37.74 3.34 0 3 C0 2.01 0 1.02 0 0 Z " fill="#A4A5A6" transform="translate(0,47)"/>
<path d="M0 0 C95.7 0 191.4 0 290 0 C290 1.32 290 2.64 290 4 C274.66667801 4.03282267 259.33335293 4.05167503 244 4.0625 C242.7966526 4.06335602 241.59330521 4.06421204 240.35349274 4.06509399 C187.19287746 4.09821856 134.03452084 3.81703554 80.875 3.5 C79.37048279 3.49103943 79.37048279 3.49103943 77.83557129 3.48189783 C51.89034301 3.32725417 25.94515338 3.16673187 0 3 C0 2.01 0 1.02 0 0 Z " fill="#606365" transform="translate(0,66)"/>
<path d="M0 0 C95.7 0 191.4 0 290 0 C290 1.32 290 2.64 290 4 C264.72917286 4.03117181 239.45834373 4.05116049 214.1875 4.0625 C212.77751999 4.06315145 212.77751999 4.06315145 211.33905554 4.06381607 C157.91139269 4.08783084 104.48815418 3.98146851 51.0625 3.5 C50.39857978 3.49402628 49.73465957 3.48805257 49.05062056 3.48189783 C32.70027575 3.3345311 16.35007159 3.17505596 0 3 C0 2.01 0 1.02 0 0 Z " fill="#636566" transform="translate(0,0)"/>
<path d="M0 0 C95.7 0 191.4 0 290 0 C290 0.99 290 1.98 290 3 C274.10448255 3.2167473 258.20865938 3.39967419 242.3125 3.5625 C240.4501792 3.5815999 240.4501792 3.5815999 238.55023575 3.60108566 C185.42672712 4.13470661 132.31166487 3.90911024 79.1875 3.5625 C78.20368237 3.55610205 77.21986474 3.5497041 76.20623446 3.54311228 C50.80404028 3.37760752 25.40196992 3.1969137 0 3 C0 2.01 0 1.02 0 0 Z " fill="#544E4D" transform="translate(0,150)"/>
<path d="M0 0 C95.7 0 191.4 0 290 0 C290 0.99 290 1.98 290 3 C194.3 3 98.6 3 0 3 C0 2.01 0 1.02 0 0 Z " fill="#A59491" transform="translate(0,113)"/>
<path d="M0 0 C95.7 0 191.4 0 290 0 C290 0.99 290 1.98 290 3 C194.3 3 98.6 3 0 3 C0 2.01 0 1.02 0 0 Z " fill="#494E51" transform="translate(0,32)"/>
<path d="M0 0 C95.7 0 191.4 0 290 0 C290 0.99 290 1.98 290 3 C194.3 3 98.6 3 0 3 C0 2.01 0 1.02 0 0 Z " fill="#929CA2" transform="translate(0,7)"/>
<path d="M0 0 C95.7 0 191.4 0 290 0 C290 0.99 290 1.98 290 3 C194.3 3 98.6 3 0 3 C0 2.01 0 1.02 0 0 Z " fill="#A69A99" transform="translate(0,153)"/>
<path d="M0 0 C95.7 0 191.4 0 290 0 C290 0.99 290 1.98 290 3 C194.3 3 98.6 3 0 3 C0 2.01 0 1.02 0 0 Z " fill="#89979F" transform="translate(0,63)"/>
<path d="M0 0 C95.7 0 191.4 0 290 0 C290 0.99 290 1.98 290 3 C194.3 3 98.6 3 0 3 C0 2.01 0 1.02 0 0 Z " fill="#A1A5A6" transform="translate(0,29)"/>
<path d="M0 0 C95.7 0 191.4 0 290 0 C290 0.99 290 1.98 290 3 C194.3 3 98.6 3 0 3 C0 2.01 0 1.02 0 0 Z " fill="#A69D9C" transform="translate(0,147)"/>
<path d="M0 0 C95.7 0 191.4 0 290 0 C290 0.99 290 1.98 290 3 C194.3 3 98.6 3 0 3 C0 2.01 0 1.02 0 0 Z " fill="#A8A6A5" transform="translate(0,93)"/>
<path d="M0 0 C95.7 0 191.4 0 290 0 C290 0.99 290 1.98 290 3 C194.3 3 98.6 3 0 3 C0 2.01 0 1.02 0 0 Z " fill="#9FA3A5" transform="translate(0,55)"/>
</svg>
