<?xml version="1.0" encoding="UTF-8"?>
<svg version="1.1" xmlns="http://www.w3.org/2000/svg" width="1000" height="1000">
<path d="M0 0 C330 0 660 0 1000 0 C1000 330 1000 660 1000 1000 C670 1000 340 1000 0 1000 C0 670 0 340 0 0 Z " fill="#FBFBFB" transform="translate(0,0)"/>
<path d="M0 0 C1.83257818 1.06900394 3.66594124 2.13666325 5.5 3.203125 C8.47400905 4.93403637 11.44672667 6.66700755 14.41601562 8.40600586 C22.20626711 12.96843136 30.03212554 17.46637157 37.875 21.9375 C56.24700979 32.41484744 74.56473927 42.9832557 92.82128906 53.66064453 C101.11350055 58.50161317 109.44805338 63.26660768 117.79046631 68.02023315 C126.86778636 73.19378787 135.90571533 78.43142154 144.921875 83.7109375 C153.1766183 88.5371234 161.47606128 93.28274884 169.78396606 98.01647949 C179.02759077 103.28477624 188.23169685 108.61773202 197.4140625 113.9921875 C203.75451497 117.69995543 210.11691612 121.36616183 216.5 125 C224.25414568 129.41584457 231.97933209 133.87936076 239.6875 138.375 C240.6671875 138.94605469 241.646875 139.51710938 242.65625 140.10546875 C245.44053842 141.73185884 248.22055257 143.36535419 251 145 C251.90613037 145.52722656 252.81226074 146.05445313 253.74584961 146.59765625 C265.71721362 153.63793994 277.75233725 164.03118116 281.54382855 178.00420606 C283.12752336 185.21400412 283.28853719 192.18516428 283.27415466 199.54702759 C283.27861511 200.89719257 283.28393179 202.24735495 283.29002339 203.59751356 C283.30411701 207.28376693 283.30586833 210.96993564 283.30542648 214.65621209 C283.30708235 218.6414005 283.32016311 222.6265548 283.33161926 226.61172485 C283.35440838 235.31440834 283.3623832 244.01706735 283.36744571 252.71977663 C283.37070962 258.16033953 283.37723624 263.6008954 283.3844471 269.04145432 C283.40400455 284.1242964 283.42041394 299.20713198 283.42332363 314.28998756 C283.4235112 315.25398785 283.42369877 316.21798814 283.42389202 317.21120056 C283.42425826 319.1651957 283.42462196 321.11919085 283.42498314 323.073186 C283.42516595 324.04306294 283.42534876 325.01293988 283.42553711 326.01220703 C283.42580793 327.46881153 283.42580793 327.46881153 283.42608423 328.95484237 C283.42962448 344.68298448 283.45664138 360.41098957 283.494035 376.13908418 C283.532177 392.31222281 283.55148153 408.48529355 283.55178314 424.65847814 C283.55236636 433.72895703 283.56077076 442.7992724 283.58978081 451.86970901 C283.61437359 459.59413802 283.62152451 467.31834382 283.60653328 475.04280145 C283.59939669 478.97808431 283.60007981 482.91292714 283.62294388 486.84815979 C283.82479766 523.79564765 283.82479766 523.79564765 272 540 C271.48824219 540.70511719 270.97648438 541.41023437 270.44921875 542.13671875 C263.19652649 551.22422098 251.86717891 556.32316941 241.9375 562 C240.22322244 562.98466941 238.50894704 563.96934262 236.7947998 564.95423889 C235.0304869 565.96752547 233.26555667 566.97972932 231.50048828 567.99169922 C225.95343315 571.17289219 220.41410423 574.36748893 214.875 577.5625 C213.79855225 578.18318359 212.72210449 578.80386719 211.61303711 579.44335938 C204.39630967 583.60783722 197.19408255 587.79654281 190 592 C176.26944812 600.02267511 162.48922034 607.95858259 148.70898438 615.89550781 C145.43068938 617.78398493 142.15271515 619.67301666 138.875 621.5625 C137.25658203 622.49545898 137.25658203 622.49545898 135.60546875 623.44726562 C128.43128049 627.58688448 121.2744002 631.75524921 114.125 635.9375 C104.85436069 641.35958699 95.54063301 646.70324012 86.20953369 652.02023315 C78.11292157 656.63484029 70.04211199 661.29084886 62 666 C52.77538489 671.40157943 43.50740122 676.72361919 34.21905518 682.01446533 C25.9073278 686.75002092 17.62920391 691.53969319 9.375 696.375 C6.48568763 698.05948334 3.5952993 699.74209476 0.70410156 701.42333984 C-1.06212071 702.45315778 -2.82591171 703.48716008 -4.58691406 704.52587891 C-20.27499861 713.7641434 -34.27117513 718.80874967 -52.875 715.0625 C-65.49681791 711.44661107 -76.98609558 703.51372308 -88.1875 696.84765625 C-93.90716261 693.45008926 -99.67266081 690.13264483 -105.4375 686.8125 C-107.09736938 685.85609619 -107.09736938 685.85609619 -108.79077148 684.88037109 C-111.0620547 683.57189492 -113.3334587 682.26362839 -115.60498047 680.95556641 C-121.0716998 677.80667946 -126.53574887 674.65316736 -132 671.5 C-134.16665311 670.2499765 -136.33331979 668.99997653 -138.5 667.75 C-142.83333333 665.25 -147.16666667 662.75 -151.5 660.25 C-152.57266113 659.63116943 -153.64532227 659.01233887 -154.75048828 658.37475586 C-156.91557071 657.12564482 -159.08060982 655.87645871 -161.24560547 654.62719727 C-166.68615706 651.48797691 -172.12747216 648.35009437 -177.5703125 645.21484375 C-188.02206199 639.19252671 -198.46299548 633.15330663 -208.875 627.0625 C-218.14563931 621.64041301 -227.45936699 616.29675988 -236.79046631 610.97976685 C-245.86778636 605.80621213 -254.90571533 600.56857846 -263.921875 595.2890625 C-271.58574368 590.80833505 -279.2869929 586.39529866 -287 582 C-298.85401913 575.24293034 -310.6668057 568.41853932 -322.42919922 561.50292969 C-324.76872748 560.13520547 -327.11797402 558.78671592 -329.47265625 557.4453125 C-344.95108733 548.55408708 -356.03260107 537.94313051 -360.95783997 520.28824425 C-363.52167359 509.11494759 -362.68509751 497.18420291 -362.62430525 485.77250302 C-362.60873437 481.80996539 -362.62231671 477.84750551 -362.63204956 473.88496399 C-362.64650482 466.1436196 -362.63441529 458.40253936 -362.61293632 450.66122011 C-362.58881208 441.63204357 -362.59064762 432.60292608 -362.59324223 423.57372447 C-362.59692449 407.45737961 -362.57617371 391.34115848 -362.54199219 375.22485352 C-362.50888943 359.61121496 -362.49473765 343.99770615 -362.50097656 328.3840332 C-362.50775026 311.3483909 -362.50525381 294.31280278 -362.48561716 277.27716845 C-362.48457768 276.37525796 -362.48353819 275.47334747 -362.4824672 274.54410636 C-362.48037644 272.73305814 -362.47826546 270.92200994 -362.47613403 269.11096177 C-362.46925808 262.82707572 -362.46856582 256.54320642 -362.47001648 250.2593174 C-362.47146052 242.59681647 -362.46168629 234.93442087 -362.43807012 227.27195481 C-362.42626263 223.36750125 -362.4190498 219.46319395 -362.42490768 215.55872345 C-362.43012272 211.97675964 -362.42124112 208.39510338 -362.40163308 204.81319197 C-362.39473334 202.92077119 -362.4022877 201.0283142 -362.41055441 199.13589889 C-362.28384521 183.02410094 -358.03230689 168.96983495 -347 157 C-340.29154005 150.45860898 -332.31246588 146.23064382 -324.1484375 141.81640625 C-318.52782924 138.76873432 -313.01381303 135.54837967 -307.5 132.3125 C-299.05773182 127.36760802 -290.60191741 122.44778408 -282.125 117.5625 C-280.50779053 116.63026611 -280.50779053 116.63026611 -278.85791016 115.67919922 C-274.47536799 113.1535448 -270.09216077 110.62904571 -265.70898438 108.10449219 C-262.43068938 106.21601507 -259.15271515 104.32698334 -255.875 102.4375 C-254.79605469 101.81552734 -253.71710938 101.19355469 -252.60546875 100.55273438 C-245.43128049 96.41311552 -238.2744002 92.24475079 -231.125 88.0625 C-221.85500223 82.64078822 -212.54168248 77.29795085 -203.21154785 71.98077393 C-194.0871716 66.77954871 -184.99867226 61.51972122 -175.93310547 56.21655273 C-163.22639875 48.78589621 -150.46437407 41.45114245 -137.70898438 34.10449219 C-126.12317259 27.43043127 -114.54522567 20.74407117 -103 14 C-101.03649254 12.85541006 -99.07295064 11.71087921 -97.109375 10.56640625 C-93.36362429 8.38260671 -89.62273917 6.19084117 -85.88635254 3.99105835 C-84.14459298 2.9671763 -82.4008243 1.9468121 -80.65625 0.92773438 C-78.46009828 -0.3554529 -76.26713012 -1.64411204 -74.078125 -2.93945312 C-46.93511057 -18.74402722 -26.19031404 -15.47791495 0 0 Z " fill="#9A4E96" transform="translate(541,149)"/>
<path d="M0 0 C8.61974251 3.69691179 14.63513695 13.58784238 18 22 C20.13058124 29.82250246 20.28990701 37.48400511 20.27415466 45.54702759 C20.27861511 46.89719257 20.28393179 48.24735495 20.29002339 49.59751356 C20.30411701 53.28376693 20.30586833 56.96993564 20.30542648 60.65621209 C20.30708235 64.6414005 20.32016311 68.6265548 20.33161926 72.61172485 C20.35440838 81.31440834 20.3623832 90.01706735 20.36744571 98.71977663 C20.37070962 104.16033953 20.37723624 109.6008954 20.3844471 115.04145432 C20.40400455 130.1242964 20.42041394 145.20713198 20.42332363 160.28998756 C20.4235112 161.25398785 20.42369877 162.21798814 20.42389202 163.21120056 C20.42425826 165.1651957 20.42462196 167.11919085 20.42498314 169.073186 C20.42516595 170.04306294 20.42534876 171.01293988 20.42553711 172.01220703 C20.42580793 173.46881153 20.42580793 173.46881153 20.42608423 174.95484237 C20.42962448 190.68298448 20.45664138 206.41098957 20.494035 222.13908418 C20.532177 238.31222281 20.55148153 254.48529355 20.55178314 270.65847814 C20.55236636 279.72895703 20.56077076 288.7992724 20.58978081 297.86970901 C20.61437359 305.59413802 20.62152451 313.31834382 20.60653328 321.04280145 C20.59939669 324.97808431 20.60007981 328.91292714 20.62294388 332.84815979 C20.82479766 369.79564765 20.82479766 369.79564765 9 386 C8.48824219 386.70511719 7.97648438 387.41023438 7.44921875 388.13671875 C0.19652649 397.22422098 -11.13282109 402.32316941 -21.0625 408 C-22.77677756 408.98466941 -24.49105296 409.96934262 -26.2052002 410.95423889 C-27.9695131 411.96752547 -29.73444333 412.97972932 -31.49951172 413.99169922 C-37.04656685 417.17289219 -42.58589577 420.36748893 -48.125 423.5625 C-49.20144775 424.18318359 -50.27789551 424.80386719 -51.38696289 425.44335938 C-58.60369033 429.60783722 -65.80591745 433.79654281 -73 438 C-86.73055188 446.02267511 -100.51077966 453.95858259 -114.29101562 461.89550781 C-117.56931062 463.78398493 -120.84728485 465.67301666 -124.125 467.5625 C-125.20394531 468.18447266 -126.28289062 468.80644531 -127.39453125 469.44726562 C-134.56871951 473.58688448 -141.7255998 477.75524921 -148.875 481.9375 C-158.14563931 487.35958699 -167.45936699 492.70324012 -176.79046631 498.02023315 C-184.88707843 502.63484029 -192.95788801 507.29084886 -201 512 C-210.22461511 517.40157943 -219.49259878 522.72361919 -228.78094482 528.01446533 C-237.0926722 532.75002092 -245.37079609 537.53969319 -253.625 542.375 C-256.51431237 544.05948334 -259.4047007 545.74209476 -262.29589844 547.42333984 C-264.06212071 548.45315778 -265.82591171 549.48716008 -267.58691406 550.52587891 C-283.27499861 559.7641434 -297.27117513 564.80874967 -315.875 561.0625 C-328.49681791 557.44661107 -339.98609558 549.51372308 -351.1875 542.84765625 C-356.90716261 539.45008926 -362.67266081 536.13264483 -368.4375 532.8125 C-370.09736938 531.85609619 -370.09736938 531.85609619 -371.79077148 530.88037109 C-374.0620547 529.57189492 -376.3334587 528.26362839 -378.60498047 526.95556641 C-384.0716998 523.80667946 -389.53574887 520.65316736 -395 517.5 C-397.16665311 516.2499765 -399.33331979 514.99997653 -401.5 513.75 C-405.83333333 511.25 -410.16666667 508.75 -414.5 506.25 C-415.57266113 505.63116943 -416.64532227 505.01233887 -417.75048828 504.37475586 C-419.91557071 503.12564482 -422.08060982 501.87645871 -424.24560547 500.62719727 C-429.68615706 497.48797691 -435.12747216 494.35009437 -440.5703125 491.21484375 C-451.02206199 485.19252671 -461.46299548 479.15330663 -471.875 473.0625 C-481.14563931 467.64041301 -490.45936699 462.29675988 -499.79046631 456.97976685 C-508.86778636 451.80621213 -517.90571533 446.56857846 -526.921875 441.2890625 C-534.58574368 436.80833505 -542.2869929 432.39529866 -550 428 C-561.84589067 421.24756376 -573.65192565 414.42972882 -585.40722656 407.52050781 C-587.81659588 406.10755564 -590.23173671 404.7050483 -592.6484375 403.3046875 C-593.99508559 402.51612673 -595.34146371 401.72710463 -596.6875 400.9375 C-597.80511719 400.28652344 -598.92273438 399.63554688 -600.07421875 398.96484375 C-603.11544801 396.92246949 -605.50428123 394.67166926 -608 392 C-600.31761542 387.15396891 -592.52285638 382.54812391 -584.625 378.0625 C-577.85833256 374.21898967 -571.13109495 370.32738871 -564.47241211 366.29980469 C-559.01436086 362.99878726 -553.51977894 359.76200671 -548.01416016 356.54101562 C-543.25688175 353.75443621 -538.54657903 350.90219792 -533.8828125 347.9609375 C-532 347 -532 347 -529 347 C-529 346.34 -529 345.68 -529 345 C-528.39414062 344.70867187 -527.78828125 344.41734375 -527.1640625 344.1171875 C-520.89744038 341.05136314 -514.93140282 337.66731147 -509 334 C-496.15070999 326.06033783 -483.12332904 318.47408533 -470 311 C-470.66 310.34 -471.32 309.68 -472 309 C-473.96618406 304.73993453 -475.58063361 300.47646322 -477 296 C-473.78140713 299.04096379 -471.70256008 302.60652672 -469.4375 306.375 C-462.93784986 316.96284977 -455.58284376 326.5184717 -447.15234375 335.66015625 C-445.03283386 337.96430584 -442.98564658 340.31995434 -440.9375 342.6875 C-437.22734809 346.84692812 -433.30245616 350.46411308 -429 354 C-428.4858252 354.43183594 -427.97165039 354.86367188 -427.44189453 355.30859375 C-406.41877084 372.93434244 -382.1384315 386.57562494 -356 395 C-354.82824219 395.38542969 -353.65648437 395.77085937 -352.44921875 396.16796875 C-300.86678184 411.98819911 -243.52378149 405.24520564 -195.9375 380.5 C-188.3060578 376.42521463 -180.98279595 372.12335454 -174 367 C-173.4750293 366.61489258 -172.95005859 366.22978516 -172.40917969 365.83300781 C-165.7050506 360.88051409 -159.3377963 355.67488964 -153.20703125 350.01953125 C-151.28517848 348.26095093 -149.32352511 346.59180225 -147.3125 344.9375 C-143.44986123 341.62922143 -140.23309299 337.91690115 -137 334 C-136.51740723 333.41911621 -136.03481445 332.83823242 -135.53759766 332.23974609 C-133.8907314 330.25063499 -132.25630276 328.25188932 -130.625 326.25 C-130.0885083 325.59974854 -129.5520166 324.94949707 -128.99926758 324.27954102 C-128.4967749 323.65619873 -127.99428223 323.03285645 -127.4765625 322.390625 C-127.02361816 321.83407227 -126.57067383 321.27751953 -126.10400391 320.70410156 C-124.88406875 318.8210526 -124.42299171 317.19094152 -124 315 C-124.82274414 314.51345947 -125.64548828 314.02691895 -126.49316406 313.52563477 C-140.70337706 305.11911072 -154.90622362 296.70205895 -169.01135254 288.12002563 C-170.74215252 287.0672732 -172.47398668 286.01624079 -174.20605469 284.96557617 C-179.50295855 281.74916054 -184.78735833 278.5155114 -190.046875 275.23828125 C-190.9740332 274.66650146 -191.90119141 274.09472168 -192.85644531 273.50561523 C-194.56527656 272.45156242 -196.26822889 271.38789173 -197.96386719 270.31274414 C-198.70797852 269.85633545 -199.45208984 269.39992676 -200.21875 268.9296875 C-200.85748047 268.52991699 -201.49621094 268.13014648 -202.15429688 267.71826172 C-204.55977557 266.78216141 -205.62896472 267.02769219 -208 268 C-209.63623507 269.27383824 -209.63623507 269.27383824 -211.1015625 270.9140625 C-211.66907227 271.50703125 -212.23658203 272.1 -212.82128906 272.7109375 C-213.71412598 273.65839844 -213.71412598 273.65839844 -214.625 274.625 C-220.02439434 280.18410657 -225.37533231 284.91902775 -232 289 C-232.76183594 289.50660156 -233.52367187 290.01320313 -234.30859375 290.53515625 C-241.41887239 295.100212 -249.03379925 298.27462472 -257 301 C-257.71349609 301.2470166 -258.42699219 301.4940332 -259.16210938 301.74853516 C-285.24028196 310.40507141 -314.6528211 307.87686632 -339.29296875 295.9375 C-350.63366102 290.1409482 -359.91273558 282.86141136 -369 274 C-369.71671875 273.35675781 -370.4334375 272.71351563 -371.171875 272.05078125 C-386.13590354 258.25394694 -394.1955547 238.34186294 -399 219 C-399.2475 218.00871094 -399.495 217.01742187 -399.75 215.99609375 C-405.2742287 189.02711613 -398.23905796 161.08883104 -384 138 C-368.11998058 114.71304572 -346.38834754 98.29207576 -319 91 C-318.06591309 90.74702148 -317.13182617 90.49404297 -316.16943359 90.23339844 C-308.16050142 88.2030331 -300.62580952 87.45498614 -292.375 87.5 C-291.15804443 87.50499512 -289.94108887 87.50999023 -288.68725586 87.51513672 C-273.12470603 87.81301405 -259.76834794 91.80122668 -246 99 C-245.0821875 99.44988281 -244.164375 99.89976562 -243.21875 100.36328125 C-235.43901738 104.331392 -228.7162931 109.48214545 -222 115 C-221.071875 115.74894531 -220.14375 116.49789062 -219.1875 117.26953125 C-209.69238374 125.37074236 -200.884211 135.94667309 -195 147 C-195 147.66 -195 148.32 -195 149 C-187.5196284 144.97175866 -180.13921205 140.80071541 -172.8125 136.5 C-170.6901486 135.25773658 -168.5677515 134.01555124 -166.4453125 132.7734375 C-165.37313477 132.1453418 -164.30095703 131.51724609 -163.19628906 130.87011719 C-160.15161925 129.08871093 -157.10392803 127.3126314 -154.0546875 125.5390625 C-142.75081551 118.96262353 -131.4842695 112.32661724 -120.24349976 105.64312744 C-113.28927549 101.51079579 -106.31336084 97.43888382 -99.23486328 93.52368164 C-91.15851584 89.0255841 -83.24503813 84.23981234 -75.3125 79.49414062 C-74.19617188 78.82833984 -73.07984375 78.16253906 -71.9296875 77.4765625 C-70.93179199 76.87924316 -69.93389648 76.28192383 -68.90576172 75.66650391 C-60.76911808 71 -60.76911808 71 -58 71 C-58 70.34 -58 69.68 -58 69 C-57.36835937 68.6596875 -56.73671875 68.319375 -56.0859375 67.96875 C-46.67259391 62.86872523 -37.30789762 57.6910416 -28.2109375 52.04296875 C-26.99192749 51.28729614 -26.99192749 51.28729614 -25.74829102 50.51635742 C-24.14593021 49.51883683 -22.54732923 48.5152467 -20.95288086 47.50512695 C-20.22206299 47.04968506 -19.49124512 46.59424316 -18.73828125 46.125 C-18.08899658 45.71507812 -17.43971191 45.30515625 -16.77075195 44.8828125 C-15 44 -15 44 -12 44 C-12 43.34 -12 42.68 -12 42 C-10.78376953 41.36384766 -10.78376953 41.36384766 -9.54296875 40.71484375 C-2.94601804 37.22053342 3.37867487 33.58705946 9.5625 29.3828125 C12 28 12 28 17 27 C14.525 21.06 14.525 21.06 12 15 C9.69 15.33 7.38 15.66 5 16 C5.350625 15.2575 5.70125 14.515 6.0625 13.75 C7.09539211 10.72018315 7.06310299 9.92353323 6 7 C4.6132802 5.04173581 4.6132802 5.04173581 2.9375 3.25 C2.38964844 2.63640625 1.84179688 2.0228125 1.27734375 1.390625 C0.85582031 0.93171875 0.43429687 0.4728125 0 0 Z " fill="#7F3687" transform="translate(804,303)"/>
<path d="M0 0 C0.93908203 0.20367187 1.87816406 0.40734375 2.84570312 0.6171875 C32.14556174 7.25111775 60.14037952 20.86243016 84 39 C84.94101562 39.70898438 85.88203125 40.41796875 86.8515625 41.1484375 C93.03858554 45.96056653 98.82458471 51.22467006 104.51953125 56.60302734 C105.9223676 57.92674594 107.33588955 59.23911346 108.75 60.55078125 C119.20243178 70.56263088 127.62376156 82.27607253 135.6875 94.25 C136.09750244 94.8574707 136.50750488 95.46494141 136.92993164 96.09082031 C139.04485488 99.30178548 140.63103969 102.4178302 142 106 C133.78758268 111.10075393 125.52057328 116.08618879 117.16778564 120.95483398 C114.02122455 122.78922993 110.87788985 124.6291403 107.734375 126.46875 C107.09299591 126.84398804 106.45161682 127.21922607 105.790802 127.60583496 C99.63143319 131.21146085 93.48610814 134.84058747 87.34649658 138.47973633 C85.64334819 139.48912575 83.93959719 140.49749816 82.23583984 141.50585938 C77.50275059 144.31096815 72.77681517 147.1247564 68.0859375 150 C67.38001465 150.43119141 66.6740918 150.86238281 65.94677734 151.30664062 C64.16914294 152.39631669 62.39678435 153.49458749 60.625 154.59375 C58 156 58 156 55 156 C53.45703125 153.9453125 53.45703125 153.9453125 51.8125 151.125 C48.289542 145.34734888 44.3405988 140.18099417 40 135 C39.44699219 134.31164062 38.89398437 133.62328125 38.32421875 132.9140625 C24.21038568 115.8696722 2.94225654 104.40541944 -18.0847168 98.53540039 C-19.95119311 98.01364353 -21.80599681 97.450684 -23.66015625 96.88671875 C-47.78802925 91.01714402 -76.05762357 97.66015989 -96.96875 110.35546875 C-104.63143775 115.204261 -111.48634766 120.67792567 -118 127 C-118.598125 127.53625 -119.19625 128.0725 -119.8125 128.625 C-134.3742241 142.10807787 -143.72490502 161.86835948 -148 181 C-148.22300781 181.92039062 -148.44601562 182.84078125 -148.67578125 183.7890625 C-154.59465185 212.37680487 -146.49216469 241.8678435 -131 266 C-128.54502188 269.56095816 -125.91255746 272.80442018 -123 276 C-122.35272949 276.7108374 -122.35272949 276.7108374 -121.69238281 277.43603516 C-106.55926181 293.83814787 -87.60370522 304.60038365 -66 310 C-64.90486084 310.27710815 -64.90486084 310.27710815 -63.78759766 310.55981445 C-45.23053098 314.78420272 -24.89709615 313.12527502 -7 307 C-6.3287207 306.78069824 -5.65744141 306.56139648 -4.96582031 306.33544922 C13.48421169 300.19310689 28.79331251 288.70697532 41.40234375 274.046875 C43 273 43 273 45.25683594 273.23779297 C48.4112813 274.11427734 50.70703199 275.42034259 53.48828125 277.1484375 C54.57117432 277.81464111 55.65406738 278.48084473 56.76977539 279.16723633 C57.63338181 279.70545517 57.63338181 279.70545517 58.51443481 280.25454712 C61.63061506 282.19637502 64.7616794 284.11399221 67.890625 286.03515625 C68.54748795 286.43939316 69.20435089 286.84363007 69.88111877 287.26011658 C76.70947339 291.45454827 83.60695609 295.52959856 90.50912476 299.60098267 C102.80956573 306.85839823 114.99976412 314.25242503 127 322 C125.51354929 326.47605382 123.04194139 329.86363131 120.125 333.5 C119.64248779 334.10658447 119.15997559 334.71316895 118.6628418 335.33813477 C111.20490916 344.59489342 103.25657464 353.50658243 94 361 C92.90102882 361.91144285 91.80207184 362.82290281 90.703125 363.734375 C46.57294288 400.01698064 -7.62328048 415.87656502 -64.34814453 411.75683594 C-70.30014061 411.16349663 -76.14284346 410.20093709 -82 409 C-82.71639648 408.86078125 -83.43279297 408.7215625 -84.17089844 408.578125 C-120.96451144 401.30359831 -155.0918357 383.81096998 -182.50390625 358.30859375 C-184.70865156 356.26946311 -186.95831814 354.31479213 -189.25 352.375 C-193.2388961 348.89480927 -196.60585206 345.05198279 -200 341 C-201.10794922 339.74123047 -201.10794922 339.74123047 -202.23828125 338.45703125 C-212.34605167 326.76941792 -221.02458489 313.78954894 -228 300 C-228.54914063 298.97390625 -229.09828125 297.9478125 -229.6640625 296.890625 C-242.22892302 272.86794014 -251.04083309 243.74015121 -251.203125 216.49609375 C-251.21018463 215.7039296 -251.21724426 214.91176544 -251.22451782 214.09559631 C-251.60314233 159.04877146 -237.07882739 105.42226316 -197.84375 64.765625 C-196.49229959 63.42426004 -195.13340974 62.0903299 -193.765625 60.765625 C-191.79726522 58.85647868 -191.79726522 58.85647868 -189.5 55.9375 C-186.30479883 52.18313863 -182.78601708 49.14620954 -179 46 C-178.50806152 45.57976562 -178.01612305 45.15953125 -177.50927734 44.7265625 C-128.95187055 3.34390345 -62.34396703 -13.56577926 0 0 Z " fill="#FEFDFE" transform="translate(554,296)"/>
<path d="M0 0 C3.21859287 3.04096379 5.29743992 6.60652672 7.5625 10.375 C14.06215014 20.96284977 21.41715624 30.5184717 29.84765625 39.66015625 C31.96716614 41.96430584 34.01435342 44.31995434 36.0625 46.6875 C39.77265191 50.84692812 43.69754384 54.46411308 48 58 C48.5141748 58.43183594 49.02834961 58.86367188 49.55810547 59.30859375 C70.58122916 76.93434244 94.8615685 90.57562494 121 99 C122.17175781 99.38542969 123.34351563 99.77085937 124.55078125 100.16796875 C176.13321816 115.98819911 233.47621851 109.24520564 281.0625 84.5 C288.6939422 80.42521463 296.01720405 76.12335454 303 71 C303.5249707 70.61489258 304.04994141 70.22978516 304.59082031 69.83300781 C311.2949494 64.88051409 317.6622037 59.67488964 323.79296875 54.01953125 C325.71482152 52.26095093 327.67647489 50.59180225 329.6875 48.9375 C336.08150607 43.46115221 341.12002317 36.66058189 346.375 30.125 C346.9114917 29.45799072 347.4479834 28.79098145 348.00073242 28.10375977 C348.5032251 27.47397217 349.00571777 26.84418457 349.5234375 26.1953125 C349.97638184 25.62828613 350.42932617 25.06125977 350.89599609 24.47705078 C352.08567001 22.97638498 352.08567001 22.97638498 353 21 C361.8806923 25.28012747 370.55788439 30.3336449 378.85546875 35.6484375 C382.45798544 37.91887607 386.12630585 40.08111039 389.7824707 42.26367188 C393.49227284 44.48285891 397.18698083 46.72420384 400.8671875 48.9921875 C402.08559326 49.74218018 402.08559326 49.74218018 403.32861328 50.50732422 C404.91971136 51.48816447 406.50928055 52.47149 408.09716797 53.45751953 C408.82307129 53.90466309 409.54897461 54.35180664 410.296875 54.8125 C411.26125488 55.40998047 411.26125488 55.40998047 412.24511719 56.01953125 C414.14226241 57.15111704 414.14226241 57.15111704 417 58 C417 58.66 417 59.32 417 60 C417.85883789 60.25362305 418.71767578 60.50724609 419.60253906 60.76855469 C423.18718271 62.06784633 426.11448567 63.70574768 429.359375 65.703125 C429.94865784 66.06339783 430.53794067 66.42367065 431.14508057 66.79486084 C433.01692353 67.94092627 434.88353951 69.09519409 436.75 70.25 C437.98663092 71.00968176 439.22360757 71.76880103 440.4609375 72.52734375 C442.86424992 74.00119513 445.26595862 75.47760964 447.66674805 76.95556641 C452.09184667 79.66967875 456.54280997 82.33905437 461 85 C466.1875 88.125 466.1875 88.125 468.6640625 89.62109375 C470.77186057 90.86532907 472.90634873 92.03021881 475.0625 93.1875 C478 95 478 95 479 98 C471.43936382 102.90198163 463.75924986 107.52827949 455.9375 112 C454.22322244 112.98466941 452.50894704 113.96934262 450.7947998 114.95423889 C449.0304869 115.96752547 447.26555667 116.97972932 445.50048828 117.99169922 C439.95343315 121.17289219 434.41410423 124.36748893 428.875 127.5625 C427.26032837 128.49352539 427.26032837 128.49352539 425.61303711 129.44335938 C418.39630967 133.60783722 411.19408255 137.79654281 404 142 C390.26944812 150.02267511 376.48922034 157.95858259 362.70898438 165.89550781 C359.43068938 167.78398493 356.15271515 169.67301666 352.875 171.5625 C351.79605469 172.18447266 350.71710938 172.80644531 349.60546875 173.44726562 C342.43128049 177.58688448 335.2744002 181.75524921 328.125 185.9375 C318.85436069 191.35958699 309.54063301 196.70324012 300.20953369 202.02023315 C292.11292157 206.63484029 284.04211199 211.29084886 276 216 C266.77538489 221.40157943 257.50740122 226.72361919 248.21905518 232.01446533 C239.9073278 236.75002092 231.62920391 241.53969319 223.375 246.375 C220.48568763 248.05948334 217.5952993 249.74209476 214.70410156 251.42333984 C212.93787929 252.45315778 211.17408829 253.48716008 209.41308594 254.52587891 C193.72500139 263.7641434 179.72882487 268.80874967 161.125 265.0625 C148.50318209 261.44661107 137.01390442 253.51372308 125.8125 246.84765625 C120.09283739 243.45008926 114.32733919 240.13264483 108.5625 236.8125 C107.45592041 236.17489746 106.34934082 235.53729492 105.20922852 234.88037109 C102.9379453 233.57189492 100.6665413 232.26362839 98.39501953 230.95556641 C92.9283002 227.80667946 87.46425113 224.65316736 82 221.5 C79.83334689 220.2499765 77.66668021 218.99997653 75.5 217.75 C71.16666667 215.25 66.83333333 212.75 62.5 210.25 C61.42733887 209.63116943 60.35467773 209.01233887 59.24951172 208.37475586 C57.08442929 207.12564482 54.91939018 205.87645871 52.75439453 204.62719727 C47.31384294 201.48797691 41.87252784 198.35009437 36.4296875 195.21484375 C25.97793801 189.19252671 15.53700452 183.15330663 5.125 177.0625 C-4.14563931 171.64041301 -13.45936699 166.29675988 -22.79046631 160.97976685 C-31.86778636 155.80621213 -40.90571533 150.56857846 -49.921875 145.2890625 C-57.58574368 140.80833505 -65.2869929 136.39529866 -73 132 C-84.84589067 125.24756376 -96.65192565 118.42972882 -108.40722656 111.52050781 C-110.81659588 110.10755564 -113.23173671 108.7050483 -115.6484375 107.3046875 C-116.99508559 106.51612673 -118.34146371 105.72710463 -119.6875 104.9375 C-120.80511719 104.28652344 -121.92273438 103.63554688 -123.07421875 102.96484375 C-126.11544801 100.92246949 -128.50428123 98.67166926 -131 96 C-123.31761542 91.15396891 -115.52285638 86.54812391 -107.625 82.0625 C-100.85833256 78.21898967 -94.13109495 74.32738871 -87.47241211 70.29980469 C-82.01436086 66.99878726 -76.51977894 63.76200671 -71.01416016 60.54101562 C-66.25688175 57.75443621 -61.54657903 54.90219792 -56.8828125 51.9609375 C-55 51 -55 51 -52 51 C-52 50.34 -52 49.68 -52 49 C-51.39414062 48.70867188 -50.78828125 48.41734375 -50.1640625 48.1171875 C-43.89744038 45.05136314 -37.93140282 41.66731147 -32 38 C-19.15070999 30.06033783 -6.12332904 22.47408533 7 15 C6.01 14.01 6.01 14.01 5 13 C3.03381594 8.73993453 1.41936639 4.47646322 0 0 Z " fill="#662079" transform="translate(327,599)"/>
<path d="M0 0 C1.82543335 0.00749268 1.82543335 0.00749268 3.68774414 0.01513672 C19.25029397 0.31301405 32.60665206 4.30122668 46.375 11.5 C47.75171875 12.17482422 47.75171875 12.17482422 49.15625 12.86328125 C56.93598262 16.831392 63.6587069 21.98214545 70.375 27.5 C71.7671875 28.62341797 71.7671875 28.62341797 73.1875 29.76953125 C78.97821056 34.71015204 83.67369234 40.10953495 88.3125 46.125 C88.85648438 46.82955322 89.40046875 47.53410645 89.9609375 48.26000977 C93.36173283 52.80094081 95.97725895 57.35785655 98.375 62.5 C97.40304687 63.07105469 96.43109375 63.64210938 95.4296875 64.23046875 C94.03643241 65.04943507 92.64320578 65.8684498 91.25 66.6875 C90.50169922 67.12731201 89.75339844 67.56712402 88.98242188 68.02026367 C84.53859509 70.63377345 80.09898186 73.25421288 75.6640625 75.8828125 C74.70258301 76.45233643 73.74110352 77.02186035 72.75048828 77.60864258 C70.87586269 78.71944339 69.00181082 79.83121318 67.12841797 80.9440918 C62.88543946 83.4573964 58.6316891 85.95077891 54.34375 88.38671875 C53.62638672 88.79494873 52.90902344 89.20317871 52.16992188 89.6237793 C50.375 90.5 50.375 90.5 48.375 90.5 C48.375 91.16 48.375 91.82 48.375 92.5 C47.56095703 92.89832031 47.56095703 92.89832031 46.73046875 93.3046875 C46.01503906 93.65789062 45.29960938 94.01109375 44.5625 94.375 C43.85480469 94.72304688 43.14710938 95.07109375 42.41796875 95.4296875 C40.16253582 96.5656486 40.16253582 96.5656486 37.375 98.5 C36.385 98.5 35.395 98.5 34.375 98.5 C34.375 99.16 34.375 99.82 34.375 100.5 C33.60760498 100.91342651 33.60760498 100.91342651 32.82470703 101.33520508 C21.10642025 107.66683898 9.64497832 114.29493306 -1.67822266 121.30566406 C-5.2898642 123.52138396 -8.96132551 125.63271184 -12.62890625 127.75390625 C-16.18709894 129.82758569 -19.72005759 131.94119738 -23.25 134.0625 C-23.8905835 134.44720459 -24.53116699 134.83190918 -25.19116211 135.22827148 C-27.93579772 136.87802347 -30.67762248 138.53198621 -33.4140625 140.1953125 C-38.46155276 143.25585421 -43.58155298 146.12949485 -48.7734375 148.9375 C-55.72314206 152.74555729 -62.53056271 156.76342528 -69.1875 161.0625 C-72.91972578 163.44442702 -76.66914465 165.77943726 -80.5 168 C-81.79550781 168.75796875 -81.79550781 168.75796875 -83.1171875 169.53125 C-86.23926374 170.73728568 -87.53915887 170.81682432 -90.625 169.5 C-106.05004723 149.73572946 -111.21027149 120.17278997 -108.31152344 95.87207031 C-104.16885936 67.50912468 -89.39824582 40.41551662 -66.46386719 22.84423828 C-54.0099207 13.83256474 -41.52399547 7.4668185 -26.625 3.5 C-25.69091309 3.24702148 -24.75682617 2.99404297 -23.79443359 2.73339844 C-15.78550142 0.7030331 -8.25080952 -0.04501386 0 0 Z " fill="#9A4F96" transform="translate(511.625,390.5)"/>
<path d="M0 0 C6.28734373 0.16121394 10.87064357 3.74424083 16 7 C17.49724026 7.9004382 18.99728232 8.79623296 20.5 9.6875 C30.37847869 15.61770838 40.26135292 21.55637043 49.9375 27.8125 C54.29243457 30.60924697 58.76408992 33.0984301 63.32421875 35.54296875 C71.07191534 39.76178748 78.51567269 44.53403904 86.01953125 49.16796875 C88.66928996 50.79671951 91.32947901 52.40558543 94 54 C92.381505 58.03660361 89.53799183 60.80671637 86.5 63.8125 C85.96391113 64.34439941 85.42782227 64.87629883 84.87548828 65.42431641 C80.28161448 69.89031809 75.43103266 73.59350139 70 77 C69.23558594 77.50917969 68.47117187 78.01835938 67.68359375 78.54296875 C60.57243554 83.10020194 52.96324952 86.27563439 45 89 C44.28650391 89.2470166 43.57300781 89.4940332 42.83789062 89.74853516 C16.75971804 98.40507141 -12.6528211 95.87686632 -37.29296875 83.9375 C-48.62349208 78.14614584 -57.93842989 70.87744532 -67 62 C-68.16208984 60.89591797 -68.16208984 60.89591797 -69.34765625 59.76953125 C-73.45395998 55.80138353 -76.83196985 51.75204522 -80 47 C-79.67 46.34 -79.34 45.68 -79 45 C-77.3378085 44.64502351 -75.67028681 44.31469172 -74 44 C-69.12471559 41.77392674 -64.61890238 38.77789346 -60.125 35.875 C-53.384132 31.53003995 -46.4226262 27.57916423 -39.47265625 23.58203125 C-36.08441613 21.63212193 -32.71896232 19.65021662 -29.375 17.625 C-26.55143553 15.9153632 -23.70837552 14.27143191 -20.8125 12.6875 C-16.48159162 10.30745125 -12.23911211 7.78867449 -8 5.25 C-7.32815674 4.84869873 -6.65631348 4.44739746 -5.96411133 4.03393555 C-2.80590287 2.25414851 -2.80590287 2.25414851 0 0 Z " fill="#662078" transform="translate(502,515)"/>
<path d="M0 0 C7.26 0 14.52 0 22 0 C22 5.94 22 11.88 22 18 C31.24 18 40.48 18 50 18 C50 12.06 50 6.12 50 0 C57.26 0 64.52 0 72 0 C72 5.94 72 11.88 72 18 C77.94 18 83.88 18 90 18 C90 25.26 90 32.52 90 40 C84.06 40 78.12 40 72 40 C72 49.57 72 59.14 72 69 C77.94 69 83.88 69 90 69 C90 75.93 90 82.86 90 90 C84.06 90 78.12 90 72 90 C72 96.27 72 102.54 72 109 C64.74 109 57.48 109 50 109 C50 103.06 50 97.12 50 91 C40.76 91 31.52 91 22 91 C22 96.94 22 102.88 22 109 C14.74 109 7.48 109 0 109 C0 102.73 0 96.46 0 90 C-5.94 90 -11.88 90 -18 90 C-18 83.07 -18 76.14 -18 69 C-12.06 69 -6.12 69 0 69 C0 59.43 0 49.86 0 40 C-5.94 40 -11.88 40 -18 40 C-18 32.74 -18 25.48 -18 18 C-12.06 18 -6.12 18 0 18 C0 12.06 0 6.12 0 0 Z " fill="#FDFBFC" transform="translate(663,460)"/>
<path d="M0 0 C9.24 0 18.48 0 28 0 C28 9.24 28 18.48 28 28 C18.76 28 9.52 28 0 28 C0 18.76 0 9.52 0 0 Z " fill="#783480" transform="translate(685,500)"/>
<path d="M0 0 C0 0.99 0 1.98 0 3 C-1 4 -2 5 -3 6 C-4.19027984 8.59915538 -4.19027984 8.59915538 -5 11 C-5.66 11 -6.32 11 -7 11 C-7 12.98 -7 14.96 -7 17 C-9.53125276 18.41750155 -11.72490774 19.1907652 -14.5625 19.9375 C-17.74136983 20.92005977 -19.0201464 21.43783652 -21 24 C-21.66 23.67 -22.32 23.34 -23 23 C-15.88487585 15.72234763 -15.88487585 15.72234763 -11.9375 12.5 C-8.7836885 9.8159051 -6.18994285 6.91968493 -3.515625 3.76953125 C-2 2 -2 2 0 0 Z " fill="#561F69" transform="translate(669,635)"/>
<path d="M0 0 C3.79653885 1.44542925 7.35827837 3.15663792 10.95703125 5.0390625 C12.06884766 5.61914062 13.18066406 6.19921875 14.32617188 6.796875 C15.47666016 7.40015625 16.62714844 8.0034375 17.8125 8.625 C18.98232422 9.23601563 20.15214844 9.84703125 21.35742188 10.4765625 C24.2394012 11.98224966 27.12020905 13.49013275 30 15 C27 16 27 16 24.765625 15.0390625 C23.93546875 14.57242188 23.1053125 14.10578125 22.25 13.625 C16.14473983 10.4215132 10.85222251 9.83287262 4 10 C4.268125 9.443125 4.53625 8.88625 4.8125 8.3125 C4.874375 7.549375 4.93625 6.78625 5 6 C2.62494782 3.29151077 2.62494782 3.29151077 0 1 C0 0.67 0 0.34 0 0 Z " fill="#4E1B5D" transform="translate(399,676)"/>
<path d="M0 0 C0.33 0.99 0.66 1.98 1 3 C-0.28813342 3.83878455 -1.58063256 4.67086783 -2.875 5.5 C-3.59429688 5.9640625 -4.31359375 6.428125 -5.0546875 6.90625 C-7 8 -7 8 -9 8 C-9 8.66 -9 9.32 -9 10 C-8.01 9.67 -7.02 9.34 -6 9 C-6.33 10.98 -6.66 12.96 -7 15 C-10.95087809 13.83269511 -13.78425284 12.55162546 -17 10 C-14.54220129 8.51993873 -12.08378912 7.04091426 -9.625 5.5625 C-8.92632813 5.14162109 -8.22765625 4.72074219 -7.5078125 4.28710938 C-6.8375 3.88427734 -6.1671875 3.48144531 -5.4765625 3.06640625 C-4.85861816 2.69459229 -4.24067383 2.32277832 -3.60400391 1.93969727 C-2.42685882 1.250073 -1.22024659 0.6101233 0 0 Z " fill="#75357A" transform="translate(629,441)"/>
<path d="M0 0 C5.15161894 1.88195673 9.5937098 4.68942369 14.2578125 7.5390625 C16.92343458 9.23509834 16.92343458 9.23509834 20 9 C20.33 8.34 20.66 7.68 21 7 C21.66 7 22.32 7 23 7 C23.28875 8.03125 23.5775 9.0625 23.875 10.125 C26.07692936 15.45084884 31.10086064 17.49068472 36 20 C35.01 20.495 35.01 20.495 34 21 C31.62084961 19.92358398 31.62084961 19.92358398 28.65234375 18.24609375 C27.57146484 17.63830078 26.49058594 17.03050781 25.37695312 16.40429688 C24.24193359 15.75525391 23.10691406 15.10621094 21.9375 14.4375 C20.82955078 13.81552734 19.72160156 13.19355469 18.58007812 12.55273438 C5.3812976 5.08305196 5.3812976 5.08305196 0 1 C0 0.67 0 0.34 0 0 Z " fill="#481856" transform="translate(255,730)"/>
<path d="M0 0 C1.21516636 1.82274953 2.39331792 3.6719181 3.5 5.5625 C4.9097645 8.06417819 4.9097645 8.06417819 7 10 C7.165 10.680625 7.33 11.36125 7.5 12.0625 C7.665 12.701875 7.83 13.34125 8 14 C8.66 14.33 9.32 14.66 10 15 C9.8453125 16.051875 9.8453125 16.051875 9.6875 17.125 C10.21135732 21.9444873 13.6903914 24.6903914 17 28 C13.20684017 27.46049149 11.84914871 26.06735708 9.5625 23.0625 C4.22744469 15.83436055 0.50320537 9.05769671 0 0 Z " fill="#82477F" transform="translate(181,667)"/>
<path d="M0 0 C0.66 0.33 1.32 0.66 2 1 C1.25234375 1.39832031 0.5046875 1.79664063 -0.265625 2.20703125 C-1.25046875 2.73683594 -2.2353125 3.26664063 -3.25 3.8125 C-4.22453125 4.33457031 -5.1990625 4.85664062 -6.203125 5.39453125 C-8.95303453 6.85915068 -8.95303453 6.85915068 -10.90625 8.625 C-13.90620653 10.59512071 -16.71202188 10.76163226 -20.25 11.1875 C-21.51328125 11.34605469 -22.7765625 11.50460937 -24.078125 11.66796875 C-25.04234375 11.77753906 -26.0065625 11.88710938 -27 12 C-25.69274453 9.38548907 -24.70878032 9.33889419 -21.9921875 8.37890625 C-21.16976562 8.08306641 -20.34734375 7.78722656 -19.5 7.48242188 C-18.63375 7.17884766 -17.7675 6.87527344 -16.875 6.5625 C-15.18425582 5.96143269 -13.49414026 5.35859392 -11.8046875 4.75390625 C-10.58217285 4.31908936 -10.58217285 4.31908936 -9.33496094 3.87548828 C-7.17988115 3.06744603 -5.10115745 2.16927448 -3.0078125 1.21484375 C-2.01523437 0.81394531 -1.02265625 0.41304687 0 0 Z " fill="#4D1F5A" transform="translate(599,688)"/>
<path d="M0 0 C-0.63808594 0.12117188 -1.27617187 0.24234375 -1.93359375 0.3671875 C-2.75988281 0.53476562 -3.58617187 0.70234375 -4.4375 0.875 C-5.26121094 1.03742188 -6.08492188 1.19984375 -6.93359375 1.3671875 C-7.61550781 1.57601563 -8.29742187 1.78484375 -9 2 C-9.33 2.66 -9.66 3.32 -10 4 C-11.65940312 4.36779092 -13.32793224 4.69491267 -15 5 C-16.74331052 5.65080108 -18.47313221 6.33888636 -20.1875 7.0625 C-24.78647687 9 -24.78647687 9 -27 9 C-27.33 9.99 -27.66 10.98 -28 12 C-29.98 12.33 -31.96 12.66 -34 13 C-27.66174868 5.94736544 -9.53995815 -3.50027242 0 0 Z " fill="#7F4B7C" transform="translate(489,395)"/>
<path d="M0 0 C0 4.08118147 -2.12219251 5.83450768 -4.6875 8.75 C-8.3611568 13.02880591 -11.82198354 17.33890919 -15 22 C-15.6484375 20.15625 -15.6484375 20.15625 -16 18 C-14.37660195 16.29115995 -12.70680947 14.62553283 -11 13 C-10.18553891 10.99427359 -10.18553891 10.99427359 -10 9 C-9.734375 7.015625 -9.734375 7.015625 -9 5 C-7.1875 3.76953125 -7.1875 3.76953125 -5 2.8125 C-2.29302945 1.71045539 -2.29302945 1.71045539 0 0 Z " fill="#82487F" transform="translate(355,360)"/>
<path d="M0 0 C4.76551013 1.37605916 8.7248553 3.46778066 12.875 6.125 C13.46796875 6.49753906 14.0609375 6.87007813 14.671875 7.25390625 C16.1181343 8.16365 17.55958046 9.08103798 19 10 C17 11 17 11 14.94140625 10.40625 C13.35774265 9.80294958 11.77440789 9.19878522 10.19140625 8.59375 C7.85028003 7.74250758 7.85028003 7.74250758 5 9 C2.875 8.5 2.875 8.5 1 7 C0.25 3.375 0.25 3.375 0 0 Z " fill="#874983" transform="translate(776,286)"/>
<path d="M0 0 C0.66 0.33 1.32 0.66 2 1 C1.54625 1.5775 1.0925 2.155 0.625 2.75 C-1.01920846 4.87959864 -1.01920846 4.87959864 -1.9375 7 C-3.25838571 9.4863731 -4.95426456 11.07824852 -7 13 C-7.7115625 13.8353125 -7.7115625 13.8353125 -8.4375 14.6875 C-10.50626244 16.42526045 -12.36159497 16.64345878 -15 17 C-13.67879172 14.06769807 -12.25361803 12.01335101 -9.9609375 9.765625 C-9.38085938 9.19199219 -8.80078125 8.61835938 -8.203125 8.02734375 C-7.59984375 7.44082031 -6.9965625 6.85429687 -6.375 6.25 C-5.76398438 5.64800781 -5.15296875 5.04601562 -4.5234375 4.42578125 C-3.02011376 2.94594695 -1.51065144 1.47235324 0 0 Z " fill="#84467D" transform="translate(443,415)"/>
<path d="M0 0 C2.64 0.33 5.28 0.66 8 1 C8.33 2.32 8.66 3.64 9 5 C13.95 5.99 18.9 6.98 24 8 C24.33 8.99 24.66 9.98 25 11 C18.36579288 11 13.74341227 9.15263492 8 6.0625 C7.3289624 5.70220703 6.6579248 5.34191406 5.96655273 4.97070312 C1.14162152 2.28324304 1.14162152 2.28324304 0 0 Z " fill="#481757" transform="translate(466,852)"/>
<path d="M0 0 C3.87755812 3.47059416 5.29586018 7.84115862 7.25 12.5625 C7.81460937 13.87637695 7.81460937 13.87637695 8.390625 15.21679688 C8.74125 16.05404297 9.091875 16.89128906 9.453125 17.75390625 C9.77442383 18.52033447 10.09572266 19.2867627 10.42675781 20.07641602 C11 22 11 22 10 24 C7.0487355 22.52436775 6.93076085 20.49920648 5.875 17.4375 C5.52179688 16.42558594 5.16859375 15.41367187 4.8046875 14.37109375 C4.53914063 13.58863281 4.27359375 12.80617188 4 12 C3.34 12 2.68 12 2 12 C0.40861915 7.82262526 -0.21278058 4.46839215 0 0 Z " fill="#7F4A7D" transform="translate(314,571)"/>
<path d="M0 0 C0.66 0.33 1.32 0.66 2 1 C-1.1203742 3.00728948 -4.24703035 5.00457109 -7.375 7 C-8.26445312 7.57234375 -9.15390625 8.1446875 -10.0703125 8.734375 C-10.92109375 9.27578125 -11.771875 9.8171875 -12.6484375 10.375 C-13.43395996 10.87773437 -14.21948242 11.38046875 -15.02880859 11.8984375 C-17 13 -17 13 -19 13 C-19.33 12.01 -19.66 11.02 -20 10 C-19.34 10 -18.68 10 -18 10 C-18 9.34 -18 8.68 -18 8 C-17.18208984 7.76216797 -17.18208984 7.76216797 -16.34765625 7.51953125 C-11.07089457 5.88689216 -6.55632825 3.78060358 -1.84765625 0.890625 C-1.23792969 0.59671875 -0.62820313 0.3028125 0 0 Z " fill="#7F487D" transform="translate(412,315)"/>
<path d="M0 0 C0.66 0.33 1.32 0.66 2 1 C1.01 1.66 0.02 2.32 -1 3 C-1.73606499 6.56769552 -1.73606499 6.56769552 -2 10 C-3.32 10.33 -4.64 10.66 -6 11 C-6.66 9.68 -7.32 8.36 -8 7 C-9.32 7.33 -10.64 7.66 -12 8 C-9.72254211 5.51017465 -7.37664762 3.89631003 -4.4375 2.25 C-3.65246094 1.80140625 -2.86742187 1.3528125 -2.05859375 0.890625 C-1.37925781 0.59671875 -0.69992188 0.3028125 0 0 Z " fill="#874986" transform="translate(215,292)"/>
<path d="M0 0 C0.33 0.66 0.66 1.32 1 2 C0.19555664 3.87939453 0.19555664 3.87939453 -1.08984375 6.1328125 C-1.54423828 6.93847656 -1.99863281 7.74414062 -2.46679688 8.57421875 C-2.95212891 9.41597656 -3.43746094 10.25773437 -3.9375 11.125 C-4.41896484 11.97449219 -4.90042969 12.82398438 -5.39648438 13.69921875 C-6.59057183 15.80365011 -7.79196837 17.90355191 -9 20 C-11.046875 16.28125 -11.046875 16.28125 -10.625 13.75 C-10.41875 13.1725 -10.2125 12.595 -10 12 C-8.68 11.67 -7.36 11.34 -6 11 C-6 10.01 -6 9.02 -6 8 C-5.34 8 -4.68 8 -4 8 C-3.566875 6.8553125 -3.566875 6.8553125 -3.125 5.6875 C-2 3 -2 3 0 0 Z " fill="#834980" transform="translate(332,391)"/>
<path d="M0 0 C0.66 0.33 1.32 0.66 2 1 C1.01 1.33 0.02 1.66 -1 2 C-1.33 2.99 -1.66 3.98 -2 5 C-6.66955366 9.90303134 -10.31348125 10.83655176 -17 11 C-14.21503399 7.75258576 -10.60463249 5.83910905 -6.9375 3.75 C-6.30005859 3.37359375 -5.66261719 2.9971875 -5.00585938 2.609375 C-3.3733501 1.67356357 -1.68928489 0.82894277 0 0 Z " fill="#82487E" transform="translate(438,163)"/>
<path d="M0 0 C1.07217773 0.01160156 1.07217773 0.01160156 2.16601562 0.0234375 C3.20918945 0.01183594 3.20918945 0.01183594 4.2734375 0 C9.02694746 0.01775354 12.96496735 0.78272431 17.47851562 2.2734375 C16.15851562 3.2634375 14.83851563 4.2534375 13.47851562 5.2734375 C12.81851562 4.6134375 12.15851563 3.9534375 11.47851562 3.2734375 C9.44790903 2.90449168 9.44790903 2.90449168 7.12695312 2.859375 C6.27617187 2.82070312 5.42539062 2.78203125 4.54882812 2.7421875 C3.659375 2.71125 2.76992188 2.6803125 1.85351562 2.6484375 C0.95632813 2.60976562 0.05914062 2.57109375 -0.86523438 2.53125 C-3.08377708 2.43684393 -5.3023084 2.35127002 -7.52148438 2.2734375 C-5.00676847 -0.2412784 -3.43534614 0.01295135 0 0 Z " fill="#834A7B" transform="translate(498.521484375,134.7265625)"/>
<path d="M0 0 C0.99 0.33 1.98 0.66 3 1 C1.46775962 4.44754086 -0.60579501 7.09793334 -3 10 C-3.7425 11.11375 -3.7425 11.11375 -4.5 12.25 C-6.25659628 14.29936233 -7.36865777 14.63705624 -10 15 C-8.37815499 11.41486894 -6.20743761 8.41007677 -3.875 5.25 C-3.15054688 4.26515625 -2.42609375 3.2803125 -1.6796875 2.265625 C-1.12539063 1.51796875 -0.57109375 0.7703125 0 0 Z " fill="#4E1B5D" transform="translate(680,620)"/>
<path d="M0 0 C0.70769531 0.27199219 1.41539062 0.54398438 2.14453125 0.82421875 C2.47453125 2.47421875 2.80453125 4.12421875 3.14453125 5.82421875 C2.36078125 5.49421875 1.57703125 5.16421875 0.76953125 4.82421875 C-1.69879372 3.70555364 -1.69879372 3.70555364 -3.85546875 3.82421875 C-5.42806861 5.22657385 -6.94115241 6.696327 -8.41796875 8.19921875 C-9.22363281 9.01132812 -10.02929688 9.8234375 -10.859375 10.66015625 C-12.88870798 12.65928233 -12.88870798 12.65928233 -13.85546875 14.82421875 C-14.51546875 14.82421875 -15.17546875 14.82421875 -15.85546875 14.82421875 C-14.23396871 10.85106954 -11.49964002 8.03121437 -8.54296875 5.01171875 C-8.06923828 4.49673828 -7.59550781 3.98175781 -7.10742188 3.45117188 C-3.51822917 -0.21658045 -3.51822917 -0.21658045 0 0 Z " fill="#EFE5F2" transform="translate(599.85546875,569.17578125)"/>
<path d="M0 0 C3.58816739 1.49506975 5.6850306 3.54478451 8.25 6.4375 C8.95640625 7.21996094 9.6628125 8.00242187 10.390625 8.80859375 C12 11 12 11 12 14 C9.69 14.66 7.38 15.32 5 16 C5.350625 15.2575 5.70125 14.515 6.0625 13.75 C7.09539211 10.72018315 7.06310299 9.92353323 6 7 C4.6132802 5.04173581 4.6132802 5.04173581 2.9375 3.25 C2.38964844 2.63640625 1.84179688 2.0228125 1.27734375 1.390625 C0.85582031 0.93171875 0.43429687 0.4728125 0 0 Z " fill="#84467F" transform="translate(804,303)"/>
<path d="M0 0 C4.35647645 1.44950405 7.31757289 3.67747112 10.8125 6.625 C11.78832031 7.44226563 12.76414062 8.25953125 13.76953125 9.1015625 C14.50558594 9.72804688 15.24164062 10.35453125 16 11 C14 12 14 12 11.5 11.3125 C8.70348499 9.84432962 8.06588569 8.90696099 7 6 C5.02 6 3.04 6 1 6 C1.33 5.01 1.66 4.02 2 3 C1.34 2.67 0.68 2.34 0 2 C0 1.34 0 0.68 0 0 Z " fill="#864A82" transform="translate(567,408)"/>
<path d="M0 0 C0.33 0.66 0.66 1.32 1 2 C0.38125 2.0825 -0.2375 2.165 -0.875 2.25 C-3.17381462 2.80607909 -3.17381462 2.80607909 -4.1875 5 C-4.455625 5.66 -4.72375 6.32 -5 7 C-6 8 -6 8 -8.5625 8.0625 C-9.366875 8.041875 -10.17125 8.02125 -11 8 C-11.33 8.99 -11.66 9.98 -12 11 C-13.65 11 -15.3 11 -17 11 C-14.20957375 7.71165383 -10.52671824 5.87264311 -6.8125 3.8125 C-6.15830078 3.44447266 -5.50410156 3.07644531 -4.83007812 2.69726562 C-3.22253039 1.7937534 -1.61159349 0.8962759 0 0 Z " fill="#7F457A" transform="translate(267,262)"/>
<path d="M0 0 C10.01025998 0.62029389 10.01025998 0.62029389 13 4 C13 4.99 13 5.98 13 7 C13.99 7.33 14.98 7.66 16 8 C15.01 8.495 15.01 8.495 14 9 C11.54961707 7.75717988 9.226675 6.47117661 6.875 5.0625 C6.21628906 4.67642578 5.55757813 4.29035156 4.87890625 3.89257812 C3.248387 2.93553422 1.62363816 1.96867185 0 1 C0 0.67 0 0.34 0 0 Z " fill="#4A1A58" transform="translate(445,840)"/>
<path d="M0 0 C1.32 0 2.64 0 4 0 C4 0.66 4 1.32 4 2 C5.17369141 2.27263672 5.17369141 2.27263672 6.37109375 2.55078125 C7.88896484 2.92783203 7.88896484 2.92783203 9.4375 3.3125 C10.95150391 3.67794922 10.95150391 3.67794922 12.49609375 4.05078125 C13.32238281 4.36402344 14.14867187 4.67726563 15 5 C15.33 5.99 15.66 6.98 16 8 C18.49759982 9.69882448 18.49759982 9.69882448 21 11 C20.01 11.495 20.01 11.495 19 12 C17.02880859 11.11962891 17.02880859 11.11962891 14.6484375 9.7265625 C13.79765625 9.2315625 12.946875 8.7365625 12.0703125 8.2265625 C11.18085938 7.69804688 10.29140625 7.16953125 9.375 6.625 C8.02921875 5.84382812 8.02921875 5.84382812 6.65625 5.046875 C1.80811685 2.20283336 1.80811685 2.20283336 0 1 C0 0.67 0 0.34 0 0 Z " fill="#451652" transform="translate(360,791)"/>
<path d="M0 0 C3.2626876 3.08632611 6.02235218 5.93483504 8 10 C7.67 10.66 7.34 11.32 7 12 C6.34 11.67 5.68 11.34 5 11 C4.01 11.33 3.02 11.66 2 12 C2 11.34 2 10.68 2 10 C1.34 9.67 0.68 9.34 0 9 C0.66 8.34 1.32 7.68 2 7 C1.34 6.67 0.68 6.34 0 6 C0.33 5.01 0.66 4.02 1 3 C0.67 2.01 0.34 1.02 0 0 Z " fill="#874B83" transform="translate(601,440)"/>
<path d="M0 0 C2.21095812 1.07822067 4.41867306 2.16237404 6.625 3.25 C7.55119141 3.70052734 7.55119141 3.70052734 8.49609375 4.16015625 C12.55940875 6.17042788 16.2773364 8.41131701 20 11 C18 12 18 12 14.6875 11.375 C10.60715914 9.85351697 8.9624401 8.11436011 6 5 C2.83354526 3.20679176 2.83354526 3.20679176 0 2 C0 1.34 0 0.68 0 0 Z " fill="#7A4576" transform="translate(600,184)"/>
<path d="M0 0 C7.78808563 0.51648735 15.34925042 1.44876534 23 3 C23 3.33 23 3.66 23 4 C14.64259099 4.32098157 7.77729519 4.21819111 0 1 C0 0.67 0 0.34 0 0 Z " fill="#461555" transform="translate(466,704)"/>
<path d="M0 0 C0 0.99 0 1.98 0 3 C-1 4 -2 5 -3 6 C-3.433125 7.2065625 -3.433125 7.2065625 -3.875 8.4375 C-5.28477464 11.64865334 -7.17714301 12.99428583 -10 15 C-10.66 14.34 -11.32 13.68 -12 13 C-8.04 8.71 -4.08 4.42 0 0 Z " fill="#481B55" transform="translate(669,635)"/>
<path d="M0 0 C5.96260189 4.82082706 10.96679794 10.22494276 16 16 C13 17 13 17 11 17 C10.484375 15.824375 9.96875 14.64875 9.4375 13.4375 C7.40192166 9.3002054 4.79074954 6.51685358 1.390625 3.4453125 C0 2 0 2 0 0 Z " fill="#471A53" transform="translate(351,634)"/>
<path d="M0 0 C0.33 0.66 0.66 1.32 1 2 C0.34 2.66 -0.32 3.32 -1 4 C-0.34 5.32 0.32 6.64 1 8 C0 9 0 9 -2.5625 9.0625 C-3.366875 9.041875 -4.17125 9.02125 -5 9 C-5.33 8.01 -5.66 7.02 -6 6 C-7.32 6.33 -8.64 6.66 -10 7 C-7.2180632 3.72713318 -3.72045933 2.03572303 0 0 Z " fill="#884783" transform="translate(407,181)"/>
<path d="M0 0 C4.46182436 1.31074365 7.99618757 3.07066011 11.875 5.625 C12.84179688 6.25664062 13.80859375 6.88828125 14.8046875 7.5390625 C15.52914062 8.02117187 16.25359375 8.50328125 17 9 C15.68 9.33 14.36 9.66 13 10 C13 9.34 13 8.68 13 8 C12.154375 7.95875 11.30875 7.9175 10.4375 7.875 C5.91800082 6.72458203 3.19674659 4.32915621 0 1 C0 0.67 0 0.34 0 0 Z " fill="#7E497C" transform="translate(582,174)"/>
<path d="M0 0 C-1.63412443 1.70840281 -2.86906094 2.93453047 -5 4 C-5.556875 4.495 -6.11375 4.99 -6.6875 5.5 C-9.72181247 7.46820268 -12.44038696 7.65772952 -16 8 C-12.26268832 3.61272107 -5.86202224 -1.95400741 0 0 Z " fill="#804A7F" transform="translate(477,143)"/>
<path d="M0 0 C0.66 0.33 1.32 0.66 2 1 C-0.11567648 4.89284472 -1.19500187 6.70727341 -5.4375 8.25 C-6.613125 8.4975 -7.78875 8.745 -9 9 C-10.67632417 9.64199649 -12.34750513 10.29894157 -14 11 C-11.14325205 7.98306057 -8.17651069 5.59445469 -4.75 3.25 C-3.85796875 2.63640625 -2.9659375 2.0228125 -2.046875 1.390625 C-1.03367187 0.70226562 -1.03367187 0.70226562 0 0 Z " fill="#461855" transform="translate(634,667)"/>
<path d="M0 0 C0.66 0.33 1.32 0.66 2 1 C0.71186658 1.83878455 -0.58063256 2.67086783 -1.875 3.5 C-2.59429687 3.9640625 -3.31359375 4.428125 -4.0546875 4.90625 C-6 6 -6 6 -8 6 C-8.226875 6.639375 -8.45375 7.27875 -8.6875 7.9375 C-10 10 -10 10 -12.5 10.8125 C-15 11 -15 11 -17 10 C-14.21605957 8.29949343 -11.42172475 6.61688375 -8.625 4.9375 C-7.8309375 4.45216797 -7.036875 3.96683594 -6.21875 3.46679688 C-5.45820313 3.01240234 -4.69765625 2.55800781 -3.9140625 2.08984375 C-2.8614624 1.45357056 -2.8614624 1.45357056 -1.78759766 0.80444336 C-0.90273682 0.4062439 -0.90273682 0.4062439 0 0 Z " fill="#7C4479" transform="translate(234,281)"/>
<path d="M0 0 C4.21814817 3.9700218 7.61227103 8.30840284 11 13 C10.67 13.66 10.34 14.32 10 15 C8.5 13.625 8.5 13.625 7 12 C7 11.34 7 10.68 7 10 C6.01 10 5.02 10 4 10 C2.375 8.9375 2.375 8.9375 1 7 C0.3125 3.3125 0.3125 3.3125 0 0 Z " fill="#491A55" transform="translate(336,614)"/>
<path d="M0 0 C0.66 0.33 1.32 0.66 2 1 C1.01 1.61875 0.02 2.2375 -1 2.875 C-1.99 3.57625 -2.98 4.2775 -4 5 C-4 5.66 -4 6.32 -4 7 C-5.78810766 7.69670416 -7.58062052 8.38211189 -9.375 9.0625 C-10.37273437 9.44535156 -11.37046875 9.82820312 -12.3984375 10.22265625 C-15 11 -15 11 -17 10 C-14.21605957 8.29949343 -11.42172475 6.61688375 -8.625 4.9375 C-7.8309375 4.45216797 -7.036875 3.96683594 -6.21875 3.46679688 C-5.45820313 3.01240234 -4.69765625 2.55800781 -3.9140625 2.08984375 C-2.8614624 1.45357056 -2.8614624 1.45357056 -1.78759766 0.80444336 C-0.90273682 0.4062439 -0.90273682 0.4062439 0 0 Z " fill="#7A4577" transform="translate(336,222)"/>
<path d="M0 0 C3.40312738 1.05875074 6.01353231 2.00902154 9 4 C10.65549531 4.38499891 12.3222433 4.72793135 14 5 C14 5.99 14 6.98 14 8 C16.475 8.99 16.475 8.99 19 10 C18.01 10.495 18.01 10.495 17 11 C15.21240234 10.21142578 15.21240234 10.21142578 13.0859375 8.9453125 C12.32539063 8.49542969 11.56484375 8.04554688 10.78125 7.58203125 C9.9871875 7.10121094 9.193125 6.62039063 8.375 6.125 C7.57320313 5.65191406 6.77140625 5.17882812 5.9453125 4.69140625 C1.61571608 2.10690226 1.61571608 2.10690226 0 1 C0 0.67 0 0.34 0 0 Z M14 4 C16 5 16 5 16 5 Z " fill="#451653" transform="translate(388,807)"/>
<path d="M0 0 C5.46864457 1.01591421 10.76390013 2.07091057 16 4 C16 4.33 16 4.66 16 5 C12.04 5 8.08 5 4 5 C3.67 4.01 3.34 3.02 3 2 C2.01 1.67 1.02 1.34 0 1 C0 0.67 0 0.34 0 0 Z " fill="#4A165B" transform="translate(445,698)"/>
<path d="M0 0 C0.33 0.66 0.66 1.32 1 2 C0.34 2 -0.32 2 -1 2 C-1.2475 2.61875 -1.495 3.2375 -1.75 3.875 C-3.25755082 6.4378364 -4.20917138 7.04314447 -7 8 C-9.75 8.125 -9.75 8.125 -12 8 C-9.69716746 5.45868642 -7.32686207 3.92889705 -4.3125 2.3125 C-3.50425781 1.87550781 -2.69601562 1.43851563 -1.86328125 0.98828125 C-1.24839844 0.66214844 -0.63351562 0.33601562 0 0 Z " fill="#80487E" transform="translate(459,151)"/>
<path d="M0 0 C7.91118421 7.69736842 7.91118421 7.69736842 8.1875 11.75 C8.125625 12.4925 8.06375 13.235 8 14 C5.50447597 11.72402354 3.93377014 9.39278822 2.3125 6.4375 C1.87550781 5.65246094 1.43851562 4.86742187 0.98828125 4.05859375 C0 2 0 2 0 0 Z " fill="#7D4779" transform="translate(414,546)"/>
<path d="M0 0 C-0.15234375 1.859375 -0.15234375 1.859375 -1 4 C-3.50390625 5.265625 -3.50390625 5.265625 -6.5625 6.25 C-7.57441406 6.58515625 -8.58632813 6.9203125 -9.62890625 7.265625 C-10.41136719 7.50796875 -11.19382812 7.7503125 -12 8 C-10.77974937 4.3392481 -9.873509 4.07660559 -6.5625 2.3125 C-5.75941406 1.87550781 -4.95632813 1.43851563 -4.12890625 0.98828125 C-2 0 -2 0 0 0 Z " fill="#81477F" transform="translate(293,248)"/>
<path d="M0 0 C4.76551013 1.37605916 8.7248553 3.46778066 12.875 6.125 C13.46796875 6.49753906 14.0609375 6.87007812 14.671875 7.25390625 C16.1181343 8.16365 17.55958046 9.08103798 19 10 C18.01 10.495 18.01 10.495 17 11 C14.1015625 9.70703125 14.1015625 9.70703125 10.625 7.8125 C9.48289062 7.20019531 8.34078125 6.58789062 7.1640625 5.95703125 C4.30984456 4.1916446 2.23294801 2.48044225 0 0 Z " fill="#784673" transform="translate(705,245)"/>
<path d="M0 0 C0.66 0.33 1.32 0.66 2 1 C1.38125 1.20625 0.7625 1.4125 0.125 1.625 C-2.84653645 3.54775888 -3.13024659 5.66594527 -4 9 C-4.66 8.67 -5.32 8.34 -6 8 C-6.99 8 -7.98 8 -9 8 C-9 7.01 -9 6.02 -9 5 C-7.54735962 4.1361871 -6.0876837 3.28419546 -4.625 2.4375 C-3.40683594 1.72400391 -3.40683594 1.72400391 -2.1640625 0.99609375 C-1.44992187 0.66738281 -0.73578125 0.33867187 0 0 Z " fill="#81467C" transform="translate(419,174)"/>
<path d="M0 0 C0.66 0.33 1.32 0.66 2 1 C-1.25530412 4.62733887 -3.15354112 6.39419264 -8 7 C-9.6792238 7.63437344 -11.35008418 8.29289322 -13 9 C-9.49391962 4.88416651 -4.95371163 2.09432982 0 0 Z " fill="#622865" transform="translate(656,425)"/>
<path d="M0 0 C0.33 0.66 0.66 1.32 1 2 C-0.37724797 4.75449595 -1.84380002 4.91182781 -4.6875 6 C-5.58597656 6.34546875 -6.48445312 6.6909375 -7.41015625 7.046875 C-10.25472497 8.09374493 -13.10947782 9.08720352 -16 10 C-13.32401709 6.86030886 -9.91405704 5.18156373 -6.3125 3.3125 C-5.70599609 2.99216797 -5.09949219 2.67183594 -4.47460938 2.34179688 C-2.98565434 1.55628516 -1.49316953 0.77747058 0 0 Z " fill="#3F134C" transform="translate(618,678)"/>
<path d="M0 0 C0.66 0.33 1.32 0.66 2 1 C-2.53803329 6.26411861 -8.54112155 7.95206293 -15 10 C-12.38221206 7.0447272 -9.32416665 5.24167273 -5.9375 3.25 C-4.87402344 2.61578125 -3.81054688 1.9815625 -2.71484375 1.328125 C-1.81894531 0.88984375 -0.92304688 0.4515625 0 0 Z " fill="#764472" transform="translate(374,200)"/>
<path d="M0 0 C5.31027254 1.46032495 9.46330032 3.98320986 14 7 C13.01 7.495 13.01 7.495 12 8 C9.93328442 7.10979134 8.03220683 6.0104582 6.0703125 4.91015625 C3.766629 3.73170055 3.766629 3.73170055 0 4 C0 2.68 0 1.36 0 0 Z " fill="#7C487A" transform="translate(762,278)"/>
<path d="M0 0 C0.33 0.66 0.66 1.32 1 2 C0.34 2 -0.32 2 -1 2 C-1.33 2.99 -1.66 3.98 -2 5 C-4.28515625 5.94921875 -4.28515625 5.94921875 -7.0625 6.6875 C-8.44115234 7.06455078 -8.44115234 7.06455078 -9.84765625 7.44921875 C-10.55792969 7.63097656 -11.26820313 7.81273437 -12 8 C-9.69716746 5.45868642 -7.32686207 3.92889705 -4.3125 2.3125 C-3.50425781 1.87550781 -2.69601562 1.43851563 -1.86328125 0.98828125 C-1.24839844 0.66214844 -0.63351562 0.33601562 0 0 Z " fill="#7C4778" transform="translate(357,210)"/>
<path d="M0 0 C-0.33 0.99 -0.66 1.98 -1 3 C-1.86625 3.144375 -2.7325 3.28875 -3.625 3.4375 C-5.295625 3.7159375 -5.295625 3.7159375 -7 4 C-9 4.33333333 -11 4.66666667 -13 5 C-9.37863252 0.80683766 -5.43991867 -0.3108525 0 0 Z " fill="#804679" transform="translate(490,137)"/>
<path d="M0 0 C2.85984547 2.51632049 4.41468822 5.33885553 6.1875 8.6875 C6.71730469 9.68136719 7.24710937 10.67523437 7.79296875 11.69921875 C8.19128906 12.45847656 8.58960938 13.21773437 9 14 C7.1015625 13.69921875 7.1015625 13.69921875 5 13 C3.78950757 10.62557253 2.85693901 8.49475735 2 6 C1.608125 4.865625 1.21625 3.73125 0.8125 2.5625 C0.544375 1.716875 0.27625 0.87125 0 0 Z " fill="#7A4777" transform="translate(327,599)"/>
<path d="M0 0 C-1.6188996 1.03048037 -3.24532489 2.04914678 -4.875 3.0625 C-5.77992188 3.63097656 -6.68484375 4.19945312 -7.6171875 4.78515625 C-8.40351562 5.18605469 -9.18984375 5.58695313 -10 6 C-10.66 5.67 -11.32 5.34 -12 5 C-10.15113944 1.73730489 -9.04628112 1.01705094 -5.4375 -0.3125 C-2 -1 -2 -1 0 0 Z " fill="#481556" transform="translate(542,850)"/>
<path d="M0 0 C0.33 0.66 0.66 1.32 1 2 C0.34 2 -0.32 2 -1 2 C-1.33 3.32 -1.66 4.64 -2 6 C-4.64 6.33 -7.28 6.66 -10 7 C-7.2180632 3.72713318 -3.72045933 2.03572303 0 0 Z " fill="#7C487A" transform="translate(279,255)"/>
<path d="M0 0 C0.66 0.99 1.32 1.98 2 3 C-1.625 9.875 -1.625 9.875 -5 11 C-3.55049545 7.2089881 -1.84827434 3.6125362 0 0 Z " fill="#F4E6F4" transform="translate(819,677)"/>
<path d="M0 0 C0.66 0.33 1.32 0.66 2 1 C-3 7.57142857 -3 7.57142857 -8 9 C-6.4169423 4.7257442 -3.49431596 2.73468206 0 0 Z " fill="#7E4A78" transform="translate(201,300)"/>
<path d="M0 0 C4.61513112 1.31860889 8.09897612 3.21355437 12 6 C9.45297384 7.27351308 8.5717055 6.80191925 5.875 6.0625 C5.15054688 5.86785156 4.42609375 5.67320312 3.6796875 5.47265625 C3.12539063 5.31667969 2.57109375 5.16070312 2 5 C2.33 4.34 2.66 3.68 3 3 C2.01 2.01 1.02 1.02 0 0 Z " fill="#7B4376" transform="translate(724,256)"/>
<path d="M0 0 C4.95 0.99 4.95 0.99 10 2 C10.33 3.32 10.66 4.64 11 6 C6.48986609 5.46939601 3.61621781 3.69113883 0 1 C0 0.67 0 0.34 0 0 Z " fill="#461953" transform="translate(455,592)"/>
<path d="M0 0 C0.66 0.33 1.32 0.66 2 1 C2 1.66 2 2.32 2 3 C3.32 3.33 4.64 3.66 6 4 C4.35 5.32 2.7 6.64 1 8 C1 7.01 1 6.02 1 5 C0.34 4.67 -0.32 4.34 -1 4 C-0.67 2.68 -0.34 1.36 0 0 Z " fill="#894683" transform="translate(362,345)"/>
<path d="M0 0 C0.99 1.32 1.98 2.64 3 4 C0.63707344 6.52588702 -0.66462511 7.88820837 -4 9 C-4 8.34 -4 7.68 -4 7 C-3.34 7 -2.68 7 -2 7 C-1.34 4.69 -0.68 2.38 0 0 Z " fill="#F6E5F6" transform="translate(693,397)"/>
<path d="M0 0 C1.21236328 0.04060547 1.21236328 0.04060547 2.44921875 0.08203125 C3.06410156 0.11683594 3.67898438 0.15164063 4.3125 0.1875 C1.81744038 2.68255962 0.63921112 2.54698376 -2.8125 2.8125 C-3.72257813 2.88726563 -4.63265625 2.96203125 -5.5703125 3.0390625 C-6.61832031 3.11253906 -6.61832031 3.11253906 -7.6875 3.1875 C-5.26849268 0.20484049 -3.789448 -0.16475861 0 0 Z " fill="#431251" transform="translate(537.6875,603.8125)"/>
<path d="M0 0 C0.99 0.33 1.98 0.66 3 1 C2.34 1.66 1.68 2.32 1 3 C0.34 3 -0.32 3 -1 3 C-2.37310707 4.29233607 -3.71034824 5.62437146 -5 7 C-5.33 6.34 -5.66 5.68 -6 5 C-2.25 1.125 -2.25 1.125 0 0 Z " fill="#F5EBF6" transform="translate(572,591)"/>
<path d="M0 0 C2.96404505 2.80804268 5.44499019 5.18315774 7 9 C5.8225266 8.26708288 4.65823146 7.51296199 3.5 6.75 C2.52546875 6.12351562 2.52546875 6.12351562 1.53125 5.484375 C1.0259375 4.99453125 0.520625 4.5046875 0 4 C0 2.68 0 1.36 0 0 Z " fill="#7F4779" transform="translate(594,431)"/>
<path d="M0 0 C3.81684226 1.55500981 6.19195732 4.03595495 9 7 C5.625 6.3125 5.625 6.3125 2 5 C0.5625 2.375 0.5625 2.375 0 0 Z " fill="#7C4578" transform="translate(574,413)"/>
<path d="M0 0 C0.66 0.33 1.32 0.66 2 1 C0.10595266 4.34243648 -0.94091591 4.97997149 -4.6875 6.25 C-6.3271875 6.62125 -6.3271875 6.62125 -8 7 C-5.42215154 4.35247996 -3.08351902 2.05567935 0 0 Z " fill="#794375" transform="translate(453,408)"/>
<path d="M0 0 C3.93673644 1.31224548 6.22719294 2.91910327 9 6 C8.21625 5.814375 7.4325 5.62875 6.625 5.4375 C4.02910225 4.74037734 4.02910225 4.74037734 2 6 C2 4.68 2 3.36 2 2 C1.34 2 0.68 2 0 2 C0 1.34 0 0.68 0 0 Z " fill="#471955" transform="translate(390,670)"/>
<path d="M0 0 C0.66 0 1.32 0 2 0 C2 0.66 2 1.32 2 2 C3.32 1.67 4.64 1.34 6 1 C4.71937515 2.7074998 3.38232443 4.37373596 2 6 C1.34 6 0.68 6 0 6 C0 4.02 0 2.04 0 0 Z " fill="#501C62" transform="translate(580,579)"/>
<path d="M0 0 C0.99 0.33 1.98 0.66 3 1 C1.63016497 4.16115776 1.0109362 4.9927092 -2 7 C-2 5.35 -2 3.7 -2 2 C-1.34 2 -0.68 2 0 2 C0 1.34 0 0.68 0 0 Z " fill="#8B548A" transform="translate(358,354)"/>
<path d="M0 0 C0 0.99 0 1.98 0 3 C0.3062434 4.33981486 0.63451555 5.67511887 1 7 C-2.36720387 5.60667426 -3.9859524 4.0210714 -6 1 C-4.7934375 1.0309375 -4.7934375 1.0309375 -3.5625 1.0625 C-1.06645115 1.29633621 -1.06645115 1.29633621 0 0 Z " fill="#80487D" transform="translate(651,339)"/>
<path d="M0 0 C0.33 0.66 0.66 1.32 1 2 C-0.45264038 2.8638129 -1.9123163 3.71580454 -3.375 4.5625 C-4.59316406 5.27599609 -4.59316406 5.27599609 -5.8359375 6.00390625 C-6.55007813 6.33261719 -7.26421875 6.66132813 -8 7 C-8.66 6.67 -9.32 6.34 -10 6 C-6.7 4.02 -3.4 2.04 0 0 Z " fill="#774373" transform="translate(395,188)"/>
<path d="M0 0 C0.66 0.33 1.32 0.66 2 1 C1.01 1.33 0.02 1.66 -1 2 C-1 2.99 -1 3.98 -1 5 C-3.31 5.33 -5.62 5.66 -8 6 C-5.63404067 3.38499232 -3.13950774 1.61000397 0 0 Z " fill="#5D2962" transform="translate(620,446)"/>
<path d="M0 0 C0 0.66 0 1.32 0 2 C-0.99 2.495 -0.99 2.495 -2 3 C-2.33 3.66 -2.66 4.32 -3 5 C-4.5 3.625 -4.5 3.625 -6 2 C-6 1.34 -6 0.68 -6 0 C-3 -1 -3 -1 0 0 Z " fill="#8A4486" transform="translate(673,360)"/>
<path d="M0 0 C3.48539917 0.64544429 6.02819057 2.10134397 9 4 C6.13822943 5.43088528 4.06624227 4.59991697 1 4 C0.67 2.68 0.34 1.36 0 0 Z " fill="#7D467A" transform="translate(753,273)"/>
<path d="M0 0 C4.43090471 1.20842856 6.98112756 2.51668565 10 6 C9.278125 5.690625 8.55625 5.38125 7.8125 5.0625 C5.19692691 4.07439461 2.74881018 3.4712246 0 3 C0 2.01 0 1.02 0 0 Z " fill="#784074" transform="translate(620,196)"/>
<path d="M0 0 C2.64 0.33 5.28 0.66 8 1 C8.33 1.99 8.66 2.98 9 4 C7.68528432 3.71848913 6.37324233 3.42446661 5.0625 3.125 C3.96615234 2.88136719 3.96615234 2.88136719 2.84765625 2.6328125 C1 2 1 2 0 0 Z " fill="#541A65" transform="translate(466,852)"/>
<path d="M0 0 C0.66 0.33 1.32 0.66 2 1 C0.29374499 3.78388975 -0.47626739 4.85384206 -3.6875 5.75 C-4.8321875 5.87375 -4.8321875 5.87375 -6 6 C-4 4 -2 2 0 0 Z " fill="#431652" transform="translate(642,661)"/>
<path d="M0 0 C0 0.66 0 1.32 0 2 C-1.65 2.33 -3.3 2.66 -5 3 C-5 3.66 -5 4.32 -5 5 C-6.32 4.34 -7.64 3.68 -9 3 C-2.25 0 -2.25 0 0 0 Z " fill="#F2E0F2" transform="translate(441,304)"/>
</svg>
