<?xml version="1.0" encoding="UTF-8"?>
<svg version="1.1" xmlns="http://www.w3.org/2000/svg" width="318" height="318">
<path d="M0 0 C104.94 0 209.88 0 318 0 C318 104.94 318 209.88 318 318 C213.06 318 108.12 318 0 318 C0 213.06 0 108.12 0 0 Z " fill="#FEFEFE" transform="translate(0,0)"/>
<path d="M0 0 C0.80759766 -0.00773438 1.61519531 -0.01546875 2.44726562 -0.0234375 C9.53891031 -0.00057966 16.24325253 0.63538379 22 5.1875 C22.65871094 5.69152344 23.31742188 6.19554687 23.99609375 6.71484375 C27.01448904 9.67302167 26.71258833 13.06768682 26.765625 17.0546875 C26.78692874 19.41141384 26.80230843 21.76819941 26.8125 24.125 C26.833125 25.30964844 26.85375 26.49429688 26.875 27.71484375 C26.88273437 29.42994141 26.88273437 29.42994141 26.890625 31.1796875 C26.90464355 32.74565674 26.90464355 32.74565674 26.91894531 34.34326172 C26.51258315 37.65706164 25.38037688 39.49078687 23.5625 42.25 C23.5625 42.91 23.5625 43.57 23.5625 44.25 C24.5525 45.075 25.5425 45.9 26.5625 46.75 C27.5525 47.575 28.5425 48.4 29.5625 49.25 C29.5625 49.91 29.5625 50.57 29.5625 51.25 C27.85645413 51.3866051 26.1471456 51.48271654 24.4375 51.5625 C23.01050781 51.64951172 23.01050781 51.64951172 21.5546875 51.73828125 C18.5625 51.25 18.5625 51.25 15.875 48.765625 C11.75390625 44.99163409 7.00622663 45.6198589 1.6875 45.6875 C-5.88496401 45.75392512 -10.86335311 45.1742839 -17.4375 41.25 C-17.4375 40.59 -17.4375 39.93 -17.4375 39.25 C-18.4275 38.92 -19.4175 38.59 -20.4375 38.25 C-22.54117662 34.04264675 -21.74632657 28.61213916 -21.78759766 23.98364258 C-21.80413597 22.62474414 -21.83139921 21.26593195 -21.86962891 19.9074707 C-21.92459607 17.94275314 -21.94316889 15.97712475 -21.9609375 14.01171875 C-21.98075684 12.83569092 -22.00057617 11.65966309 -22.02099609 10.44799805 C-21.26370952 6.29749726 -19.67331978 4.86713317 -16.4375 2.25 C-10.97820012 0.05304538 -5.7919052 -0.05520482 0 0 Z " fill="#E48B02" transform="translate(209.4375,174.75)"/>
<path d="M0 0 C8.36008727 3.85850182 11.27922513 12.36596483 14.8125 20.3125 C15.12695068 21.01858398 15.44140137 21.72466797 15.76538086 22.45214844 C17.0623434 25.45594394 18 27.6936265 18 31 C18.66 31 19.32 31 20 31 C20.23976562 30.22914063 20.47953125 29.45828125 20.7265625 28.6640625 C22.4124498 23.81325794 24.37627946 19.10399892 26.375 14.375 C26.76171875 13.43398437 27.1484375 12.49296875 27.546875 11.5234375 C28.12308594 10.1621875 28.12308594 10.1621875 28.7109375 8.7734375 C29.05431152 7.95278809 29.39768555 7.13213867 29.75146484 6.28662109 C31.1773586 3.67517781 32.75726558 1.94527068 35 0 C37.33203125 -0.56640625 37.33203125 -0.56640625 39.8125 -0.5625 C40.62332031 -0.58441406 41.43414062 -0.60632813 42.26953125 -0.62890625 C46.26346693 0.29101313 49.22766529 1.94760316 52 5 C52.95320777 8.09535347 52.82035706 11.02391465 52.68359375 14.23828125 C52.67368912 15.11904831 52.66378448 15.99981537 52.65357971 16.90727234 C52.61450214 19.7107345 52.52670142 22.51022907 52.4375 25.3125 C52.40237717 27.21674018 52.37043985 29.12104196 52.34179688 31.02539062 C52.26476274 35.68511424 52.14403277 40.34188539 52 45 C49.03 45 46.06 45 43 45 C43 44.01 43 43.02 43 42 C42.01 42 41.02 42 40 42 C39.505 31.605 39.505 31.605 39 21 C38.39671875 22.39734375 37.7934375 23.7946875 37.171875 25.234375 C36.36507353 27.07313183 35.5577547 28.91166172 34.75 30.75 C34.35425781 31.67039063 33.95851562 32.59078125 33.55078125 33.5390625 C29.6020578 42.47224014 29.6020578 42.47224014 26 45 C22.52403818 46.00144964 19.50645175 45.83719933 16 45 C7.87912889 40.09123815 4.40565321 27.12576906 1 19 C0.67 27.58 0.34 36.16 0 45 C-3.3 45 -6.6 45 -10 45 C-10 44.01 -10 43.02 -10 42 C-10.99 42 -11.98 42 -13 42 C-13.09894543 36.66151328 -13.17150414 31.32356131 -13.21972656 25.984375 C-13.23983061 24.1685252 -13.26711835 22.35274005 -13.30175781 20.53710938 C-13.35033039 17.92561895 -13.37298027 15.31498502 -13.390625 12.703125 C-13.41127014 11.89256653 -13.43191528 11.08200806 -13.45318604 10.24688721 C-13.45464201 6.58200472 -13.3484627 4.46287656 -11.10986328 1.48925781 C-7.52438404 -1.04157109 -4.20880057 -0.7039109 0 0 Z " fill="#026088" transform="translate(37,175)"/>
<path d="M0 0 C3.78029804 0.93817616 6.93191499 3.13638392 10.265625 5.09765625 C13.14625615 6.53405792 15.21943725 6.99926085 18.390625 7.34375 C31.19905639 9.17614362 43.45940993 19.70798488 51.43359375 29.28515625 C56.86556285 36.60569291 60.56158814 44.3355953 64.04711914 52.7277832 C66.88616324 59.47010057 69.49323923 62.93471427 76.203125 66.15625 C82.8542904 69.63421789 87.80866358 74.31273457 93.140625 79.53125 C92.645625 81.01625 92.645625 81.01625 92.140625 82.53125 C89.41796875 83.48046875 89.41796875 83.48046875 86.078125 84.21875 C84.97339844 84.47011719 83.86867188 84.72148437 82.73046875 84.98046875 C81.87582031 85.16222656 81.02117187 85.34398437 80.140625 85.53125 C80.70910156 85.95535156 81.27757812 86.37945312 81.86328125 86.81640625 C95.30604974 97.02752422 95.30604974 97.02752422 97.140625 102.53125 C92.34523038 100.8828331 88.34490075 98.30490414 84.140625 95.53125 C83.295 94.97953125 82.449375 94.4278125 81.578125 93.859375 C76.63459223 90.5342607 72.51486785 87.48013951 69.140625 82.53125 C69.140625 81.54125 69.140625 80.55125 69.140625 79.53125 C73.10760386 77.72807779 76.8228792 77.03922009 81.140625 76.53125 C77.37547169 72.25266669 73.49507176 70.98565688 68.2109375 69.16796875 C59.12706417 64.32554773 56.1755942 54.50158834 52.37304688 45.51171875 C46.76534104 32.67792155 38.60386823 22.59617651 25.78515625 16.51171875 C22.16575215 15.16981265 18.56197031 14.6807279 14.75390625 14.13671875 C11.2165359 13.31714864 8.74963692 11.64615115 5.89453125 9.45703125 C4.13524919 8.30392939 4.13524919 8.30392939 1.91796875 8.88671875 C1.33144531 9.09941406 0.74492187 9.31210938 0.140625 9.53125 C0.66011719 10.31886719 1.17960938 11.10648438 1.71484375 11.91796875 C6.04591337 18.68276326 9.41556836 25.10319648 12.03515625 32.75390625 C12.99909146 35.55416805 12.99909146 35.55416805 14.79296875 37.64453125 C16.140625 39.53125 16.140625 39.53125 16.25 41.5390625 C16.13140625 42.23773438 16.0128125 42.93640625 15.890625 43.65625 C15.71660156 44.82994141 15.71660156 44.82994141 15.5390625 46.02734375 C15.40757812 46.85363281 15.27609375 47.67992187 15.140625 48.53125 C14.42354661 54.07610036 13.83393651 59.01412084 15.140625 64.53125 C15.32238281 63.98855469 15.50414062 63.44585937 15.69140625 62.88671875 C15.94277344 62.17128906 16.19414062 61.45585937 16.453125 60.71875 C16.69675781 60.01105469 16.94039062 59.30335938 17.19140625 58.57421875 C18.20786758 56.38652627 19.34883094 55.12228282 21.140625 53.53125 C21.800625 54.19125 22.460625 54.85125 23.140625 55.53125 C23.800625 55.53125 24.460625 55.53125 25.140625 55.53125 C25.35976562 56.05332031 25.57890625 56.57539063 25.8046875 57.11328125 C31.19921872 71.19018134 31.19921872 71.19018134 41.140625 81.53125 C41.140625 82.19125 41.140625 82.85125 41.140625 83.53125 C37.25292305 81.90598743 34.53666628 79.36366175 31.453125 76.53125 C29.99326172 75.2009375 29.99326172 75.2009375 28.50390625 73.84375 C26.140625 71.53125 26.140625 71.53125 25.140625 69.53125 C23.820625 71.51125 22.500625 73.49125 21.140625 75.53125 C16.69278297 75.0229252 14.30493277 73.69555777 11.140625 70.53125 C6.75313741 64.30952847 5.25080209 56.7292254 6.53515625 49.2265625 C7.03553008 47.3186623 7.58584039 45.42404455 8.140625 43.53125 C8.57849083 39.18130422 7.43118849 36.59973019 5.390625 32.78125 C3.47928834 29.13314842 1.66254433 25.52005235 0.078125 21.71875 C-1.18317966 18.78277192 -2.60737168 16.38172864 -4.546875 13.84375 C-6.82688676 10.7943225 -7.859375 8.43993411 -7.859375 4.53125 C-6.25062299 0.71046399 -4.12505959 -0.2079862 0 0 Z " fill="#0E6285" transform="translate(199.859375,88.46875)"/>
<path d="M0 0 C2.97 0 5.94 0 9 0 C9 0.66 9 1.32 9 2 C10.32 2 11.64 2 13 2 C13 8.93 13 15.86 13 23 C19.93 23 26.86 23 34 23 C34 15.41 34 7.82 34 0 C36.64 0 39.28 0 42 0 C42 0.66 42 1.32 42 2 C43.32 2 44.64 2 46 2 C46.09897181 7.05365292 46.17151603 12.10674024 46.21972656 17.16113281 C46.23982628 18.87998279 46.26711089 20.59876452 46.30175781 22.31738281 C46.35035034 24.78988489 46.37298435 27.2614821 46.390625 29.734375 C46.41127014 30.50118591 46.43191528 31.26799683 46.45318604 32.05804443 C46.45462235 35.48309107 46.3077844 37.57001483 44.28808594 40.39160156 C39.31501633 43.88739569 35.04159342 44.28111619 29.07421875 44.1953125 C28.32662796 44.1924826 27.57903717 44.18965271 26.80879211 44.18673706 C24.4348612 44.17559469 22.06131575 44.15050162 19.6875 44.125 C18.0722711 44.11496249 16.45703624 44.10583799 14.84179688 44.09765625 C10.89438406 44.07567489 6.94725726 44.04118657 3 44 C3 43.01 3 42.02 3 41 C2.01 41 1.02 41 0 41 C0 39.02 0 37.04 0 35 C10.56 34.67 21.12 34.34 32 34 C32.495 33.01 32.495 33.01 33 32 C31.80503906 32.03480469 30.61007813 32.06960937 29.37890625 32.10546875 C10.4240118 32.50185631 10.4240118 32.50185631 4.33447266 27.68164062 C0.85742317 24.10901348 -0.4009082 21.5275374 -0.5859375 16.50390625 C-0.54644269 14.52258334 -0.47543932 12.54166959 -0.375 10.5625 C-0.34792969 9.54478516 -0.32085937 8.52707031 -0.29296875 7.47851562 C-0.22268507 4.98344487 -0.12437201 2.49286153 0 0 Z " fill="#04618B" transform="translate(93,188)"/>
<path d="M0 0 C1.29550781 0.00322266 2.59101563 0.00644531 3.92578125 0.00976562 C5.28906317 0.01812027 6.65234442 0.02658521 8.015625 0.03515625 C9.39452965 0.04017457 10.77343604 0.0447369 12.15234375 0.04882812 C15.52348159 0.06061532 18.89453128 0.0770699 22.265625 0.09765625 C22.265625 0.75765625 22.265625 1.41765625 22.265625 2.09765625 C23.585625 2.09765625 24.905625 2.09765625 26.265625 2.09765625 C26.265625 4.73765625 26.265625 7.37765625 26.265625 10.09765625 C16.365625 10.42765625 6.465625 10.75765625 -3.734375 11.09765625 C-4.064375 13.40765625 -4.394375 15.71765625 -4.734375 18.09765625 C-3.61160156 18.05125 -2.48882812 18.00484375 -1.33203125 17.95703125 C8.92334144 17.65816431 15.73786646 18.26206869 24.328125 24.22265625 C27.12146346 28.36761009 27.01746162 32.23050338 26.265625 37.09765625 C24.72885827 40.94981817 22.98267072 42.23913339 19.265625 44.09765625 C15.62471431 45.3100939 12.12757574 45.21147808 8.3125 45.1953125 C7.65227844 45.19389755 6.99205688 45.1924826 6.31182861 45.19102478 C4.21304706 45.1854487 2.11437405 45.17290072 0.015625 45.16015625 C-1.41145679 45.15513815 -2.83854025 45.15057579 -4.265625 45.14648438 C-7.75524332 45.13548713 -11.24479856 45.11823905 -14.734375 45.09765625 C-14.734375 44.10765625 -14.734375 43.11765625 -14.734375 42.09765625 C-15.724375 42.09765625 -16.714375 42.09765625 -17.734375 42.09765625 C-17.734375 40.11765625 -17.734375 38.13765625 -17.734375 36.09765625 C-16.93217529 36.0726001 -16.12997559 36.04754395 -15.3034668 36.02172852 C-11.67610426 35.90583582 -8.04900583 35.78307874 -4.421875 35.66015625 C-3.15923828 35.62083984 -1.89660156 35.58152344 -0.59570312 35.54101562 C0.61279297 35.49912109 1.82128906 35.45722656 3.06640625 35.4140625 C4.73956909 35.35907593 4.73956909 35.35907593 6.4465332 35.30297852 C9.34436071 35.20834416 9.34436071 35.20834416 12.265625 34.09765625 C12.595625 31.78765625 12.925625 29.47765625 13.265625 27.09765625 C11.5640625 27.14986328 11.5640625 27.14986328 9.828125 27.203125 C-7.38028104 27.5828204 -7.38028104 27.5828204 -13.53515625 22.65625 C-16.75583363 19.46518805 -18.1139407 16.97913262 -18.234375 12.41015625 C-18.09633484 9.17196413 -17.42367616 6.87378054 -15.734375 4.09765625 C-10.50408318 0.38139627 -6.32197443 -0.02772796 0 0 Z " fill="#DD8F15" transform="translate(159.734375,174.90234375)"/>
<path d="M0 0 C2.97 0 5.94 0 9 0 C9 0.66 9 1.32 9 2 C10.32 2 11.64 2 13 2 C13.33 12.89 13.66 23.78 14 35 C26.87 35.495 26.87 35.495 40 36 C40 36.66 40 37.32 40 38 C41.32 38 42.64 38 44 38 C44 40.31 44 42.62 44 45 C40.01652774 45.07480519 36.03333406 45.12890718 32.04931641 45.16479492 C30.03663752 45.18709408 28.02415416 45.22523653 26.01171875 45.26367188 C18.06437349 45.32357649 11.57012942 45.33003737 4.94140625 40.5 C0.3143555 35.46660768 -0.1458409 32.08262129 -0.09765625 25.48828125 C-0.0962413 24.76005661 -0.09482635 24.03183197 -0.09336853 23.28153992 C-0.08777659 20.95848461 -0.07522562 18.63552612 -0.0625 16.3125 C-0.05748396 14.73632952 -0.05292123 13.16015752 -0.04882812 11.58398438 C-0.0378098 7.72261902 -0.02055074 3.86132592 0 0 Z " fill="#D89018" transform="translate(237,175)"/>
<path d="M0 0 C2.13745922 0.25146579 3.45925779 0.45925779 5 2 C5.08868299 4.95705321 5.11520296 7.89065056 5.09765625 10.84765625 C5.0962413 11.7340831 5.09482635 12.62050995 5.09336853 13.53379822 C5.08775215 16.37673254 5.07519691 19.21958931 5.0625 22.0625 C5.05748711 23.98502491 5.05292384 25.90755104 5.04882812 27.83007812 C5.03777741 32.55341549 5.02050183 37.27669458 5 42 C2.03 42 -0.94 42 -4 42 C-4 41.01 -4 40.02 -4 39 C-4.99 39 -5.98 39 -7 39 C-7.33 32.07 -7.66 25.14 -8 18 C-8.60328125 19.39734375 -9.2065625 20.7946875 -9.828125 22.234375 C-10.63492647 24.07313183 -11.4422453 25.91166172 -12.25 27.75 C-12.64574219 28.67039063 -13.04148437 29.59078125 -13.44921875 30.5390625 C-17.42807872 39.54041784 -17.42807872 39.54041784 -21 42 C-23.47265625 42.53125 -23.47265625 42.53125 -26.0625 42.5 C-26.91972656 42.5103125 -27.77695312 42.520625 -28.66015625 42.53125 C-31 42 -31 42 -32.80859375 39.96875 C-33.20175781 39.3190625 -33.59492187 38.669375 -34 38 C-32.9275 38.04125 -31.855 38.0825 -30.75 38.125 C-26.47404864 38.04346696 -26.47404864 38.04346696 -23 36 C-21.65705888 33.5380031 -20.54103535 31.1966987 -19.46875 28.62109375 C-18.81642156 27.12824852 -18.16407734 25.63541018 -17.51171875 24.14257812 C-16.50071753 21.78497056 -15.49479513 19.42526338 -14.49072266 17.06469727 C-13.51636038 14.78636015 -12.52453748 12.51622905 -11.53125 10.24609375 C-11.23633667 9.53569443 -10.94142334 8.8252951 -10.63757324 8.09336853 C-8.50682032 3.23844635 -8.50682032 3.23844635 -5.84179688 1.98461914 C-4 2 -4 2 -3 3 C-2.5875 2.484375 -2.175 1.96875 -1.75 1.4375 C-1.1725 0.963125 -0.595 0.48875 0 0 Z " fill="#01618A" transform="translate(84,178)"/>
<path d="M0 0 C19.76096928 -0.90462219 19.76096928 -0.90462219 26.50390625 3.61328125 C28.70587117 5.65426701 29.92427128 7.33291909 30.265625 10.33984375 C30.26046875 11.19707031 30.2553125 12.05429688 30.25 12.9375 C30.25773437 14.21947266 30.25773437 14.21947266 30.265625 15.52734375 C29.98177741 18.16963086 29.41578707 19.76403283 28 22 C22.69719021 25.76778591 18.45867946 26.12482491 12.046875 26.09765625 C11.38665344 26.0962413 10.72643188 26.09482635 10.04620361 26.09336853 C7.94742206 26.08779245 5.84874905 26.07524447 3.75 26.0625 C2.32291821 26.0574819 0.89583475 26.05291954 -0.53125 26.04882812 C-4.02086832 26.03783088 -7.51042356 26.0205828 -11 26 C-11 25.01 -11 24.02 -11 23 C-11.99 23 -12.98 23 -14 23 C-14 21.02 -14 19.04 -14 17 C-13.19780029 16.97494385 -12.39560059 16.9498877 -11.5690918 16.92407227 C-7.94172926 16.80817957 -4.31463083 16.68542249 -0.6875 16.5625 C0.57513672 16.52318359 1.83777344 16.48386719 3.13867188 16.44335938 C4.34716797 16.40146484 5.55566406 16.35957031 6.80078125 16.31640625 C7.91622314 16.27974854 9.03166504 16.24309082 10.1809082 16.20532227 C13.07873571 16.11068791 13.07873571 16.11068791 16 15 C16.33 12.03 16.66 9.06 17 6 C14.06855632 5.26713908 11.83174933 4.83956246 8.890625 4.68359375 C8.13652344 4.64169922 7.38242188 4.59980469 6.60546875 4.55664062 C5.43951172 4.49766602 5.43951172 4.49766602 4.25 4.4375 C3.45722656 4.39431641 2.66445312 4.35113281 1.84765625 4.30664062 C-0.10137815 4.20097009 -2.05066748 4.10002034 -4 4 C-2.68 3.34 -1.36 2.68 0 2 C0 1.34 0 0.68 0 0 Z " fill="#E38D05" transform="translate(156,194)"/>
<path d="M0 0 C5.34844008 0.53484401 9.35796103 2.46690767 14 5 C14 5.66 14 6.32 14 7 C13.0925 6.649375 12.185 6.29875 11.25 5.9375 C7.99408687 4.99829429 7.07250006 5.04485324 4 6 C4.77923828 7.18142578 4.77923828 7.18142578 5.57421875 8.38671875 C9.90528837 15.15151326 13.27494336 21.57194648 15.89453125 29.22265625 C16.85846646 32.02291805 16.85846646 32.02291805 18.65234375 34.11328125 C20 36 20 36 20.109375 38.0078125 C19.99078125 38.70648438 19.8721875 39.40515625 19.75 40.125 C19.57597656 41.29869141 19.57597656 41.29869141 19.3984375 42.49609375 C19.26695312 43.32238281 19.13546875 44.14867187 19 45 C18.28292161 50.54485036 17.69331151 55.48287084 19 61 C19.18175781 60.45730469 19.36351562 59.91460937 19.55078125 59.35546875 C19.80214844 58.64003906 20.05351562 57.92460937 20.3125 57.1875 C20.55613281 56.47980469 20.79976562 55.77210938 21.05078125 55.04296875 C22.06724258 52.85527627 23.20820594 51.59103282 25 50 C25.66 50.66 26.32 51.32 27 52 C27.66 52 28.32 52 29 52 C29.21914062 52.52207031 29.43828125 53.04414063 29.6640625 53.58203125 C35.05859372 67.65893134 35.05859372 67.65893134 45 78 C45 78.66 45 79.32 45 80 C41.11229805 78.37473743 38.39604128 75.83241175 35.3125 73 C33.85263672 71.6696875 33.85263672 71.6696875 32.36328125 70.3125 C30 68 30 68 29 66 C27.68 67.98 26.36 69.96 25 72 C20.55215797 71.4916752 18.16430777 70.16430777 15 67 C11.36324656 61.6747539 10.5448327 57.37234218 11 51 C11.99 51.33 12.98 51.66 14 52 C13.814375 50.741875 13.62875 49.48375 13.4375 48.1875 C12.99267239 45.17255732 13.00156154 43.99531539 14 41 C14.66 41 15.32 41 16 41 C15.677034 35.72488874 14.65259128 33.30945359 11.31640625 29.0703125 C9.70195036 26.53125724 8.97663581 24.07052687 8.125 21.1875 C6.44805196 15.63478409 3.95650708 11.71813543 0.29296875 7.25390625 C-1 5 -1 5 -0.69921875 2.21484375 C-0.46847656 1.48394531 -0.23773438 0.75304687 0 0 Z " fill="#055E83" transform="translate(196,92)"/>
<path d="M0 0 C0 7.92 0 15.84 0 24 C-4 24 -4 24 -6.1875 22.5 C-10.12829232 20.3982441 -13.6230601 20.74253295 -18 21 C-16.35 22.98 -14.7 24.96 -13 27 C-14.47906892 27.02689216 -15.95827483 27.04634621 -17.4375 27.0625 C-18.67306641 27.07990234 -18.67306641 27.07990234 -19.93359375 27.09765625 C-22 27 -22 27 -23 26 C-23.25208722 22.19411856 -23.18522344 18.37574544 -23.1875 14.5625 C-23.19974609 13.48677734 -23.21199219 12.41105469 -23.22460938 11.30273438 C-23.22654297 10.27599609 -23.22847656 9.24925781 -23.23046875 8.19140625 C-23.23457764 7.24467041 -23.23868652 6.29793457 -23.24291992 5.32250977 C-23 3 -23 3 -21 1 C-18.95288086 0.68115234 -18.95288086 0.68115234 -16.46484375 0.5859375 C-15.12776367 0.52792969 -15.12776367 0.52792969 -13.76367188 0.46875 C-12.83103516 0.4378125 -11.89839844 0.406875 -10.9375 0.375 C-10.00099609 0.33632812 -9.06449219 0.29765625 -8.09960938 0.2578125 C-1.74176897 0 -1.74176897 0 0 0 Z " fill="#FAFAF8" transform="translate(224,184)"/>
<path d="M0 0 C0.86625 -0.00773438 1.7325 -0.01546875 2.625 -0.0234375 C5.39380767 0.44106642 6.26929299 1.22300246 8 3.375 C7.01 3.705 6.02 4.035 5 4.375 C4.67 5.365 4.34 6.355 4 7.375 C3.01 6.715 2.02 6.055 1 5.375 C0.67 6.035 0.34 6.695 0 7.375 C-0.52851562 8.40882813 -1.05703125 9.44265625 -1.6015625 10.5078125 C-2.27692959 11.83809125 -2.95134529 13.16885328 -3.625 14.5 C-3.98182861 15.20342529 -4.33865723 15.90685059 -4.70629883 16.6315918 C-6.56352761 20.33905647 -8.32149044 24.0557217 -9.91015625 27.88671875 C-10.36044189 28.96832275 -10.36044189 28.96832275 -10.81982422 30.07177734 C-11.38632673 31.45312533 -11.93940227 32.84007799 -12.47705078 34.23291016 C-13.74736597 37.32767304 -14.81534939 39.22692555 -17.4453125 41.3359375 C-21.45135504 42.96530649 -23.80015473 42.27004899 -28 41.375 C-30 39.375 -30 39.375 -30.25 36.375 C-30 33.375 -30 33.375 -28 31.375 C-25.06546739 31.74181658 -24.13562754 32.23937246 -22 34.375 C-21.71801758 33.72015625 -21.43603516 33.0653125 -21.14550781 32.390625 C-19.84938496 29.38438429 -18.54971905 26.37968758 -17.25 23.375 C-16.8065625 22.34503906 -16.363125 21.31507813 -15.90625 20.25390625 C-7.10637605 -0.06344979 -7.10637605 -0.06344979 0 0 Z " fill="#066189" transform="translate(77,174.625)"/>
<path d="M0 0 C3.7734209 0.93646942 6.91831444 3.12842026 10.24609375 5.0859375 C13.1822812 6.55204999 15.46943871 7.10131151 18.703125 7.53125 C24.77588973 8.35378586 29.15664779 11.09327874 34.140625 14.53125 C33.810625 15.52125 33.480625 16.51125 33.140625 17.53125 C32.54894531 17.26570313 31.95726562 17.00015625 31.34765625 16.7265625 C29.71437156 15.99651355 28.07884747 15.27145911 26.44140625 14.55078125 C24.83115383 13.83723986 23.231536 13.09943272 21.640625 12.34375 C17.88576728 11.12342124 14.06229657 10.85591998 10.140625 10.53125 C10.140625 9.87125 10.140625 9.21125 10.140625 8.53125 C8.8103125 8.098125 8.8103125 8.098125 7.453125 7.65625 C4.140625 6.53125 4.140625 6.53125 1.453125 5.34375 C-0.96907175 4.22735807 -0.96907175 4.22735807 -3.859375 5.53125 C-3.2261425 9.21084428 -1.59030533 11.60842677 0.515625 14.65625 C3.45881664 19.14282261 5.08855588 23.08574841 6.38671875 28.25390625 C7.19498512 30.695457 8.23004713 32.22003979 9.828125 34.21875 C12.52206909 37.65696693 12.62765007 40.14802435 12.140625 44.53125 C11.73035944 47.16867146 11.33051424 49.15147152 10.140625 51.53125 C10.140625 52.85125 10.140625 54.17125 10.140625 55.53125 C8.160625 56.02625 8.160625 56.02625 6.140625 56.53125 C6.3571875 54.5821875 6.3571875 54.5821875 6.578125 52.59375 C6.660625 51.76617187 6.743125 50.93859375 6.828125 50.0859375 C7.140625 47.53125 7.140625 47.53125 7.640625 45.3515625 C9.1706369 37.89275449 5.67598372 32.92734585 2.140625 26.53125 C1.43317643 24.93578033 0.74333173 23.33228864 0.078125 21.71875 C-1.18317966 18.78277192 -2.60737168 16.38172864 -4.546875 13.84375 C-6.82688676 10.7943225 -7.859375 8.43993411 -7.859375 4.53125 C-6.25062299 0.71046399 -4.12505959 -0.2079862 0 0 Z " fill="#036086" transform="translate(199.859375,88.46875)"/>
<path d="M0 0 C5.94144322 -0.49512027 9.94073345 0.05474519 15.15234375 2.9765625 C19.1377148 5.18410418 22.46960302 6 27 6 C43.75042753 16.44593591 50.53315883 33.66498491 58 51 C57.01 51.495 57.01 51.495 56 52 C51.59936255 48.3922702 49.90505159 43.85827043 47.75 38.75 C47.38648438 37.90953125 47.02296875 37.0690625 46.6484375 36.203125 C45.75707217 34.13891056 44.87462622 32.07134915 44 30 C43.01 30 42.02 30 41 30 C39.03651592 27.83339688 37.36806887 25.52518484 35.69140625 23.1328125 C29.24148703 14.14837217 21.09704913 6.73283153 9.98828125 4.35546875 C8.08147543 4.04888428 6.16832646 3.77812893 4.25 3.5546875 C2 3 2 3 0 0 Z " fill="#0C5F83" transform="translate(210,99)"/>
<path d="M0 0 C1.32 0 2.64 0 4 0 C4.09897181 5.05365292 4.17151603 10.10674024 4.21972656 15.16113281 C4.23982628 16.87998279 4.26711089 18.59876452 4.30175781 20.31738281 C4.35035034 22.78988489 4.37298435 25.2614821 4.390625 27.734375 C4.41127014 28.50118591 4.43191528 29.26799683 4.45318604 30.05804443 C4.45462235 33.48309107 4.3077844 35.57001483 2.28808594 38.39160156 C-2.68498367 41.88739569 -6.95840658 42.28111619 -12.92578125 42.1953125 C-13.67337204 42.1924826 -14.42096283 42.18965271 -15.19120789 42.18673706 C-17.5651388 42.17559469 -19.93868425 42.15050162 -22.3125 42.125 C-23.9277289 42.11496249 -25.54296376 42.10583799 -27.15820312 42.09765625 C-31.10561594 42.07567489 -35.05274274 42.04118657 -39 42 C-39 41.01 -39 40.02 -39 39 C-38.19369141 38.98541748 -37.38738281 38.97083496 -36.55664062 38.95581055 C-32.87063378 38.88091538 -29.18549163 38.7843904 -25.5 38.6875 C-24.2315625 38.66494141 -22.963125 38.64238281 -21.65625 38.61914062 C-14.82518457 38.42345906 -9.1373931 38.13573118 -3 35 C-0.62931088 31.44396632 -0.65534892 28.82006655 -0.5859375 24.70703125 C-0.56657135 24.00100266 -0.5472052 23.29497406 -0.5272522 22.56755066 C-0.46754776 20.31598939 -0.4211086 18.06437672 -0.375 15.8125 C-0.33681171 14.28448311 -0.29775948 12.75648755 -0.2578125 11.22851562 C-0.16185404 7.48585065 -0.07778989 3.7430849 0 0 Z " fill="#3F403F" transform="translate(135,190)"/>
<path d="M0 0 C0.66 0 1.32 0 2 0 C2 0.99 2 1.98 2 3 C2.99 3.33 3.98 3.66 5 4 C5.11605098 8.58312084 5.18720362 13.16586449 5.25 17.75 C5.30027344 19.70292969 5.30027344 19.70292969 5.3515625 21.6953125 C5.36445313 22.94570312 5.37734375 24.19609375 5.390625 25.484375 C5.41157227 26.63647461 5.43251953 27.78857422 5.45410156 28.97558594 C4.90987571 32.60024715 3.80542794 33.73818439 1 36 C2.98 38.31 4.96 40.62 7 43 C5.37536158 43.05395478 3.75021459 43.09277195 2.125 43.125 C1.22007812 43.14820313 0.31515625 43.17140625 -0.6171875 43.1953125 C-3 43 -3 43 -5 41 C-4.67 40.01 -4.34 39.02 -4 38 C-3.01 37.505 -3.01 37.505 -2 37 C-2.33 35.68 -2.66 34.36 -3 33 C-2.34 33 -1.68 33 -1 33 C-1.16064941 32.4541626 -1.32129883 31.9083252 -1.48681641 31.34594727 C-2.07167208 28.67236109 -2.16115535 26.20126376 -2.2109375 23.46484375 C-2.23929688 22.40845703 -2.26765625 21.35207031 -2.296875 20.26367188 C-2.34904605 18.04248921 -2.39329082 15.82110651 -2.4296875 13.59960938 C-2.460625 12.54451172 -2.4915625 11.48941406 -2.5234375 10.40234375 C-2.54325684 9.43804443 -2.56307617 8.47374512 -2.58349609 7.48022461 C-3.05899583 4.64868777 -3.78346312 3.75239656 -6 2 C-4.7934375 2.2475 -4.7934375 2.2475 -3.5625 2.5 C-1.2715557 3.03191839 -1.2715557 3.03191839 0 3 C0 2.01 0 1.02 0 0 Z " fill="#E68D02" transform="translate(226,179)"/>
<path d="M0 0 C5.34844008 0.53484401 9.35796103 2.46690767 14 5 C14 5.66 14 6.32 14 7 C13.0925 6.649375 12.185 6.29875 11.25 5.9375 C7.99408687 4.99829429 7.07250006 5.04485324 4 6 C4.77923828 7.18142578 4.77923828 7.18142578 5.57421875 8.38671875 C9.90528837 15.15151326 13.27494336 21.57194648 15.89453125 29.22265625 C16.85846646 32.02291805 16.85846646 32.02291805 18.65234375 34.11328125 C20 36 20 36 20.109375 38.0078125 C19.99078125 38.70648438 19.8721875 39.40515625 19.75 40.125 C19.63398438 40.91261719 19.51796875 41.70023438 19.3984375 42.51171875 C19.20121094 43.74341797 19.20121094 43.74341797 19 45 C18.06091057 51.86845639 18.04918671 58.12488848 19 65 C16 64 16 64 14.3125 60.6875 C12.17783568 54.51820835 11.93431273 47.19706182 14 41 C14.66 41 15.32 41 16 41 C15.677034 35.72488874 14.65259128 33.30945359 11.31640625 29.0703125 C9.70195036 26.53125724 8.97663581 24.07052687 8.125 21.1875 C6.44805196 15.63478409 3.95650708 11.71813543 0.29296875 7.25390625 C-1 5 -1 5 -0.69921875 2.21484375 C-0.46847656 1.48394531 -0.23773438 0.75304687 0 0 Z " fill="#363D40" transform="translate(196,92)"/>
<path d="M0 0 C2.37141682 0.94856673 3.74895717 1.64192919 5.23120117 3.75610352 C6.88588648 8.58564072 6.32624409 13.8879213 6.3125 18.9375 C6.32861328 20.11763672 6.34472656 21.29777344 6.36132812 22.51367188 C6.36229492 24.22200195 6.36229492 24.22200195 6.36328125 25.96484375 C6.36626221 27.0024585 6.36924316 28.04007324 6.37231445 29.10913086 C5.94803338 32.40349953 4.80602006 34.25202004 3 37 C3 37.66 3 38.32 3 39 C3.99 39.825 4.98 40.65 6 41.5 C6.99 42.325 7.98 43.15 9 44 C9 44.66 9 45.32 9 46 C-1.15317287 46.63019694 -1.15317287 46.63019694 -4.6875 44 C-5.120625 43.34 -5.55375 42.68 -6 42 C-3.36 41.67 -0.72 41.34 2 41 C-0.97 37.535 -0.97 37.535 -4 34 C-3.34805664 33.65090576 -2.69611328 33.30181152 -2.02441406 32.94213867 C0.32111577 31.09153247 0.32111577 31.09153247 0.45410156 27.8137207 C0.4331543 26.53070068 0.41220703 25.24768066 0.390625 23.92578125 C0.38213531 22.90003242 0.38213531 22.90003242 0.37347412 21.8535614 C0.35110816 19.67249101 0.30091765 17.49307247 0.25 15.3125 C0.229935 13.83270605 0.21168422 12.3528863 0.1953125 10.87304688 C0.15124474 7.2481624 0.08221822 3.62424244 0 0 Z " fill="#403C34" transform="translate(230,180)"/>
<path d="M0 0 C4.875 2.75 4.875 2.75 6 5 C6.12148305 6.62165752 6.17543652 8.24884327 6.1875 9.875 C6.20167969 10.73867187 6.21585938 11.60234375 6.23046875 12.4921875 C5.98398595 15.17425457 5.43973561 16.73897191 4 19 C-1.30280979 22.76778591 -5.54132054 23.12482491 -11.953125 23.09765625 C-12.61334656 23.0962413 -13.27356812 23.09482635 -13.95379639 23.09336853 C-16.05257794 23.08779245 -18.15125095 23.07524447 -20.25 23.0625 C-21.67708179 23.0574819 -23.10416525 23.05291954 -24.53125 23.04882812 C-28.02086832 23.03783088 -31.51042356 23.0205828 -35 23 C-35 22.01 -35 21.02 -35 20 C-35.99 19.67 -36.98 19.34 -38 19 C-37.09233887 18.98541748 -36.18467773 18.97083496 -35.24951172 18.95581055 C-31.8609069 18.89451851 -28.47308311 18.82032424 -25.08496094 18.73754883 C-23.62250292 18.70442865 -22.15992105 18.67635695 -20.69726562 18.65356445 C-18.58670597 18.61977825 -16.47726814 18.5674562 -14.3671875 18.51171875 C-13.09987793 18.48553467 -11.83256836 18.45935059 -10.52685547 18.43237305 C-6.57039918 17.94733331 -2.90172779 16.90172779 0 14 C0.07271741 11.64686445 0.08370868 9.29166332 0.0625 6.9375 C0.05347656 5.64714844 0.04445312 4.35679687 0.03515625 3.02734375 C0.02355469 2.02832031 0.01195312 1.02929688 0 0 Z " fill="#403A31" transform="translate(180,197)"/>
<path d="M0 0 C3.10949885 1.04783988 3.99389809 1.99008952 5.74609375 4.8359375 C6.30425781 6.00382813 6.86242188 7.17171875 7.4375 8.375 C7.735354 8.99552246 8.03320801 9.61604492 8.34008789 10.25537109 C16 26.38907382 16 26.38907382 16 32 C15.01 31.67 14.02 31.34 13 31 C12.67 30.34 12.34 29.68 12 29 C10.05000871 29.19471111 10.05000871 29.19471111 8 30 C6.8529475 32.00213945 6.8529475 32.00213945 6 34 C4.82887054 31.37690901 3.66294036 28.75171858 2.5 26.125 C2.16613281 25.37863281 1.83226562 24.63226563 1.48828125 23.86328125 C1.17246094 23.14785156 0.85664062 22.43242187 0.53125 21.6953125 C0.09135742 20.7055542 0.09135742 20.7055542 -0.35742188 19.69580078 C-1 18 -1 18 -1 16 C-0.195625 15.71125 0.60875 15.4225 1.4375 15.125 C4.1326468 14.26737432 4.1326468 14.26737432 5 12 C4.26821134 9.92803369 3.44100997 7.8891448 2.5625 5.875 C2.08941406 4.77929688 1.61632813 3.68359375 1.12890625 2.5546875 C0.57009766 1.29011719 0.57009766 1.29011719 0 0 Z " fill="#046087" transform="translate(40,178)"/>
<path d="M0 0 C2.4178425 0.96833755 3.74943914 1.60858669 5.17260742 3.83178711 C5.48045166 4.5563208 5.7882959 5.28085449 6.10546875 6.02734375 C6.44900391 6.81947266 6.79253906 7.61160156 7.14648438 8.42773438 C7.49001953 9.25595703 7.83355469 10.08417969 8.1875 10.9375 C8.54263672 11.76185547 8.89777344 12.58621094 9.26367188 13.43554688 C10.61928892 16.60208308 11.91027379 19.73082137 13 23 C14.76498717 23.81174193 14.76498717 23.81174193 16.9375 24.3125 C22.39355905 25.97646664 27.55020243 28.38895396 32 32 C32.65234375 34.11328125 32.65234375 34.11328125 33 36 C34.9837767 37.28436734 34.9837767 37.28436734 37 38 C36.67 38.99 36.34 39.98 36 41 C34.02 41 32.04 41 30 41 C30.66 40.01 31.32 39.02 32 38 C27.01489873 34.60233321 22.26366728 32.18048653 16.4921875 30.3828125 C9.93023237 26.74185307 6.62278964 19.97713593 3.625 13.375 C3.27050781 12.63765625 2.91601562 11.9003125 2.55078125 11.140625 C0.77097625 7.30614164 -0.49578674 4.32531193 0 0 Z " fill="#055D82" transform="translate(251,127)"/>
<path d="M0 0 C6.74663785 -0.47999795 10.44777369 -0.23026767 16 4 C17.32 4 18.64 4 20 4 C20 5.32 20 6.64 20 8 C19.34 8 18.68 8 18 8 C18 8.99 18 9.98 18 11 C18.66 11.33 19.32 11.66 20 12 C18.6484375 13.97265625 18.6484375 13.97265625 16 16 C12.53749739 16.59499768 9.12931102 16.5119066 5.625 16.4375 C4.69171875 16.44458984 3.7584375 16.45167969 2.796875 16.45898438 C-2.51432035 16.41008527 -6.44545667 16.03388961 -11 13 C-11.33 12.34 -11.66 11.68 -12 11 C-3.42 11 5.16 11 14 11 C12.68 10.67 11.36 10.34 10 10 C9.67 9.34 9.34 8.68 9 8 C8.236875 7.566875 7.47375 7.13375 6.6875 6.6875 C3.72100615 4.82481781 2.05155106 2.81138478 0 0 Z " fill="#D5860B" transform="translate(205,204)"/>
<path d="M0 0 C0.33 0 0.66 0 1 0 C1.694756 9.16590373 0.12930991 15.7292241 -3.75 24 C-4.1934375 25.00933594 -4.636875 26.01867187 -5.09375 27.05859375 C-7.23188775 31.79394001 -9.00577019 35.55219452 -13 39 C-15.47265625 39.53125 -15.47265625 39.53125 -18.0625 39.5 C-18.91972656 39.5103125 -19.77695312 39.520625 -20.66015625 39.53125 C-23 39 -23 39 -24.80859375 36.96875 C-25.20175781 36.3190625 -25.59492187 35.669375 -26 35 C-24.9275 35.04125 -23.855 35.0825 -22.75 35.125 C-18.47426576 35.04273958 -18.47426576 35.04273958 -15 33 C-13.61048974 30.52889496 -12.44695919 28.17508766 -11.328125 25.5859375 C-11.00084412 24.85629791 -10.67356323 24.12665833 -10.33636475 23.37490845 C-9.29541418 21.0468008 -8.27257949 18.7112267 -7.25 16.375 C-6.54675279 14.79374557 -5.84233918 13.21300933 -5.13671875 11.6328125 C-3.41089475 7.76108784 -1.70127333 3.88257136 0 0 Z " fill="#3C3E40" transform="translate(76,181)"/>
<path d="M0 0 C9.57 0 19.14 0 29 0 C29 0.66 29 1.32 29 2 C30.32 2 31.64 2 33 2 C33 4.64 33 7.28 33 10 C23.1 10.33 13.2 10.66 3 11 C2.67 13.31 2.34 15.62 2 18 C0.68 17.34 -0.64 16.68 -2 16 C-2.1953125 9.9453125 -2.1953125 9.9453125 -2 8 C0 6 0 6 2.79736328 5.77294922 C3.95993652 5.78342285 5.12250977 5.79389648 6.3203125 5.8046875 C8.20556641 5.81435547 8.20556641 5.81435547 10.12890625 5.82421875 C12.10697266 5.84935547 12.10697266 5.84935547 14.125 5.875 C15.46483721 5.88503017 16.80468152 5.89415596 18.14453125 5.90234375 C21.42986573 5.92597925 24.71484465 5.95892766 28 6 C28 4.35 28 2.7 28 1 C18.76 1 9.52 1 0 1 C0 0.67 0 0.34 0 0 Z " fill="#635D50" transform="translate(153,175)"/>
<path d="M0 0 C6.5204594 8.69394587 6.29612558 14.76770116 5.6875 25.4375 C5.62626953 26.74138672 5.56503906 28.04527344 5.50195312 29.38867188 C5.34934348 32.59347441 5.18158117 35.79673012 5 39 C1.7 39 -1.6 39 -5 39 C-5 38.01 -5 37.02 -5 36 C-5.99 35.67 -6.98 35.34 -8 35 C-5.36 35 -2.72 35 0 35 C0 23.45 0 11.9 0 0 Z " fill="#2B3234" transform="translate(32,181)"/>
<path d="M0 0 C1.31871094 -0.00386719 1.31871094 -0.00386719 2.6640625 -0.0078125 C3.57929688 -0.00007812 4.49453125 0.00765625 5.4375 0.015625 C6.35273438 0.00789062 7.26796875 0.00015625 8.2109375 -0.0078125 C9.09007812 -0.00523437 9.96921875 -0.00265625 10.875 0 C11.67808594 0.00225586 12.48117188 0.00451172 13.30859375 0.00683594 C15.4375 0.265625 15.4375 0.265625 18.4375 2.265625 C18.4375 2.925625 18.4375 3.585625 18.4375 4.265625 C17.83687744 4.29068115 17.23625488 4.3157373 16.61743164 4.34155273 C13.91138563 4.4571778 11.20571717 4.58005436 8.5 4.703125 C7.08170898 4.76209961 7.08170898 4.76209961 5.63476562 4.82226562 C4.73564453 4.86416016 3.83652344 4.90605469 2.91015625 4.94921875 C2.07750244 4.98587646 1.24484863 5.02253418 0.38696289 5.06030273 C-1.56588858 5.05929603 -1.56588858 5.05929603 -2.5625 6.265625 C-2.64976223 8.04633746 -2.66949041 9.8304564 -2.66015625 11.61328125 C-2.65693359 12.69287109 -2.65371094 13.77246094 -2.65039062 14.88476562 C-2.64201172 16.02107422 -2.63363281 17.15738281 -2.625 18.328125 C-2.62048828 19.46830078 -2.61597656 20.60847656 -2.61132812 21.78320312 C-2.59949747 24.61072851 -2.5830141 27.4381514 -2.5625 30.265625 C-6.4375 28.390625 -6.4375 28.390625 -7.5625 27.265625 C-7.84310716 23.12666942 -7.79429994 18.97546277 -7.8125 14.828125 C-7.833125 13.65701172 -7.85375 12.48589844 -7.875 11.27929688 C-7.88015625 10.16232422 -7.8853125 9.04535156 -7.890625 7.89453125 C-7.8999707 6.86400635 -7.90931641 5.83348145 -7.91894531 4.77172852 C-7.80131836 3.94471436 -7.68369141 3.1177002 -7.5625 2.265625 C-4.40577318 0.16114046 -3.6106891 0.01014239 0 0 Z " fill="#434240" transform="translate(204.5625,180.734375)"/>
<path d="M0 0 C0.99 0.33 1.98 0.66 3 1 C2.67 9.58 2.34 18.16 2 27 C1.34 27 0.68 27 0 27 C0 28.65 0 30.3 0 32 C-2.98042511 31.91207291 -5.95821312 31.80507424 -8.9375 31.6875 C-9.76830078 31.66494141 -10.59910156 31.64238281 -11.45507812 31.61914062 C-17.25953054 31.37070103 -22.71649709 30.55250055 -28 28 C-28.33 27.34 -28.66 26.68 -29 26 C-24.38 26 -19.76 26 -15 26 C-15 25.67 -15 25.34 -15 25 C-12.03 25 -9.06 25 -6 25 C-6 24.34 -6 23.68 -6 23 C-4.02 23 -2.04 23 0 23 C0 15.41 0 7.82 0 0 Z " fill="#176686" transform="translate(127,189)"/>
<path d="M0 0 C1.32 0.66 2.64 1.32 4 2 C4 15.2 4 28.4 4 42 C1.03 42 -1.94 42 -5 42 C-5 41.01 -5 40.02 -5 39 C-5.99 38.67 -6.98 38.34 -8 38 C-5.36 38 -2.72 38 0 38 C0 25.46 0 12.92 0 0 Z " fill="#313638" transform="translate(85,178)"/>
<path d="M0 0 C3.61447169 0.3442354 5.70812541 0.78957879 8.6875 2.9375 C13.23271973 5.76754247 17.75405802 6.29058436 23 7 C23 8.65 23 10.3 23 12 C22.34 11.67 21.68 11.34 21 11 C21.3403125 12.3921875 21.3403125 12.3921875 21.6875 13.8125 C22 17 22 17 20.5625 18.875 C20.046875 19.24625 19.53125 19.6175 19 20 C18.896875 19.360625 18.79375 18.72125 18.6875 18.0625 C18.460625 17.381875 18.23375 16.70125 18 16 C17.01 15.67 16.02 15.34 15 15 C14 14 13 13 12 12 C11.01 11.67 10.02 11.34 9 11 C8.34 10.34 7.68 9.68 7 9 C7 9.66 7 10.32 7 11 C3.51752126 9.83917375 3.11180756 9.09067524 1.25 6.0625 C0.80140625 5.35222656 0.3528125 4.64195313 -0.109375 3.91015625 C-0.40328125 3.27980469 -0.6971875 2.64945312 -1 2 C-0.67 1.34 -0.34 0.68 0 0 Z " fill="#F8F9F8" transform="translate(200,96)"/>
<path d="M0 0 C1.98 0 3.96 0 6 0 C6.33 7.26 6.66 14.52 7 22 C7.66 22.33 8.32 22.66 9 23 C6.03 23 3.06 23 0 23 C-0.93290869 20.20127394 -1.12859447 18.48011055 -1.1328125 15.5859375 C-1.13410156 14.74289063 -1.13539062 13.89984375 -1.13671875 13.03125 C-1.13285156 12.1546875 -1.12898438 11.278125 -1.125 10.375 C-1.12886719 9.49070313 -1.13273437 8.60640625 -1.13671875 7.6953125 C-1.13542969 6.85484375 -1.13414063 6.014375 -1.1328125 5.1484375 C-1.13168457 4.37677246 -1.13055664 3.60510742 -1.12939453 2.81005859 C-1 1 -1 1 0 0 Z " fill="#026089" transform="translate(95,188)"/>
<path d="M0 0 C0.495 0.99 0.495 0.99 1 2 C2.32 2 3.64 2 5 2 C5 4.31 5 6.62 5 9 C1.01652774 9.07480519 -2.96666594 9.12890718 -6.95068359 9.16479492 C-8.96336248 9.18709408 -10.97584584 9.22523653 -12.98828125 9.26367188 C-20.00966725 9.3165969 -25.69675678 9.25404931 -32 6 C-32.33 5.34 -32.66 4.68 -33 4 C-16.665 4.495 -16.665 4.495 0 5 C0 3.35 0 1.7 0 0 Z " fill="#3D372C" transform="translate(276,211)"/>
<path d="M0 0 C9.9 0 19.8 0 30 0 C30 1.65 30 3.3 30 5 C20.43 5.33 10.86 5.66 1 6 C0 1 0 1 0 0 Z " fill="#E58D01" transform="translate(151,176)"/>
<path d="M0 0 C0.66 0.66 1.32 1.32 2 2 C2.66 1.67 3.32 1.34 4 1 C6 3 6 3 6 5 C5.34 5 4.68 5 4 5 C4.1387881 8.60447434 4.28723935 12.20848712 4.4375 15.8125 C4.47681641 16.83666016 4.51613281 17.86082031 4.55664062 18.91601562 C4.59853516 19.89892578 4.64042969 20.88183594 4.68359375 21.89453125 C4.72025146 22.80050049 4.75690918 23.70646973 4.79467773 24.63989258 C4.9208205 27.15048782 4.9208205 27.15048782 6 30 C5.67 30.99 5.34 31.98 5 33 C4.34 33 3.68 33 3 33 C3 32.34 3 31.68 3 31 C2.34 31 1.68 31 1 31 C1 32.98 1 34.96 1 37 C0.67 37 0.34 37 0 37 C0 24.79 0 12.58 0 0 Z " fill="#E5E7E6" transform="translate(89,183)"/>
<path d="M0 0 C1.32 0 2.64 0 4 0 C4.33 10.89 4.66 21.78 5 33 C3.35 32.34 1.7 31.68 0 31 C0 20.77 0 10.54 0 0 Z " fill="#41403F" transform="translate(246,178)"/>
<path d="M0 0 C14.93838813 8.21611347 20.81027348 27.08117198 27 42 C25.23828125 41.94921875 25.23828125 41.94921875 23 41 C21.53829917 38.60401616 20.34969556 36.34854442 19.1875 33.8125 C18.48702253 32.35154171 17.78650084 30.89060462 17.0859375 29.4296875 C16.73756836 28.68944336 16.38919922 27.94919922 16.03027344 27.18652344 C10.09007849 12.98186798 10.09007849 12.98186798 0 2 C0 1.34 0 0.68 0 0 Z " fill="#394246" transform="translate(241,109)"/>
<path d="M0 0 C9.9 0 19.8 0 30 0 C29.34 0.66 28.68 1.32 28 2 C28.66 2.33 29.32 2.66 30 3 C30 3.66 30 4.32 30 5 C21.09 4.67 12.18 4.34 3 4 C3 4.66 3 5.32 3 6 C2.01 6 1.02 6 0 6 C0 4.02 0 2.04 0 0 Z " fill="#1B6989" transform="translate(93,223)"/>
<path d="M0 0 C7.92 0 15.84 0 24 0 C24 1.65 24 3.3 24 5 C20.20839703 5.05786668 16.41690689 5.09355054 12.625 5.125 C11.00464844 5.15013672 11.00464844 5.15013672 9.3515625 5.17578125 C8.3203125 5.18222656 7.2890625 5.18867188 6.2265625 5.1953125 C4.79691162 5.21102295 4.79691162 5.21102295 3.33837891 5.22705078 C1 5 1 5 -1 3 C-0.67 2.01 -0.34 1.02 0 0 Z " fill="#E68D01" transform="translate(252,211)"/>
<path d="M0 0 C7.86046512 0.90697674 7.86046512 0.90697674 11 3 C13.32749345 6.49124017 13.50299316 7.89222251 13 12 C11.375 14.375 11.375 14.375 9 16 C4.89222251 16.50299316 3.49124017 16.32749345 0 14 C0 13.34 0 12.68 0 12 C-0.99 11.67 -1.98 11.34 -3 11 C-3.33 8.69 -3.66 6.38 -4 4 C-3.34 3.67 -2.68 3.34 -2 3 C-1.67 5.31 -1.34 7.62 -1 10 C1.34533951 10.76956136 1.34533951 10.76956136 4 11 C6 10 6 10 7 8 C6.76956136 5.34533951 6.76956136 5.34533951 6 3 C3.69 2.67 1.38 2.34 -1 2 C-0.67 1.34 -0.34 0.68 0 0 Z " fill="#645336" transform="translate(285,204)"/>
<path d="M0 0 C3.00024947 -0.05444001 5.99949039 -0.0938836 9 -0.125 C9.83917969 -0.14175781 10.67835938 -0.15851563 11.54296875 -0.17578125 C17.94433802 -0.22540427 24.41749452 -0.19512966 29.5 4.125 C29.995 4.74375 30.49 5.3625 31 6 C30.67 6.66 30.34 7.32 30 8 C29.34 7.67 28.68 7.34 28 7 C28 6.01 28 5.02 28 4 C27.34 4 26.68 4 26 4 C26.33 5.65 26.66 7.3 27 9 C26.01 8.34 25.02 7.68 24 7 C21.24582682 6.69933846 18.57354853 6.49074701 15.8125 6.375 C15.06291016 6.33632812 14.31332031 6.29765625 13.54101562 6.2578125 C11.69440801 6.16371784 9.8472381 6.08077681 8 6 C8 5.34 8 4.68 8 4 C5.4345406 1.4345406 3.52313332 1.45953913 0 1 C0 0.67 0 0.34 0 0 Z " fill="#D68A16" transform="translate(200,175)"/>
<path d="M0 0 C0.99 0 1.98 0 3 0 C3.23074219 0.78503906 3.46148437 1.57007812 3.69921875 2.37890625 C5.8580794 9.52784958 5.8580794 9.52784958 9.75 15.8125 C12.94751014 20.34230603 12.38343536 23.53505838 11.5625 28.8125 C11 31 11 31 10 33 C10 34.32 10 35.64 10 37 C8.02 37.495 8.02 37.495 6 38 C6.2165625 36.0509375 6.2165625 36.0509375 6.4375 34.0625 C6.52 33.23492187 6.6025 32.40734375 6.6875 31.5546875 C7 29 7 29 7.5 26.8203125 C8.82044472 20.38314449 6.60834307 16.51215994 3.50390625 10.88671875 C1.62107228 7.27265562 0.7658784 3.98256768 0 0 Z " fill="#116186" transform="translate(200,107)"/>
<path d="M0 0 C3.10949885 1.04783988 3.99389809 1.99008952 5.74609375 4.8359375 C6.30425781 6.00382813 6.86242188 7.17171875 7.4375 8.375 C7.735354 8.99552246 8.03320801 9.61604492 8.34008789 10.25537109 C16 26.38907382 16 26.38907382 16 32 C13 31 13 31 11.46606445 28.1484375 C10.92057711 26.89545277 10.38707828 25.63720595 9.86328125 24.375 C9.57897751 23.71290527 9.29467377 23.05081055 9.00175476 22.36865234 C8.09515268 20.24994455 7.20396375 18.1251152 6.3125 16 C5.70082076 14.56730195 5.08820191 13.13500467 4.47460938 11.703125 C0 1.2103086 0 1.2103086 0 0 Z " fill="#3F4344" transform="translate(40,178)"/>
<path d="M0 0 C0.33 0.66 0.66 1.32 1 2 C2.32 2 3.64 2 5 2 C5 8.93 5 15.86 5 23 C3.68 22.67 2.36 22.34 1 22 C-0.20029908 19.59940183 -0.11459743 18.10639351 -0.09765625 15.4296875 C-0.09443359 14.53378906 -0.09121094 13.63789063 -0.08789062 12.71484375 C-0.07951172 11.77769531 -0.07113281 10.84054688 -0.0625 9.875 C-0.05798828 8.93011719 -0.05347656 7.98523438 -0.04882812 7.01171875 C-0.03702357 4.67441613 -0.02055759 2.33723939 0 0 Z " fill="#333B3E" transform="translate(101,188)"/>
<path d="M0 0 C3 1 3 1 4 3 C4.804375 3.144375 5.60875 3.28875 6.4375 3.4375 C9 4 9 4 11 7 C10.8125 9.5625 10.8125 9.5625 10 12 C7 14 7 14 4.4375 13.9375 C2 13 2 13 0.75 10.875 C-0.10895701 7.58233146 -0.674267 4.38762319 -1 1 C-0.67 0.67 -0.34 0.34 0 0 Z " fill="#F1F1EA" transform="translate(282,202)"/>
<path d="M0 0 C0.99 0 1.98 0 3 0 C3 11.22 3 22.44 3 34 C2.34 34 1.68 34 1 34 C-0.15792475 30.3298994 -0.11388663 26.87724396 -0.09765625 23.046875 C-0.0962413 22.38665344 -0.09482635 21.72643188 -0.09336853 21.04620361 C-0.08779245 18.94742206 -0.07524447 16.84874905 -0.0625 14.75 C-0.0574819 13.32291821 -0.05291954 11.89583475 -0.04882812 10.46875 C-0.03783088 6.97913168 -0.0205828 3.48957644 0 0 Z " fill="#E78D01" transform="translate(238,176)"/>
<path d="M0 0 C4.10520809 0.0517332 8.20828913 0.14677764 12.3125 0.25 C13.47974609 0.26417969 14.64699219 0.27835938 15.84960938 0.29296875 C16.96787109 0.32519531 18.08613281 0.35742188 19.23828125 0.390625 C20.7857605 0.4220459 20.7857605 0.4220459 22.36450195 0.45410156 C25 1 25 1 26.86010742 3.03808594 C27.23627197 3.68551758 27.61243652 4.33294922 28 5 C24.62516587 5.08767555 21.25062785 5.14061628 17.875 5.1875 C16.44800781 5.22520508 16.44800781 5.22520508 14.9921875 5.26367188 C9.57694858 5.32008061 5.64312694 5.14362529 1 2 C0.67 1.34 0.34 0.68 0 0 Z " fill="#3A3523" transform="translate(193,215)"/>
<path d="M0 0 C3.81684226 1.55500981 6.19195732 4.03595495 9 7 C8.67 7.99 8.34 8.98 8 10 C5.3828125 10.94921875 5.3828125 10.94921875 2.125 11.6875 C0.52011719 12.06455078 0.52011719 12.06455078 -1.1171875 12.44921875 C-4 13 -4 13 -7 13 C-8.6875 11 -8.6875 11 -10 9 C-5.67435795 7.41744803 -1.571279 6.54855348 3 6 C2.67 5.01 2.34 4.02 2 3 C1.34 2.67 0.68 2.34 0 2 C0 1.34 0 0.68 0 0 Z " fill="#3A3D3D" transform="translate(284,161)"/>
<path d="M0 0 C0.80179688 0.3196875 1.60359375 0.639375 2.4296875 0.96875 C7.46062779 2.42188811 12.33603825 2.42340493 17.54296875 2.56640625 C24.78405016 2.84444443 24.78405016 2.84444443 28 5 C28 5.66 28 6.32 28 7 C9.37745287 7.57137361 9.37745287 7.57137361 3 4 C1 1.8125 1 1.8125 0 0 Z " fill="#423D33" transform="translate(145,195)"/>
<path d="M0 0 C0.66 0 1.32 0 2 0 C2.21914062 0.52207031 2.43828125 1.04414063 2.6640625 1.58203125 C8.05859372 15.65893134 8.05859372 15.65893134 18 26 C18 26.66 18 27.32 18 28 C14.59578987 26.49309047 12.04259991 24.51286953 9.25 22.0625 C8.05117187 21.02802734 8.05117187 21.02802734 6.828125 19.97265625 C5 18 5 18 5 15 C3.50622729 12.16399675 1.86380834 9.43968057 0.21484375 6.69140625 C-1 4 -1 4 -0.68359375 1.65234375 C-0.45800781 1.10707031 -0.23242188 0.56179687 0 0 Z " fill="#3D4143" transform="translate(223,144)"/>
<path d="M0 0 C3.39512835 1.04407708 4.09274701 2.1592911 5.921875 5.30078125 C6.54440954 6.63194553 7.15340089 7.96951188 7.75 9.3125 C8.06582031 9.97701172 8.38164062 10.64152344 8.70703125 11.32617188 C10.38966616 15.00830152 11.40842047 17.93935805 11 22 C10.01 22 9.02 22 8 22 C6.65461856 19.27620319 5.32358465 16.54686492 4 13.8125 C3.6184375 13.04357422 3.236875 12.27464844 2.84375 11.48242188 C-0.56355932 4.39400159 -0.56355932 4.39400159 0 0 Z " fill="#0A6186" transform="translate(251,127)"/>
<path d="M0 0 C1.1446875 0.680625 1.1446875 0.680625 2.3125 1.375 C5.26944559 2.88478163 7.97123492 3.36137913 11.25 3.8125 C17.4139708 4.78486851 21.91803194 7.49443418 27 11 C26.67 11.99 26.34 12.98 26 14 C25.48953125 13.75765625 24.9790625 13.5153125 24.453125 13.265625 C18.94668017 10.72719299 13.40745516 8.77511247 7.6015625 7.02734375 C4.98796483 5.99524737 3.82757986 5.06864101 2 3 C1.34 2.67 0.68 2.34 0 2 C0 1.34 0 0.68 0 0 Z " fill="#095A7A" transform="translate(207,92)"/>
<path d="M0 0 C13.86 0.495 13.86 0.495 28 1 C28 1.99 28 2.98 28 4 C24.27098186 4.08736736 20.54222835 4.14051482 16.8125 4.1875 C15.22985352 4.22520508 15.22985352 4.22520508 13.61523438 4.26367188 C12.08286133 4.27817383 12.08286133 4.27817383 10.51953125 4.29296875 C9.58214111 4.3086792 8.64475098 4.32438965 7.67895508 4.34057617 C4.48981092 3.93513955 2.59541444 2.85974809 0 1 C0 0.67 0 0.34 0 0 Z " fill="#414141" transform="translate(98,215)"/>
<path d="M0 0 C2.09465265 3.14197898 2.23889107 3.7844841 2.16015625 7.34375 C2.14919922 8.17777344 2.13824219 9.01179687 2.12695312 9.87109375 C2.09504883 11.17240234 2.09504883 11.17240234 2.0625 12.5 C2.02802455 14.21866515 1.99789403 15.93742439 1.97265625 17.65625 C1.95468994 18.41744141 1.93672363 19.17863281 1.91821289 19.96289062 C1.91369155 22.20426725 1.91369155 22.20426725 3 25 C3.99 25.33 4.98 25.66 6 26 C6 26.99 6 27.98 6 29 C7.65 29 9.3 29 11 29 C9 31 9 31 0 32 C0 21.44 0 10.88 0 0 Z " fill="#F3F3F1" transform="translate(139,191)"/>
<path d="M0 0 C2.32976763 1.8232964 2.99973834 2.99914028 3.875 5.875 C4.02260131 9.56503279 3.15456896 11.06978621 1 14 C-1.375 13.6875 -1.375 13.6875 -4 13 C-4.66 12.01 -5.32 11.02 -6 10 C-5.38125 9.835 -4.7625 9.67 -4.125 9.5 C-0.72243051 7.09818625 -0.77387974 3.99837866 0 0 Z " fill="#393E40" transform="translate(220,150)"/>
<path d="M0 0 C4.13730972 5.07760738 5.27509932 9.07532482 4.9765625 15.61328125 C4.925 16.86044922 4.8734375 18.10761719 4.8203125 19.39257812 C4.75585938 20.68615234 4.69140625 21.97972656 4.625 23.3125 C4.56828125 24.62541016 4.5115625 25.93832031 4.453125 27.29101562 C4.31187857 30.52791303 4.16048335 33.76400866 4 37 C3.67 37 3.34 37 3 37 C2.98018066 36.34926514 2.96036133 35.69853027 2.93994141 35.02807617 C2.84470701 32.08080849 2.73502182 29.13425115 2.625 26.1875 C2.5940625 25.16333984 2.563125 24.13917969 2.53125 23.08398438 C2.49257813 22.10107422 2.45390625 21.11816406 2.4140625 20.10546875 C2.3826416 19.19949951 2.3512207 18.29353027 2.31884766 17.36010742 C2.13972081 14.73474608 2.13972081 14.73474608 0 12 C-0.1953125 9.08203125 -0.1953125 9.08203125 -0.125 5.8125 C-0.10695312 4.72582031 -0.08890625 3.63914063 -0.0703125 2.51953125 C-0.04710937 1.68808594 -0.02390625 0.85664063 0 0 Z " fill="#4A4D4F" transform="translate(33,183)"/>
<path d="M0 0 C0.99 0.495 0.99 0.495 2 1 C2 8.26 2 15.52 2 23 C5.3 23 8.6 23 12 23 C11.34 24.32 10.68 25.64 10 27 C7.25 27.3125 7.25 27.3125 4 27 C1.32320598 24.78208495 0.12847884 23.00144312 -0.31738281 19.52612305 C-0.3939701 16.57010911 -0.34832067 13.64279259 -0.25 10.6875 C-0.23195313 9.66076172 -0.21390625 8.63402344 -0.1953125 7.57617188 C-0.14831063 5.04982115 -0.08262272 2.52539531 0 0 Z " fill="#15607E" transform="translate(93,188)"/>
<path d="M0 0 C0.66 0 1.32 0 2 0 C-0.09374251 8.11963558 -0.09374251 8.11963558 -3.1875 11.125 C-7.25665531 12.39095943 -9.83464419 11.9559833 -14 11 C-14.66 10.01 -15.32 9.02 -16 8 C-13.66666667 8 -11.33333333 8 -9 8 C-8.67 8.99 -8.34 9.98 -8 11 C-8 10.01 -8 9.02 -8 8 C-7.34 7.67 -6.68 7.34 -6 7 C-6 6.01 -6 5.02 -6 4 C-4.35 4 -2.7 4 -1 4 C-0.67 2.68 -0.34 1.36 0 0 Z " fill="#045E82" transform="translate(63,205)"/>
<path d="M0 0 C0.5662207 0.15847412 1.13244141 0.31694824 1.71582031 0.48022461 C4.0345345 1.00785848 6.17358397 1.204156 8.546875 1.31640625 C9.39121094 1.35830078 10.23554688 1.40019531 11.10546875 1.44335938 C12.41451172 1.50233398 12.41451172 1.50233398 13.75 1.5625 C14.63816406 1.60568359 15.52632812 1.64886719 16.44140625 1.69335938 C18.62745963 1.79913615 20.81362089 1.90122546 23 2 C23 2.33 23 2.66 23 3 C17.72 3 12.44 3 7 3 C7 3.66 7 4.32 7 5 C4.75 6.125 4.75 6.125 2 7 C-0.3125 6.125 -0.3125 6.125 -2 5 C-1.34 3.35 -0.68 1.7 0 0 Z " fill="#CF8A1D" transform="translate(149,191)"/>
<path d="M0 0 C1.423125 0.495 1.423125 0.495 2.875 1 C5.77062452 2.10159191 5.77062452 2.10159191 8 2 C7.67 1.34 7.34 0.68 7 0 C10.12857014 1.3881735 12.28189174 3.01101878 14.6875 5.4375 C15.28949219 6.03433594 15.89148438 6.63117188 16.51171875 7.24609375 C18 9 18 9 19 12 C14.21365794 10.35469492 10.21209529 7.74237783 6 5 C5.39027344 4.61070312 4.78054688 4.22140625 4.15234375 3.8203125 C2.74802781 2.91066104 1.3707317 1.95951219 0 1 C0 0.67 0 0.34 0 0 Z " fill="#33444B" transform="translate(278,179)"/>
<path d="M0 0 C7.52318764 -0.60670868 12.65048631 0.84258032 19 5 C19.33 5.66 19.66 6.32 20 7 C17.03800887 6.41059368 14.081288 5.80432792 11.125 5.1875 C9.86236328 4.9390332 9.86236328 4.9390332 8.57421875 4.68554688 C7.76855469 4.51474609 6.96289062 4.34394531 6.1328125 4.16796875 C5.38918457 4.01610107 4.64555664 3.8642334 3.87939453 3.70776367 C2 3 2 3 0 0 Z " fill="#3C4044" transform="translate(210,99)"/>
<path d="M0 0 C0.99 0 1.98 0 3 0 C3.33 0.99 3.66 1.98 4 3 C4.33 3.33 4.66 3.66 5 4 C5.99 4 6.98 4 8 4 C7.67 3.01 7.34 2.02 7 1 C7.99 0.67 8.98 0.34 10 0 C12 3 12 3 12 6 C8.91190305 7.76462683 7.76687864 8 4 8 C4 7.34 4 6.68 4 6 C3.01 5.67 2.02 5.34 1 5 C0.67 3.35 0.34 1.7 0 0 Z " fill="#D6890E" transform="translate(188,208)"/>
<path d="M0 0 C8.05811138 0.92978208 8.05811138 0.92978208 11 3 C12.25 5.125 12.25 5.125 13 7 C12.34 7 11.68 7 11 7 C11.33 7.99 11.66 8.98 12 10 C10.68 10 9.36 10 8 10 C8 10.66 8 11.32 8 12 C6.68 11.67 5.36 11.34 4 11 C4.515625 10.608125 5.03125 10.21625 5.5625 9.8125 C6.2740625 8.9153125 6.2740625 8.9153125 7 8 C6.76956136 5.34533951 6.76956136 5.34533951 6 3 C3.69 2.67 1.38 2.34 -1 2 C-0.67 1.34 -0.34 0.68 0 0 Z " fill="#81602B" transform="translate(285,204)"/>
<path d="M0 0 C0.66 0 1.32 0 2 0 C2.33 0.99 2.66 1.98 3 3 C3.66 3.33 4.32 3.66 5 4 C5 3.34 5 2.68 5 2 C8.36652717 2.60116557 10.45627333 3.71064599 13 6 C14.25 8.1875 14.25 8.1875 15 10 C3.28571429 6.28571429 3.28571429 6.28571429 0 3 C0 2.01 0 1.02 0 0 Z " fill="#0D5C7D" transform="translate(273,173)"/>
<path d="M0 0 C3.57769851 1.5224249 6.45368965 3.02930459 9 6 C6.59454362 7.20272819 5.05003047 7.10071472 2.375 7.0625 C1.14910156 7.04896484 1.14910156 7.04896484 -0.1015625 7.03515625 C-1.04128906 7.01775391 -1.04128906 7.01775391 -2 7 C-2 5.02 -2 3.04 -2 1 C-1.34 0.67 -0.68 0.34 0 0 Z " fill="#F8F9F8" transform="translate(274,159)"/>
<path d="M0 0 C6.875 0.875 6.875 0.875 8 2 C9.70563778 2.15740605 11.41727244 2.25093392 13.12890625 2.31640625 C14.68061523 2.37924805 14.68061523 2.37924805 16.26367188 2.44335938 C17.35228516 2.48267578 18.44089844 2.52199219 19.5625 2.5625 C20.65498047 2.60568359 21.74746094 2.64886719 22.87304688 2.69335938 C25.58189564 2.79982068 28.29083992 2.90183516 31 3 C31 3.33 31 3.66 31 4 C27.50149949 4.25769399 24.00156618 4.47589136 20.5 4.6875 C19.02660156 4.79674805 19.02660156 4.79674805 17.5234375 4.90820312 C11.19043086 5.2670735 6.72621329 4.81628013 1 2 C0.67 1.34 0.34 0.68 0 0 Z " fill="#434445" transform="translate(243,215)"/>
<path d="M0 0 C0.99 0.66 1.98 1.32 3 2 C2.38487182 7.00890086 1.7282448 12.00632136 1 17 C-0.91302307 13.73386305 -1.35674661 11.00554752 -1.625 7.25 C-1.69976562 6.26515625 -1.77453125 5.2803125 -1.8515625 4.265625 C-1.90054688 3.51796875 -1.94953125 2.7703125 -2 2 C-1.34 2 -0.68 2 0 2 C0 1.34 0 0.68 0 0 Z " fill="#E8E9EA" transform="translate(215,140)"/>
<path d="M0 0 C0.66 0 1.32 0 2 0 C2.33 1.32 2.66 2.64 3 4 C2.34 4 1.68 4 1 4 C1.33 4.99 1.66 5.98 2 7 C1.67 7.66 1.34 8.32 1 9 C-0.65 8.67 -2.3 8.34 -4 8 C-4 5.69 -4 3.38 -4 1 C-3.01 1.33 -2.02 1.66 -1 2 C-0.67 1.34 -0.34 0.68 0 0 Z " fill="#E88C03" transform="translate(147,186)"/>
<path d="M0 0 C2.28085043 0.91234017 3.70988267 1.58094164 5.125 3.625 C6.33160835 6.9000798 6.18941155 9.77177622 6.125 13.25 C6.10695312 14.51328125 6.08890625 15.7765625 6.0703125 17.078125 C6.04710937 18.04234375 6.02390625 19.0065625 6 20 C5.67 20 5.34 20 5 20 C4.67 16.37 4.34 12.74 4 9 C3.34 10.32 2.68 11.64 2 13 C1.93941406 12.31292969 1.87882813 11.62585938 1.81640625 10.91796875 C1.73261719 10.01691406 1.64882812 9.11585938 1.5625 8.1875 C1.48128906 7.29417969 1.40007812 6.40085938 1.31640625 5.48046875 C1.06510233 2.87256441 1.06510233 2.87256441 0 0 Z " fill="#424344" transform="translate(230,180)"/>
<path d="M0 0 C4.29 0 8.58 0 13 0 C12.67 1.32 12.34 2.64 12 4 C8.04 4 4.08 4 0 4 C0 2.66666667 0 1.33333333 0 0 Z " fill="#016088" transform="translate(108,212)"/>
<path d="M0 0 C0.66 0.33 1.32 0.66 2 1 C2 4.63 2 8.26 2 12 C0.68 11.34 -0.64 10.68 -2 10 C-2.1953125 3.9453125 -2.1953125 3.9453125 -2 2 C-1.34 1.34 -0.68 0.68 0 0 Z " fill="#413C3A" transform="translate(153,181)"/>
<path d="M0 0 C-2.35277269 2.72426311 -4.62496331 3.8141763 -8 5 C-9.32 3.35 -10.64 1.7 -12 0 C-7.22144261 -2.04795317 -4.77855739 -2.04795317 0 0 Z " fill="#3D4145" transform="translate(286,170)"/>
<path d="M0 0 C3.3063908 0.55106513 6.19982126 1.09987871 9 3 C9.9375 4.9375 9.9375 4.9375 10 7 C8.5625 8.75 8.5625 8.75 7 10 C6.896875 9.360625 6.79375 8.72125 6.6875 8.0625 C6.3471875 7.0415625 6.3471875 7.0415625 6 6 C5.01 5.67 4.02 5.34 3 5 C1.3125 2.4375 1.3125 2.4375 0 0 Z " fill="#314E5A" transform="translate(212,106)"/>
<path d="M0 0 C1.17539996 0.92652701 2.34010577 1.86663387 3.5 2.8125 C4.1496875 3.33457031 4.799375 3.85664063 5.46875 4.39453125 C7 6 7 6 7 9 C5.02 9.33 3.04 9.66 1 10 C1 9.34 1 8.68 1 8 C0.34 7.67 -0.32 7.34 -1 7 C-0.67 4.69 -0.34 2.38 0 0 Z " fill="#F8F8F6" transform="translate(281,213)"/>
<path d="M0 0 C0.33 1.32 0.66 2.64 1 4 C1.66 4 2.32 4 3 4 C3.33 3.01 3.66 2.02 4 1 C4.66 2.32 5.32 3.64 6 5 C6.66 4.67 7.32 4.34 8 4 C8 4.66 8 5.32 8 6 C8.66 6 9.32 6 10 6 C10 6.66 10 7.32 10 8 C7.25 8.75 7.25 8.75 4 9 C1.625 7.375 1.625 7.375 0 5 C-0.25 2.25 -0.25 2.25 0 0 Z " fill="#DB8907" transform="translate(238,206)"/>
<path d="M0 0 C5.20540698 0.96396425 9.59913433 1.87680501 14 5 C13.67 5.99 13.34 6.98 13 8 C11.58280758 7.37619308 10.1662694 6.7508997 8.75 6.125 C7.96109375 5.77695313 7.1721875 5.42890625 6.359375 5.0703125 C4.21131392 4.09586095 2.10170798 3.07013571 0 2 C0 1.34 0 0.68 0 0 Z " fill="#055E86" transform="translate(220,98)"/>
<path d="M0 0 C1.93719378 -0.05406122 3.87481921 -0.09282025 5.8125 -0.125 C6.89144531 -0.14820313 7.97039062 -0.17140625 9.08203125 -0.1953125 C12 0 12 0 15 2 C15 2.66 15 3.32 15 4 C13.25138208 4.10853491 11.50080759 4.18583428 9.75 4.25 C8.77546875 4.29640625 7.8009375 4.3428125 6.796875 4.390625 C3.30425452 3.90282884 2.20480842 2.66676828 0 0 Z " fill="#444342" transform="translate(224,222)"/>
<path d="M0 0 C2.02054804 1.64169528 4.02043058 3.30911778 6 5 C6 5.33 6 5.66 6 6 C4.37581255 6.08090971 2.75048255 6.13914995 1.125 6.1875 C0.22007812 6.22230469 -0.68484375 6.25710937 -1.6171875 6.29296875 C-2.79667969 6.14794922 -2.79667969 6.14794922 -4 6 C-4.66 5.01 -5.32 4.02 -6 3 C-4.02 2.67 -2.04 2.34 0 2 C0 1.34 0 0.68 0 0 Z " fill="#DB8805" transform="translate(227,216)"/>
<path d="M0 0 C0.99 0 1.98 0 3 0 C4.98 4.29 6.96 8.58 9 13 C5 12 5 12 3.515625 9.78515625 C3.09796875 8.88667969 2.6803125 7.98820313 2.25 7.0625 C1.82203125 6.16660156 1.3940625 5.27070313 0.953125 4.34765625 C0 2 0 2 0 0 Z " fill="#343C3F" transform="translate(259,138)"/>
<path d="M0 0 C0.45375 0.66 0.9075 1.32 1.375 2 C1.91125 2.66 2.4475 3.32 3 4 C3.66 4 4.32 4 5 4 C6.33333333 4 7.66666667 4 9 4 C8.67 5.32 8.34 6.64 8 8 C5.6875 8.625 5.6875 8.625 3 9 C0 7 0 7 -0.75 5.0625 C-1 3 -1 3 0 0 Z " fill="#F6F7F6" transform="translate(283,207)"/>
<path d="M0 0 C3.79844086 1.74226007 5.29559476 3.07986796 7 7 C7.23738786 9.72238421 7.13944193 12.257642 7 15 C4.99615009 11.99422513 3.73880258 9.15022736 2.375 5.8125 C1.92898437 4.72582031 1.48296875 3.63914063 1.0234375 2.51953125 C0.68570313 1.68808594 0.34796875 0.85664063 0 0 Z " fill="#333A3C" transform="translate(40,178)"/>
<path d="M0 0 C2.97 0.33 5.94 0.66 9 1 C7.68 1.33 6.36 1.66 5 2 C5 3.32 5 4.64 5 6 C3.35 6.66 1.7 7.32 0 8 C0 5.36 0 2.72 0 0 Z " fill="#DF9013" transform="translate(241,176)"/>
<path d="M0 0 C0.66 0 1.32 0 2 0 C3.28006797 1.78398614 4.47660351 3.62853906 5.625 5.5 C6.57246094 7.03140625 6.57246094 7.03140625 7.5390625 8.59375 C8.02117187 9.3878125 8.50328125 10.181875 9 11 C8.01 11.33 7.02 11.66 6 12 C4.98829382 10.75945552 3.99102203 9.5071298 3 8.25 C2.443125 7.55390625 1.88625 6.8578125 1.3125 6.140625 C0 4 0 4 0 0 Z " fill="#075D81" transform="translate(193,95)"/>
<path d="M0 0 C0.33 0.99 0.66 1.98 1 3 C-0.89557134 5.52742845 -1.80589378 5.97169284 -5 6.4375 C-8 6 -8 6 -9.875 4 C-10.24625 3.34 -10.6175 2.68 -11 2 C-9.39125 2.061875 -9.39125 2.061875 -7.75 2.125 C-4.34252515 2.0114175 -2.79260369 1.78726636 0 0 Z " fill="#353C3F" transform="translate(61,214)"/>
<path d="M0 0 C0.66 0.33 1.32 0.66 2 1 C1.7525 1.7425 1.505 2.485 1.25 3.25 C1.1675 4.1575 1.085 5.065 1 6 C2.87508162 8.2085766 2.87508162 8.2085766 5 10 C5 10.66 5 11.32 5 12 C2.03 12 -0.94 12 -4 12 C-4 11.67 -4 11.34 -4 11 C-2.02 10.67 -0.04 10.34 2 10 C0.02 7.69 -1.96 5.38 -4 3 C-2.68 2.01 -1.36 1.02 0 0 Z " fill="#453524" transform="translate(230,211)"/>
<path d="M0 0 C-0.33 1.98 -0.66 3.96 -1 6 C-2.98 6.33 -4.96 6.66 -7 7 C-7.33 6.01 -7.66 5.02 -8 4 C-4.5 0 -4.5 0 0 0 Z " fill="#373B3D" transform="translate(138,222)"/>
<path d="M0 0 C1.32 0 2.64 0 4 0 C4 1.98 4 3.96 4 6 C1.69 6 -0.62 6 -3 6 C-3 5.01 -3 4.02 -3 3 C-2.01 3 -1.02 3 0 3 C0 2.01 0 1.02 0 0 Z " fill="#403F3F" transform="translate(182,178)"/>
<path d="M0 0 C0.99 0.33 1.98 0.66 3 1 C2.67 4.3 2.34 7.6 2 11 C0.68 11.33 -0.64 11.66 -2 12 C-1.85831863 10.56208484 -1.71148957 9.1246763 -1.5625 7.6875 C-1.48128906 6.88699219 -1.40007812 6.08648437 -1.31640625 5.26171875 C-1 3 -1 3 0 0 Z " fill="#36738D" transform="translate(208,133)"/>
<path d="M0 0 C7.59 0.33 15.18 0.66 23 1 C23 1.33 23 1.66 23 2 C15.41 2.33 7.82 2.66 0 3 C0 2.01 0 1.02 0 0 Z " fill="#3F4144" transform="translate(145,217)"/>
<path d="M0 0 C0.33 0.66 0.66 1.32 1 2 C-1.12563103 1.88623383 -3.2505261 1.75864369 -5.375 1.625 C-6.55835938 1.55539063 -7.74171875 1.48578125 -8.9609375 1.4140625 C-12 1 -12 1 -14 -1 C-12.41870971 -1.22331199 -10.83478911 -1.42804644 -9.25 -1.625 C-8.36828125 -1.74101562 -7.4865625 -1.85703125 -6.578125 -1.9765625 C-3.73650633 -2.0023954 -2.35162451 -1.55715677 0 0 Z " fill="#434043" transform="translate(220,218)"/>
<path d="M0 0 C2.6875 0.0625 2.6875 0.0625 6 1 C7.54339842 2.70233918 8.7195517 4.45047076 9.921875 6.40625 C10.9219781 8.16526457 10.9219781 8.16526457 13 9 C13 9.66 13 10.32 13 11 C9.54691313 9.48729451 7.04375621 7.45279358 4.25 4.9375 C3.45078125 4.22464844 2.6515625 3.51179687 1.828125 2.77734375 C1.22484375 2.19082031 0.6215625 1.60429687 0 1 C0 0.67 0 0.34 0 0 Z " fill="#3D5058" transform="translate(228,161)"/>
<path d="M0 0 C5.64913063 1.65707832 10.26300637 3.47762012 15 7 C13 8 13 8 10.21484375 7.109375 C9.13332031 6.66078125 8.05179687 6.2121875 6.9375 5.75 C5.85339844 5.31171875 4.76929688 4.8734375 3.65234375 4.421875 C1 3 1 3 0 0 Z " fill="#394046" transform="translate(264,153)"/>
<path d="M0 0 C0.5775 0.165 1.155 0.33 1.75 0.5 C4.26664369 1.14462031 4.26664369 1.14462031 8 1 C10.25 3 10.25 3 12 5 C11.236875 4.814375 10.47375 4.62875 9.6875 4.4375 C6.91032625 3.77180827 6.91032625 3.77180827 4 5 C2.64567325 3.68799596 1.31266518 2.35368596 0 1 C0 0.67 0 0.34 0 0 Z " fill="#1A526A" transform="translate(229,104)"/>
<path d="M0 0 C1.65 0 3.3 0 5 0 C5 4 5 4 4 7 C3.67 6.01 3.34 5.02 3 4 C2.34 4 1.68 4 1 4 C0.67 4.99 0.34 5.98 0 7 C0 4.69 0 2.38 0 0 Z " fill="#E4A23A" transform="translate(285,207)"/>
<path d="M0 0 C3.625 -0.1875 3.625 -0.1875 7 0 C4.92989732 3.10515402 4.23688458 3.57196269 1 5 C-0.11375 5.556875 -0.11375 5.556875 -1.25 6.125 C-1.8275 6.41375 -2.405 6.7025 -3 7 C-2.38722388 4.03824877 -1.74627478 2.61941217 0 0 Z " fill="#2C718F" transform="translate(195,89)"/>
<path d="M0 0 C3.3 0 6.6 0 10 0 C8.02 0.99 8.02 0.99 6 2 C6.33 3.65 6.66 5.3 7 7 C5.83040013 6.02433888 4.66438823 5.044375 3.5 4.0625 C2.8503125 3.51722656 2.200625 2.97195312 1.53125 2.41015625 C1.0259375 1.94480469 0.520625 1.47945312 0 1 C0 0.67 0 0.34 0 0 Z " fill="#C68922" transform="translate(205,204)"/>
<path d="M0 0 C0.125 3.375 0.125 3.375 0 7 C-0.66 7.66 -1.32 8.32 -2 9 C-5 3.25 -5 3.25 -5 1 C-2 0 -2 0 0 0 Z " fill="#0F6284" transform="translate(48,203)"/>
<path d="M0 0 C0 0.99 0 1.98 0 3 C-0.66 3 -1.32 3 -2 3 C-2.12375 3.804375 -2.2475 4.60875 -2.375 5.4375 C-2.58125 6.283125 -2.7875 7.12875 -3 8 C-3.99 8.495 -3.99 8.495 -5 9 C-5.75 6.75 -5.75 6.75 -6 4 C-2.86486486 0 -2.86486486 0 0 0 Z " fill="#13678A" transform="translate(30,175)"/>
<path d="M0 0 C-3.83325617 2.70582788 -6.32538149 3.32613618 -11 3 C-11 2.01 -11 1.02 -11 0 C-3.57142857 -1.28571429 -3.57142857 -1.28571429 0 0 Z " fill="#206C8F" transform="translate(285,166)"/>
<path d="M0 0 C0.66 0 1.32 0 2 0 C2 0.66 2 1.32 2 2 C3.32 2.66 4.64 3.32 6 4 C5.67 4.99 5.34 5.98 5 7 C3.02 7 1.04 7 -1 7 C-0.34 6.01 0.32 5.02 1 4 C0.69159401 1.84725052 0.69159401 1.84725052 0 0 Z " fill="#055E84" transform="translate(282,161)"/>
<path d="M0 0 C2.97 1.98 2.97 1.98 6 4 C5.01 4.495 5.01 4.495 4 5 C4.33 5.99 4.66 6.98 5 8 C2.4636387 6.98545548 1.20648539 6.3146444 -0.3125 4 C-0.539375 3.34 -0.76625 2.68 -1 2 C-0.67 1.34 -0.34 0.68 0 0 Z " fill="#1E566F" transform="translate(278,156)"/>
<path d="M0 0 C0.99 0.495 0.99 0.495 2 1 C2.6328125 3.28515625 2.6328125 3.28515625 3.125 6.0625 C3.29257813 6.98160156 3.46015625 7.90070313 3.6328125 8.84765625 C3.75398437 9.55792969 3.87515625 10.26820313 4 11 C3.01 10.67 2.02 10.34 1 10 C-0.60725635 6.78548731 -0.05748185 3.56387464 0 0 Z " fill="#0B6286" transform="translate(207,143)"/>
<path d="M0 0 C0.33 1.32 0.66 2.64 1 4 C0.01 4.33 -0.98 4.66 -2 5 C-2.73323796 7.01508358 -2.73323796 7.01508358 -3 9 C-3.66 7.68 -4.32 6.36 -5 5 C-3.35 3.35 -1.7 1.7 0 0 Z " fill="#F4F5F7" transform="translate(222,136)"/>
<path d="M0 0 C0.99 0.33 1.98 0.66 3 1 C3 3.31 3 5.62 3 8 C2.01 8.33 1.02 8.66 0 9 C-1.53445094 5.93109813 -0.54984289 3.29905734 0 0 Z " fill="#1D688A" transform="translate(209,125)"/>
<path d="M0 0 C5.94 0.99 5.94 0.99 12 2 C11.01 2.99 10.02 3.98 9 5 C2.25 3.375 2.25 3.375 0 0 Z " fill="#45413D" transform="translate(193,215)"/>
<path d="M0 0 C0.99 0.495 0.99 0.495 2 1 C2.6328125 3.06640625 2.6328125 3.06640625 3.125 5.5625 C3.29257813 6.38878906 3.46015625 7.21507813 3.6328125 8.06640625 C3.75398437 8.70449219 3.87515625 9.34257813 4 10 C2.68 9.34 1.36 8.68 0 8 C0 5.36 0 2.72 0 0 Z " fill="#434345" transform="translate(207,112)"/>
<path d="M0 0 C0.66 0.66 1.32 1.32 2 2 C1.34 2.66 0.68 3.32 0 4 C0.32041397 6.60280568 0.32041397 6.60280568 1 9 C-1 7.75 -1 7.75 -3 6 C-3 4.68 -3 3.36 -3 2 C-2.01 1.34 -1.02 0.68 0 0 Z " fill="#3E4245" transform="translate(200,94)"/>
<path d="M0 0 C2.64 0 5.28 0 8 0 C5.6875 2.0625 5.6875 2.0625 3 4 C2.01 3.67 1.02 3.34 0 3 C0 2.01 0 1.02 0 0 Z " fill="#454747" transform="translate(176,215)"/>
<path d="M0 0 C1.98 1.65 3.96 3.3 6 5 C2.98968256 5.93423645 2.13349732 6.04449911 -1 5 C-0.67 3.35 -0.34 1.7 0 0 Z " fill="#F6F7F3" transform="translate(186,209)"/>
<path d="M0 0 C2.97 0.99 5.94 1.98 9 3 C9 3.99 9 4.98 9 6 C4.64464931 4.83857315 2.35380297 3.92300495 0 0 Z " fill="#564B3C" transform="translate(145,195)"/>
<path d="M0 0 C0.66 0 1.32 0 2 0 C2 0.66 2 1.32 2 2 C1.34 2 0.68 2 0 2 C0.33 2.99 0.66 3.98 1 5 C0.67 5.66 0.34 6.32 0 7 C-1.65 6.67 -3.3 6.34 -5 6 C-5 5.34 -5 4.68 -5 4 C-3.68 4.33 -2.36 4.66 -1 5 C-0.67 3.35 -0.34 1.7 0 0 Z " fill="#D88703" transform="translate(148,188)"/>
<path d="M0 0 C2.875 0.6875 2.875 0.6875 6 2 C7.375 4.625 7.375 4.625 8 7 C7.01 6.67 6.02 6.34 5 6 C5 5.01 5 4.02 5 3 C3.68 3.33 2.36 3.66 1 4 C0.67 2.68 0.34 1.36 0 0 Z " fill="#CA8312" transform="translate(223,176)"/>
<path d="M0 0 C2.475 0.99 2.475 0.99 5 2 C4.67 2.99 4.34 3.98 4 5 C2.68 4.67 1.36 4.34 0 4 C0 2.68 0 1.36 0 0 Z " fill="#035A81" transform="translate(236,107)"/>
<path d="M0 0 C1.32 0.33 2.64 0.66 4 1 C4.33 2.98 4.66 4.96 5 7 C4.01 6.67 3.02 6.34 2 6 C0.8125 2.9375 0.8125 2.9375 0 0 Z " fill="#333B41" transform="translate(51,203)"/>
<path d="M0 0 C-0.33 1.32 -0.66 2.64 -1 4 C-1.99 3.67 -2.98 3.34 -4 3 C-6.63804589 3.39397335 -6.63804589 3.39397335 -9 4 C-5.86025155 0.71753571 -4.76763047 0 0 0 Z " fill="#D38D18" transform="translate(199,176)"/>
<path d="M0 0 C1.8125 0.125 1.8125 0.125 4 1 C5.75 4.0625 5.75 4.0625 7 7 C5.1875 6.875 5.1875 6.875 3 6 C1.25 2.9375 1.25 2.9375 0 0 Z " fill="#08587C" transform="translate(208,153)"/>
<path d="M0 0 C2.89932357 2.39509338 3.50168276 4.31245243 4 8 C3.01 7.67 2.02 7.34 1 7 C0.67 4.69 0.34 2.38 0 0 Z " fill="#065A7D" transform="translate(206,119)"/>
<path d="M0 0 C3.36720387 1.39332574 4.9859524 2.9789286 7 6 C5.68 6.33 4.36 6.66 3 7 C2.87625 6.360625 2.7525 5.72125 2.625 5.0625 C2.315625 4.0415625 2.315625 4.0415625 2 3 C1.34 2.67 0.68 2.34 0 2 C0 1.34 0 0.68 0 0 Z " fill="#283C48" transform="translate(284,161)"/>
<path d="M0 0 C3.875 1.75 3.875 1.75 5 4 C4.01 4.33 3.02 4.66 2 5 C1.01 4.34 0.02 3.68 -1 3 C-0.67 2.01 -0.34 1.02 0 0 Z " fill="#F6F8F7" transform="translate(234,100)"/>
</svg>
